<?xml version="1.0" encoding="utf-8"?>
<svg xmlns="http://www.w3.org/2000/svg" xmlns:xlink="http://www.w3.org/1999/xlink" width="1200" height="600" viewBox="0 0 4800 2400">
<defs>
  <clipPath id="clip730">
    <rect x="0" y="0" width="4800" height="2400"/>
  </clipPath>
</defs>
<path clip-path="url(#clip730)" d="M0 2400 L4800 2400 L4800 0 L0 0  Z" fill="#ffffff" fill-rule="evenodd" fill-opacity="1"/>
<defs>
  <clipPath id="clip731">
    <rect x="960" y="0" width="3361" height="2400"/>
  </clipPath>
</defs>
<path clip-path="url(#clip730)" d="M350.46 2287.09 L4752.76 2287.09 L4752.76 47.2441 L350.46 47.2441  Z" fill="#ffffff" fill-rule="evenodd" fill-opacity="1"/>
<defs>
  <clipPath id="clip732">
    <rect x="350" y="47" width="4403" height="2241"/>
  </clipPath>
</defs>
<polyline clip-path="url(#clip732)" style="stroke:#000000; stroke-linecap:round; stroke-linejoin:round; stroke-width:2; stroke-opacity:0.1; fill:none" points="989.506,2287.09 989.506,47.2441 "/>
<polyline clip-path="url(#clip732)" style="stroke:#000000; stroke-linecap:round; stroke-linejoin:round; stroke-width:2; stroke-opacity:0.1; fill:none" points="2030.91,2287.09 2030.91,47.2441 "/>
<polyline clip-path="url(#clip732)" style="stroke:#000000; stroke-linecap:round; stroke-linejoin:round; stroke-width:2; stroke-opacity:0.1; fill:none" points="3072.31,2287.09 3072.31,47.2441 "/>
<polyline clip-path="url(#clip732)" style="stroke:#000000; stroke-linecap:round; stroke-linejoin:round; stroke-width:2; stroke-opacity:0.1; fill:none" points="4113.71,2287.09 4113.71,47.2441 "/>
<polyline clip-path="url(#clip730)" style="stroke:#000000; stroke-linecap:round; stroke-linejoin:round; stroke-width:4; stroke-opacity:1; fill:none" points="350.46,2287.09 4752.76,2287.09 "/>
<polyline clip-path="url(#clip730)" style="stroke:#000000; stroke-linecap:round; stroke-linejoin:round; stroke-width:4; stroke-opacity:1; fill:none" points="989.506,2287.09 989.506,2268.19 "/>
<polyline clip-path="url(#clip730)" style="stroke:#000000; stroke-linecap:round; stroke-linejoin:round; stroke-width:4; stroke-opacity:1; fill:none" points="2030.91,2287.09 2030.91,2268.19 "/>
<polyline clip-path="url(#clip730)" style="stroke:#000000; stroke-linecap:round; stroke-linejoin:round; stroke-width:4; stroke-opacity:1; fill:none" points="3072.31,2287.09 3072.31,2268.19 "/>
<polyline clip-path="url(#clip730)" style="stroke:#000000; stroke-linecap:round; stroke-linejoin:round; stroke-width:4; stroke-opacity:1; fill:none" points="4113.71,2287.09 4113.71,2268.19 "/>
<path clip-path="url(#clip730)" d="M989.506 2337.21 Q985.894 2337.21 984.066 2340.77 Q982.26 2344.31 982.26 2351.44 Q982.26 2358.55 984.066 2362.11 Q985.894 2365.66 989.506 2365.66 Q993.14 2365.66 994.945 2362.11 Q996.774 2358.55 996.774 2351.44 Q996.774 2344.31 994.945 2340.77 Q993.14 2337.21 989.506 2337.21 M989.506 2333.5 Q995.316 2333.5 998.371 2338.11 Q1001.45 2342.69 1001.45 2351.44 Q1001.45 2360.17 998.371 2364.78 Q995.316 2369.36 989.506 2369.36 Q983.695 2369.36 980.617 2364.78 Q977.561 2360.17 977.561 2351.44 Q977.561 2342.69 980.617 2338.11 Q983.695 2333.5 989.506 2333.5 Z" fill="#000000" fill-rule="nonzero" fill-opacity="1" /><path clip-path="url(#clip730)" d="M2021.29 2364.75 L2028.93 2364.75 L2028.93 2338.39 L2020.62 2340.05 L2020.62 2335.79 L2028.88 2334.13 L2033.56 2334.13 L2033.56 2364.75 L2041.2 2364.75 L2041.2 2368.69 L2021.29 2368.69 L2021.29 2364.75 Z" fill="#000000" fill-rule="nonzero" fill-opacity="1" /><path clip-path="url(#clip730)" d="M3066.96 2364.75 L3083.28 2364.75 L3083.28 2368.69 L3061.34 2368.69 L3061.34 2364.75 Q3064 2362 3068.58 2357.37 Q3073.19 2352.72 3074.37 2351.37 Q3076.61 2348.85 3077.49 2347.11 Q3078.4 2345.35 3078.4 2343.66 Q3078.4 2340.91 3076.45 2339.17 Q3074.53 2337.44 3071.43 2337.44 Q3069.23 2337.44 3066.78 2338.2 Q3064.35 2338.97 3061.57 2340.52 L3061.57 2335.79 Q3064.39 2334.66 3066.85 2334.08 Q3069.3 2333.5 3071.34 2333.5 Q3076.71 2333.5 3079.9 2336.19 Q3083.1 2338.87 3083.1 2343.36 Q3083.1 2345.49 3082.29 2347.41 Q3081.5 2349.31 3079.39 2351.91 Q3078.81 2352.58 3075.71 2355.79 Q3072.61 2358.99 3066.96 2364.75 Z" fill="#000000" fill-rule="nonzero" fill-opacity="1" /><path clip-path="url(#clip730)" d="M4117.96 2350.05 Q4121.31 2350.77 4123.19 2353.04 Q4125.09 2355.31 4125.09 2358.64 Q4125.09 2363.76 4121.57 2366.56 Q4118.05 2369.36 4111.57 2369.36 Q4109.39 2369.36 4107.08 2368.92 Q4104.79 2368.5 4102.33 2367.65 L4102.33 2363.13 Q4104.28 2364.27 4106.59 2364.85 Q4108.91 2365.42 4111.43 2365.42 Q4115.83 2365.42 4118.12 2363.69 Q4120.43 2361.95 4120.43 2358.64 Q4120.43 2355.59 4118.28 2353.87 Q4116.15 2352.14 4112.33 2352.14 L4108.31 2352.14 L4108.31 2348.29 L4112.52 2348.29 Q4115.97 2348.29 4117.8 2346.93 Q4119.62 2345.54 4119.62 2342.95 Q4119.62 2340.29 4117.73 2338.87 Q4115.85 2337.44 4112.33 2337.44 Q4110.41 2337.44 4108.21 2337.85 Q4106.01 2338.27 4103.37 2339.15 L4103.37 2334.98 Q4106.04 2334.24 4108.35 2333.87 Q4110.69 2333.5 4112.75 2333.5 Q4118.07 2333.5 4121.18 2335.93 Q4124.28 2338.34 4124.28 2342.46 Q4124.28 2345.33 4122.63 2347.32 Q4120.99 2349.29 4117.96 2350.05 Z" fill="#000000" fill-rule="nonzero" fill-opacity="1" /><polyline clip-path="url(#clip732)" style="stroke:#000000; stroke-linecap:round; stroke-linejoin:round; stroke-width:2; stroke-opacity:0.1; fill:none" points="350.46,2223.7 4752.76,2223.7 "/>
<polyline clip-path="url(#clip732)" style="stroke:#000000; stroke-linecap:round; stroke-linejoin:round; stroke-width:2; stroke-opacity:0.1; fill:none" points="350.46,1560.96 4752.76,1560.96 "/>
<polyline clip-path="url(#clip732)" style="stroke:#000000; stroke-linecap:round; stroke-linejoin:round; stroke-width:2; stroke-opacity:0.1; fill:none" points="350.46,898.233 4752.76,898.233 "/>
<polyline clip-path="url(#clip732)" style="stroke:#000000; stroke-linecap:round; stroke-linejoin:round; stroke-width:2; stroke-opacity:0.1; fill:none" points="350.46,235.501 4752.76,235.501 "/>
<polyline clip-path="url(#clip730)" style="stroke:#000000; stroke-linecap:round; stroke-linejoin:round; stroke-width:4; stroke-opacity:1; fill:none" points="350.46,2287.09 350.46,47.2441 "/>
<polyline clip-path="url(#clip730)" style="stroke:#000000; stroke-linecap:round; stroke-linejoin:round; stroke-width:4; stroke-opacity:1; fill:none" points="350.46,2223.7 369.358,2223.7 "/>
<polyline clip-path="url(#clip730)" style="stroke:#000000; stroke-linecap:round; stroke-linejoin:round; stroke-width:4; stroke-opacity:1; fill:none" points="350.46,1560.96 369.358,1560.96 "/>
<polyline clip-path="url(#clip730)" style="stroke:#000000; stroke-linecap:round; stroke-linejoin:round; stroke-width:4; stroke-opacity:1; fill:none" points="350.46,898.233 369.358,898.233 "/>
<polyline clip-path="url(#clip730)" style="stroke:#000000; stroke-linecap:round; stroke-linejoin:round; stroke-width:4; stroke-opacity:1; fill:none" points="350.46,235.501 369.358,235.501 "/>
<path clip-path="url(#clip730)" d="M266.516 2209.49 Q262.904 2209.49 261.076 2213.06 Q259.27 2216.6 259.27 2223.73 Q259.27 2230.84 261.076 2234.4 Q262.904 2237.94 266.516 2237.94 Q270.15 2237.94 271.955 2234.4 Q273.784 2230.84 273.784 2223.73 Q273.784 2216.6 271.955 2213.06 Q270.15 2209.49 266.516 2209.49 M266.516 2205.79 Q272.326 2205.79 275.381 2210.4 Q278.46 2214.98 278.46 2223.73 Q278.46 2232.46 275.381 2237.06 Q272.326 2241.65 266.516 2241.65 Q260.705 2241.65 257.627 2237.06 Q254.571 2232.46 254.571 2223.73 Q254.571 2214.98 257.627 2210.4 Q260.705 2205.79 266.516 2205.79 Z" fill="#000000" fill-rule="nonzero" fill-opacity="1" /><path clip-path="url(#clip730)" d="M61.751 1550.13 L80.1074 1550.13 L80.1074 1554.07 L66.0334 1554.07 L66.0334 1562.54 Q67.0519 1562.19 68.0704 1562.03 Q69.0889 1561.84 70.1074 1561.84 Q75.8944 1561.84 79.274 1565.02 Q82.6536 1568.19 82.6536 1573.6 Q82.6536 1579.18 79.1814 1582.28 Q75.7092 1585.36 69.3898 1585.36 Q67.2139 1585.36 64.9454 1584.99 Q62.7 1584.62 60.2926 1583.88 L60.2926 1579.18 Q62.376 1580.32 64.5982 1580.87 Q66.8204 1581.43 69.2972 1581.43 Q73.3018 1581.43 75.6398 1579.32 Q77.9777 1577.22 77.9777 1573.6 Q77.9777 1569.99 75.6398 1567.89 Q73.3018 1565.78 69.2972 1565.78 Q67.4222 1565.78 65.5472 1566.2 Q63.6954 1566.61 61.751 1567.49 L61.751 1550.13 Z" fill="#000000" fill-rule="nonzero" fill-opacity="1" /><path clip-path="url(#clip730)" d="M91.8666 1578.81 L96.7508 1578.81 L96.7508 1584.69 L91.8666 1584.69 L91.8666 1578.81 Z" fill="#000000" fill-rule="nonzero" fill-opacity="1" /><path clip-path="url(#clip730)" d="M116.936 1553.21 Q113.325 1553.21 111.496 1556.78 Q109.691 1560.32 109.691 1567.45 Q109.691 1574.55 111.496 1578.12 Q113.325 1581.66 116.936 1581.66 Q120.57 1581.66 122.376 1578.12 Q124.204 1574.55 124.204 1567.45 Q124.204 1560.32 122.376 1556.78 Q120.57 1553.21 116.936 1553.21 M116.936 1549.51 Q122.746 1549.51 125.802 1554.11 Q128.88 1558.7 128.88 1567.45 Q128.88 1576.17 125.802 1580.78 Q122.746 1585.36 116.936 1585.36 Q111.126 1585.36 108.047 1580.78 Q104.991 1576.17 104.991 1567.45 Q104.991 1558.7 108.047 1554.11 Q111.126 1549.51 116.936 1549.51 Z" fill="#000000" fill-rule="nonzero" fill-opacity="1" /><path clip-path="url(#clip730)" d="M147.098 1553.21 Q143.487 1553.21 141.658 1556.78 Q139.852 1560.32 139.852 1567.45 Q139.852 1574.55 141.658 1578.12 Q143.487 1581.66 147.098 1581.66 Q150.732 1581.66 152.538 1578.12 Q154.366 1574.55 154.366 1567.45 Q154.366 1560.32 152.538 1556.78 Q150.732 1553.21 147.098 1553.21 M147.098 1549.51 Q152.908 1549.51 155.963 1554.11 Q159.042 1558.7 159.042 1567.45 Q159.042 1576.17 155.963 1580.78 Q152.908 1585.36 147.098 1585.36 Q141.288 1585.36 138.209 1580.78 Q135.153 1576.17 135.153 1567.45 Q135.153 1558.7 138.209 1554.11 Q141.288 1549.51 147.098 1549.51 Z" fill="#000000" fill-rule="nonzero" fill-opacity="1" /><path clip-path="url(#clip730)" d="M195.431 1559.23 L184.852 1569.85 L195.431 1580.43 L192.676 1583.23 L182.051 1572.61 L171.426 1583.23 L168.695 1580.43 L179.25 1569.85 L168.695 1559.23 L171.426 1556.43 L182.051 1567.05 L192.676 1556.43 L195.431 1559.23 Z" fill="#000000" fill-rule="nonzero" fill-opacity="1" /><path clip-path="url(#clip730)" d="M207.792 1580.76 L215.431 1580.76 L215.431 1554.39 L207.121 1556.06 L207.121 1551.8 L215.384 1550.13 L220.06 1550.13 L220.06 1580.76 L227.699 1580.76 L227.699 1584.69 L207.792 1584.69 L207.792 1580.76 Z" fill="#000000" fill-rule="nonzero" fill-opacity="1" /><path clip-path="url(#clip730)" d="M247.143 1553.21 Q243.532 1553.21 241.704 1556.78 Q239.898 1560.32 239.898 1567.45 Q239.898 1574.55 241.704 1578.12 Q243.532 1581.66 247.143 1581.66 Q250.778 1581.66 252.583 1578.12 Q254.412 1574.55 254.412 1567.45 Q254.412 1560.32 252.583 1556.78 Q250.778 1553.21 247.143 1553.21 M247.143 1549.51 Q252.954 1549.51 256.009 1554.11 Q259.088 1558.7 259.088 1567.45 Q259.088 1576.17 256.009 1580.78 Q252.954 1585.36 247.143 1585.36 Q241.333 1585.36 238.255 1580.78 Q235.199 1576.17 235.199 1567.45 Q235.199 1558.7 238.255 1554.11 Q241.333 1549.51 247.143 1549.51 Z" fill="#000000" fill-rule="nonzero" fill-opacity="1" /><path clip-path="url(#clip730)" d="M260.893 1556.7 L260.893 1553.24 Q262.323 1553.92 263.79 1554.27 Q265.257 1554.63 266.667 1554.63 Q270.429 1554.63 272.404 1552.11 Q274.397 1549.57 274.68 1544.42 Q273.589 1546.03 271.915 1546.9 Q270.241 1547.76 268.21 1547.76 Q263.997 1547.76 261.533 1545.23 Q259.088 1542.67 259.088 1538.25 Q259.088 1533.92 261.646 1531.31 Q264.204 1528.69 268.454 1528.69 Q273.325 1528.69 275.883 1532.44 Q278.46 1536.16 278.46 1543.27 Q278.46 1549.91 275.3 1553.88 Q272.159 1557.83 266.837 1557.83 Q265.407 1557.83 263.94 1557.54 Q262.473 1557.26 260.893 1556.7 M268.454 1544.79 Q271.012 1544.79 272.498 1543.04 Q274.002 1541.3 274.002 1538.25 Q274.002 1535.22 272.498 1533.47 Q271.012 1531.7 268.454 1531.7 Q265.896 1531.7 264.392 1533.47 Q262.906 1535.22 262.906 1538.25 Q262.906 1541.3 264.392 1543.04 Q265.896 1544.79 268.454 1544.79 Z" fill="#000000" fill-rule="nonzero" fill-opacity="1" /><path clip-path="url(#clip730)" d="M39.6634 918.025 L47.3023 918.025 L47.3023 891.66 L38.9921 893.326 L38.9921 889.067 L47.256 887.4 L51.9319 887.4 L51.9319 918.025 L59.5707 918.025 L59.5707 921.96 L39.6634 921.96 L39.6634 918.025 Z" fill="#000000" fill-rule="nonzero" fill-opacity="1" /><path clip-path="url(#clip730)" d="M69.0151 916.081 L73.8993 916.081 L73.8993 921.96 L69.0151 921.96 L69.0151 916.081 Z" fill="#000000" fill-rule="nonzero" fill-opacity="1" /><path clip-path="url(#clip730)" d="M94.0844 890.479 Q90.4733 890.479 88.6446 894.044 Q86.8391 897.586 86.8391 904.715 Q86.8391 911.822 88.6446 915.386 Q90.4733 918.928 94.0844 918.928 Q97.7187 918.928 99.5242 915.386 Q101.353 911.822 101.353 904.715 Q101.353 897.586 99.5242 894.044 Q97.7187 890.479 94.0844 890.479 M94.0844 886.775 Q99.8946 886.775 102.95 891.382 Q106.029 895.965 106.029 904.715 Q106.029 913.442 102.95 918.048 Q99.8946 922.632 94.0844 922.632 Q88.2743 922.632 85.1956 918.048 Q82.14 913.442 82.14 904.715 Q82.14 895.965 85.1956 891.382 Q88.2743 886.775 94.0844 886.775 Z" fill="#000000" fill-rule="nonzero" fill-opacity="1" /><path clip-path="url(#clip730)" d="M124.246 890.479 Q120.635 890.479 118.807 894.044 Q117.001 897.586 117.001 904.715 Q117.001 911.822 118.807 915.386 Q120.635 918.928 124.246 918.928 Q127.881 918.928 129.686 915.386 Q131.515 911.822 131.515 904.715 Q131.515 897.586 129.686 894.044 Q127.881 890.479 124.246 890.479 M124.246 886.775 Q130.056 886.775 133.112 891.382 Q136.191 895.965 136.191 904.715 Q136.191 913.442 133.112 918.048 Q130.056 922.632 124.246 922.632 Q118.436 922.632 115.357 918.048 Q112.302 913.442 112.302 904.715 Q112.302 895.965 115.357 891.382 Q118.436 886.775 124.246 886.775 Z" fill="#000000" fill-rule="nonzero" fill-opacity="1" /><path clip-path="url(#clip730)" d="M172.579 896.498 L162.001 907.123 L172.579 917.701 L169.825 920.502 L159.2 909.877 L148.575 920.502 L145.843 917.701 L156.399 907.123 L145.843 896.498 L148.575 893.697 L159.2 904.322 L169.825 893.697 L172.579 896.498 Z" fill="#000000" fill-rule="nonzero" fill-opacity="1" /><path clip-path="url(#clip730)" d="M184.94 918.025 L192.579 918.025 L192.579 891.66 L184.269 893.326 L184.269 889.067 L192.533 887.4 L197.209 887.4 L197.209 918.025 L204.848 918.025 L204.848 921.96 L184.94 921.96 L184.94 918.025 Z" fill="#000000" fill-rule="nonzero" fill-opacity="1" /><path clip-path="url(#clip730)" d="M224.292 890.479 Q220.681 890.479 218.852 894.044 Q217.047 897.586 217.047 904.715 Q217.047 911.822 218.852 915.386 Q220.681 918.928 224.292 918.928 Q227.926 918.928 229.732 915.386 Q231.561 911.822 231.561 904.715 Q231.561 897.586 229.732 894.044 Q227.926 890.479 224.292 890.479 M224.292 886.775 Q230.102 886.775 233.158 891.382 Q236.236 895.965 236.236 904.715 Q236.236 913.442 233.158 918.048 Q230.102 922.632 224.292 922.632 Q218.482 922.632 215.403 918.048 Q212.348 913.442 212.348 904.715 Q212.348 895.965 215.403 891.382 Q218.482 886.775 224.292 886.775 Z" fill="#000000" fill-rule="nonzero" fill-opacity="1" /><path clip-path="url(#clip730)" d="M236.782 891.353 L242.988 891.353 L242.988 869.931 L236.236 871.285 L236.236 867.824 L242.951 866.47 L246.75 866.47 L246.75 891.353 L252.957 891.353 L252.957 894.55 L236.782 894.55 L236.782 891.353 Z" fill="#000000" fill-rule="nonzero" fill-opacity="1" /><path clip-path="url(#clip730)" d="M268.755 868.971 Q265.821 868.971 264.335 871.868 Q262.868 874.745 262.868 880.538 Q262.868 886.312 264.335 889.209 Q265.821 892.086 268.755 892.086 Q271.708 892.086 273.175 889.209 Q274.661 886.312 274.661 880.538 Q274.661 874.745 273.175 871.868 Q271.708 868.971 268.755 868.971 M268.755 865.962 Q273.476 865.962 275.958 869.705 Q278.46 873.429 278.46 880.538 Q278.46 887.629 275.958 891.372 Q273.476 895.095 268.755 895.095 Q264.034 895.095 261.533 891.372 Q259.05 887.629 259.05 880.538 Q259.05 873.429 261.533 869.705 Q264.034 865.962 268.755 865.962 Z" fill="#000000" fill-rule="nonzero" fill-opacity="1" /><path clip-path="url(#clip730)" d="M39.6634 255.294 L47.3023 255.294 L47.3023 228.928 L38.9921 230.595 L38.9921 226.335 L47.256 224.669 L51.9319 224.669 L51.9319 255.294 L59.5707 255.294 L59.5707 259.229 L39.6634 259.229 L39.6634 255.294 Z" fill="#000000" fill-rule="nonzero" fill-opacity="1" /><path clip-path="url(#clip730)" d="M69.0151 253.349 L73.8993 253.349 L73.8993 259.229 L69.0151 259.229 L69.0151 253.349 Z" fill="#000000" fill-rule="nonzero" fill-opacity="1" /><path clip-path="url(#clip730)" d="M84.1308 224.669 L102.487 224.669 L102.487 228.604 L88.4132 228.604 L88.4132 237.076 Q89.4317 236.729 90.4502 236.567 Q91.4687 236.382 92.4872 236.382 Q98.2742 236.382 101.654 239.553 Q105.033 242.724 105.033 248.141 Q105.033 253.72 101.561 256.821 Q98.089 259.9 91.7696 259.9 Q89.5937 259.9 87.3252 259.53 Q85.0798 259.159 82.6724 258.419 L82.6724 253.72 Q84.7558 254.854 86.978 255.409 Q89.2002 255.965 91.677 255.965 Q95.6816 255.965 98.0196 253.858 Q100.358 251.752 100.358 248.141 Q100.358 244.53 98.0196 242.423 Q95.6816 240.317 91.677 240.317 Q89.802 240.317 87.927 240.734 Q86.0752 241.15 84.1308 242.03 L84.1308 224.669 Z" fill="#000000" fill-rule="nonzero" fill-opacity="1" /><path clip-path="url(#clip730)" d="M124.246 227.748 Q120.635 227.748 118.807 231.312 Q117.001 234.854 117.001 241.984 Q117.001 249.09 118.807 252.655 Q120.635 256.196 124.246 256.196 Q127.881 256.196 129.686 252.655 Q131.515 249.09 131.515 241.984 Q131.515 234.854 129.686 231.312 Q127.881 227.748 124.246 227.748 M124.246 224.044 Q130.056 224.044 133.112 228.65 Q136.191 233.234 136.191 241.984 Q136.191 250.71 133.112 255.317 Q130.056 259.9 124.246 259.9 Q118.436 259.9 115.357 255.317 Q112.302 250.71 112.302 241.984 Q112.302 233.234 115.357 228.65 Q118.436 224.044 124.246 224.044 Z" fill="#000000" fill-rule="nonzero" fill-opacity="1" /><path clip-path="url(#clip730)" d="M172.579 233.766 L162.001 244.391 L172.579 254.97 L169.825 257.771 L159.2 247.146 L148.575 257.771 L145.843 254.97 L156.399 244.391 L145.843 233.766 L148.575 230.965 L159.2 241.59 L169.825 230.965 L172.579 233.766 Z" fill="#000000" fill-rule="nonzero" fill-opacity="1" /><path clip-path="url(#clip730)" d="M184.94 255.294 L192.579 255.294 L192.579 228.928 L184.269 230.595 L184.269 226.335 L192.533 224.669 L197.209 224.669 L197.209 255.294 L204.848 255.294 L204.848 259.229 L184.94 259.229 L184.94 255.294 Z" fill="#000000" fill-rule="nonzero" fill-opacity="1" /><path clip-path="url(#clip730)" d="M224.292 227.748 Q220.681 227.748 218.852 231.312 Q217.047 234.854 217.047 241.984 Q217.047 249.09 218.852 252.655 Q220.681 256.196 224.292 256.196 Q227.926 256.196 229.732 252.655 Q231.561 249.09 231.561 241.984 Q231.561 234.854 229.732 231.312 Q227.926 227.748 224.292 227.748 M224.292 224.044 Q230.102 224.044 233.158 228.65 Q236.236 233.234 236.236 241.984 Q236.236 250.71 233.158 255.317 Q230.102 259.9 224.292 259.9 Q218.482 259.9 215.403 255.317 Q212.348 250.71 212.348 241.984 Q212.348 233.234 215.403 228.65 Q218.482 224.044 224.292 224.044 Z" fill="#000000" fill-rule="nonzero" fill-opacity="1" /><path clip-path="url(#clip730)" d="M236.782 228.621 L242.988 228.621 L242.988 207.199 L236.236 208.553 L236.236 205.093 L242.951 203.738 L246.75 203.738 L246.75 228.621 L252.957 228.621 L252.957 231.818 L236.782 231.818 L236.782 228.621 Z" fill="#000000" fill-rule="nonzero" fill-opacity="1" /><path clip-path="url(#clip730)" d="M268.755 206.24 Q265.821 206.24 264.335 209.136 Q262.868 212.014 262.868 217.807 Q262.868 223.581 264.335 226.477 Q265.821 229.355 268.755 229.355 Q271.708 229.355 273.175 226.477 Q274.661 223.581 274.661 217.807 Q274.661 212.014 273.175 209.136 Q271.708 206.24 268.755 206.24 M268.755 203.231 Q273.476 203.231 275.958 206.973 Q278.46 210.697 278.46 217.807 Q278.46 224.897 275.958 228.64 Q273.476 232.364 268.755 232.364 Q264.034 232.364 261.533 228.64 Q259.05 224.897 259.05 217.807 Q259.05 210.697 261.533 206.973 Q264.034 203.231 268.755 203.231 Z" fill="#000000" fill-rule="nonzero" fill-opacity="1" /><path clip-path="url(#clip732)" d="M572.945 1807.67 L572.945 2223.7 L711.798 2223.7 L711.798 1807.67 L572.945 1807.67 L572.945 1807.67  Z" fill="#009af9" fill-rule="evenodd" fill-opacity="1"/>
<polyline clip-path="url(#clip732)" style="stroke:#000000; stroke-linecap:round; stroke-linejoin:round; stroke-width:4; stroke-opacity:1; fill:none" points="572.945,1807.67 572.945,2223.7 711.798,2223.7 711.798,1807.67 572.945,1807.67 "/>
<path clip-path="url(#clip732)" d="M1614.35 1784.7 L1614.35 2223.7 L1753.2 2223.7 L1753.2 1784.7 L1614.35 1784.7 L1614.35 1784.7  Z" fill="#009af9" fill-rule="evenodd" fill-opacity="1"/>
<polyline clip-path="url(#clip732)" style="stroke:#000000; stroke-linecap:round; stroke-linejoin:round; stroke-width:4; stroke-opacity:1; fill:none" points="1614.35,1784.7 1614.35,2223.7 1753.2,2223.7 1753.2,1784.7 1614.35,1784.7 "/>
<path clip-path="url(#clip732)" d="M2655.75 1793.57 L2655.75 2223.7 L2794.6 2223.7 L2794.6 1793.57 L2655.75 1793.57 L2655.75 1793.57  Z" fill="#009af9" fill-rule="evenodd" fill-opacity="1"/>
<polyline clip-path="url(#clip732)" style="stroke:#000000; stroke-linecap:round; stroke-linejoin:round; stroke-width:4; stroke-opacity:1; fill:none" points="2655.75,1793.57 2655.75,2223.7 2794.6,2223.7 2794.6,1793.57 2655.75,1793.57 "/>
<path clip-path="url(#clip732)" d="M3697.15 1798.77 L3697.15 2223.7 L3836 2223.7 L3836 1798.77 L3697.15 1798.77 L3697.15 1798.77  Z" fill="#009af9" fill-rule="evenodd" fill-opacity="1"/>
<polyline clip-path="url(#clip732)" style="stroke:#000000; stroke-linecap:round; stroke-linejoin:round; stroke-width:4; stroke-opacity:1; fill:none" points="3697.15,1798.77 3697.15,2223.7 3836,2223.7 3836,1798.77 3697.15,1798.77 "/>
<circle clip-path="url(#clip732)" style="fill:#009af9; stroke:none; fill-opacity:0" cx="642.372" cy="1807.67" r="2"/>
<circle clip-path="url(#clip732)" style="fill:#009af9; stroke:none; fill-opacity:0" cx="1683.77" cy="1784.7" r="2"/>
<circle clip-path="url(#clip732)" style="fill:#009af9; stroke:none; fill-opacity:0" cx="2725.17" cy="1793.57" r="2"/>
<circle clip-path="url(#clip732)" style="fill:#009af9; stroke:none; fill-opacity:0" cx="3766.58" cy="1798.77" r="2"/>
<path clip-path="url(#clip732)" d="M711.798 2223.7 L711.798 2223.7 L850.652 2223.7 L850.652 2223.7 L711.798 2223.7 L711.798 2223.7  Z" fill="#e26f46" fill-rule="evenodd" fill-opacity="1"/>
<polyline clip-path="url(#clip732)" style="stroke:#000000; stroke-linecap:round; stroke-linejoin:round; stroke-width:4; stroke-opacity:1; fill:none" points="711.798,2223.7 711.798,2223.7 850.652,2223.7 711.798,2223.7 "/>
<path clip-path="url(#clip732)" d="M1753.2 2223.7 L1753.2 2223.7 L1892.05 2223.7 L1892.05 2223.7 L1753.2 2223.7 L1753.2 2223.7  Z" fill="#e26f46" fill-rule="evenodd" fill-opacity="1"/>
<polyline clip-path="url(#clip732)" style="stroke:#000000; stroke-linecap:round; stroke-linejoin:round; stroke-width:4; stroke-opacity:1; fill:none" points="1753.2,2223.7 1753.2,2223.7 1892.05,2223.7 1753.2,2223.7 "/>
<path clip-path="url(#clip732)" d="M2794.6 110.636 L2794.6 2223.7 L2933.46 2223.7 L2933.46 110.636 L2794.6 110.636 L2794.6 110.636  Z" fill="#e26f46" fill-rule="evenodd" fill-opacity="1"/>
<polyline clip-path="url(#clip732)" style="stroke:#000000; stroke-linecap:round; stroke-linejoin:round; stroke-width:4; stroke-opacity:1; fill:none" points="2794.6,110.636 2794.6,2223.7 2933.46,2223.7 2933.46,110.636 2794.6,110.636 "/>
<path clip-path="url(#clip732)" d="M3836 2223.66 L3836 2223.7 L3974.86 2223.7 L3974.86 2223.66 L3836 2223.66 L3836 2223.66  Z" fill="#e26f46" fill-rule="evenodd" fill-opacity="1"/>
<polyline clip-path="url(#clip732)" style="stroke:#000000; stroke-linecap:round; stroke-linejoin:round; stroke-width:4; stroke-opacity:1; fill:none" points="3836,2223.66 3836,2223.7 3974.86,2223.7 3974.86,2223.66 3836,2223.66 "/>
<circle clip-path="url(#clip732)" style="fill:#e26f46; stroke:none; fill-opacity:0" cx="781.225" cy="2223.7" r="2"/>
<circle clip-path="url(#clip732)" style="fill:#e26f46; stroke:none; fill-opacity:0" cx="1822.63" cy="2223.7" r="2"/>
<circle clip-path="url(#clip732)" style="fill:#e26f46; stroke:none; fill-opacity:0" cx="2864.03" cy="110.636" r="2"/>
<circle clip-path="url(#clip732)" style="fill:#e26f46; stroke:none; fill-opacity:0" cx="3905.43" cy="2223.66" r="2"/>
<path clip-path="url(#clip732)" d="M850.652 1635.7 L850.652 2223.7 L989.506 2223.7 L989.506 1635.7 L850.652 1635.7 L850.652 1635.7  Z" fill="#3da44d" fill-rule="evenodd" fill-opacity="1"/>
<polyline clip-path="url(#clip732)" style="stroke:#000000; stroke-linecap:round; stroke-linejoin:round; stroke-width:4; stroke-opacity:1; fill:none" points="850.652,1635.7 850.652,2223.7 989.506,2223.7 989.506,1635.7 850.652,1635.7 "/>
<path clip-path="url(#clip732)" d="M1892.05 1920.87 L1892.05 2223.7 L2030.91 2223.7 L2030.91 1920.87 L1892.05 1920.87 L1892.05 1920.87  Z" fill="#3da44d" fill-rule="evenodd" fill-opacity="1"/>
<polyline clip-path="url(#clip732)" style="stroke:#000000; stroke-linecap:round; stroke-linejoin:round; stroke-width:4; stroke-opacity:1; fill:none" points="1892.05,1920.87 1892.05,2223.7 2030.91,2223.7 2030.91,1920.87 1892.05,1920.87 "/>
<path clip-path="url(#clip732)" d="M2933.46 1534.04 L2933.46 2223.7 L3072.31 2223.7 L3072.31 1534.04 L2933.46 1534.04 L2933.46 1534.04  Z" fill="#3da44d" fill-rule="evenodd" fill-opacity="1"/>
<polyline clip-path="url(#clip732)" style="stroke:#000000; stroke-linecap:round; stroke-linejoin:round; stroke-width:4; stroke-opacity:1; fill:none" points="2933.46,1534.04 2933.46,2223.7 3072.31,2223.7 3072.31,1534.04 2933.46,1534.04 "/>
<path clip-path="url(#clip732)" d="M3974.86 1912.61 L3974.86 2223.7 L4113.71 2223.7 L4113.71 1912.61 L3974.86 1912.61 L3974.86 1912.61  Z" fill="#3da44d" fill-rule="evenodd" fill-opacity="1"/>
<polyline clip-path="url(#clip732)" style="stroke:#000000; stroke-linecap:round; stroke-linejoin:round; stroke-width:4; stroke-opacity:1; fill:none" points="3974.86,1912.61 3974.86,2223.7 4113.71,2223.7 4113.71,1912.61 3974.86,1912.61 "/>
<circle clip-path="url(#clip732)" style="fill:#3da44d; stroke:none; fill-opacity:0" cx="920.079" cy="1635.7" r="2"/>
<circle clip-path="url(#clip732)" style="fill:#3da44d; stroke:none; fill-opacity:0" cx="1961.48" cy="1920.87" r="2"/>
<circle clip-path="url(#clip732)" style="fill:#3da44d; stroke:none; fill-opacity:0" cx="3002.88" cy="1534.04" r="2"/>
<circle clip-path="url(#clip732)" style="fill:#3da44d; stroke:none; fill-opacity:0" cx="4044.28" cy="1912.61" r="2"/>
<path clip-path="url(#clip732)" d="M989.506 1742.06 L989.506 2223.7 L1128.36 2223.7 L1128.36 1742.06 L989.506 1742.06 L989.506 1742.06  Z" fill="#c271d2" fill-rule="evenodd" fill-opacity="1"/>
<polyline clip-path="url(#clip732)" style="stroke:#000000; stroke-linecap:round; stroke-linejoin:round; stroke-width:4; stroke-opacity:1; fill:none" points="989.506,1742.06 989.506,2223.7 1128.36,2223.7 1128.36,1742.06 989.506,1742.06 "/>
<path clip-path="url(#clip732)" d="M2030.91 1803.07 L2030.91 2223.7 L2169.76 2223.7 L2169.76 1803.07 L2030.91 1803.07 L2030.91 1803.07  Z" fill="#c271d2" fill-rule="evenodd" fill-opacity="1"/>
<polyline clip-path="url(#clip732)" style="stroke:#000000; stroke-linecap:round; stroke-linejoin:round; stroke-width:4; stroke-opacity:1; fill:none" points="2030.91,1803.07 2030.91,2223.7 2169.76,2223.7 2169.76,1803.07 2030.91,1803.07 "/>
<path clip-path="url(#clip732)" d="M3072.31 1719.9 L3072.31 2223.7 L3211.16 2223.7 L3211.16 1719.9 L3072.31 1719.9 L3072.31 1719.9  Z" fill="#c271d2" fill-rule="evenodd" fill-opacity="1"/>
<polyline clip-path="url(#clip732)" style="stroke:#000000; stroke-linecap:round; stroke-linejoin:round; stroke-width:4; stroke-opacity:1; fill:none" points="3072.31,1719.9 3072.31,2223.7 3211.16,2223.7 3211.16,1719.9 3072.31,1719.9 "/>
<path clip-path="url(#clip732)" d="M4113.71 1807.53 L4113.71 2223.7 L4252.56 2223.7 L4252.56 1807.53 L4113.71 1807.53 L4113.71 1807.53  Z" fill="#c271d2" fill-rule="evenodd" fill-opacity="1"/>
<polyline clip-path="url(#clip732)" style="stroke:#000000; stroke-linecap:round; stroke-linejoin:round; stroke-width:4; stroke-opacity:1; fill:none" points="4113.71,1807.53 4113.71,2223.7 4252.56,2223.7 4252.56,1807.53 4113.71,1807.53 "/>
<circle clip-path="url(#clip732)" style="fill:#c271d2; stroke:none; fill-opacity:0" cx="1058.93" cy="1742.06" r="2"/>
<circle clip-path="url(#clip732)" style="fill:#c271d2; stroke:none; fill-opacity:0" cx="2100.33" cy="1803.07" r="2"/>
<circle clip-path="url(#clip732)" style="fill:#c271d2; stroke:none; fill-opacity:0" cx="3141.74" cy="1719.9" r="2"/>
<circle clip-path="url(#clip732)" style="fill:#c271d2; stroke:none; fill-opacity:0" cx="4183.14" cy="1807.53" r="2"/>
<path clip-path="url(#clip732)" d="M1128.36 2223.7 L1128.36 2223.7 L1267.21 2223.7 L1267.21 2223.7 L1128.36 2223.7 L1128.36 2223.7  Z" fill="#ac8d18" fill-rule="evenodd" fill-opacity="1"/>
<polyline clip-path="url(#clip732)" style="stroke:#000000; stroke-linecap:round; stroke-linejoin:round; stroke-width:4; stroke-opacity:1; fill:none" points="1128.36,2223.7 1128.36,2223.7 1267.21,2223.7 1128.36,2223.7 "/>
<path clip-path="url(#clip732)" d="M2169.76 2223.7 L2169.76 2223.7 L2308.61 2223.7 L2308.61 2223.7 L2169.76 2223.7 L2169.76 2223.7  Z" fill="#ac8d18" fill-rule="evenodd" fill-opacity="1"/>
<polyline clip-path="url(#clip732)" style="stroke:#000000; stroke-linecap:round; stroke-linejoin:round; stroke-width:4; stroke-opacity:1; fill:none" points="2169.76,2223.7 2169.76,2223.7 2308.61,2223.7 2169.76,2223.7 "/>
<path clip-path="url(#clip732)" d="M3211.16 2223.7 L3211.16 2223.7 L3350.02 2223.7 L3350.02 2223.7 L3211.16 2223.7 L3211.16 2223.7  Z" fill="#ac8d18" fill-rule="evenodd" fill-opacity="1"/>
<polyline clip-path="url(#clip732)" style="stroke:#000000; stroke-linecap:round; stroke-linejoin:round; stroke-width:4; stroke-opacity:1; fill:none" points="3211.16,2223.7 3211.16,2223.7 3350.02,2223.7 3211.16,2223.7 "/>
<path clip-path="url(#clip732)" d="M4252.56 2223.7 L4252.56 2223.7 L4391.42 2223.7 L4391.42 2223.7 L4252.56 2223.7 L4252.56 2223.7  Z" fill="#ac8d18" fill-rule="evenodd" fill-opacity="1"/>
<polyline clip-path="url(#clip732)" style="stroke:#000000; stroke-linecap:round; stroke-linejoin:round; stroke-width:4; stroke-opacity:1; fill:none" points="4252.56,2223.7 4252.56,2223.7 4391.42,2223.7 4252.56,2223.7 "/>
<circle clip-path="url(#clip732)" style="fill:#ac8d18; stroke:none; fill-opacity:0" cx="1197.79" cy="2223.7" r="2"/>
<circle clip-path="url(#clip732)" style="fill:#ac8d18; stroke:none; fill-opacity:0" cx="2239.19" cy="2223.7" r="2"/>
<circle clip-path="url(#clip732)" style="fill:#ac8d18; stroke:none; fill-opacity:0" cx="3280.59" cy="2223.7" r="2"/>
<circle clip-path="url(#clip732)" style="fill:#ac8d18; stroke:none; fill-opacity:0" cx="4321.99" cy="2223.7" r="2"/>
<path clip-path="url(#clip732)" d="M1267.21 2223.7 L1267.21 2223.7 L1406.07 2223.7 L1406.07 2223.7 L1267.21 2223.7 L1267.21 2223.7  Z" fill="#00a9ad" fill-rule="evenodd" fill-opacity="1"/>
<polyline clip-path="url(#clip732)" style="stroke:#000000; stroke-linecap:round; stroke-linejoin:round; stroke-width:4; stroke-opacity:1; fill:none" points="1267.21,2223.7 1267.21,2223.7 1406.07,2223.7 1267.21,2223.7 "/>
<path clip-path="url(#clip732)" d="M2308.61 2223.7 L2308.61 2223.7 L2447.47 2223.7 L2447.47 2223.7 L2308.61 2223.7 L2308.61 2223.7  Z" fill="#00a9ad" fill-rule="evenodd" fill-opacity="1"/>
<polyline clip-path="url(#clip732)" style="stroke:#000000; stroke-linecap:round; stroke-linejoin:round; stroke-width:4; stroke-opacity:1; fill:none" points="2308.61,2223.7 2308.61,2223.7 2447.47,2223.7 2308.61,2223.7 "/>
<path clip-path="url(#clip732)" d="M3350.02 2223.7 L3350.02 2223.7 L3488.87 2223.7 L3488.87 2223.7 L3350.02 2223.7 L3350.02 2223.7  Z" fill="#00a9ad" fill-rule="evenodd" fill-opacity="1"/>
<polyline clip-path="url(#clip732)" style="stroke:#000000; stroke-linecap:round; stroke-linejoin:round; stroke-width:4; stroke-opacity:1; fill:none" points="3350.02,2223.7 3350.02,2223.7 3488.87,2223.7 3350.02,2223.7 "/>
<path clip-path="url(#clip732)" d="M4391.42 2223.7 L4391.42 2223.7 L4530.27 2223.7 L4530.27 2223.7 L4391.42 2223.7 L4391.42 2223.7  Z" fill="#00a9ad" fill-rule="evenodd" fill-opacity="1"/>
<polyline clip-path="url(#clip732)" style="stroke:#000000; stroke-linecap:round; stroke-linejoin:round; stroke-width:4; stroke-opacity:1; fill:none" points="4391.42,2223.7 4391.42,2223.7 4530.27,2223.7 4391.42,2223.7 "/>
<circle clip-path="url(#clip732)" style="fill:#00a9ad; stroke:none; fill-opacity:0" cx="1336.64" cy="2223.7" r="2"/>
<circle clip-path="url(#clip732)" style="fill:#00a9ad; stroke:none; fill-opacity:0" cx="2378.04" cy="2223.7" r="2"/>
<circle clip-path="url(#clip732)" style="fill:#00a9ad; stroke:none; fill-opacity:0" cx="3419.44" cy="2223.7" r="2"/>
<circle clip-path="url(#clip732)" style="fill:#00a9ad; stroke:none; fill-opacity:0" cx="4460.84" cy="2223.7" r="2"/>
<path clip-path="url(#clip730)" d="M3220.44 484.786 L4606.01 484.786 L4606.01 121.906 L3220.44 121.906  Z" fill="#ffffff" fill-rule="evenodd" fill-opacity="1"/>
<polyline clip-path="url(#clip730)" style="stroke:#000000; stroke-linecap:round; stroke-linejoin:round; stroke-width:4; stroke-opacity:1; fill:none" points="3220.44,484.786 4606.01,484.786 4606.01,121.906 3220.44,121.906 3220.44,484.786 "/>
<path clip-path="url(#clip730)" d="M3269.36 194.482 L3562.84 194.482 L3562.84 153.01 L3269.36 153.01 L3269.36 194.482  Z" fill="#009af9" fill-rule="evenodd" fill-opacity="1"/>
<polyline clip-path="url(#clip730)" style="stroke:#000000; stroke-linecap:round; stroke-linejoin:round; stroke-width:4; stroke-opacity:1; fill:none" points="3269.36,194.482 3562.84,194.482 3562.84,153.01 3269.36,153.01 3269.36,194.482 "/>
<path clip-path="url(#clip730)" d="M3639.63 159.128 L3639.63 164.058 Q3637.27 161.859 3634.58 160.771 Q3631.92 159.683 3628.91 159.683 Q3622.98 159.683 3619.83 163.317 Q3616.69 166.928 3616.69 173.78 Q3616.69 180.609 3619.83 184.243 Q3622.98 187.854 3628.91 187.854 Q3631.92 187.854 3634.58 186.766 Q3637.27 185.678 3639.63 183.479 L3639.63 188.364 Q3637.17 190.03 3634.42 190.864 Q3631.69 191.697 3628.63 191.697 Q3620.78 191.697 3616.27 186.905 Q3611.76 182.09 3611.76 173.78 Q3611.76 165.447 3616.27 160.655 Q3620.78 155.841 3628.63 155.841 Q3631.73 155.841 3634.46 156.674 Q3637.22 157.484 3639.63 159.128 Z" fill="#000000" fill-rule="nonzero" fill-opacity="1" /><path clip-path="url(#clip730)" d="M3672.73 159.128 L3672.73 164.058 Q3670.37 161.859 3667.68 160.771 Q3665.02 159.683 3662.01 159.683 Q3656.08 159.683 3652.94 163.317 Q3649.79 166.928 3649.79 173.78 Q3649.79 180.609 3652.94 184.243 Q3656.08 187.854 3662.01 187.854 Q3665.02 187.854 3667.68 186.766 Q3670.37 185.678 3672.73 183.479 L3672.73 188.364 Q3670.27 190.03 3667.52 190.864 Q3664.79 191.697 3661.73 191.697 Q3653.89 191.697 3649.37 186.905 Q3644.86 182.09 3644.86 173.78 Q3644.86 165.447 3649.37 160.655 Q3653.89 155.841 3661.73 155.841 Q3664.83 155.841 3667.57 156.674 Q3670.32 157.484 3672.73 159.128 Z" fill="#000000" fill-rule="nonzero" fill-opacity="1" /><path clip-path="url(#clip730)" d="M3700.67 157.6 L3700.67 162.16 Q3698.01 160.887 3695.64 160.262 Q3693.28 159.637 3691.08 159.637 Q3687.27 159.637 3685.18 161.118 Q3683.12 162.6 3683.12 165.331 Q3683.12 167.623 3684.49 168.803 Q3685.88 169.961 3689.72 170.678 L3692.54 171.257 Q3697.77 172.253 3700.25 174.776 Q3702.75 177.276 3702.75 181.489 Q3702.75 186.512 3699.37 189.104 Q3696.01 191.697 3689.51 191.697 Q3687.06 191.697 3684.28 191.141 Q3681.52 190.586 3678.56 189.498 L3678.56 184.683 Q3681.41 186.28 3684.14 187.09 Q3686.87 187.901 3689.51 187.901 Q3693.51 187.901 3695.69 186.327 Q3697.87 184.752 3697.87 181.836 Q3697.87 179.29 3696.29 177.854 Q3694.74 176.419 3691.18 175.702 L3688.33 175.146 Q3683.1 174.104 3680.76 171.882 Q3678.42 169.66 3678.42 165.702 Q3678.42 161.118 3681.64 158.479 Q3684.88 155.841 3690.55 155.841 Q3692.98 155.841 3695.51 156.28 Q3698.03 156.72 3700.67 157.6 Z" fill="#000000" fill-rule="nonzero" fill-opacity="1" /><path clip-path="url(#clip730)" d="M3720.64 193.433 Q3718.84 198.063 3717.13 199.475 Q3715.41 200.887 3712.54 200.887 L3709.14 200.887 L3709.14 197.322 L3711.64 197.322 Q3713.4 197.322 3714.37 196.488 Q3715.34 195.655 3716.52 192.553 L3717.29 190.609 L3706.8 165.1 L3711.32 165.1 L3719.42 185.377 L3727.52 165.1 L3732.03 165.1 L3720.64 193.433 Z" fill="#000000" fill-rule="nonzero" fill-opacity="1" /><path clip-path="url(#clip730)" d="M3759.46 175.377 L3759.46 191.026 L3755.2 191.026 L3755.2 175.516 Q3755.2 171.836 3753.77 170.007 Q3752.33 168.178 3749.46 168.178 Q3746.01 168.178 3744.02 170.378 Q3742.03 172.577 3742.03 176.373 L3742.03 191.026 L3737.75 191.026 L3737.75 165.1 L3742.03 165.1 L3742.03 169.128 Q3743.56 166.79 3745.62 165.632 Q3747.7 164.475 3750.41 164.475 Q3754.88 164.475 3757.17 167.253 Q3759.46 170.007 3759.46 175.377 Z" fill="#000000" fill-rule="nonzero" fill-opacity="1" /><path clip-path="url(#clip730)" d="M3786.62 166.095 L3786.62 170.077 Q3784.81 169.081 3782.98 168.595 Q3781.18 168.086 3779.32 168.086 Q3775.18 168.086 3772.89 170.725 Q3770.6 173.34 3770.6 178.086 Q3770.6 182.831 3772.89 185.47 Q3775.18 188.086 3779.32 188.086 Q3781.18 188.086 3782.98 187.6 Q3784.81 187.09 3786.62 186.095 L3786.62 190.03 Q3784.83 190.864 3782.91 191.28 Q3781.01 191.697 3778.86 191.697 Q3773.01 191.697 3769.56 188.016 Q3766.11 184.336 3766.11 178.086 Q3766.11 171.743 3769.58 168.109 Q3773.07 164.475 3779.14 164.475 Q3781.11 164.475 3782.98 164.891 Q3784.86 165.285 3786.62 166.095 Z" fill="#000000" fill-rule="nonzero" fill-opacity="1" /><path clip-path="url(#clip730)" d="M3815.57 175.377 L3815.57 191.026 L3811.32 191.026 L3811.32 175.516 Q3811.32 171.836 3809.88 170.007 Q3808.44 168.178 3805.57 168.178 Q3802.13 168.178 3800.13 170.378 Q3798.14 172.577 3798.14 176.373 L3798.14 191.026 L3793.86 191.026 L3793.86 155.007 L3798.14 155.007 L3798.14 169.128 Q3799.67 166.79 3801.73 165.632 Q3803.82 164.475 3806.52 164.475 Q3810.99 164.475 3813.28 167.253 Q3815.57 170.007 3815.57 175.377 Z" fill="#000000" fill-rule="nonzero" fill-opacity="1" /><path clip-path="url(#clip730)" d="M3269.36 246.322 L3562.84 246.322 L3562.84 204.85 L3269.36 204.85 L3269.36 246.322  Z" fill="#e26f46" fill-rule="evenodd" fill-opacity="1"/>
<polyline clip-path="url(#clip730)" style="stroke:#000000; stroke-linecap:round; stroke-linejoin:round; stroke-width:4; stroke-opacity:1; fill:none" points="3269.36,246.322 3562.84,246.322 3562.84,204.85 3269.36,204.85 3269.36,246.322 "/>
<path clip-path="url(#clip730)" d="M3611.76 208.306 L3631.62 208.306 L3631.62 212.241 L3616.43 212.241 L3616.43 222.426 L3630.14 222.426 L3630.14 226.361 L3616.43 226.361 L3616.43 242.866 L3611.76 242.866 L3611.76 208.306 Z" fill="#000000" fill-rule="nonzero" fill-opacity="1" /><path clip-path="url(#clip730)" d="M3638.84 206.847 L3643.1 206.847 L3643.1 242.866 L3638.84 242.866 L3638.84 206.847 Z" fill="#000000" fill-rule="nonzero" fill-opacity="1" /><path clip-path="url(#clip730)" d="M3663.79 229.833 Q3658.63 229.833 3656.64 231.014 Q3654.65 232.194 3654.65 235.042 Q3654.65 237.31 3656.13 238.653 Q3657.64 239.972 3660.2 239.972 Q3663.75 239.972 3665.88 237.472 Q3668.03 234.949 3668.03 230.782 L3668.03 229.833 L3663.79 229.833 M3672.29 228.074 L3672.29 242.866 L3668.03 242.866 L3668.03 238.93 Q3666.57 241.291 3664.39 242.426 Q3662.22 243.537 3659.07 243.537 Q3655.09 243.537 3652.73 241.315 Q3650.39 239.069 3650.39 235.319 Q3650.39 230.944 3653.31 228.722 Q3656.25 226.5 3662.06 226.5 L3668.03 226.5 L3668.03 226.083 Q3668.03 223.143 3666.08 221.546 Q3664.16 219.926 3660.67 219.926 Q3658.45 219.926 3656.34 220.458 Q3654.23 220.991 3652.29 222.055 L3652.29 218.12 Q3654.63 217.218 3656.83 216.778 Q3659.02 216.315 3661.11 216.315 Q3666.73 216.315 3669.51 219.231 Q3672.29 222.148 3672.29 228.074 Z" fill="#000000" fill-rule="nonzero" fill-opacity="1" /><path clip-path="url(#clip730)" d="M3685.27 209.579 L3685.27 216.94 L3694.05 216.94 L3694.05 220.25 L3685.27 220.25 L3685.27 234.324 Q3685.27 237.495 3686.13 238.398 Q3687.01 239.301 3689.67 239.301 L3694.05 239.301 L3694.05 242.866 L3689.67 242.866 Q3684.74 242.866 3682.87 241.037 Q3680.99 239.185 3680.99 234.324 L3680.99 220.25 L3677.87 220.25 L3677.87 216.94 L3680.99 216.94 L3680.99 209.579 L3685.27 209.579 Z" fill="#000000" fill-rule="nonzero" fill-opacity="1" /><path clip-path="url(#clip730)" d="M3740.78 210.968 L3740.78 215.898 Q3738.42 213.699 3735.74 212.611 Q3733.07 211.523 3730.07 211.523 Q3724.14 211.523 3720.99 215.157 Q3717.84 218.768 3717.84 225.62 Q3717.84 232.449 3720.99 236.083 Q3724.14 239.694 3730.07 239.694 Q3733.07 239.694 3735.74 238.606 Q3738.42 237.518 3740.78 235.319 L3740.78 240.204 Q3738.33 241.87 3735.57 242.704 Q3732.84 243.537 3729.79 243.537 Q3721.94 243.537 3717.43 238.745 Q3712.91 233.93 3712.91 225.62 Q3712.91 217.287 3717.43 212.495 Q3721.94 207.681 3729.79 207.681 Q3732.89 207.681 3735.62 208.514 Q3738.38 209.324 3740.78 210.968 Z" fill="#000000" fill-rule="nonzero" fill-opacity="1" /><path clip-path="url(#clip730)" d="M3757.87 219.926 Q3754.44 219.926 3752.45 222.611 Q3750.46 225.273 3750.46 229.926 Q3750.46 234.579 3752.43 237.264 Q3754.42 239.926 3757.87 239.926 Q3761.27 239.926 3763.26 237.241 Q3765.25 234.555 3765.25 229.926 Q3765.25 225.319 3763.26 222.634 Q3761.27 219.926 3757.87 219.926 M3757.87 216.315 Q3763.42 216.315 3766.59 219.926 Q3769.76 223.537 3769.76 229.926 Q3769.76 236.292 3766.59 239.926 Q3763.42 243.537 3757.87 243.537 Q3752.29 243.537 3749.12 239.926 Q3745.97 236.292 3745.97 229.926 Q3745.97 223.537 3749.12 219.926 Q3752.29 216.315 3757.87 216.315 Z" fill="#000000" fill-rule="nonzero" fill-opacity="1" /><path clip-path="url(#clip730)" d="M3797.01 221.917 Q3798.61 219.046 3800.83 217.681 Q3803.05 216.315 3806.06 216.315 Q3810.11 216.315 3812.31 219.162 Q3814.51 221.986 3814.51 227.217 L3814.51 242.866 L3810.23 242.866 L3810.23 227.356 Q3810.23 223.63 3808.91 221.824 Q3807.59 220.018 3804.88 220.018 Q3801.57 220.018 3799.65 222.218 Q3797.73 224.417 3797.73 228.213 L3797.73 242.866 L3793.44 242.866 L3793.44 227.356 Q3793.44 223.606 3792.13 221.824 Q3790.81 220.018 3788.05 220.018 Q3784.79 220.018 3782.87 222.241 Q3780.95 224.44 3780.95 228.213 L3780.95 242.866 L3776.66 242.866 L3776.66 216.94 L3780.95 216.94 L3780.95 220.968 Q3782.4 218.583 3784.44 217.449 Q3786.48 216.315 3789.28 216.315 Q3792.1 216.315 3794.07 217.75 Q3796.06 219.185 3797.01 221.917 Z" fill="#000000" fill-rule="nonzero" fill-opacity="1" /><path clip-path="url(#clip730)" d="M3841.62 229.926 Q3841.62 225.227 3839.67 222.565 Q3837.75 219.88 3834.37 219.88 Q3830.99 219.88 3829.05 222.565 Q3827.13 225.227 3827.13 229.926 Q3827.13 234.625 3829.05 237.31 Q3830.99 239.972 3834.37 239.972 Q3837.75 239.972 3839.67 237.31 Q3841.62 234.625 3841.62 229.926 M3827.13 220.875 Q3828.47 218.56 3830.5 217.449 Q3832.57 216.315 3835.41 216.315 Q3840.13 216.315 3843.07 220.065 Q3846.04 223.815 3846.04 229.926 Q3846.04 236.037 3843.07 239.787 Q3840.13 243.537 3835.41 243.537 Q3832.57 243.537 3830.5 242.426 Q3828.47 241.291 3827.13 238.977 L3827.13 242.866 L3822.84 242.866 L3822.84 206.847 L3827.13 206.847 L3827.13 220.875 Z" fill="#000000" fill-rule="nonzero" fill-opacity="1" /><path clip-path="url(#clip730)" d="M3853.1 216.94 L3857.36 216.94 L3857.36 242.866 L3853.1 242.866 L3853.1 216.94 M3853.1 206.847 L3857.36 206.847 L3857.36 212.241 L3853.1 212.241 L3853.1 206.847 Z" fill="#000000" fill-rule="nonzero" fill-opacity="1" /><path clip-path="url(#clip730)" d="M3887.82 227.217 L3887.82 242.866 L3883.56 242.866 L3883.56 227.356 Q3883.56 223.676 3882.13 221.847 Q3880.69 220.018 3877.82 220.018 Q3874.37 220.018 3872.38 222.218 Q3870.39 224.417 3870.39 228.213 L3870.39 242.866 L3866.11 242.866 L3866.11 216.94 L3870.39 216.94 L3870.39 220.968 Q3871.92 218.63 3873.98 217.472 Q3876.06 216.315 3878.77 216.315 Q3883.24 216.315 3885.53 219.093 Q3887.82 221.847 3887.82 227.217 Z" fill="#000000" fill-rule="nonzero" fill-opacity="1" /><path clip-path="url(#clip730)" d="M3896.31 216.94 L3900.57 216.94 L3900.57 242.866 L3896.31 242.866 L3896.31 216.94 M3896.31 206.847 L3900.57 206.847 L3900.57 212.241 L3896.31 212.241 L3896.31 206.847 Z" fill="#000000" fill-rule="nonzero" fill-opacity="1" /><path clip-path="url(#clip730)" d="M3931.04 227.217 L3931.04 242.866 L3926.78 242.866 L3926.78 227.356 Q3926.78 223.676 3925.34 221.847 Q3923.91 220.018 3921.04 220.018 Q3917.59 220.018 3915.6 222.218 Q3913.61 224.417 3913.61 228.213 L3913.61 242.866 L3909.32 242.866 L3909.32 216.94 L3913.61 216.94 L3913.61 220.968 Q3915.13 218.63 3917.19 217.472 Q3919.28 216.315 3921.99 216.315 Q3926.45 216.315 3928.75 219.093 Q3931.04 221.847 3931.04 227.217 Z" fill="#000000" fill-rule="nonzero" fill-opacity="1" /><path clip-path="url(#clip730)" d="M3956.59 229.602 Q3956.59 224.972 3954.67 222.426 Q3952.77 219.88 3949.32 219.88 Q3945.9 219.88 3943.98 222.426 Q3942.08 224.972 3942.08 229.602 Q3942.08 234.208 3943.98 236.754 Q3945.9 239.301 3949.32 239.301 Q3952.77 239.301 3954.67 236.754 Q3956.59 234.208 3956.59 229.602 M3960.85 239.648 Q3960.85 246.268 3957.91 249.486 Q3954.97 252.727 3948.91 252.727 Q3946.66 252.727 3944.67 252.379 Q3942.68 252.055 3940.81 251.361 L3940.81 247.217 Q3942.68 248.236 3944.51 248.722 Q3946.34 249.208 3948.24 249.208 Q3952.43 249.208 3954.51 247.009 Q3956.59 244.833 3956.59 240.412 L3956.59 238.305 Q3955.27 240.597 3953.21 241.731 Q3951.15 242.866 3948.28 242.866 Q3943.51 242.866 3940.6 239.231 Q3937.68 235.597 3937.68 229.602 Q3937.68 223.583 3940.6 219.949 Q3943.51 216.315 3948.28 216.315 Q3951.15 216.315 3953.21 217.449 Q3955.27 218.583 3956.59 220.875 L3956.59 216.94 L3960.85 216.94 L3960.85 239.648 Z" fill="#000000" fill-rule="nonzero" fill-opacity="1" /><path clip-path="url(#clip730)" d="M3269.36 298.162 L3562.84 298.162 L3562.84 256.69 L3269.36 256.69 L3269.36 298.162  Z" fill="#3da44d" fill-rule="evenodd" fill-opacity="1"/>
<polyline clip-path="url(#clip730)" style="stroke:#000000; stroke-linecap:round; stroke-linejoin:round; stroke-width:4; stroke-opacity:1; fill:none" points="3269.36,298.162 3562.84,298.162 3562.84,256.69 3269.36,256.69 3269.36,298.162 "/>
<path clip-path="url(#clip730)" d="M3611.76 260.146 L3631.62 260.146 L3631.62 264.081 L3616.43 264.081 L3616.43 274.266 L3630.14 274.266 L3630.14 278.201 L3616.43 278.201 L3616.43 294.706 L3611.76 294.706 L3611.76 260.146 Z" fill="#000000" fill-rule="nonzero" fill-opacity="1" /><path clip-path="url(#clip730)" d="M3638.84 258.687 L3643.1 258.687 L3643.1 294.706 L3638.84 294.706 L3638.84 258.687 Z" fill="#000000" fill-rule="nonzero" fill-opacity="1" /><path clip-path="url(#clip730)" d="M3663.79 281.673 Q3658.63 281.673 3656.64 282.854 Q3654.65 284.034 3654.65 286.882 Q3654.65 289.15 3656.13 290.493 Q3657.64 291.812 3660.2 291.812 Q3663.75 291.812 3665.88 289.312 Q3668.03 286.789 3668.03 282.622 L3668.03 281.673 L3663.79 281.673 M3672.29 279.914 L3672.29 294.706 L3668.03 294.706 L3668.03 290.77 Q3666.57 293.131 3664.39 294.266 Q3662.22 295.377 3659.07 295.377 Q3655.09 295.377 3652.73 293.155 Q3650.39 290.909 3650.39 287.159 Q3650.39 282.784 3653.31 280.562 Q3656.25 278.34 3662.06 278.34 L3668.03 278.34 L3668.03 277.923 Q3668.03 274.983 3666.08 273.386 Q3664.16 271.766 3660.67 271.766 Q3658.45 271.766 3656.34 272.298 Q3654.23 272.831 3652.29 273.895 L3652.29 269.96 Q3654.63 269.058 3656.83 268.618 Q3659.02 268.155 3661.11 268.155 Q3666.73 268.155 3669.51 271.071 Q3672.29 273.988 3672.29 279.914 Z" fill="#000000" fill-rule="nonzero" fill-opacity="1" /><path clip-path="url(#clip730)" d="M3685.27 261.419 L3685.27 268.78 L3694.05 268.78 L3694.05 272.09 L3685.27 272.09 L3685.27 286.164 Q3685.27 289.335 3686.13 290.238 Q3687.01 291.141 3689.67 291.141 L3694.05 291.141 L3694.05 294.706 L3689.67 294.706 Q3684.74 294.706 3682.87 292.877 Q3680.99 291.025 3680.99 286.164 L3680.99 272.09 L3677.87 272.09 L3677.87 268.78 L3680.99 268.78 L3680.99 261.419 L3685.27 261.419 Z" fill="#000000" fill-rule="nonzero" fill-opacity="1" /><path clip-path="url(#clip730)" d="M3740.78 262.808 L3740.78 267.738 Q3738.42 265.539 3735.74 264.451 Q3733.07 263.363 3730.07 263.363 Q3724.14 263.363 3720.99 266.997 Q3717.84 270.608 3717.84 277.46 Q3717.84 284.289 3720.99 287.923 Q3724.14 291.534 3730.07 291.534 Q3733.07 291.534 3735.74 290.446 Q3738.42 289.358 3740.78 287.159 L3740.78 292.044 Q3738.33 293.71 3735.57 294.544 Q3732.84 295.377 3729.79 295.377 Q3721.94 295.377 3717.43 290.585 Q3712.91 285.77 3712.91 277.46 Q3712.91 269.127 3717.43 264.335 Q3721.94 259.521 3729.79 259.521 Q3732.89 259.521 3735.62 260.354 Q3738.38 261.164 3740.78 262.808 Z" fill="#000000" fill-rule="nonzero" fill-opacity="1" /><path clip-path="url(#clip730)" d="M3757.87 271.766 Q3754.44 271.766 3752.45 274.451 Q3750.46 277.113 3750.46 281.766 Q3750.46 286.419 3752.43 289.104 Q3754.42 291.766 3757.87 291.766 Q3761.27 291.766 3763.26 289.081 Q3765.25 286.395 3765.25 281.766 Q3765.25 277.159 3763.26 274.474 Q3761.27 271.766 3757.87 271.766 M3757.87 268.155 Q3763.42 268.155 3766.59 271.766 Q3769.76 275.377 3769.76 281.766 Q3769.76 288.132 3766.59 291.766 Q3763.42 295.377 3757.87 295.377 Q3752.29 295.377 3749.12 291.766 Q3745.97 288.132 3745.97 281.766 Q3745.97 275.377 3749.12 271.766 Q3752.29 268.155 3757.87 268.155 Z" fill="#000000" fill-rule="nonzero" fill-opacity="1" /><path clip-path="url(#clip730)" d="M3797.01 273.757 Q3798.61 270.886 3800.83 269.521 Q3803.05 268.155 3806.06 268.155 Q3810.11 268.155 3812.31 271.002 Q3814.51 273.826 3814.51 279.057 L3814.51 294.706 L3810.23 294.706 L3810.23 279.196 Q3810.23 275.47 3808.91 273.664 Q3807.59 271.858 3804.88 271.858 Q3801.57 271.858 3799.65 274.058 Q3797.73 276.257 3797.73 280.053 L3797.73 294.706 L3793.44 294.706 L3793.44 279.196 Q3793.44 275.446 3792.13 273.664 Q3790.81 271.858 3788.05 271.858 Q3784.79 271.858 3782.87 274.081 Q3780.95 276.28 3780.95 280.053 L3780.95 294.706 L3776.66 294.706 L3776.66 268.78 L3780.95 268.78 L3780.95 272.808 Q3782.4 270.423 3784.44 269.289 Q3786.48 268.155 3789.28 268.155 Q3792.1 268.155 3794.07 269.59 Q3796.06 271.025 3797.01 273.757 Z" fill="#000000" fill-rule="nonzero" fill-opacity="1" /><path clip-path="url(#clip730)" d="M3841.62 281.766 Q3841.62 277.067 3839.67 274.405 Q3837.75 271.72 3834.37 271.72 Q3830.99 271.72 3829.05 274.405 Q3827.13 277.067 3827.13 281.766 Q3827.13 286.465 3829.05 289.15 Q3830.99 291.812 3834.37 291.812 Q3837.75 291.812 3839.67 289.15 Q3841.62 286.465 3841.62 281.766 M3827.13 272.715 Q3828.47 270.4 3830.5 269.289 Q3832.57 268.155 3835.41 268.155 Q3840.13 268.155 3843.07 271.905 Q3846.04 275.655 3846.04 281.766 Q3846.04 287.877 3843.07 291.627 Q3840.13 295.377 3835.41 295.377 Q3832.57 295.377 3830.5 294.266 Q3828.47 293.131 3827.13 290.817 L3827.13 294.706 L3822.84 294.706 L3822.84 258.687 L3827.13 258.687 L3827.13 272.715 Z" fill="#000000" fill-rule="nonzero" fill-opacity="1" /><path clip-path="url(#clip730)" d="M3853.1 268.78 L3857.36 268.78 L3857.36 294.706 L3853.1 294.706 L3853.1 268.78 M3853.1 258.687 L3857.36 258.687 L3857.36 264.081 L3853.1 264.081 L3853.1 258.687 Z" fill="#000000" fill-rule="nonzero" fill-opacity="1" /><path clip-path="url(#clip730)" d="M3887.82 279.057 L3887.82 294.706 L3883.56 294.706 L3883.56 279.196 Q3883.56 275.516 3882.13 273.687 Q3880.69 271.858 3877.82 271.858 Q3874.37 271.858 3872.38 274.058 Q3870.39 276.257 3870.39 280.053 L3870.39 294.706 L3866.11 294.706 L3866.11 268.78 L3870.39 268.78 L3870.39 272.808 Q3871.92 270.47 3873.98 269.312 Q3876.06 268.155 3878.77 268.155 Q3883.24 268.155 3885.53 270.933 Q3887.82 273.687 3887.82 279.057 Z" fill="#000000" fill-rule="nonzero" fill-opacity="1" /><path clip-path="url(#clip730)" d="M3896.31 268.78 L3900.57 268.78 L3900.57 294.706 L3896.31 294.706 L3896.31 268.78 M3896.31 258.687 L3900.57 258.687 L3900.57 264.081 L3896.31 264.081 L3896.31 258.687 Z" fill="#000000" fill-rule="nonzero" fill-opacity="1" /><path clip-path="url(#clip730)" d="M3931.04 279.057 L3931.04 294.706 L3926.78 294.706 L3926.78 279.196 Q3926.78 275.516 3925.34 273.687 Q3923.91 271.858 3921.04 271.858 Q3917.59 271.858 3915.6 274.058 Q3913.61 276.257 3913.61 280.053 L3913.61 294.706 L3909.32 294.706 L3909.32 268.78 L3913.61 268.78 L3913.61 272.808 Q3915.13 270.47 3917.19 269.312 Q3919.28 268.155 3921.99 268.155 Q3926.45 268.155 3928.75 270.933 Q3931.04 273.687 3931.04 279.057 Z" fill="#000000" fill-rule="nonzero" fill-opacity="1" /><path clip-path="url(#clip730)" d="M3956.59 281.442 Q3956.59 276.812 3954.67 274.266 Q3952.77 271.72 3949.32 271.72 Q3945.9 271.72 3943.98 274.266 Q3942.08 276.812 3942.08 281.442 Q3942.08 286.048 3943.98 288.594 Q3945.9 291.141 3949.32 291.141 Q3952.77 291.141 3954.67 288.594 Q3956.59 286.048 3956.59 281.442 M3960.85 291.488 Q3960.85 298.108 3957.91 301.326 Q3954.97 304.567 3948.91 304.567 Q3946.66 304.567 3944.67 304.219 Q3942.68 303.895 3940.81 303.201 L3940.81 299.057 Q3942.68 300.076 3944.51 300.562 Q3946.34 301.048 3948.24 301.048 Q3952.43 301.048 3954.51 298.849 Q3956.59 296.673 3956.59 292.252 L3956.59 290.145 Q3955.27 292.437 3953.21 293.571 Q3951.15 294.706 3948.28 294.706 Q3943.51 294.706 3940.6 291.071 Q3937.68 287.437 3937.68 281.442 Q3937.68 275.423 3940.6 271.789 Q3943.51 268.155 3948.28 268.155 Q3951.15 268.155 3953.21 269.289 Q3955.27 270.423 3956.59 272.715 L3956.59 268.78 L3960.85 268.78 L3960.85 291.488 Z" fill="#000000" fill-rule="nonzero" fill-opacity="1" /><path clip-path="url(#clip730)" d="M3984.88 260.146 L4004.74 260.146 L4004.74 264.081 L3989.56 264.081 L3989.56 274.266 L4003.26 274.266 L4003.26 278.201 L3989.56 278.201 L3989.56 294.706 L3984.88 294.706 L3984.88 260.146 Z" fill="#000000" fill-rule="nonzero" fill-opacity="1" /><path clip-path="url(#clip730)" d="M4019.39 281.673 Q4014.23 281.673 4012.24 282.854 Q4010.25 284.034 4010.25 286.882 Q4010.25 289.15 4011.73 290.493 Q4013.24 291.812 4015.8 291.812 Q4019.35 291.812 4021.48 289.312 Q4023.63 286.789 4023.63 282.622 L4023.63 281.673 L4019.39 281.673 M4027.89 279.914 L4027.89 294.706 L4023.63 294.706 L4023.63 290.77 Q4022.17 293.131 4019.99 294.266 Q4017.82 295.377 4014.67 295.377 Q4010.69 295.377 4008.33 293.155 Q4005.99 290.909 4005.99 287.159 Q4005.99 282.784 4008.91 280.562 Q4011.85 278.34 4017.66 278.34 L4023.63 278.34 L4023.63 277.923 Q4023.63 274.983 4021.68 273.386 Q4019.76 271.766 4016.27 271.766 Q4014.05 271.766 4011.94 272.298 Q4009.83 272.831 4007.89 273.895 L4007.89 269.96 Q4010.23 269.058 4012.43 268.618 Q4014.62 268.155 4016.71 268.155 Q4022.33 268.155 4025.11 271.071 Q4027.89 273.988 4027.89 279.914 Z" fill="#000000" fill-rule="nonzero" fill-opacity="1" /><path clip-path="url(#clip730)" d="M4036.66 268.78 L4040.92 268.78 L4040.92 294.706 L4036.66 294.706 L4036.66 268.78 M4036.66 258.687 L4040.92 258.687 L4040.92 264.081 L4036.66 264.081 L4036.66 258.687 Z" fill="#000000" fill-rule="nonzero" fill-opacity="1" /><path clip-path="url(#clip730)" d="M4064.86 272.761 Q4064.14 272.345 4063.28 272.159 Q4062.45 271.951 4061.43 271.951 Q4057.82 271.951 4055.87 274.312 Q4053.95 276.65 4053.95 281.048 L4053.95 294.706 L4049.67 294.706 L4049.67 268.78 L4053.95 268.78 L4053.95 272.808 Q4055.3 270.446 4057.45 269.312 Q4059.6 268.155 4062.68 268.155 Q4063.12 268.155 4063.65 268.224 Q4064.18 268.271 4064.83 268.386 L4064.86 272.761 Z" fill="#000000" fill-rule="nonzero" fill-opacity="1" /><path clip-path="url(#clip730)" d="M3269.36 350.002 L3562.84 350.002 L3562.84 308.53 L3269.36 308.53 L3269.36 350.002  Z" fill="#c271d2" fill-rule="evenodd" fill-opacity="1"/>
<polyline clip-path="url(#clip730)" style="stroke:#000000; stroke-linecap:round; stroke-linejoin:round; stroke-width:4; stroke-opacity:1; fill:none" points="3269.36,350.002 3562.84,350.002 3562.84,308.53 3269.36,308.53 3269.36,350.002 "/>
<path clip-path="url(#clip730)" d="M3611.76 311.986 L3631.62 311.986 L3631.62 315.921 L3616.43 315.921 L3616.43 326.106 L3630.14 326.106 L3630.14 330.041 L3616.43 330.041 L3616.43 346.546 L3611.76 346.546 L3611.76 311.986 Z" fill="#000000" fill-rule="nonzero" fill-opacity="1" /><path clip-path="url(#clip730)" d="M3638.84 310.527 L3643.1 310.527 L3643.1 346.546 L3638.84 346.546 L3638.84 310.527 Z" fill="#000000" fill-rule="nonzero" fill-opacity="1" /><path clip-path="url(#clip730)" d="M3663.79 333.513 Q3658.63 333.513 3656.64 334.694 Q3654.65 335.874 3654.65 338.722 Q3654.65 340.99 3656.13 342.333 Q3657.64 343.652 3660.2 343.652 Q3663.75 343.652 3665.88 341.152 Q3668.03 338.629 3668.03 334.462 L3668.03 333.513 L3663.79 333.513 M3672.29 331.754 L3672.29 346.546 L3668.03 346.546 L3668.03 342.61 Q3666.57 344.971 3664.39 346.106 Q3662.22 347.217 3659.07 347.217 Q3655.09 347.217 3652.73 344.995 Q3650.39 342.749 3650.39 338.999 Q3650.39 334.624 3653.31 332.402 Q3656.25 330.18 3662.06 330.18 L3668.03 330.18 L3668.03 329.763 Q3668.03 326.823 3666.08 325.226 Q3664.16 323.606 3660.67 323.606 Q3658.45 323.606 3656.34 324.138 Q3654.23 324.671 3652.29 325.735 L3652.29 321.8 Q3654.63 320.898 3656.83 320.458 Q3659.02 319.995 3661.11 319.995 Q3666.73 319.995 3669.51 322.911 Q3672.29 325.828 3672.29 331.754 Z" fill="#000000" fill-rule="nonzero" fill-opacity="1" /><path clip-path="url(#clip730)" d="M3685.27 313.259 L3685.27 320.62 L3694.05 320.62 L3694.05 323.93 L3685.27 323.93 L3685.27 338.004 Q3685.27 341.175 3686.13 342.078 Q3687.01 342.981 3689.67 342.981 L3694.05 342.981 L3694.05 346.546 L3689.67 346.546 Q3684.74 346.546 3682.87 344.717 Q3680.99 342.865 3680.99 338.004 L3680.99 323.93 L3677.87 323.93 L3677.87 320.62 L3680.99 320.62 L3680.99 313.259 L3685.27 313.259 Z" fill="#000000" fill-rule="nonzero" fill-opacity="1" /><path clip-path="url(#clip730)" d="M3740.78 314.648 L3740.78 319.578 Q3738.42 317.379 3735.74 316.291 Q3733.07 315.203 3730.07 315.203 Q3724.14 315.203 3720.99 318.837 Q3717.84 322.448 3717.84 329.3 Q3717.84 336.129 3720.99 339.763 Q3724.14 343.374 3730.07 343.374 Q3733.07 343.374 3735.74 342.286 Q3738.42 341.198 3740.78 338.999 L3740.78 343.884 Q3738.33 345.55 3735.57 346.384 Q3732.84 347.217 3729.79 347.217 Q3721.94 347.217 3717.43 342.425 Q3712.91 337.61 3712.91 329.3 Q3712.91 320.967 3717.43 316.175 Q3721.94 311.361 3729.79 311.361 Q3732.89 311.361 3735.62 312.194 Q3738.38 313.004 3740.78 314.648 Z" fill="#000000" fill-rule="nonzero" fill-opacity="1" /><path clip-path="url(#clip730)" d="M3757.87 323.606 Q3754.44 323.606 3752.45 326.291 Q3750.46 328.953 3750.46 333.606 Q3750.46 338.259 3752.43 340.944 Q3754.42 343.606 3757.87 343.606 Q3761.27 343.606 3763.26 340.921 Q3765.25 338.235 3765.25 333.606 Q3765.25 328.999 3763.26 326.314 Q3761.27 323.606 3757.87 323.606 M3757.87 319.995 Q3763.42 319.995 3766.59 323.606 Q3769.76 327.217 3769.76 333.606 Q3769.76 339.972 3766.59 343.606 Q3763.42 347.217 3757.87 347.217 Q3752.29 347.217 3749.12 343.606 Q3745.97 339.972 3745.97 333.606 Q3745.97 327.217 3749.12 323.606 Q3752.29 319.995 3757.87 319.995 Z" fill="#000000" fill-rule="nonzero" fill-opacity="1" /><path clip-path="url(#clip730)" d="M3797.01 325.597 Q3798.61 322.726 3800.83 321.361 Q3803.05 319.995 3806.06 319.995 Q3810.11 319.995 3812.31 322.842 Q3814.51 325.666 3814.51 330.897 L3814.51 346.546 L3810.23 346.546 L3810.23 331.036 Q3810.23 327.31 3808.91 325.504 Q3807.59 323.698 3804.88 323.698 Q3801.57 323.698 3799.65 325.898 Q3797.73 328.097 3797.73 331.893 L3797.73 346.546 L3793.44 346.546 L3793.44 331.036 Q3793.44 327.286 3792.13 325.504 Q3790.81 323.698 3788.05 323.698 Q3784.79 323.698 3782.87 325.921 Q3780.95 328.12 3780.95 331.893 L3780.95 346.546 L3776.66 346.546 L3776.66 320.62 L3780.95 320.62 L3780.95 324.648 Q3782.4 322.263 3784.44 321.129 Q3786.48 319.995 3789.28 319.995 Q3792.1 319.995 3794.07 321.43 Q3796.06 322.865 3797.01 325.597 Z" fill="#000000" fill-rule="nonzero" fill-opacity="1" /><path clip-path="url(#clip730)" d="M3841.62 333.606 Q3841.62 328.907 3839.67 326.245 Q3837.75 323.56 3834.37 323.56 Q3830.99 323.56 3829.05 326.245 Q3827.13 328.907 3827.13 333.606 Q3827.13 338.305 3829.05 340.99 Q3830.99 343.652 3834.37 343.652 Q3837.75 343.652 3839.67 340.99 Q3841.62 338.305 3841.62 333.606 M3827.13 324.555 Q3828.47 322.24 3830.5 321.129 Q3832.57 319.995 3835.41 319.995 Q3840.13 319.995 3843.07 323.745 Q3846.04 327.495 3846.04 333.606 Q3846.04 339.717 3843.07 343.467 Q3840.13 347.217 3835.41 347.217 Q3832.57 347.217 3830.5 346.106 Q3828.47 344.971 3827.13 342.657 L3827.13 346.546 L3822.84 346.546 L3822.84 310.527 L3827.13 310.527 L3827.13 324.555 Z" fill="#000000" fill-rule="nonzero" fill-opacity="1" /><path clip-path="url(#clip730)" d="M3853.1 320.62 L3857.36 320.62 L3857.36 346.546 L3853.1 346.546 L3853.1 320.62 M3853.1 310.527 L3857.36 310.527 L3857.36 315.921 L3853.1 315.921 L3853.1 310.527 Z" fill="#000000" fill-rule="nonzero" fill-opacity="1" /><path clip-path="url(#clip730)" d="M3887.82 330.897 L3887.82 346.546 L3883.56 346.546 L3883.56 331.036 Q3883.56 327.356 3882.13 325.527 Q3880.69 323.698 3877.82 323.698 Q3874.37 323.698 3872.38 325.898 Q3870.39 328.097 3870.39 331.893 L3870.39 346.546 L3866.11 346.546 L3866.11 320.62 L3870.39 320.62 L3870.39 324.648 Q3871.92 322.31 3873.98 321.152 Q3876.06 319.995 3878.77 319.995 Q3883.24 319.995 3885.53 322.773 Q3887.82 325.527 3887.82 330.897 Z" fill="#000000" fill-rule="nonzero" fill-opacity="1" /><path clip-path="url(#clip730)" d="M3896.31 320.62 L3900.57 320.62 L3900.57 346.546 L3896.31 346.546 L3896.31 320.62 M3896.31 310.527 L3900.57 310.527 L3900.57 315.921 L3896.31 315.921 L3896.31 310.527 Z" fill="#000000" fill-rule="nonzero" fill-opacity="1" /><path clip-path="url(#clip730)" d="M3931.04 330.897 L3931.04 346.546 L3926.78 346.546 L3926.78 331.036 Q3926.78 327.356 3925.34 325.527 Q3923.91 323.698 3921.04 323.698 Q3917.59 323.698 3915.6 325.898 Q3913.61 328.097 3913.61 331.893 L3913.61 346.546 L3909.32 346.546 L3909.32 320.62 L3913.61 320.62 L3913.61 324.648 Q3915.13 322.31 3917.19 321.152 Q3919.28 319.995 3921.99 319.995 Q3926.45 319.995 3928.75 322.773 Q3931.04 325.527 3931.04 330.897 Z" fill="#000000" fill-rule="nonzero" fill-opacity="1" /><path clip-path="url(#clip730)" d="M3956.59 333.282 Q3956.59 328.652 3954.67 326.106 Q3952.77 323.56 3949.32 323.56 Q3945.9 323.56 3943.98 326.106 Q3942.08 328.652 3942.08 333.282 Q3942.08 337.888 3943.98 340.434 Q3945.9 342.981 3949.32 342.981 Q3952.77 342.981 3954.67 340.434 Q3956.59 337.888 3956.59 333.282 M3960.85 343.328 Q3960.85 349.948 3957.91 353.166 Q3954.97 356.407 3948.91 356.407 Q3946.66 356.407 3944.67 356.059 Q3942.68 355.735 3940.81 355.041 L3940.81 350.897 Q3942.68 351.916 3944.51 352.402 Q3946.34 352.888 3948.24 352.888 Q3952.43 352.888 3954.51 350.689 Q3956.59 348.513 3956.59 344.092 L3956.59 341.985 Q3955.27 344.277 3953.21 345.411 Q3951.15 346.546 3948.28 346.546 Q3943.51 346.546 3940.6 342.911 Q3937.68 339.277 3937.68 333.282 Q3937.68 327.263 3940.6 323.629 Q3943.51 319.995 3948.28 319.995 Q3951.15 319.995 3953.21 321.129 Q3955.27 322.263 3956.59 324.555 L3956.59 320.62 L3960.85 320.62 L3960.85 343.328 Z" fill="#000000" fill-rule="nonzero" fill-opacity="1" /><path clip-path="url(#clip730)" d="M3984.88 311.986 L4004.74 311.986 L4004.74 315.921 L3989.56 315.921 L3989.56 326.106 L4003.26 326.106 L4003.26 330.041 L3989.56 330.041 L3989.56 346.546 L3984.88 346.546 L3984.88 311.986 Z" fill="#000000" fill-rule="nonzero" fill-opacity="1" /><path clip-path="url(#clip730)" d="M4019.39 333.513 Q4014.23 333.513 4012.24 334.694 Q4010.25 335.874 4010.25 338.722 Q4010.25 340.99 4011.73 342.333 Q4013.24 343.652 4015.8 343.652 Q4019.35 343.652 4021.48 341.152 Q4023.63 338.629 4023.63 334.462 L4023.63 333.513 L4019.39 333.513 M4027.89 331.754 L4027.89 346.546 L4023.63 346.546 L4023.63 342.61 Q4022.17 344.971 4019.99 346.106 Q4017.82 347.217 4014.67 347.217 Q4010.69 347.217 4008.33 344.995 Q4005.99 342.749 4005.99 338.999 Q4005.99 334.624 4008.91 332.402 Q4011.85 330.18 4017.66 330.18 L4023.63 330.18 L4023.63 329.763 Q4023.63 326.823 4021.68 325.226 Q4019.76 323.606 4016.27 323.606 Q4014.05 323.606 4011.94 324.138 Q4009.83 324.671 4007.89 325.735 L4007.89 321.8 Q4010.23 320.898 4012.43 320.458 Q4014.62 319.995 4016.71 319.995 Q4022.33 319.995 4025.11 322.911 Q4027.89 325.828 4027.89 331.754 Z" fill="#000000" fill-rule="nonzero" fill-opacity="1" /><path clip-path="url(#clip730)" d="M4036.66 320.62 L4040.92 320.62 L4040.92 346.546 L4036.66 346.546 L4036.66 320.62 M4036.66 310.527 L4040.92 310.527 L4040.92 315.921 L4036.66 315.921 L4036.66 310.527 Z" fill="#000000" fill-rule="nonzero" fill-opacity="1" /><path clip-path="url(#clip730)" d="M4064.86 324.601 Q4064.14 324.185 4063.28 323.999 Q4062.45 323.791 4061.43 323.791 Q4057.82 323.791 4055.87 326.152 Q4053.95 328.49 4053.95 332.888 L4053.95 346.546 L4049.67 346.546 L4049.67 320.62 L4053.95 320.62 L4053.95 324.648 Q4055.3 322.286 4057.45 321.152 Q4059.6 319.995 4062.68 319.995 Q4063.12 319.995 4063.65 320.064 Q4064.18 320.111 4064.83 320.226 L4064.86 324.601 Z" fill="#000000" fill-rule="nonzero" fill-opacity="1" /><path clip-path="url(#clip730)" d="M4081.5 311.986 L4086.22 311.986 L4093.49 341.198 L4100.74 311.986 L4105.99 311.986 L4113.26 341.198 L4120.5 311.986 L4125.25 311.986 L4116.57 346.546 L4110.69 346.546 L4103.4 316.546 L4096.04 346.546 L4090.16 346.546 L4081.5 311.986 Z" fill="#000000" fill-rule="nonzero" fill-opacity="1" /><path clip-path="url(#clip730)" d="M4130.23 320.62 L4134.48 320.62 L4134.48 346.546 L4130.23 346.546 L4130.23 320.62 M4130.23 310.527 L4134.48 310.527 L4134.48 315.921 L4130.23 315.921 L4130.23 310.527 Z" fill="#000000" fill-rule="nonzero" fill-opacity="1" /><path clip-path="url(#clip730)" d="M4147.61 313.259 L4147.61 320.62 L4156.38 320.62 L4156.38 323.93 L4147.61 323.93 L4147.61 338.004 Q4147.61 341.175 4148.47 342.078 Q4149.35 342.981 4152.01 342.981 L4156.38 342.981 L4156.38 346.546 L4152.01 346.546 Q4147.08 346.546 4145.2 344.717 Q4143.33 342.865 4143.33 338.004 L4143.33 323.93 L4140.2 323.93 L4140.2 320.62 L4143.33 320.62 L4143.33 313.259 L4147.61 313.259 Z" fill="#000000" fill-rule="nonzero" fill-opacity="1" /><path clip-path="url(#clip730)" d="M4183.54 330.897 L4183.54 346.546 L4179.28 346.546 L4179.28 331.036 Q4179.28 327.356 4177.84 325.527 Q4176.41 323.698 4173.54 323.698 Q4170.09 323.698 4168.1 325.898 Q4166.11 328.097 4166.11 331.893 L4166.11 346.546 L4161.82 346.546 L4161.82 310.527 L4166.11 310.527 L4166.11 324.648 Q4167.63 322.31 4169.69 321.152 Q4171.78 319.995 4174.48 319.995 Q4178.95 319.995 4181.24 322.773 Q4183.54 325.527 4183.54 330.897 Z" fill="#000000" fill-rule="nonzero" fill-opacity="1" /><path clip-path="url(#clip730)" d="M4233.16 314.648 L4233.16 319.578 Q4230.8 317.379 4228.12 316.291 Q4225.46 315.203 4222.45 315.203 Q4216.52 315.203 4213.37 318.837 Q4210.23 322.448 4210.23 329.3 Q4210.23 336.129 4213.37 339.763 Q4216.52 343.374 4222.45 343.374 Q4225.46 343.374 4228.12 342.286 Q4230.8 341.198 4233.16 338.999 L4233.16 343.884 Q4230.71 345.55 4227.96 346.384 Q4225.23 347.217 4222.17 347.217 Q4214.32 347.217 4209.81 342.425 Q4205.29 337.61 4205.29 329.3 Q4205.29 320.967 4209.81 316.175 Q4214.32 311.361 4222.17 311.361 Q4225.27 311.361 4228 312.194 Q4230.76 313.004 4233.16 314.648 Z" fill="#000000" fill-rule="nonzero" fill-opacity="1" /><path clip-path="url(#clip730)" d="M4250.25 323.606 Q4246.82 323.606 4244.83 326.291 Q4242.84 328.953 4242.84 333.606 Q4242.84 338.259 4244.81 340.944 Q4246.8 343.606 4250.25 343.606 Q4253.65 343.606 4255.64 340.921 Q4257.63 338.235 4257.63 333.606 Q4257.63 328.999 4255.64 326.314 Q4253.65 323.606 4250.25 323.606 M4250.25 319.995 Q4255.8 319.995 4258.97 323.606 Q4262.15 327.217 4262.15 333.606 Q4262.15 339.972 4258.97 343.606 Q4255.8 347.217 4250.25 347.217 Q4244.67 347.217 4241.5 343.606 Q4238.35 339.972 4238.35 333.606 Q4238.35 327.217 4241.5 323.606 Q4244.67 319.995 4250.25 319.995 Z" fill="#000000" fill-rule="nonzero" fill-opacity="1" /><path clip-path="url(#clip730)" d="M4289.39 325.597 Q4290.99 322.726 4293.21 321.361 Q4295.43 319.995 4298.44 319.995 Q4302.49 319.995 4304.69 322.842 Q4306.89 325.666 4306.89 330.897 L4306.89 346.546 L4302.61 346.546 L4302.61 331.036 Q4302.61 327.31 4301.29 325.504 Q4299.97 323.698 4297.26 323.698 Q4293.95 323.698 4292.03 325.898 Q4290.11 328.097 4290.11 331.893 L4290.11 346.546 L4285.83 346.546 L4285.83 331.036 Q4285.83 327.286 4284.51 325.504 Q4283.19 323.698 4280.43 323.698 Q4277.17 323.698 4275.25 325.921 Q4273.33 328.12 4273.33 331.893 L4273.33 346.546 L4269.04 346.546 L4269.04 320.62 L4273.33 320.62 L4273.33 324.648 Q4274.79 322.263 4276.82 321.129 Q4278.86 319.995 4281.66 319.995 Q4284.48 319.995 4286.45 321.43 Q4288.44 322.865 4289.39 325.597 Z" fill="#000000" fill-rule="nonzero" fill-opacity="1" /><path clip-path="url(#clip730)" d="M4334 333.606 Q4334 328.907 4332.05 326.245 Q4330.13 323.56 4326.75 323.56 Q4323.37 323.56 4321.43 326.245 Q4319.51 328.907 4319.51 333.606 Q4319.51 338.305 4321.43 340.99 Q4323.37 343.652 4326.75 343.652 Q4330.13 343.652 4332.05 340.99 Q4334 338.305 4334 333.606 M4319.51 324.555 Q4320.85 322.24 4322.89 321.129 Q4324.95 319.995 4327.79 319.995 Q4332.52 319.995 4335.46 323.745 Q4338.42 327.495 4338.42 333.606 Q4338.42 339.717 4335.46 343.467 Q4332.52 347.217 4327.79 347.217 Q4324.95 347.217 4322.89 346.106 Q4320.85 344.971 4319.51 342.657 L4319.51 346.546 L4315.22 346.546 L4315.22 310.527 L4319.51 310.527 L4319.51 324.555 Z" fill="#000000" fill-rule="nonzero" fill-opacity="1" /><path clip-path="url(#clip730)" d="M4345.48 320.62 L4349.74 320.62 L4349.74 346.546 L4345.48 346.546 L4345.48 320.62 M4345.48 310.527 L4349.74 310.527 L4349.74 315.921 L4345.48 315.921 L4345.48 310.527 Z" fill="#000000" fill-rule="nonzero" fill-opacity="1" /><path clip-path="url(#clip730)" d="M4380.2 330.897 L4380.2 346.546 L4375.94 346.546 L4375.94 331.036 Q4375.94 327.356 4374.51 325.527 Q4373.07 323.698 4370.2 323.698 Q4366.75 323.698 4364.76 325.898 Q4362.77 328.097 4362.77 331.893 L4362.77 346.546 L4358.49 346.546 L4358.49 320.62 L4362.77 320.62 L4362.77 324.648 Q4364.3 322.31 4366.36 321.152 Q4368.44 319.995 4371.15 319.995 Q4375.62 319.995 4377.91 322.773 Q4380.2 325.527 4380.2 330.897 Z" fill="#000000" fill-rule="nonzero" fill-opacity="1" /><path clip-path="url(#clip730)" d="M4410.87 332.518 L4410.87 334.601 L4391.29 334.601 Q4391.57 338.999 4393.93 341.314 Q4396.31 343.606 4400.55 343.606 Q4403 343.606 4405.29 343.004 Q4407.61 342.402 4409.88 341.198 L4409.88 345.226 Q4407.59 346.198 4405.18 346.708 Q4402.77 347.217 4400.29 347.217 Q4394.09 347.217 4390.46 343.606 Q4386.84 339.995 4386.84 333.837 Q4386.84 327.472 4390.27 323.745 Q4393.72 319.995 4399.55 319.995 Q4404.78 319.995 4407.82 323.374 Q4410.87 326.731 4410.87 332.518 M4406.61 331.268 Q4406.57 327.773 4404.65 325.689 Q4402.75 323.606 4399.6 323.606 Q4396.03 323.606 4393.88 325.62 Q4391.75 327.634 4391.43 331.291 L4406.61 331.268 Z" fill="#000000" fill-rule="nonzero" fill-opacity="1" /><path clip-path="url(#clip730)" d="M4432.89 324.601 Q4432.17 324.185 4431.31 323.999 Q4430.48 323.791 4429.46 323.791 Q4425.85 323.791 4423.9 326.152 Q4421.98 328.49 4421.98 332.888 L4421.98 346.546 L4417.7 346.546 L4417.7 320.62 L4421.98 320.62 L4421.98 324.648 Q4423.33 322.286 4425.48 321.152 Q4427.63 319.995 4430.71 319.995 Q4431.15 319.995 4431.68 320.064 Q4432.21 320.111 4432.86 320.226 L4432.89 324.601 Z" fill="#000000" fill-rule="nonzero" fill-opacity="1" /><path clip-path="url(#clip730)" d="M4473.33 313.12 L4473.33 317.68 Q4470.66 316.407 4468.3 315.782 Q4465.94 315.157 4463.74 315.157 Q4459.92 315.157 4457.84 316.638 Q4455.78 318.12 4455.78 320.851 Q4455.78 323.143 4457.15 324.323 Q4458.53 325.481 4462.38 326.198 L4465.2 326.777 Q4470.43 327.773 4472.91 330.296 Q4475.41 332.796 4475.41 337.009 Q4475.41 342.032 4472.03 344.624 Q4468.67 347.217 4462.17 347.217 Q4459.71 347.217 4456.94 346.661 Q4454.18 346.106 4451.22 345.018 L4451.22 340.203 Q4454.07 341.8 4456.8 342.61 Q4459.53 343.421 4462.17 343.421 Q4466.17 343.421 4468.35 341.847 Q4470.52 340.272 4470.52 337.356 Q4470.52 334.81 4468.95 333.374 Q4467.4 331.939 4463.83 331.222 L4460.99 330.666 Q4455.76 329.624 4453.42 327.402 Q4451.08 325.18 4451.08 321.222 Q4451.08 316.638 4454.3 313.999 Q4457.54 311.361 4463.21 311.361 Q4465.64 311.361 4468.16 311.8 Q4470.69 312.24 4473.33 313.12 Z" fill="#000000" fill-rule="nonzero" fill-opacity="1" /><path clip-path="url(#clip730)" d="M4482.52 310.527 L4486.77 310.527 L4486.77 346.546 L4482.52 346.546 L4482.52 310.527 Z" fill="#000000" fill-rule="nonzero" fill-opacity="1" /><path clip-path="url(#clip730)" d="M4495.69 320.62 L4499.95 320.62 L4499.95 346.546 L4495.69 346.546 L4495.69 320.62 M4495.69 310.527 L4499.95 310.527 L4499.95 315.921 L4495.69 315.921 L4495.69 310.527 Z" fill="#000000" fill-rule="nonzero" fill-opacity="1" /><path clip-path="url(#clip730)" d="M4527.52 321.615 L4527.52 325.597 Q4525.71 324.601 4523.88 324.115 Q4522.08 323.606 4520.22 323.606 Q4516.08 323.606 4513.79 326.245 Q4511.5 328.86 4511.5 333.606 Q4511.5 338.351 4513.79 340.99 Q4516.08 343.606 4520.22 343.606 Q4522.08 343.606 4523.88 343.12 Q4525.71 342.61 4527.52 341.615 L4527.52 345.55 Q4525.73 346.384 4523.81 346.8 Q4521.91 347.217 4519.76 347.217 Q4513.9 347.217 4510.46 343.536 Q4507.01 339.856 4507.01 333.606 Q4507.01 327.263 4510.48 323.629 Q4513.97 319.995 4520.04 319.995 Q4522.01 319.995 4523.88 320.411 Q4525.76 320.805 4527.52 321.615 Z" fill="#000000" fill-rule="nonzero" fill-opacity="1" /><path clip-path="url(#clip730)" d="M4557.1 332.518 L4557.1 334.601 L4537.52 334.601 Q4537.79 338.999 4540.15 341.314 Q4542.54 343.606 4546.77 343.606 Q4549.23 343.606 4551.52 343.004 Q4553.83 342.402 4556.1 341.198 L4556.1 345.226 Q4553.81 346.198 4551.4 346.708 Q4549 347.217 4546.52 347.217 Q4540.32 347.217 4536.68 343.606 Q4533.07 339.995 4533.07 333.837 Q4533.07 327.472 4536.5 323.745 Q4539.95 319.995 4545.78 319.995 Q4551.01 319.995 4554.04 323.374 Q4557.1 326.731 4557.1 332.518 M4552.84 331.268 Q4552.79 327.773 4550.87 325.689 Q4548.97 323.606 4545.83 323.606 Q4542.26 323.606 4540.11 325.62 Q4537.98 327.634 4537.65 331.291 L4552.84 331.268 Z" fill="#000000" fill-rule="nonzero" fill-opacity="1" /><path clip-path="url(#clip730)" d="M3269.36 401.842 L3562.84 401.842 L3562.84 360.37 L3269.36 360.37 L3269.36 401.842  Z" fill="#ac8d18" fill-rule="evenodd" fill-opacity="1"/>
<polyline clip-path="url(#clip730)" style="stroke:#000000; stroke-linecap:round; stroke-linejoin:round; stroke-width:4; stroke-opacity:1; fill:none" points="3269.36,401.842 3562.84,401.842 3562.84,360.37 3269.36,360.37 3269.36,401.842 "/>
<path clip-path="url(#clip730)" d="M3611.76 363.826 L3618.72 363.826 L3627.54 387.344 L3636.41 363.826 L3643.38 363.826 L3643.38 398.386 L3638.82 398.386 L3638.82 368.038 L3629.9 391.742 L3625.21 391.742 L3616.29 368.038 L3616.29 398.386 L3611.76 398.386 L3611.76 363.826 Z" fill="#000000" fill-rule="nonzero" fill-opacity="1" /><path clip-path="url(#clip730)" d="M3652.03 388.154 L3652.03 372.46 L3656.29 372.46 L3656.29 387.992 Q3656.29 391.673 3657.73 393.524 Q3659.16 395.353 3662.03 395.353 Q3665.48 395.353 3667.47 393.154 Q3669.49 390.955 3669.49 387.159 L3669.49 372.46 L3673.75 372.46 L3673.75 398.386 L3669.49 398.386 L3669.49 394.404 Q3667.94 396.765 3665.88 397.923 Q3663.84 399.057 3661.13 399.057 Q3656.66 399.057 3654.35 396.279 Q3652.03 393.501 3652.03 388.154 M3662.75 371.835 L3662.75 371.835 Z" fill="#000000" fill-rule="nonzero" fill-opacity="1" /><path clip-path="url(#clip730)" d="M3686.73 365.099 L3686.73 372.46 L3695.51 372.46 L3695.51 375.77 L3686.73 375.77 L3686.73 389.844 Q3686.73 393.015 3687.59 393.918 Q3688.47 394.821 3691.13 394.821 L3695.51 394.821 L3695.51 398.386 L3691.13 398.386 Q3686.2 398.386 3684.33 396.557 Q3682.45 394.705 3682.45 389.844 L3682.45 375.77 L3679.33 375.77 L3679.33 372.46 L3682.45 372.46 L3682.45 365.099 L3686.73 365.099 Z" fill="#000000" fill-rule="nonzero" fill-opacity="1" /><path clip-path="url(#clip730)" d="M3723.28 384.358 L3723.28 386.441 L3703.7 386.441 Q3703.98 390.839 3706.34 393.154 Q3708.72 395.446 3712.96 395.446 Q3715.41 395.446 3717.7 394.844 Q3720.02 394.242 3722.29 393.038 L3722.29 397.066 Q3720 398.038 3717.59 398.548 Q3715.18 399.057 3712.7 399.057 Q3706.5 399.057 3702.87 395.446 Q3699.26 391.835 3699.26 385.677 Q3699.26 379.312 3702.68 375.585 Q3706.13 371.835 3711.96 371.835 Q3717.2 371.835 3720.23 375.214 Q3723.28 378.571 3723.28 384.358 M3719.02 383.108 Q3718.98 379.613 3717.06 377.529 Q3715.16 375.446 3712.01 375.446 Q3708.45 375.446 3706.29 377.46 Q3704.16 379.474 3703.84 383.131 L3719.02 383.108 Z" fill="#000000" fill-rule="nonzero" fill-opacity="1" /><path clip-path="url(#clip730)" d="M3750.99 372.46 L3741.62 385.075 L3751.48 398.386 L3746.45 398.386 L3738.91 388.2 L3731.36 398.386 L3726.34 398.386 L3736.41 384.821 L3727.2 372.46 L3732.22 372.46 L3739.09 381.696 L3745.97 372.46 L3750.99 372.46 Z" fill="#000000" fill-rule="nonzero" fill-opacity="1" /><path clip-path="url(#clip730)" d="M3269.36 453.682 L3562.84 453.682 L3562.84 412.21 L3269.36 412.21 L3269.36 453.682  Z" fill="#00a9ad" fill-rule="evenodd" fill-opacity="1"/>
<polyline clip-path="url(#clip730)" style="stroke:#000000; stroke-linecap:round; stroke-linejoin:round; stroke-width:4; stroke-opacity:1; fill:none" points="3269.36,453.682 3562.84,453.682 3562.84,412.21 3269.36,412.21 3269.36,453.682 "/>
<path clip-path="url(#clip730)" d="M3628.14 434.022 Q3629.65 434.531 3631.06 436.198 Q3632.5 437.865 3633.93 440.781 L3638.68 450.226 L3633.65 450.226 L3629.23 441.36 Q3627.52 437.888 3625.9 436.753 Q3624.3 435.619 3621.52 435.619 L3616.43 435.619 L3616.43 450.226 L3611.76 450.226 L3611.76 415.666 L3622.31 415.666 Q3628.24 415.666 3631.15 418.142 Q3634.07 420.619 3634.07 425.619 Q3634.07 428.883 3632.54 431.036 Q3631.04 433.189 3628.14 434.022 M3616.43 419.508 L3616.43 431.777 L3622.31 431.777 Q3625.69 431.777 3627.4 430.226 Q3629.14 428.652 3629.14 425.619 Q3629.14 422.587 3627.4 421.059 Q3625.69 419.508 3622.31 419.508 L3616.43 419.508 Z" fill="#000000" fill-rule="nonzero" fill-opacity="1" /><path clip-path="url(#clip730)" d="M3668.21 418.328 L3668.21 423.258 Q3665.85 421.059 3663.17 419.971 Q3660.51 418.883 3657.5 418.883 Q3651.57 418.883 3648.42 422.517 Q3645.27 426.128 3645.27 432.98 Q3645.27 439.809 3648.42 443.443 Q3651.57 447.054 3657.5 447.054 Q3660.51 447.054 3663.17 445.966 Q3665.85 444.878 3668.21 442.679 L3668.21 447.564 Q3665.76 449.23 3663.01 450.064 Q3660.27 450.897 3657.22 450.897 Q3649.37 450.897 3644.86 446.105 Q3640.34 441.29 3640.34 432.98 Q3640.34 424.647 3644.86 419.855 Q3649.37 415.041 3657.22 415.041 Q3660.32 415.041 3663.05 415.874 Q3665.81 416.684 3668.21 418.328 Z" fill="#000000" fill-rule="nonzero" fill-opacity="1" /><path clip-path="url(#clip730)" d="M3675.44 415.666 L3680.11 415.666 L3680.11 446.29 L3696.94 446.29 L3696.94 450.226 L3675.44 450.226 L3675.44 415.666 Z" fill="#000000" fill-rule="nonzero" fill-opacity="1" /></svg>
