<?xml version="1.0" encoding="utf-8"?>
<svg xmlns="http://www.w3.org/2000/svg" xmlns:xlink="http://www.w3.org/1999/xlink" width="1200" height="600" viewBox="0 0 4800 2400">
<defs>
  <clipPath id="clip440">
    <rect x="0" y="0" width="4800" height="2400"/>
  </clipPath>
</defs>
<path clip-path="url(#clip440)" d="M0 2400 L4800 2400 L4800 0 L0 0  Z" fill="#ffffff" fill-rule="evenodd" fill-opacity="1"/>
<defs>
  <clipPath id="clip441">
    <rect x="960" y="0" width="3361" height="2400"/>
  </clipPath>
</defs>
<path clip-path="url(#clip440)" d="M300.34 2287.09 L4752.76 2287.09 L4752.76 47.2441 L300.34 47.2441  Z" fill="#ffffff" fill-rule="evenodd" fill-opacity="1"/>
<defs>
  <clipPath id="clip442">
    <rect x="300" y="47" width="4453" height="2241"/>
  </clipPath>
</defs>
<polyline clip-path="url(#clip442)" style="stroke:#000000; stroke-linecap:round; stroke-linejoin:round; stroke-width:2; stroke-opacity:0.1; fill:none" points="966.612,2287.09 966.612,47.2441 "/>
<polyline clip-path="url(#clip442)" style="stroke:#000000; stroke-linecap:round; stroke-linejoin:round; stroke-width:2; stroke-opacity:0.1; fill:none" points="2061.52,2287.09 2061.52,47.2441 "/>
<polyline clip-path="url(#clip442)" style="stroke:#000000; stroke-linecap:round; stroke-linejoin:round; stroke-width:2; stroke-opacity:0.1; fill:none" points="3156.43,2287.09 3156.43,47.2441 "/>
<polyline clip-path="url(#clip442)" style="stroke:#000000; stroke-linecap:round; stroke-linejoin:round; stroke-width:2; stroke-opacity:0.1; fill:none" points="4251.35,2287.09 4251.35,47.2441 "/>
<polyline clip-path="url(#clip440)" style="stroke:#000000; stroke-linecap:round; stroke-linejoin:round; stroke-width:4; stroke-opacity:1; fill:none" points="300.34,2287.09 4752.76,2287.09 "/>
<polyline clip-path="url(#clip440)" style="stroke:#000000; stroke-linecap:round; stroke-linejoin:round; stroke-width:4; stroke-opacity:1; fill:none" points="966.612,2287.09 966.612,2268.19 "/>
<polyline clip-path="url(#clip440)" style="stroke:#000000; stroke-linecap:round; stroke-linejoin:round; stroke-width:4; stroke-opacity:1; fill:none" points="2061.52,2287.09 2061.52,2268.19 "/>
<polyline clip-path="url(#clip440)" style="stroke:#000000; stroke-linecap:round; stroke-linejoin:round; stroke-width:4; stroke-opacity:1; fill:none" points="3156.43,2287.09 3156.43,2268.19 "/>
<polyline clip-path="url(#clip440)" style="stroke:#000000; stroke-linecap:round; stroke-linejoin:round; stroke-width:4; stroke-opacity:1; fill:none" points="4251.35,2287.09 4251.35,2268.19 "/>
<path clip-path="url(#clip440)" d="M966.612 2337.21 Q963.001 2337.21 961.173 2340.77 Q959.367 2344.31 959.367 2351.44 Q959.367 2358.55 961.173 2362.11 Q963.001 2365.66 966.612 2365.66 Q970.247 2365.66 972.052 2362.11 Q973.881 2358.55 973.881 2351.44 Q973.881 2344.31 972.052 2340.77 Q970.247 2337.21 966.612 2337.21 M966.612 2333.5 Q972.422 2333.5 975.478 2338.11 Q978.557 2342.69 978.557 2351.44 Q978.557 2360.17 975.478 2364.78 Q972.422 2369.36 966.612 2369.36 Q960.802 2369.36 957.723 2364.78 Q954.668 2360.17 954.668 2351.44 Q954.668 2342.69 957.723 2338.11 Q960.802 2333.5 966.612 2333.5 Z" fill="#000000" fill-rule="nonzero" fill-opacity="1" /><path clip-path="url(#clip440)" d="M2051.91 2364.75 L2059.54 2364.75 L2059.54 2338.39 L2051.23 2340.05 L2051.23 2335.79 L2059.5 2334.13 L2064.17 2334.13 L2064.17 2364.75 L2071.81 2364.75 L2071.81 2368.69 L2051.91 2368.69 L2051.91 2364.75 Z" fill="#000000" fill-rule="nonzero" fill-opacity="1" /><path clip-path="url(#clip440)" d="M3151.09 2364.75 L3167.41 2364.75 L3167.41 2368.69 L3145.46 2368.69 L3145.46 2364.75 Q3148.12 2362 3152.71 2357.37 Q3157.31 2352.72 3158.49 2351.37 Q3160.74 2348.85 3161.62 2347.11 Q3162.52 2345.35 3162.52 2343.66 Q3162.52 2340.91 3160.58 2339.17 Q3158.66 2337.44 3155.56 2337.44 Q3153.36 2337.44 3150.9 2338.2 Q3148.47 2338.97 3145.69 2340.52 L3145.69 2335.79 Q3148.52 2334.66 3150.97 2334.08 Q3153.43 2333.5 3155.46 2333.5 Q3160.83 2333.5 3164.03 2336.19 Q3167.22 2338.87 3167.22 2343.36 Q3167.22 2345.49 3166.41 2347.41 Q3165.62 2349.31 3163.52 2351.91 Q3162.94 2352.58 3159.84 2355.79 Q3156.74 2358.99 3151.09 2364.75 Z" fill="#000000" fill-rule="nonzero" fill-opacity="1" /><path clip-path="url(#clip440)" d="M4255.59 2350.05 Q4258.95 2350.77 4260.83 2353.04 Q4262.72 2355.31 4262.72 2358.64 Q4262.72 2363.76 4259.2 2366.56 Q4255.69 2369.36 4249.2 2369.36 Q4247.03 2369.36 4244.71 2368.92 Q4242.42 2368.5 4239.97 2367.65 L4239.97 2363.13 Q4241.91 2364.27 4244.23 2364.85 Q4246.54 2365.42 4249.07 2365.42 Q4253.46 2365.42 4255.76 2363.69 Q4258.07 2361.95 4258.07 2358.64 Q4258.07 2355.59 4255.92 2353.87 Q4253.79 2352.14 4249.97 2352.14 L4245.94 2352.14 L4245.94 2348.29 L4250.15 2348.29 Q4253.6 2348.29 4255.43 2346.93 Q4257.26 2345.54 4257.26 2342.95 Q4257.26 2340.29 4255.36 2338.87 Q4253.49 2337.44 4249.97 2337.44 Q4248.05 2337.44 4245.85 2337.85 Q4243.65 2338.27 4241.01 2339.15 L4241.01 2334.98 Q4243.67 2334.24 4245.99 2333.87 Q4248.33 2333.5 4250.39 2333.5 Q4255.71 2333.5 4258.81 2335.93 Q4261.91 2338.34 4261.91 2342.46 Q4261.91 2345.33 4260.27 2347.32 Q4258.63 2349.29 4255.59 2350.05 Z" fill="#000000" fill-rule="nonzero" fill-opacity="1" /><polyline clip-path="url(#clip442)" style="stroke:#000000; stroke-linecap:round; stroke-linejoin:round; stroke-width:2; stroke-opacity:0.1; fill:none" points="300.34,2223.7 4752.76,2223.7 "/>
<polyline clip-path="url(#clip442)" style="stroke:#000000; stroke-linecap:round; stroke-linejoin:round; stroke-width:2; stroke-opacity:0.1; fill:none" points="300.34,1892.29 4752.76,1892.29 "/>
<polyline clip-path="url(#clip442)" style="stroke:#000000; stroke-linecap:round; stroke-linejoin:round; stroke-width:2; stroke-opacity:0.1; fill:none" points="300.34,1560.88 4752.76,1560.88 "/>
<polyline clip-path="url(#clip442)" style="stroke:#000000; stroke-linecap:round; stroke-linejoin:round; stroke-width:2; stroke-opacity:0.1; fill:none" points="300.34,1229.47 4752.76,1229.47 "/>
<polyline clip-path="url(#clip442)" style="stroke:#000000; stroke-linecap:round; stroke-linejoin:round; stroke-width:2; stroke-opacity:0.1; fill:none" points="300.34,898.067 4752.76,898.067 "/>
<polyline clip-path="url(#clip442)" style="stroke:#000000; stroke-linecap:round; stroke-linejoin:round; stroke-width:2; stroke-opacity:0.1; fill:none" points="300.34,566.66 4752.76,566.66 "/>
<polyline clip-path="url(#clip442)" style="stroke:#000000; stroke-linecap:round; stroke-linejoin:round; stroke-width:2; stroke-opacity:0.1; fill:none" points="300.34,235.253 4752.76,235.253 "/>
<polyline clip-path="url(#clip440)" style="stroke:#000000; stroke-linecap:round; stroke-linejoin:round; stroke-width:4; stroke-opacity:1; fill:none" points="300.34,2287.09 300.34,47.2441 "/>
<polyline clip-path="url(#clip440)" style="stroke:#000000; stroke-linecap:round; stroke-linejoin:round; stroke-width:4; stroke-opacity:1; fill:none" points="300.34,2223.7 319.238,2223.7 "/>
<polyline clip-path="url(#clip440)" style="stroke:#000000; stroke-linecap:round; stroke-linejoin:round; stroke-width:4; stroke-opacity:1; fill:none" points="300.34,1892.29 319.238,1892.29 "/>
<polyline clip-path="url(#clip440)" style="stroke:#000000; stroke-linecap:round; stroke-linejoin:round; stroke-width:4; stroke-opacity:1; fill:none" points="300.34,1560.88 319.238,1560.88 "/>
<polyline clip-path="url(#clip440)" style="stroke:#000000; stroke-linecap:round; stroke-linejoin:round; stroke-width:4; stroke-opacity:1; fill:none" points="300.34,1229.47 319.238,1229.47 "/>
<polyline clip-path="url(#clip440)" style="stroke:#000000; stroke-linecap:round; stroke-linejoin:round; stroke-width:4; stroke-opacity:1; fill:none" points="300.34,898.067 319.238,898.067 "/>
<polyline clip-path="url(#clip440)" style="stroke:#000000; stroke-linecap:round; stroke-linejoin:round; stroke-width:4; stroke-opacity:1; fill:none" points="300.34,566.66 319.238,566.66 "/>
<polyline clip-path="url(#clip440)" style="stroke:#000000; stroke-linecap:round; stroke-linejoin:round; stroke-width:4; stroke-opacity:1; fill:none" points="300.34,235.253 319.238,235.253 "/>
<path clip-path="url(#clip440)" d="M216.396 2209.49 Q212.785 2209.49 210.956 2213.06 Q209.15 2216.6 209.15 2223.73 Q209.15 2230.84 210.956 2234.4 Q212.785 2237.94 216.396 2237.94 Q220.03 2237.94 221.835 2234.4 Q223.664 2230.84 223.664 2223.73 Q223.664 2216.6 221.835 2213.06 Q220.03 2209.49 216.396 2209.49 M216.396 2205.79 Q222.206 2205.79 225.261 2210.4 Q228.34 2214.98 228.34 2223.73 Q228.34 2232.46 225.261 2237.06 Q222.206 2241.65 216.396 2241.65 Q210.586 2241.65 207.507 2237.06 Q204.451 2232.46 204.451 2223.73 Q204.451 2214.98 207.507 2210.4 Q210.586 2205.79 216.396 2205.79 Z" fill="#000000" fill-rule="nonzero" fill-opacity="1" /><path clip-path="url(#clip440)" d="M42.5569 1912.08 L50.1958 1912.08 L50.1958 1885.72 L41.8856 1887.38 L41.8856 1883.12 L50.1495 1881.46 L54.8254 1881.46 L54.8254 1912.08 L62.4642 1912.08 L62.4642 1916.02 L42.5569 1916.02 L42.5569 1912.08 Z" fill="#000000" fill-rule="nonzero" fill-opacity="1" /><path clip-path="url(#clip440)" d="M71.9086 1910.14 L76.7928 1910.14 L76.7928 1916.02 L71.9086 1916.02 L71.9086 1910.14 Z" fill="#000000" fill-rule="nonzero" fill-opacity="1" /><path clip-path="url(#clip440)" d="M96.9779 1884.54 Q93.3668 1884.54 91.5381 1888.1 Q89.7326 1891.64 89.7326 1898.77 Q89.7326 1905.88 91.5381 1909.44 Q93.3668 1912.98 96.9779 1912.98 Q100.612 1912.98 102.418 1909.44 Q104.246 1905.88 104.246 1898.77 Q104.246 1891.64 102.418 1888.1 Q100.612 1884.54 96.9779 1884.54 M96.9779 1880.83 Q102.788 1880.83 105.844 1885.44 Q108.922 1890.02 108.922 1898.77 Q108.922 1907.5 105.844 1912.1 Q102.788 1916.69 96.9779 1916.69 Q91.1678 1916.69 88.0891 1912.1 Q85.0335 1907.5 85.0335 1898.77 Q85.0335 1890.02 88.0891 1885.44 Q91.1678 1880.83 96.9779 1880.83 Z" fill="#000000" fill-rule="nonzero" fill-opacity="1" /><path clip-path="url(#clip440)" d="M145.311 1890.55 L134.732 1901.18 L145.311 1911.76 L142.556 1914.56 L131.931 1903.93 L121.306 1914.56 L118.575 1911.76 L129.131 1901.18 L118.575 1890.55 L121.306 1887.75 L131.931 1898.38 L142.556 1887.75 L145.311 1890.55 Z" fill="#000000" fill-rule="nonzero" fill-opacity="1" /><path clip-path="url(#clip440)" d="M157.672 1912.08 L165.311 1912.08 L165.311 1885.72 L157.001 1887.38 L157.001 1883.12 L165.265 1881.46 L169.94 1881.46 L169.94 1912.08 L177.579 1912.08 L177.579 1916.02 L157.672 1916.02 L157.672 1912.08 Z" fill="#000000" fill-rule="nonzero" fill-opacity="1" /><path clip-path="url(#clip440)" d="M197.024 1884.54 Q193.413 1884.54 191.584 1888.1 Q189.778 1891.64 189.778 1898.77 Q189.778 1905.88 191.584 1909.44 Q193.413 1912.98 197.024 1912.98 Q200.658 1912.98 202.463 1909.44 Q204.292 1905.88 204.292 1898.77 Q204.292 1891.64 202.463 1888.1 Q200.658 1884.54 197.024 1884.54 M197.024 1880.83 Q202.834 1880.83 205.889 1885.44 Q208.968 1890.02 208.968 1898.77 Q208.968 1907.5 205.889 1912.1 Q202.834 1916.69 197.024 1916.69 Q191.214 1916.69 188.135 1912.1 Q185.079 1907.5 185.079 1898.77 Q185.079 1890.02 188.135 1885.44 Q191.214 1880.83 197.024 1880.83 Z" fill="#000000" fill-rule="nonzero" fill-opacity="1" /><path clip-path="url(#clip440)" d="M210.774 1888.02 L210.774 1884.56 Q212.203 1885.24 213.67 1885.6 Q215.137 1885.95 216.548 1885.95 Q220.309 1885.95 222.284 1883.43 Q224.278 1880.89 224.56 1875.74 Q223.469 1877.36 221.795 1878.22 Q220.121 1879.09 218.09 1879.09 Q213.877 1879.09 211.413 1876.55 Q208.968 1873.99 208.968 1869.57 Q208.968 1865.25 211.526 1862.63 Q214.084 1860.02 218.334 1860.02 Q223.206 1860.02 225.763 1863.76 Q228.34 1867.48 228.34 1874.59 Q228.34 1881.23 225.18 1885.2 Q222.039 1889.15 216.717 1889.15 Q215.287 1889.15 213.82 1888.87 Q212.353 1888.59 210.774 1888.02 M218.334 1876.12 Q220.892 1876.12 222.378 1874.37 Q223.883 1872.62 223.883 1869.57 Q223.883 1866.54 222.378 1864.8 Q220.892 1863.03 218.334 1863.03 Q215.776 1863.03 214.272 1864.8 Q212.786 1866.54 212.786 1869.57 Q212.786 1872.62 214.272 1874.37 Q215.776 1876.12 218.334 1876.12 Z" fill="#000000" fill-rule="nonzero" fill-opacity="1" /><path clip-path="url(#clip440)" d="M45.7745 1580.67 L62.0939 1580.67 L62.0939 1584.61 L40.1495 1584.61 L40.1495 1580.67 Q42.8115 1577.92 47.3949 1573.29 Q52.0013 1568.64 53.1819 1567.29 Q55.4272 1564.77 56.3068 1563.04 Q57.2096 1561.28 57.2096 1559.59 Q57.2096 1556.83 55.2652 1555.1 Q53.3439 1553.36 50.2421 1553.36 Q48.043 1553.36 45.5893 1554.12 Q43.1588 1554.89 40.381 1556.44 L40.381 1551.72 Q43.2051 1550.58 45.6588 1550 Q48.1124 1549.42 50.1495 1549.42 Q55.5198 1549.42 58.7142 1552.11 Q61.9087 1554.79 61.9087 1559.29 Q61.9087 1561.41 61.0985 1563.34 Q60.3115 1565.23 58.205 1567.83 Q57.6263 1568.5 54.5245 1571.72 Q51.4226 1574.91 45.7745 1580.67 Z" fill="#000000" fill-rule="nonzero" fill-opacity="1" /><path clip-path="url(#clip440)" d="M71.9086 1578.73 L76.7928 1578.73 L76.7928 1584.61 L71.9086 1584.61 L71.9086 1578.73 Z" fill="#000000" fill-rule="nonzero" fill-opacity="1" /><path clip-path="url(#clip440)" d="M96.9779 1553.13 Q93.3668 1553.13 91.5381 1556.69 Q89.7326 1560.23 89.7326 1567.36 Q89.7326 1574.47 91.5381 1578.04 Q93.3668 1581.58 96.9779 1581.58 Q100.612 1581.58 102.418 1578.04 Q104.246 1574.47 104.246 1567.36 Q104.246 1560.23 102.418 1556.69 Q100.612 1553.13 96.9779 1553.13 M96.9779 1549.42 Q102.788 1549.42 105.844 1554.03 Q108.922 1558.61 108.922 1567.36 Q108.922 1576.09 105.844 1580.7 Q102.788 1585.28 96.9779 1585.28 Q91.1678 1585.28 88.0891 1580.7 Q85.0335 1576.09 85.0335 1567.36 Q85.0335 1558.61 88.0891 1554.03 Q91.1678 1549.42 96.9779 1549.42 Z" fill="#000000" fill-rule="nonzero" fill-opacity="1" /><path clip-path="url(#clip440)" d="M145.311 1559.15 L134.732 1569.77 L145.311 1580.35 L142.556 1583.15 L131.931 1572.53 L121.306 1583.15 L118.575 1580.35 L129.131 1569.77 L118.575 1559.15 L121.306 1556.35 L131.931 1566.97 L142.556 1556.35 L145.311 1559.15 Z" fill="#000000" fill-rule="nonzero" fill-opacity="1" /><path clip-path="url(#clip440)" d="M157.672 1580.67 L165.311 1580.67 L165.311 1554.31 L157.001 1555.98 L157.001 1551.72 L165.265 1550.05 L169.94 1550.05 L169.94 1580.67 L177.579 1580.67 L177.579 1584.61 L157.672 1584.61 L157.672 1580.67 Z" fill="#000000" fill-rule="nonzero" fill-opacity="1" /><path clip-path="url(#clip440)" d="M197.024 1553.13 Q193.413 1553.13 191.584 1556.69 Q189.778 1560.23 189.778 1567.36 Q189.778 1574.47 191.584 1578.04 Q193.413 1581.58 197.024 1581.58 Q200.658 1581.58 202.463 1578.04 Q204.292 1574.47 204.292 1567.36 Q204.292 1560.23 202.463 1556.69 Q200.658 1553.13 197.024 1553.13 M197.024 1549.42 Q202.834 1549.42 205.889 1554.03 Q208.968 1558.61 208.968 1567.36 Q208.968 1576.09 205.889 1580.7 Q202.834 1585.28 197.024 1585.28 Q191.214 1585.28 188.135 1580.7 Q185.079 1576.09 185.079 1567.36 Q185.079 1558.61 188.135 1554.03 Q191.214 1549.42 197.024 1549.42 Z" fill="#000000" fill-rule="nonzero" fill-opacity="1" /><path clip-path="url(#clip440)" d="M210.774 1556.62 L210.774 1553.16 Q212.203 1553.83 213.67 1554.19 Q215.137 1554.55 216.548 1554.55 Q220.309 1554.55 222.284 1552.03 Q224.278 1549.49 224.56 1544.33 Q223.469 1545.95 221.795 1546.82 Q220.121 1547.68 218.09 1547.68 Q213.877 1547.68 211.413 1545.14 Q208.968 1542.59 208.968 1538.17 Q208.968 1533.84 211.526 1531.23 Q214.084 1528.61 218.334 1528.61 Q223.206 1528.61 225.763 1532.35 Q228.34 1536.08 228.34 1543.19 Q228.34 1549.83 225.18 1553.79 Q222.039 1557.74 216.717 1557.74 Q215.287 1557.74 213.82 1557.46 Q212.353 1557.18 210.774 1556.62 M218.334 1544.71 Q220.892 1544.71 222.378 1542.96 Q223.883 1541.21 223.883 1538.17 Q223.883 1535.14 222.378 1533.39 Q220.892 1531.62 218.334 1531.62 Q215.776 1531.62 214.272 1533.39 Q212.786 1535.14 212.786 1538.17 Q212.786 1541.21 214.272 1542.96 Q215.776 1544.71 218.334 1544.71 Z" fill="#000000" fill-rule="nonzero" fill-opacity="1" /><path clip-path="url(#clip440)" d="M55.9133 1234.57 Q59.2698 1235.29 61.1448 1237.55 Q63.0429 1239.82 63.0429 1243.16 Q63.0429 1248.27 59.5244 1251.07 Q56.0059 1253.87 49.5245 1253.87 Q47.3486 1253.87 45.0338 1253.43 Q42.7421 1253.02 40.2884 1252.16 L40.2884 1247.65 Q42.2328 1248.78 44.5477 1249.36 Q46.8625 1249.94 49.3856 1249.94 Q53.7837 1249.94 56.0754 1248.2 Q58.3902 1246.47 58.3902 1243.16 Q58.3902 1240.1 56.2374 1238.39 Q54.1078 1236.65 50.2884 1236.65 L46.2606 1236.65 L46.2606 1232.81 L50.4735 1232.81 Q53.9226 1232.81 55.7513 1231.44 Q57.58 1230.05 57.58 1227.46 Q57.58 1224.8 55.6819 1223.39 Q53.8069 1221.95 50.2884 1221.95 Q48.3671 1221.95 46.168 1222.37 Q43.969 1222.79 41.3301 1223.67 L41.3301 1219.5 Q43.9921 1218.76 46.3069 1218.39 Q48.6449 1218.02 50.705 1218.02 Q56.0291 1218.02 59.1309 1220.45 Q62.2327 1222.85 62.2327 1226.98 Q62.2327 1229.85 60.5892 1231.84 Q58.9457 1233.8 55.9133 1234.57 Z" fill="#000000" fill-rule="nonzero" fill-opacity="1" /><path clip-path="url(#clip440)" d="M71.9086 1247.32 L76.7928 1247.32 L76.7928 1253.2 L71.9086 1253.2 L71.9086 1247.32 Z" fill="#000000" fill-rule="nonzero" fill-opacity="1" /><path clip-path="url(#clip440)" d="M96.9779 1221.72 Q93.3668 1221.72 91.5381 1225.29 Q89.7326 1228.83 89.7326 1235.96 Q89.7326 1243.06 91.5381 1246.63 Q93.3668 1250.17 96.9779 1250.17 Q100.612 1250.17 102.418 1246.63 Q104.246 1243.06 104.246 1235.96 Q104.246 1228.83 102.418 1225.29 Q100.612 1221.72 96.9779 1221.72 M96.9779 1218.02 Q102.788 1218.02 105.844 1222.62 Q108.922 1227.21 108.922 1235.96 Q108.922 1244.68 105.844 1249.29 Q102.788 1253.87 96.9779 1253.87 Q91.1678 1253.87 88.0891 1249.29 Q85.0335 1244.68 85.0335 1235.96 Q85.0335 1227.21 88.0891 1222.62 Q91.1678 1218.02 96.9779 1218.02 Z" fill="#000000" fill-rule="nonzero" fill-opacity="1" /><path clip-path="url(#clip440)" d="M145.311 1227.74 L134.732 1238.36 L145.311 1248.94 L142.556 1251.74 L131.931 1241.12 L121.306 1251.74 L118.575 1248.94 L129.131 1238.36 L118.575 1227.74 L121.306 1224.94 L131.931 1235.56 L142.556 1224.94 L145.311 1227.74 Z" fill="#000000" fill-rule="nonzero" fill-opacity="1" /><path clip-path="url(#clip440)" d="M157.672 1249.27 L165.311 1249.27 L165.311 1222.9 L157.001 1224.57 L157.001 1220.31 L165.265 1218.64 L169.94 1218.64 L169.94 1249.27 L177.579 1249.27 L177.579 1253.2 L157.672 1253.2 L157.672 1249.27 Z" fill="#000000" fill-rule="nonzero" fill-opacity="1" /><path clip-path="url(#clip440)" d="M197.024 1221.72 Q193.413 1221.72 191.584 1225.29 Q189.778 1228.83 189.778 1235.96 Q189.778 1243.06 191.584 1246.63 Q193.413 1250.17 197.024 1250.17 Q200.658 1250.17 202.463 1246.63 Q204.292 1243.06 204.292 1235.96 Q204.292 1228.83 202.463 1225.29 Q200.658 1221.72 197.024 1221.72 M197.024 1218.02 Q202.834 1218.02 205.889 1222.62 Q208.968 1227.21 208.968 1235.96 Q208.968 1244.68 205.889 1249.29 Q202.834 1253.87 197.024 1253.87 Q191.214 1253.87 188.135 1249.29 Q185.079 1244.68 185.079 1235.96 Q185.079 1227.21 188.135 1222.62 Q191.214 1218.02 197.024 1218.02 Z" fill="#000000" fill-rule="nonzero" fill-opacity="1" /><path clip-path="url(#clip440)" d="M210.774 1225.21 L210.774 1221.75 Q212.203 1222.42 213.67 1222.78 Q215.137 1223.14 216.548 1223.14 Q220.309 1223.14 222.284 1220.62 Q224.278 1218.08 224.56 1212.93 Q223.469 1214.54 221.795 1215.41 Q220.121 1216.27 218.09 1216.27 Q213.877 1216.27 211.413 1213.74 Q208.968 1211.18 208.968 1206.76 Q208.968 1202.43 211.526 1199.82 Q214.084 1197.2 218.334 1197.2 Q223.206 1197.2 225.763 1200.95 Q228.34 1204.67 228.34 1211.78 Q228.34 1218.42 225.18 1222.39 Q222.039 1226.34 216.717 1226.34 Q215.287 1226.34 213.82 1226.05 Q212.353 1225.77 210.774 1225.21 M218.334 1213.3 Q220.892 1213.3 222.378 1211.55 Q223.883 1209.8 223.883 1206.76 Q223.883 1203.73 222.378 1201.98 Q220.892 1200.21 218.334 1200.21 Q215.776 1200.21 214.272 1201.98 Q212.786 1203.73 212.786 1206.76 Q212.786 1209.8 214.272 1211.55 Q215.776 1213.3 218.334 1213.3 Z" fill="#000000" fill-rule="nonzero" fill-opacity="1" /><path clip-path="url(#clip440)" d="M54.5939 891.309 L42.7884 909.758 L54.5939 909.758 L54.5939 891.309 M53.367 887.235 L59.2466 887.235 L59.2466 909.758 L64.1772 909.758 L64.1772 913.647 L59.2466 913.647 L59.2466 921.795 L54.5939 921.795 L54.5939 913.647 L38.9921 913.647 L38.9921 909.133 L53.367 887.235 Z" fill="#000000" fill-rule="nonzero" fill-opacity="1" /><path clip-path="url(#clip440)" d="M71.9086 915.915 L76.7928 915.915 L76.7928 921.795 L71.9086 921.795 L71.9086 915.915 Z" fill="#000000" fill-rule="nonzero" fill-opacity="1" /><path clip-path="url(#clip440)" d="M96.9779 890.313 Q93.3668 890.313 91.5381 893.878 Q89.7326 897.42 89.7326 904.549 Q89.7326 911.656 91.5381 915.221 Q93.3668 918.762 96.9779 918.762 Q100.612 918.762 102.418 915.221 Q104.246 911.656 104.246 904.549 Q104.246 897.42 102.418 893.878 Q100.612 890.313 96.9779 890.313 M96.9779 886.61 Q102.788 886.61 105.844 891.216 Q108.922 895.799 108.922 904.549 Q108.922 913.276 105.844 917.883 Q102.788 922.466 96.9779 922.466 Q91.1678 922.466 88.0891 917.883 Q85.0335 913.276 85.0335 904.549 Q85.0335 895.799 88.0891 891.216 Q91.1678 886.61 96.9779 886.61 Z" fill="#000000" fill-rule="nonzero" fill-opacity="1" /><path clip-path="url(#clip440)" d="M145.311 896.332 L134.732 906.957 L145.311 917.535 L142.556 920.336 L131.931 909.711 L121.306 920.336 L118.575 917.535 L129.131 906.957 L118.575 896.332 L121.306 893.531 L131.931 904.156 L142.556 893.531 L145.311 896.332 Z" fill="#000000" fill-rule="nonzero" fill-opacity="1" /><path clip-path="url(#clip440)" d="M157.672 917.86 L165.311 917.86 L165.311 891.494 L157.001 893.161 L157.001 888.901 L165.265 887.235 L169.94 887.235 L169.94 917.86 L177.579 917.86 L177.579 921.795 L157.672 921.795 L157.672 917.86 Z" fill="#000000" fill-rule="nonzero" fill-opacity="1" /><path clip-path="url(#clip440)" d="M197.024 890.313 Q193.413 890.313 191.584 893.878 Q189.778 897.42 189.778 904.549 Q189.778 911.656 191.584 915.221 Q193.413 918.762 197.024 918.762 Q200.658 918.762 202.463 915.221 Q204.292 911.656 204.292 904.549 Q204.292 897.42 202.463 893.878 Q200.658 890.313 197.024 890.313 M197.024 886.61 Q202.834 886.61 205.889 891.216 Q208.968 895.799 208.968 904.549 Q208.968 913.276 205.889 917.883 Q202.834 922.466 197.024 922.466 Q191.214 922.466 188.135 917.883 Q185.079 913.276 185.079 904.549 Q185.079 895.799 188.135 891.216 Q191.214 886.61 197.024 886.61 Z" fill="#000000" fill-rule="nonzero" fill-opacity="1" /><path clip-path="url(#clip440)" d="M210.774 893.801 L210.774 890.341 Q212.203 891.018 213.67 891.375 Q215.137 891.732 216.548 891.732 Q220.309 891.732 222.284 889.212 Q224.278 886.673 224.56 881.52 Q223.469 883.137 221.795 884.002 Q220.121 884.868 218.09 884.868 Q213.877 884.868 211.413 882.328 Q208.968 879.771 208.968 875.351 Q208.968 871.025 211.526 868.411 Q214.084 865.796 218.334 865.796 Q223.206 865.796 225.763 869.539 Q228.34 873.263 228.34 880.372 Q228.34 887.012 225.18 890.98 Q222.039 894.93 216.717 894.93 Q215.287 894.93 213.82 894.648 Q212.353 894.365 210.774 893.801 M218.334 881.896 Q220.892 881.896 222.378 880.147 Q223.883 878.398 223.883 875.351 Q223.883 872.323 222.378 870.574 Q220.892 868.806 218.334 868.806 Q215.776 868.806 214.272 870.574 Q212.786 872.323 212.786 875.351 Q212.786 878.398 214.272 880.147 Q215.776 881.896 218.334 881.896 Z" fill="#000000" fill-rule="nonzero" fill-opacity="1" /><path clip-path="url(#clip440)" d="M41.793 555.827 L60.1494 555.827 L60.1494 559.763 L46.0754 559.763 L46.0754 568.235 Q47.0939 567.888 48.1124 567.726 Q49.131 567.54 50.1495 567.54 Q55.9365 567.54 59.3161 570.712 Q62.6957 573.883 62.6957 579.3 Q62.6957 584.878 59.2235 587.98 Q55.7513 591.059 49.4319 591.059 Q47.256 591.059 44.9875 590.688 Q42.7421 590.318 40.3347 589.577 L40.3347 584.878 Q42.418 586.012 44.6402 586.568 Q46.8625 587.124 49.3393 587.124 Q53.3439 587.124 55.6819 585.017 Q58.0198 582.911 58.0198 579.3 Q58.0198 575.688 55.6819 573.582 Q53.3439 571.475 49.3393 571.475 Q47.4643 571.475 45.5893 571.892 Q43.7375 572.309 41.793 573.188 L41.793 555.827 Z" fill="#000000" fill-rule="nonzero" fill-opacity="1" /><path clip-path="url(#clip440)" d="M71.9086 584.508 L76.7928 584.508 L76.7928 590.387 L71.9086 590.387 L71.9086 584.508 Z" fill="#000000" fill-rule="nonzero" fill-opacity="1" /><path clip-path="url(#clip440)" d="M96.9779 558.906 Q93.3668 558.906 91.5381 562.471 Q89.7326 566.013 89.7326 573.142 Q89.7326 580.249 91.5381 583.813 Q93.3668 587.355 96.9779 587.355 Q100.612 587.355 102.418 583.813 Q104.246 580.249 104.246 573.142 Q104.246 566.013 102.418 562.471 Q100.612 558.906 96.9779 558.906 M96.9779 555.202 Q102.788 555.202 105.844 559.809 Q108.922 564.392 108.922 573.142 Q108.922 581.869 105.844 586.475 Q102.788 591.059 96.9779 591.059 Q91.1678 591.059 88.0891 586.475 Q85.0335 581.869 85.0335 573.142 Q85.0335 564.392 88.0891 559.809 Q91.1678 555.202 96.9779 555.202 Z" fill="#000000" fill-rule="nonzero" fill-opacity="1" /><path clip-path="url(#clip440)" d="M145.311 564.925 L134.732 575.55 L145.311 586.128 L142.556 588.929 L131.931 578.304 L121.306 588.929 L118.575 586.128 L129.131 575.55 L118.575 564.925 L121.306 562.124 L131.931 572.749 L142.556 562.124 L145.311 564.925 Z" fill="#000000" fill-rule="nonzero" fill-opacity="1" /><path clip-path="url(#clip440)" d="M157.672 586.452 L165.311 586.452 L165.311 560.087 L157.001 561.753 L157.001 557.494 L165.265 555.827 L169.94 555.827 L169.94 586.452 L177.579 586.452 L177.579 590.387 L157.672 590.387 L157.672 586.452 Z" fill="#000000" fill-rule="nonzero" fill-opacity="1" /><path clip-path="url(#clip440)" d="M197.024 558.906 Q193.413 558.906 191.584 562.471 Q189.778 566.013 189.778 573.142 Q189.778 580.249 191.584 583.813 Q193.413 587.355 197.024 587.355 Q200.658 587.355 202.463 583.813 Q204.292 580.249 204.292 573.142 Q204.292 566.013 202.463 562.471 Q200.658 558.906 197.024 558.906 M197.024 555.202 Q202.834 555.202 205.889 559.809 Q208.968 564.392 208.968 573.142 Q208.968 581.869 205.889 586.475 Q202.834 591.059 197.024 591.059 Q191.214 591.059 188.135 586.475 Q185.079 581.869 185.079 573.142 Q185.079 564.392 188.135 559.809 Q191.214 555.202 197.024 555.202 Z" fill="#000000" fill-rule="nonzero" fill-opacity="1" /><path clip-path="url(#clip440)" d="M210.774 562.394 L210.774 558.933 Q212.203 559.61 213.67 559.968 Q215.137 560.325 216.548 560.325 Q220.309 560.325 222.284 557.805 Q224.278 555.266 224.56 550.113 Q223.469 551.73 221.795 552.595 Q220.121 553.46 218.09 553.46 Q213.877 553.46 211.413 550.921 Q208.968 548.363 208.968 543.944 Q208.968 539.618 211.526 537.003 Q214.084 534.389 218.334 534.389 Q223.206 534.389 225.763 538.132 Q228.34 541.856 228.34 548.965 Q228.34 555.604 225.18 559.573 Q222.039 563.522 216.717 563.522 Q215.287 563.522 213.82 563.24 Q212.353 562.958 210.774 562.394 M218.334 550.489 Q220.892 550.489 222.378 548.74 Q223.883 546.99 223.883 543.944 Q223.883 540.916 222.378 539.166 Q220.892 537.398 218.334 537.398 Q215.776 537.398 214.272 539.166 Q212.786 540.916 212.786 543.944 Q212.786 546.99 214.272 548.74 Q215.776 550.489 218.334 550.489 Z" fill="#000000" fill-rule="nonzero" fill-opacity="1" /><path clip-path="url(#clip440)" d="M52.3254 239.837 Q49.1773 239.837 47.3254 241.99 Q45.4967 244.142 45.4967 247.892 Q45.4967 251.619 47.3254 253.795 Q49.1773 255.948 52.3254 255.948 Q55.4735 255.948 57.3022 253.795 Q59.1541 251.619 59.1541 247.892 Q59.1541 244.142 57.3022 241.99 Q55.4735 239.837 52.3254 239.837 M61.6077 225.184 L61.6077 229.443 Q59.8485 228.61 58.0429 228.17 Q56.2606 227.73 54.5013 227.73 Q49.8717 227.73 47.418 230.855 Q44.9875 233.98 44.6402 240.3 Q46.006 238.286 48.0662 237.221 Q50.1263 236.133 52.6032 236.133 Q57.8115 236.133 60.8207 239.304 Q63.8531 242.452 63.8531 247.892 Q63.8531 253.216 60.705 256.434 Q57.5568 259.651 52.3254 259.651 Q46.33 259.651 43.1588 255.068 Q39.9875 250.462 39.9875 241.735 Q39.9875 233.54 43.8764 228.679 Q47.7652 223.795 54.3161 223.795 Q56.0754 223.795 57.8578 224.142 Q59.6633 224.49 61.6077 225.184 Z" fill="#000000" fill-rule="nonzero" fill-opacity="1" /><path clip-path="url(#clip440)" d="M71.9086 253.101 L76.7928 253.101 L76.7928 258.98 L71.9086 258.98 L71.9086 253.101 Z" fill="#000000" fill-rule="nonzero" fill-opacity="1" /><path clip-path="url(#clip440)" d="M96.9779 227.499 Q93.3668 227.499 91.5381 231.064 Q89.7326 234.605 89.7326 241.735 Q89.7326 248.841 91.5381 252.406 Q93.3668 255.948 96.9779 255.948 Q100.612 255.948 102.418 252.406 Q104.246 248.841 104.246 241.735 Q104.246 234.605 102.418 231.064 Q100.612 227.499 96.9779 227.499 M96.9779 223.795 Q102.788 223.795 105.844 228.402 Q108.922 232.985 108.922 241.735 Q108.922 250.462 105.844 255.068 Q102.788 259.651 96.9779 259.651 Q91.1678 259.651 88.0891 255.068 Q85.0335 250.462 85.0335 241.735 Q85.0335 232.985 88.0891 228.402 Q91.1678 223.795 96.9779 223.795 Z" fill="#000000" fill-rule="nonzero" fill-opacity="1" /><path clip-path="url(#clip440)" d="M145.311 233.517 L134.732 244.142 L145.311 254.721 L142.556 257.522 L131.931 246.897 L121.306 257.522 L118.575 254.721 L129.131 244.142 L118.575 233.517 L121.306 230.716 L131.931 241.341 L142.556 230.716 L145.311 233.517 Z" fill="#000000" fill-rule="nonzero" fill-opacity="1" /><path clip-path="url(#clip440)" d="M157.672 255.045 L165.311 255.045 L165.311 228.679 L157.001 230.346 L157.001 226.087 L165.265 224.42 L169.94 224.42 L169.94 255.045 L177.579 255.045 L177.579 258.98 L157.672 258.98 L157.672 255.045 Z" fill="#000000" fill-rule="nonzero" fill-opacity="1" /><path clip-path="url(#clip440)" d="M197.024 227.499 Q193.413 227.499 191.584 231.064 Q189.778 234.605 189.778 241.735 Q189.778 248.841 191.584 252.406 Q193.413 255.948 197.024 255.948 Q200.658 255.948 202.463 252.406 Q204.292 248.841 204.292 241.735 Q204.292 234.605 202.463 231.064 Q200.658 227.499 197.024 227.499 M197.024 223.795 Q202.834 223.795 205.889 228.402 Q208.968 232.985 208.968 241.735 Q208.968 250.462 205.889 255.068 Q202.834 259.651 197.024 259.651 Q191.214 259.651 188.135 255.068 Q185.079 250.462 185.079 241.735 Q185.079 232.985 188.135 228.402 Q191.214 223.795 197.024 223.795 Z" fill="#000000" fill-rule="nonzero" fill-opacity="1" /><path clip-path="url(#clip440)" d="M210.774 230.987 L210.774 227.526 Q212.203 228.203 213.67 228.561 Q215.137 228.918 216.548 228.918 Q220.309 228.918 222.284 226.398 Q224.278 223.859 224.56 218.705 Q223.469 220.323 221.795 221.188 Q220.121 222.053 218.09 222.053 Q213.877 222.053 211.413 219.514 Q208.968 216.956 208.968 212.536 Q208.968 208.211 211.526 205.596 Q214.084 202.982 218.334 202.982 Q223.206 202.982 225.763 206.725 Q228.34 210.449 228.34 217.558 Q228.34 224.197 225.18 228.166 Q222.039 232.115 216.717 232.115 Q215.287 232.115 213.82 231.833 Q212.353 231.551 210.774 230.987 M218.334 219.081 Q220.892 219.081 222.378 217.332 Q223.883 215.583 223.883 212.536 Q223.883 209.508 222.378 207.759 Q220.892 205.991 218.334 205.991 Q215.776 205.991 214.272 207.759 Q212.786 209.508 212.786 212.536 Q212.786 215.583 214.272 217.332 Q215.776 219.081 218.334 219.081 Z" fill="#000000" fill-rule="nonzero" fill-opacity="1" /><path clip-path="url(#clip442)" d="M528.648 1805.04 L528.648 2223.7 L653.781 2223.7 L653.781 1805.04 L528.648 1805.04 L528.648 1805.04  Z" fill="#009af9" fill-rule="evenodd" fill-opacity="1"/>
<polyline clip-path="url(#clip442)" style="stroke:#000000; stroke-linecap:round; stroke-linejoin:round; stroke-width:4; stroke-opacity:1; fill:none" points="528.648,1805.04 528.648,2223.7 653.781,2223.7 653.781,1805.04 528.648,1805.04 "/>
<path clip-path="url(#clip442)" d="M1623.56 1850.6 L1623.56 2223.7 L1748.69 2223.7 L1748.69 1850.6 L1623.56 1850.6 L1623.56 1850.6  Z" fill="#009af9" fill-rule="evenodd" fill-opacity="1"/>
<polyline clip-path="url(#clip442)" style="stroke:#000000; stroke-linecap:round; stroke-linejoin:round; stroke-width:4; stroke-opacity:1; fill:none" points="1623.56,1850.6 1623.56,2223.7 1748.69,2223.7 1748.69,1850.6 1623.56,1850.6 "/>
<path clip-path="url(#clip442)" d="M2718.47 1830.81 L2718.47 2223.7 L2843.6 2223.7 L2843.6 1830.81 L2718.47 1830.81 L2718.47 1830.81  Z" fill="#009af9" fill-rule="evenodd" fill-opacity="1"/>
<polyline clip-path="url(#clip442)" style="stroke:#000000; stroke-linecap:round; stroke-linejoin:round; stroke-width:4; stroke-opacity:1; fill:none" points="2718.47,1830.81 2718.47,2223.7 2843.6,2223.7 2843.6,1830.81 2718.47,1830.81 "/>
<path clip-path="url(#clip442)" d="M3813.38 1735.12 L3813.38 2223.7 L3938.51 2223.7 L3938.51 1735.12 L3813.38 1735.12 L3813.38 1735.12  Z" fill="#009af9" fill-rule="evenodd" fill-opacity="1"/>
<polyline clip-path="url(#clip442)" style="stroke:#000000; stroke-linecap:round; stroke-linejoin:round; stroke-width:4; stroke-opacity:1; fill:none" points="3813.38,1735.12 3813.38,2223.7 3938.51,2223.7 3938.51,1735.12 3813.38,1735.12 "/>
<circle clip-path="url(#clip442)" style="fill:#009af9; stroke:none; fill-opacity:0" cx="591.214" cy="1805.04" r="2"/>
<circle clip-path="url(#clip442)" style="fill:#009af9; stroke:none; fill-opacity:0" cx="1686.13" cy="1850.6" r="2"/>
<circle clip-path="url(#clip442)" style="fill:#009af9; stroke:none; fill-opacity:0" cx="2781.04" cy="1830.81" r="2"/>
<circle clip-path="url(#clip442)" style="fill:#009af9; stroke:none; fill-opacity:0" cx="3875.95" cy="1735.12" r="2"/>
<path clip-path="url(#clip442)" d="M653.781 110.636 L653.781 2223.7 L778.913 2223.7 L778.913 110.636 L653.781 110.636 L653.781 110.636  Z" fill="#e26f46" fill-rule="evenodd" fill-opacity="1"/>
<polyline clip-path="url(#clip442)" style="stroke:#000000; stroke-linecap:round; stroke-linejoin:round; stroke-width:4; stroke-opacity:1; fill:none" points="653.781,110.636 653.781,2223.7 778.913,2223.7 778.913,110.636 653.781,110.636 "/>
<path clip-path="url(#clip442)" d="M1748.69 2223.65 L1748.69 2223.7 L1873.82 2223.7 L1873.82 2223.65 L1748.69 2223.65 L1748.69 2223.65  Z" fill="#e26f46" fill-rule="evenodd" fill-opacity="1"/>
<polyline clip-path="url(#clip442)" style="stroke:#000000; stroke-linecap:round; stroke-linejoin:round; stroke-width:4; stroke-opacity:1; fill:none" points="1748.69,2223.65 1748.69,2223.7 1873.82,2223.7 1873.82,2223.65 1748.69,2223.65 "/>
<circle clip-path="url(#clip442)" style="fill:#e26f46; stroke:none; fill-opacity:0" cx="716.347" cy="110.636" r="2"/>
<circle clip-path="url(#clip442)" style="fill:#e26f46; stroke:none; fill-opacity:0" cx="1811.26" cy="2223.65" r="2"/>
<path clip-path="url(#clip442)" d="M778.913 1455.87 L778.913 2223.7 L904.046 2223.7 L904.046 1455.87 L778.913 1455.87 L778.913 1455.87  Z" fill="#3da44d" fill-rule="evenodd" fill-opacity="1"/>
<polyline clip-path="url(#clip442)" style="stroke:#000000; stroke-linecap:round; stroke-linejoin:round; stroke-width:4; stroke-opacity:1; fill:none" points="778.913,1455.87 778.913,2223.7 904.046,2223.7 904.046,1455.87 778.913,1455.87 "/>
<path clip-path="url(#clip442)" d="M1873.82 1698.45 L1873.82 2223.7 L1998.96 2223.7 L1998.96 1698.45 L1873.82 1698.45 L1873.82 1698.45  Z" fill="#3da44d" fill-rule="evenodd" fill-opacity="1"/>
<polyline clip-path="url(#clip442)" style="stroke:#000000; stroke-linecap:round; stroke-linejoin:round; stroke-width:4; stroke-opacity:1; fill:none" points="1873.82,1698.45 1873.82,2223.7 1998.96,2223.7 1998.96,1698.45 1873.82,1698.45 "/>
<path clip-path="url(#clip442)" d="M2968.74 1788.77 L2968.74 2223.7 L3093.87 2223.7 L3093.87 1788.77 L2968.74 1788.77 L2968.74 1788.77  Z" fill="#3da44d" fill-rule="evenodd" fill-opacity="1"/>
<polyline clip-path="url(#clip442)" style="stroke:#000000; stroke-linecap:round; stroke-linejoin:round; stroke-width:4; stroke-opacity:1; fill:none" points="2968.74,1788.77 2968.74,2223.7 3093.87,2223.7 3093.87,1788.77 2968.74,1788.77 "/>
<path clip-path="url(#clip442)" d="M4063.65 1836.32 L4063.65 2223.7 L4188.78 2223.7 L4188.78 1836.32 L4063.65 1836.32 L4063.65 1836.32  Z" fill="#3da44d" fill-rule="evenodd" fill-opacity="1"/>
<polyline clip-path="url(#clip442)" style="stroke:#000000; stroke-linecap:round; stroke-linejoin:round; stroke-width:4; stroke-opacity:1; fill:none" points="4063.65,1836.32 4063.65,2223.7 4188.78,2223.7 4188.78,1836.32 4063.65,1836.32 "/>
<circle clip-path="url(#clip442)" style="fill:#3da44d; stroke:none; fill-opacity:0" cx="841.48" cy="1455.87" r="2"/>
<circle clip-path="url(#clip442)" style="fill:#3da44d; stroke:none; fill-opacity:0" cx="1936.39" cy="1698.45" r="2"/>
<circle clip-path="url(#clip442)" style="fill:#3da44d; stroke:none; fill-opacity:0" cx="3031.3" cy="1788.77" r="2"/>
<circle clip-path="url(#clip442)" style="fill:#3da44d; stroke:none; fill-opacity:0" cx="4126.21" cy="1836.32" r="2"/>
<path clip-path="url(#clip442)" d="M904.046 1629.52 L904.046 2223.7 L1029.18 2223.7 L1029.18 1629.52 L904.046 1629.52 L904.046 1629.52  Z" fill="#c271d2" fill-rule="evenodd" fill-opacity="1"/>
<polyline clip-path="url(#clip442)" style="stroke:#000000; stroke-linecap:round; stroke-linejoin:round; stroke-width:4; stroke-opacity:1; fill:none" points="904.046,1629.52 904.046,2223.7 1029.18,2223.7 1029.18,1629.52 904.046,1629.52 "/>
<path clip-path="url(#clip442)" d="M1998.96 1913.03 L1998.96 2223.7 L2124.09 2223.7 L2124.09 1913.03 L1998.96 1913.03 L1998.96 1913.03  Z" fill="#c271d2" fill-rule="evenodd" fill-opacity="1"/>
<polyline clip-path="url(#clip442)" style="stroke:#000000; stroke-linecap:round; stroke-linejoin:round; stroke-width:4; stroke-opacity:1; fill:none" points="1998.96,1913.03 1998.96,2223.7 2124.09,2223.7 2124.09,1913.03 1998.96,1913.03 "/>
<path clip-path="url(#clip442)" d="M3093.87 1548.96 L3093.87 2223.7 L3219 2223.7 L3219 1548.96 L3093.87 1548.96 L3093.87 1548.96  Z" fill="#c271d2" fill-rule="evenodd" fill-opacity="1"/>
<polyline clip-path="url(#clip442)" style="stroke:#000000; stroke-linecap:round; stroke-linejoin:round; stroke-width:4; stroke-opacity:1; fill:none" points="3093.87,1548.96 3093.87,2223.7 3219,2223.7 3219,1548.96 3093.87,1548.96 "/>
<path clip-path="url(#clip442)" d="M4188.78 1916.4 L4188.78 2223.7 L4313.91 2223.7 L4313.91 1916.4 L4188.78 1916.4 L4188.78 1916.4  Z" fill="#c271d2" fill-rule="evenodd" fill-opacity="1"/>
<polyline clip-path="url(#clip442)" style="stroke:#000000; stroke-linecap:round; stroke-linejoin:round; stroke-width:4; stroke-opacity:1; fill:none" points="4188.78,1916.4 4188.78,2223.7 4313.91,2223.7 4313.91,1916.4 4188.78,1916.4 "/>
<circle clip-path="url(#clip442)" style="fill:#c271d2; stroke:none; fill-opacity:0" cx="966.612" cy="1629.52" r="2"/>
<circle clip-path="url(#clip442)" style="fill:#c271d2; stroke:none; fill-opacity:0" cx="2061.52" cy="1913.03" r="2"/>
<circle clip-path="url(#clip442)" style="fill:#c271d2; stroke:none; fill-opacity:0" cx="3156.43" cy="1548.96" r="2"/>
<circle clip-path="url(#clip442)" style="fill:#c271d2; stroke:none; fill-opacity:0" cx="4251.35" cy="1916.4" r="2"/>
<path clip-path="url(#clip442)" d="M1029.18 1743.17 L1029.18 2223.7 L1154.31 2223.7 L1154.31 1743.17 L1029.18 1743.17 L1029.18 1743.17  Z" fill="#ac8d18" fill-rule="evenodd" fill-opacity="1"/>
<polyline clip-path="url(#clip442)" style="stroke:#000000; stroke-linecap:round; stroke-linejoin:round; stroke-width:4; stroke-opacity:1; fill:none" points="1029.18,1743.17 1029.18,2223.7 1154.31,2223.7 1154.31,1743.17 1029.18,1743.17 "/>
<path clip-path="url(#clip442)" d="M2124.09 1813.78 L2124.09 2223.7 L2249.22 2223.7 L2249.22 1813.78 L2124.09 1813.78 L2124.09 1813.78  Z" fill="#ac8d18" fill-rule="evenodd" fill-opacity="1"/>
<polyline clip-path="url(#clip442)" style="stroke:#000000; stroke-linecap:round; stroke-linejoin:round; stroke-width:4; stroke-opacity:1; fill:none" points="2124.09,1813.78 2124.09,2223.7 2249.22,2223.7 2249.22,1813.78 2124.09,1813.78 "/>
<path clip-path="url(#clip442)" d="M3219 1756.73 L3219 2223.7 L3344.13 2223.7 L3344.13 1756.73 L3219 1756.73 L3219 1756.73  Z" fill="#ac8d18" fill-rule="evenodd" fill-opacity="1"/>
<polyline clip-path="url(#clip442)" style="stroke:#000000; stroke-linecap:round; stroke-linejoin:round; stroke-width:4; stroke-opacity:1; fill:none" points="3219,1756.73 3219,2223.7 3344.13,2223.7 3344.13,1756.73 3219,1756.73 "/>
<path clip-path="url(#clip442)" d="M4313.91 1802.71 L4313.91 2223.7 L4439.05 2223.7 L4439.05 1802.71 L4313.91 1802.71 L4313.91 1802.71  Z" fill="#ac8d18" fill-rule="evenodd" fill-opacity="1"/>
<polyline clip-path="url(#clip442)" style="stroke:#000000; stroke-linecap:round; stroke-linejoin:round; stroke-width:4; stroke-opacity:1; fill:none" points="4313.91,1802.71 4313.91,2223.7 4439.05,2223.7 4439.05,1802.71 4313.91,1802.71 "/>
<circle clip-path="url(#clip442)" style="fill:#ac8d18; stroke:none; fill-opacity:0" cx="1091.75" cy="1743.17" r="2"/>
<circle clip-path="url(#clip442)" style="fill:#ac8d18; stroke:none; fill-opacity:0" cx="2186.66" cy="1813.78" r="2"/>
<circle clip-path="url(#clip442)" style="fill:#ac8d18; stroke:none; fill-opacity:0" cx="3281.57" cy="1756.73" r="2"/>
<circle clip-path="url(#clip442)" style="fill:#ac8d18; stroke:none; fill-opacity:0" cx="4376.48" cy="1802.71" r="2"/>
<path clip-path="url(#clip440)" d="M3213.76 536.626 L4604.34 536.626 L4604.34 121.906 L3213.76 121.906  Z" fill="#ffffff" fill-rule="evenodd" fill-opacity="1"/>
<polyline clip-path="url(#clip440)" style="stroke:#000000; stroke-linecap:round; stroke-linejoin:round; stroke-width:4; stroke-opacity:1; fill:none" points="3213.76,536.626 4604.34,536.626 4604.34,121.906 3213.76,121.906 3213.76,536.626 "/>
<path clip-path="url(#clip440)" d="M3263.23 194.482 L3560.06 194.482 L3560.06 153.01 L3263.23 153.01 L3263.23 194.482  Z" fill="#009af9" fill-rule="evenodd" fill-opacity="1"/>
<polyline clip-path="url(#clip440)" style="stroke:#000000; stroke-linecap:round; stroke-linejoin:round; stroke-width:4; stroke-opacity:1; fill:none" points="3263.23,194.482 3560.06,194.482 3560.06,153.01 3263.23,153.01 3263.23,194.482 "/>
<path clip-path="url(#clip440)" d="M3637.4 159.128 L3637.4 164.058 Q3635.04 161.859 3632.35 160.771 Q3629.69 159.683 3626.68 159.683 Q3620.76 159.683 3617.61 163.317 Q3614.46 166.928 3614.46 173.78 Q3614.46 180.609 3617.61 184.243 Q3620.76 187.854 3626.68 187.854 Q3629.69 187.854 3632.35 186.766 Q3635.04 185.678 3637.4 183.479 L3637.4 188.364 Q3634.95 190.03 3632.19 190.864 Q3629.46 191.697 3626.4 191.697 Q3618.56 191.697 3614.04 186.905 Q3609.53 182.09 3609.53 173.78 Q3609.53 165.447 3614.04 160.655 Q3618.56 155.841 3626.4 155.841 Q3629.51 155.841 3632.24 156.674 Q3634.99 157.484 3637.4 159.128 Z" fill="#000000" fill-rule="nonzero" fill-opacity="1" /><path clip-path="url(#clip440)" d="M3670.5 159.128 L3670.5 164.058 Q3668.14 161.859 3665.45 160.771 Q3662.79 159.683 3659.78 159.683 Q3653.86 159.683 3650.71 163.317 Q3647.56 166.928 3647.56 173.78 Q3647.56 180.609 3650.71 184.243 Q3653.86 187.854 3659.78 187.854 Q3662.79 187.854 3665.45 186.766 Q3668.14 185.678 3670.5 183.479 L3670.5 188.364 Q3668.05 190.03 3665.29 190.864 Q3662.56 191.697 3659.51 191.697 Q3651.66 191.697 3647.14 186.905 Q3642.63 182.09 3642.63 173.78 Q3642.63 165.447 3647.14 160.655 Q3651.66 155.841 3659.51 155.841 Q3662.61 155.841 3665.34 156.674 Q3668.09 157.484 3670.5 159.128 Z" fill="#000000" fill-rule="nonzero" fill-opacity="1" /><path clip-path="url(#clip440)" d="M3698.44 157.6 L3698.44 162.16 Q3695.78 160.887 3693.42 160.262 Q3691.06 159.637 3688.86 159.637 Q3685.04 159.637 3682.95 161.118 Q3680.89 162.6 3680.89 165.331 Q3680.89 167.623 3682.26 168.803 Q3683.65 169.961 3687.49 170.678 L3690.32 171.257 Q3695.55 172.253 3698.02 174.776 Q3700.52 177.276 3700.52 181.489 Q3700.52 186.512 3697.14 189.104 Q3693.79 191.697 3687.28 191.697 Q3684.83 191.697 3682.05 191.141 Q3679.3 190.586 3676.33 189.498 L3676.33 184.683 Q3679.18 186.28 3681.91 187.09 Q3684.64 187.901 3687.28 187.901 Q3691.29 187.901 3693.46 186.327 Q3695.64 184.752 3695.64 181.836 Q3695.64 179.29 3694.07 177.854 Q3692.51 176.419 3688.95 175.702 L3686.1 175.146 Q3680.87 174.104 3678.53 171.882 Q3676.19 169.66 3676.19 165.702 Q3676.19 161.118 3679.41 158.479 Q3682.65 155.841 3688.32 155.841 Q3690.76 155.841 3693.28 156.28 Q3695.8 156.72 3698.44 157.6 Z" fill="#000000" fill-rule="nonzero" fill-opacity="1" /><path clip-path="url(#clip440)" d="M3718.42 193.433 Q3716.61 198.063 3714.9 199.475 Q3713.19 200.887 3710.32 200.887 L3706.91 200.887 L3706.91 197.322 L3709.41 197.322 Q3711.17 197.322 3712.14 196.488 Q3713.12 195.655 3714.3 192.553 L3715.06 190.609 L3704.57 165.1 L3709.09 165.1 L3717.19 185.377 L3725.29 165.1 L3729.81 165.1 L3718.42 193.433 Z" fill="#000000" fill-rule="nonzero" fill-opacity="1" /><path clip-path="url(#clip440)" d="M3757.24 175.377 L3757.24 191.026 L3752.98 191.026 L3752.98 175.516 Q3752.98 171.836 3751.54 170.007 Q3750.11 168.178 3747.24 168.178 Q3743.79 168.178 3741.8 170.378 Q3739.81 172.577 3739.81 176.373 L3739.81 191.026 L3735.52 191.026 L3735.52 165.1 L3739.81 165.1 L3739.81 169.128 Q3741.33 166.79 3743.39 165.632 Q3745.48 164.475 3748.19 164.475 Q3752.65 164.475 3754.94 167.253 Q3757.24 170.007 3757.24 175.377 Z" fill="#000000" fill-rule="nonzero" fill-opacity="1" /><path clip-path="url(#clip440)" d="M3784.39 166.095 L3784.39 170.077 Q3782.58 169.081 3780.75 168.595 Q3778.95 168.086 3777.1 168.086 Q3772.95 168.086 3770.66 170.725 Q3768.37 173.34 3768.37 178.086 Q3768.37 182.831 3770.66 185.47 Q3772.95 188.086 3777.1 188.086 Q3778.95 188.086 3780.75 187.6 Q3782.58 187.09 3784.39 186.095 L3784.39 190.03 Q3782.61 190.864 3780.69 191.28 Q3778.79 191.697 3776.63 191.697 Q3770.78 191.697 3767.33 188.016 Q3763.88 184.336 3763.88 178.086 Q3763.88 171.743 3767.35 168.109 Q3770.85 164.475 3776.91 164.475 Q3778.88 164.475 3780.75 164.891 Q3782.63 165.285 3784.39 166.095 Z" fill="#000000" fill-rule="nonzero" fill-opacity="1" /><path clip-path="url(#clip440)" d="M3813.35 175.377 L3813.35 191.026 L3809.09 191.026 L3809.09 175.516 Q3809.09 171.836 3807.65 170.007 Q3806.22 168.178 3803.35 168.178 Q3799.9 168.178 3797.91 170.378 Q3795.92 172.577 3795.92 176.373 L3795.92 191.026 L3791.63 191.026 L3791.63 155.007 L3795.92 155.007 L3795.92 169.128 Q3797.44 166.79 3799.5 165.632 Q3801.59 164.475 3804.3 164.475 Q3808.76 164.475 3811.06 167.253 Q3813.35 170.007 3813.35 175.377 Z" fill="#000000" fill-rule="nonzero" fill-opacity="1" /><path clip-path="url(#clip440)" d="M3263.23 246.322 L3560.06 246.322 L3560.06 204.85 L3263.23 204.85 L3263.23 246.322  Z" fill="#e26f46" fill-rule="evenodd" fill-opacity="1"/>
<polyline clip-path="url(#clip440)" style="stroke:#000000; stroke-linecap:round; stroke-linejoin:round; stroke-width:4; stroke-opacity:1; fill:none" points="3263.23,246.322 3560.06,246.322 3560.06,204.85 3263.23,204.85 3263.23,246.322 "/>
<path clip-path="url(#clip440)" d="M3609.53 208.306 L3629.39 208.306 L3629.39 212.241 L3614.2 212.241 L3614.2 222.426 L3627.91 222.426 L3627.91 226.361 L3614.2 226.361 L3614.2 242.866 L3609.53 242.866 L3609.53 208.306 Z" fill="#000000" fill-rule="nonzero" fill-opacity="1" /><path clip-path="url(#clip440)" d="M3636.61 206.847 L3640.87 206.847 L3640.87 242.866 L3636.61 242.866 L3636.61 206.847 Z" fill="#000000" fill-rule="nonzero" fill-opacity="1" /><path clip-path="url(#clip440)" d="M3661.57 229.833 Q3656.4 229.833 3654.41 231.014 Q3652.42 232.194 3652.42 235.042 Q3652.42 237.31 3653.9 238.653 Q3655.41 239.972 3657.98 239.972 Q3661.52 239.972 3663.65 237.472 Q3665.8 234.949 3665.8 230.782 L3665.8 229.833 L3661.57 229.833 M3670.06 228.074 L3670.06 242.866 L3665.8 242.866 L3665.8 238.93 Q3664.34 241.291 3662.17 242.426 Q3659.99 243.537 3656.84 243.537 Q3652.86 243.537 3650.5 241.315 Q3648.16 239.069 3648.16 235.319 Q3648.16 230.944 3651.08 228.722 Q3654.02 226.5 3659.83 226.5 L3665.8 226.5 L3665.8 226.083 Q3665.8 223.143 3663.86 221.546 Q3661.94 219.926 3658.44 219.926 Q3656.22 219.926 3654.11 220.458 Q3652.01 220.991 3650.06 222.055 L3650.06 218.12 Q3652.4 217.218 3654.6 216.778 Q3656.8 216.315 3658.88 216.315 Q3664.51 216.315 3667.28 219.231 Q3670.06 222.148 3670.06 228.074 Z" fill="#000000" fill-rule="nonzero" fill-opacity="1" /><path clip-path="url(#clip440)" d="M3683.05 209.579 L3683.05 216.94 L3691.82 216.94 L3691.82 220.25 L3683.05 220.25 L3683.05 234.324 Q3683.05 237.495 3683.9 238.398 Q3684.78 239.301 3687.44 239.301 L3691.82 239.301 L3691.82 242.866 L3687.44 242.866 Q3682.51 242.866 3680.64 241.037 Q3678.76 239.185 3678.76 234.324 L3678.76 220.25 L3675.64 220.25 L3675.64 216.94 L3678.76 216.94 L3678.76 209.579 L3683.05 209.579 Z" fill="#000000" fill-rule="nonzero" fill-opacity="1" /><path clip-path="url(#clip440)" d="M3738.56 210.968 L3738.56 215.898 Q3736.19 213.699 3733.51 212.611 Q3730.85 211.523 3727.84 211.523 Q3721.91 211.523 3718.76 215.157 Q3715.62 218.768 3715.62 225.62 Q3715.62 232.449 3718.76 236.083 Q3721.91 239.694 3727.84 239.694 Q3730.85 239.694 3733.51 238.606 Q3736.19 237.518 3738.56 235.319 L3738.56 240.204 Q3736.1 241.87 3733.35 242.704 Q3730.62 243.537 3727.56 243.537 Q3719.71 243.537 3715.2 238.745 Q3710.69 233.93 3710.69 225.62 Q3710.69 217.287 3715.2 212.495 Q3719.71 207.681 3727.56 207.681 Q3730.66 207.681 3733.39 208.514 Q3736.15 209.324 3738.56 210.968 Z" fill="#000000" fill-rule="nonzero" fill-opacity="1" /><path clip-path="url(#clip440)" d="M3755.64 219.926 Q3752.21 219.926 3750.22 222.611 Q3748.23 225.273 3748.23 229.926 Q3748.23 234.579 3750.2 237.264 Q3752.19 239.926 3755.64 239.926 Q3759.04 239.926 3761.03 237.241 Q3763.02 234.555 3763.02 229.926 Q3763.02 225.319 3761.03 222.634 Q3759.04 219.926 3755.64 219.926 M3755.64 216.315 Q3761.19 216.315 3764.37 219.926 Q3767.54 223.537 3767.54 229.926 Q3767.54 236.292 3764.37 239.926 Q3761.19 243.537 3755.64 243.537 Q3750.06 243.537 3746.89 239.926 Q3743.74 236.292 3743.74 229.926 Q3743.74 223.537 3746.89 219.926 Q3750.06 216.315 3755.64 216.315 Z" fill="#000000" fill-rule="nonzero" fill-opacity="1" /><path clip-path="url(#clip440)" d="M3794.78 221.917 Q3796.38 219.046 3798.6 217.681 Q3800.82 216.315 3803.83 216.315 Q3807.88 216.315 3810.08 219.162 Q3812.28 221.986 3812.28 227.217 L3812.28 242.866 L3808 242.866 L3808 227.356 Q3808 223.63 3806.68 221.824 Q3805.36 220.018 3802.65 220.018 Q3799.34 220.018 3797.42 222.218 Q3795.5 224.417 3795.5 228.213 L3795.5 242.866 L3791.22 242.866 L3791.22 227.356 Q3791.22 223.606 3789.9 221.824 Q3788.58 220.018 3785.82 220.018 Q3782.56 220.018 3780.64 222.241 Q3778.72 224.44 3778.72 228.213 L3778.72 242.866 L3774.44 242.866 L3774.44 216.94 L3778.72 216.94 L3778.72 220.968 Q3780.18 218.583 3782.21 217.449 Q3784.25 216.315 3787.05 216.315 Q3789.87 216.315 3791.84 217.75 Q3793.83 219.185 3794.78 221.917 Z" fill="#000000" fill-rule="nonzero" fill-opacity="1" /><path clip-path="url(#clip440)" d="M3839.39 229.926 Q3839.39 225.227 3837.44 222.565 Q3835.52 219.88 3832.14 219.88 Q3828.76 219.88 3826.82 222.565 Q3824.9 225.227 3824.9 229.926 Q3824.9 234.625 3826.82 237.31 Q3828.76 239.972 3832.14 239.972 Q3835.52 239.972 3837.44 237.31 Q3839.39 234.625 3839.39 229.926 M3824.9 220.875 Q3826.24 218.56 3828.28 217.449 Q3830.34 216.315 3833.18 216.315 Q3837.91 216.315 3840.85 220.065 Q3843.81 223.815 3843.81 229.926 Q3843.81 236.037 3840.85 239.787 Q3837.91 243.537 3833.18 243.537 Q3830.34 243.537 3828.28 242.426 Q3826.24 241.291 3824.9 238.977 L3824.9 242.866 L3820.62 242.866 L3820.62 206.847 L3824.9 206.847 L3824.9 220.875 Z" fill="#000000" fill-rule="nonzero" fill-opacity="1" /><path clip-path="url(#clip440)" d="M3850.87 216.94 L3855.13 216.94 L3855.13 242.866 L3850.87 242.866 L3850.87 216.94 M3850.87 206.847 L3855.13 206.847 L3855.13 212.241 L3850.87 212.241 L3850.87 206.847 Z" fill="#000000" fill-rule="nonzero" fill-opacity="1" /><path clip-path="url(#clip440)" d="M3885.59 227.217 L3885.59 242.866 L3881.33 242.866 L3881.33 227.356 Q3881.33 223.676 3879.9 221.847 Q3878.46 220.018 3875.59 220.018 Q3872.14 220.018 3870.15 222.218 Q3868.16 224.417 3868.16 228.213 L3868.16 242.866 L3863.88 242.866 L3863.88 216.94 L3868.16 216.94 L3868.16 220.968 Q3869.69 218.63 3871.75 217.472 Q3873.83 216.315 3876.54 216.315 Q3881.01 216.315 3883.3 219.093 Q3885.59 221.847 3885.59 227.217 Z" fill="#000000" fill-rule="nonzero" fill-opacity="1" /><path clip-path="url(#clip440)" d="M3894.09 216.94 L3898.35 216.94 L3898.35 242.866 L3894.09 242.866 L3894.09 216.94 M3894.09 206.847 L3898.35 206.847 L3898.35 212.241 L3894.09 212.241 L3894.09 206.847 Z" fill="#000000" fill-rule="nonzero" fill-opacity="1" /><path clip-path="url(#clip440)" d="M3928.81 227.217 L3928.81 242.866 L3924.55 242.866 L3924.55 227.356 Q3924.55 223.676 3923.11 221.847 Q3921.68 220.018 3918.81 220.018 Q3915.36 220.018 3913.37 222.218 Q3911.38 224.417 3911.38 228.213 L3911.38 242.866 L3907.1 242.866 L3907.1 216.94 L3911.38 216.94 L3911.38 220.968 Q3912.91 218.63 3914.97 217.472 Q3917.05 216.315 3919.76 216.315 Q3924.23 216.315 3926.52 219.093 Q3928.81 221.847 3928.81 227.217 Z" fill="#000000" fill-rule="nonzero" fill-opacity="1" /><path clip-path="url(#clip440)" d="M3954.36 229.602 Q3954.36 224.972 3952.44 222.426 Q3950.55 219.88 3947.1 219.88 Q3943.67 219.88 3941.75 222.426 Q3939.85 224.972 3939.85 229.602 Q3939.85 234.208 3941.75 236.754 Q3943.67 239.301 3947.1 239.301 Q3950.55 239.301 3952.44 236.754 Q3954.36 234.208 3954.36 229.602 M3958.62 239.648 Q3958.62 246.268 3955.68 249.486 Q3952.74 252.727 3946.68 252.727 Q3944.43 252.727 3942.44 252.379 Q3940.45 252.055 3938.58 251.361 L3938.58 247.217 Q3940.45 248.236 3942.28 248.722 Q3944.11 249.208 3946.01 249.208 Q3950.2 249.208 3952.28 247.009 Q3954.36 244.833 3954.36 240.412 L3954.36 238.305 Q3953.05 240.597 3950.99 241.731 Q3948.92 242.866 3946.05 242.866 Q3941.29 242.866 3938.37 239.231 Q3935.45 235.597 3935.45 229.602 Q3935.45 223.583 3938.37 219.949 Q3941.29 216.315 3946.05 216.315 Q3948.92 216.315 3950.99 217.449 Q3953.05 218.583 3954.36 220.875 L3954.36 216.94 L3958.62 216.94 L3958.62 239.648 Z" fill="#000000" fill-rule="nonzero" fill-opacity="1" /><path clip-path="url(#clip440)" d="M3263.23 298.162 L3560.06 298.162 L3560.06 256.69 L3263.23 256.69 L3263.23 298.162  Z" fill="#3da44d" fill-rule="evenodd" fill-opacity="1"/>
<polyline clip-path="url(#clip440)" style="stroke:#000000; stroke-linecap:round; stroke-linejoin:round; stroke-width:4; stroke-opacity:1; fill:none" points="3263.23,298.162 3560.06,298.162 3560.06,256.69 3263.23,256.69 3263.23,298.162 "/>
<path clip-path="url(#clip440)" d="M3609.53 260.146 L3629.39 260.146 L3629.39 264.081 L3614.2 264.081 L3614.2 274.266 L3627.91 274.266 L3627.91 278.201 L3614.2 278.201 L3614.2 294.706 L3609.53 294.706 L3609.53 260.146 Z" fill="#000000" fill-rule="nonzero" fill-opacity="1" /><path clip-path="url(#clip440)" d="M3636.61 258.687 L3640.87 258.687 L3640.87 294.706 L3636.61 294.706 L3636.61 258.687 Z" fill="#000000" fill-rule="nonzero" fill-opacity="1" /><path clip-path="url(#clip440)" d="M3661.57 281.673 Q3656.4 281.673 3654.41 282.854 Q3652.42 284.034 3652.42 286.882 Q3652.42 289.15 3653.9 290.493 Q3655.41 291.812 3657.98 291.812 Q3661.52 291.812 3663.65 289.312 Q3665.8 286.789 3665.8 282.622 L3665.8 281.673 L3661.57 281.673 M3670.06 279.914 L3670.06 294.706 L3665.8 294.706 L3665.8 290.77 Q3664.34 293.131 3662.17 294.266 Q3659.99 295.377 3656.84 295.377 Q3652.86 295.377 3650.5 293.155 Q3648.16 290.909 3648.16 287.159 Q3648.16 282.784 3651.08 280.562 Q3654.02 278.34 3659.83 278.34 L3665.8 278.34 L3665.8 277.923 Q3665.8 274.983 3663.86 273.386 Q3661.94 271.766 3658.44 271.766 Q3656.22 271.766 3654.11 272.298 Q3652.01 272.831 3650.06 273.895 L3650.06 269.96 Q3652.4 269.058 3654.6 268.618 Q3656.8 268.155 3658.88 268.155 Q3664.51 268.155 3667.28 271.071 Q3670.06 273.988 3670.06 279.914 Z" fill="#000000" fill-rule="nonzero" fill-opacity="1" /><path clip-path="url(#clip440)" d="M3683.05 261.419 L3683.05 268.78 L3691.82 268.78 L3691.82 272.09 L3683.05 272.09 L3683.05 286.164 Q3683.05 289.335 3683.9 290.238 Q3684.78 291.141 3687.44 291.141 L3691.82 291.141 L3691.82 294.706 L3687.44 294.706 Q3682.51 294.706 3680.64 292.877 Q3678.76 291.025 3678.76 286.164 L3678.76 272.09 L3675.64 272.09 L3675.64 268.78 L3678.76 268.78 L3678.76 261.419 L3683.05 261.419 Z" fill="#000000" fill-rule="nonzero" fill-opacity="1" /><path clip-path="url(#clip440)" d="M3738.56 262.808 L3738.56 267.738 Q3736.19 265.539 3733.51 264.451 Q3730.85 263.363 3727.84 263.363 Q3721.91 263.363 3718.76 266.997 Q3715.62 270.608 3715.62 277.46 Q3715.62 284.289 3718.76 287.923 Q3721.91 291.534 3727.84 291.534 Q3730.85 291.534 3733.51 290.446 Q3736.19 289.358 3738.56 287.159 L3738.56 292.044 Q3736.1 293.71 3733.35 294.544 Q3730.62 295.377 3727.56 295.377 Q3719.71 295.377 3715.2 290.585 Q3710.69 285.77 3710.69 277.46 Q3710.69 269.127 3715.2 264.335 Q3719.71 259.521 3727.56 259.521 Q3730.66 259.521 3733.39 260.354 Q3736.15 261.164 3738.56 262.808 Z" fill="#000000" fill-rule="nonzero" fill-opacity="1" /><path clip-path="url(#clip440)" d="M3755.64 271.766 Q3752.21 271.766 3750.22 274.451 Q3748.23 277.113 3748.23 281.766 Q3748.23 286.419 3750.2 289.104 Q3752.19 291.766 3755.64 291.766 Q3759.04 291.766 3761.03 289.081 Q3763.02 286.395 3763.02 281.766 Q3763.02 277.159 3761.03 274.474 Q3759.04 271.766 3755.64 271.766 M3755.64 268.155 Q3761.19 268.155 3764.37 271.766 Q3767.54 275.377 3767.54 281.766 Q3767.54 288.132 3764.37 291.766 Q3761.19 295.377 3755.64 295.377 Q3750.06 295.377 3746.89 291.766 Q3743.74 288.132 3743.74 281.766 Q3743.74 275.377 3746.89 271.766 Q3750.06 268.155 3755.64 268.155 Z" fill="#000000" fill-rule="nonzero" fill-opacity="1" /><path clip-path="url(#clip440)" d="M3794.78 273.757 Q3796.38 270.886 3798.6 269.521 Q3800.82 268.155 3803.83 268.155 Q3807.88 268.155 3810.08 271.002 Q3812.28 273.826 3812.28 279.057 L3812.28 294.706 L3808 294.706 L3808 279.196 Q3808 275.47 3806.68 273.664 Q3805.36 271.858 3802.65 271.858 Q3799.34 271.858 3797.42 274.058 Q3795.5 276.257 3795.5 280.053 L3795.5 294.706 L3791.22 294.706 L3791.22 279.196 Q3791.22 275.446 3789.9 273.664 Q3788.58 271.858 3785.82 271.858 Q3782.56 271.858 3780.64 274.081 Q3778.72 276.28 3778.72 280.053 L3778.72 294.706 L3774.44 294.706 L3774.44 268.78 L3778.72 268.78 L3778.72 272.808 Q3780.18 270.423 3782.21 269.289 Q3784.25 268.155 3787.05 268.155 Q3789.87 268.155 3791.84 269.59 Q3793.83 271.025 3794.78 273.757 Z" fill="#000000" fill-rule="nonzero" fill-opacity="1" /><path clip-path="url(#clip440)" d="M3839.39 281.766 Q3839.39 277.067 3837.44 274.405 Q3835.52 271.72 3832.14 271.72 Q3828.76 271.72 3826.82 274.405 Q3824.9 277.067 3824.9 281.766 Q3824.9 286.465 3826.82 289.15 Q3828.76 291.812 3832.14 291.812 Q3835.52 291.812 3837.44 289.15 Q3839.39 286.465 3839.39 281.766 M3824.9 272.715 Q3826.24 270.4 3828.28 269.289 Q3830.34 268.155 3833.18 268.155 Q3837.91 268.155 3840.85 271.905 Q3843.81 275.655 3843.81 281.766 Q3843.81 287.877 3840.85 291.627 Q3837.91 295.377 3833.18 295.377 Q3830.34 295.377 3828.28 294.266 Q3826.24 293.131 3824.9 290.817 L3824.9 294.706 L3820.62 294.706 L3820.62 258.687 L3824.9 258.687 L3824.9 272.715 Z" fill="#000000" fill-rule="nonzero" fill-opacity="1" /><path clip-path="url(#clip440)" d="M3850.87 268.78 L3855.13 268.78 L3855.13 294.706 L3850.87 294.706 L3850.87 268.78 M3850.87 258.687 L3855.13 258.687 L3855.13 264.081 L3850.87 264.081 L3850.87 258.687 Z" fill="#000000" fill-rule="nonzero" fill-opacity="1" /><path clip-path="url(#clip440)" d="M3885.59 279.057 L3885.59 294.706 L3881.33 294.706 L3881.33 279.196 Q3881.33 275.516 3879.9 273.687 Q3878.46 271.858 3875.59 271.858 Q3872.14 271.858 3870.15 274.058 Q3868.16 276.257 3868.16 280.053 L3868.16 294.706 L3863.88 294.706 L3863.88 268.78 L3868.16 268.78 L3868.16 272.808 Q3869.69 270.47 3871.75 269.312 Q3873.83 268.155 3876.54 268.155 Q3881.01 268.155 3883.3 270.933 Q3885.59 273.687 3885.59 279.057 Z" fill="#000000" fill-rule="nonzero" fill-opacity="1" /><path clip-path="url(#clip440)" d="M3894.09 268.78 L3898.35 268.78 L3898.35 294.706 L3894.09 294.706 L3894.09 268.78 M3894.09 258.687 L3898.35 258.687 L3898.35 264.081 L3894.09 264.081 L3894.09 258.687 Z" fill="#000000" fill-rule="nonzero" fill-opacity="1" /><path clip-path="url(#clip440)" d="M3928.81 279.057 L3928.81 294.706 L3924.55 294.706 L3924.55 279.196 Q3924.55 275.516 3923.11 273.687 Q3921.68 271.858 3918.81 271.858 Q3915.36 271.858 3913.37 274.058 Q3911.38 276.257 3911.38 280.053 L3911.38 294.706 L3907.1 294.706 L3907.1 268.78 L3911.38 268.78 L3911.38 272.808 Q3912.91 270.47 3914.97 269.312 Q3917.05 268.155 3919.76 268.155 Q3924.23 268.155 3926.52 270.933 Q3928.81 273.687 3928.81 279.057 Z" fill="#000000" fill-rule="nonzero" fill-opacity="1" /><path clip-path="url(#clip440)" d="M3954.36 281.442 Q3954.36 276.812 3952.44 274.266 Q3950.55 271.72 3947.1 271.72 Q3943.67 271.72 3941.75 274.266 Q3939.85 276.812 3939.85 281.442 Q3939.85 286.048 3941.75 288.594 Q3943.67 291.141 3947.1 291.141 Q3950.55 291.141 3952.44 288.594 Q3954.36 286.048 3954.36 281.442 M3958.62 291.488 Q3958.62 298.108 3955.68 301.326 Q3952.74 304.567 3946.68 304.567 Q3944.43 304.567 3942.44 304.219 Q3940.45 303.895 3938.58 303.201 L3938.58 299.057 Q3940.45 300.076 3942.28 300.562 Q3944.11 301.048 3946.01 301.048 Q3950.2 301.048 3952.28 298.849 Q3954.36 296.673 3954.36 292.252 L3954.36 290.145 Q3953.05 292.437 3950.99 293.571 Q3948.92 294.706 3946.05 294.706 Q3941.29 294.706 3938.37 291.071 Q3935.45 287.437 3935.45 281.442 Q3935.45 275.423 3938.37 271.789 Q3941.29 268.155 3946.05 268.155 Q3948.92 268.155 3950.99 269.289 Q3953.05 270.423 3954.36 272.715 L3954.36 268.78 L3958.62 268.78 L3958.62 291.488 Z" fill="#000000" fill-rule="nonzero" fill-opacity="1" /><path clip-path="url(#clip440)" d="M3992.7 258.734 Q3989.6 264.058 3988.09 269.266 Q3986.59 274.474 3986.59 279.821 Q3986.59 285.169 3988.09 290.423 Q3989.62 295.655 3992.7 300.956 L3988.99 300.956 Q3985.52 295.516 3983.79 290.261 Q3982.07 285.007 3982.07 279.821 Q3982.07 274.659 3983.79 269.428 Q3985.5 264.196 3988.99 258.734 L3992.7 258.734 Z" fill="#000000" fill-rule="nonzero" fill-opacity="1" /><path clip-path="url(#clip440)" d="M4021.86 261.28 L4021.86 265.84 Q4019.2 264.567 4016.84 263.942 Q4014.48 263.317 4012.28 263.317 Q4008.46 263.317 4006.38 264.798 Q4004.32 266.28 4004.32 269.011 Q4004.32 271.303 4005.68 272.483 Q4007.07 273.641 4010.92 274.358 L4013.74 274.937 Q4018.97 275.933 4021.45 278.456 Q4023.95 280.956 4023.95 285.169 Q4023.95 290.192 4020.57 292.784 Q4017.21 295.377 4010.71 295.377 Q4008.25 295.377 4005.48 294.821 Q4002.72 294.266 3999.76 293.178 L3999.76 288.363 Q4002.61 289.96 4005.34 290.77 Q4008.07 291.581 4010.71 291.581 Q4014.71 291.581 4016.89 290.007 Q4019.06 288.432 4019.06 285.516 Q4019.06 282.97 4017.49 281.534 Q4015.94 280.099 4012.37 279.382 L4009.53 278.826 Q4004.3 277.784 4001.96 275.562 Q3999.62 273.34 3999.62 269.382 Q3999.62 264.798 4002.84 262.159 Q4006.08 259.521 4011.75 259.521 Q4014.18 259.521 4016.7 259.96 Q4019.23 260.4 4021.86 261.28 Z" fill="#000000" fill-rule="nonzero" fill-opacity="1" /><path clip-path="url(#clip440)" d="M4030.89 258.687 L4035.17 258.687 L4035.17 279.96 L4047.88 268.78 L4053.32 268.78 L4039.57 280.909 L4053.9 294.706 L4048.35 294.706 L4035.17 282.044 L4035.17 294.706 L4030.89 294.706 L4030.89 258.687 Z" fill="#000000" fill-rule="nonzero" fill-opacity="1" /><path clip-path="url(#clip440)" d="M4058.51 268.78 L4062.77 268.78 L4062.77 294.706 L4058.51 294.706 L4058.51 268.78 M4058.51 258.687 L4062.77 258.687 L4062.77 264.081 L4058.51 264.081 L4058.51 258.687 Z" fill="#000000" fill-rule="nonzero" fill-opacity="1" /><path clip-path="url(#clip440)" d="M4075.8 290.817 L4075.8 304.567 L4071.52 304.567 L4071.52 268.78 L4075.8 268.78 L4075.8 272.715 Q4077.14 270.4 4079.18 269.289 Q4081.24 268.155 4084.09 268.155 Q4088.81 268.155 4091.75 271.905 Q4094.71 275.655 4094.71 281.766 Q4094.71 287.877 4091.75 291.627 Q4088.81 295.377 4084.09 295.377 Q4081.24 295.377 4079.18 294.266 Q4077.14 293.131 4075.8 290.817 M4090.29 281.766 Q4090.29 277.067 4088.35 274.405 Q4086.42 271.72 4083.04 271.72 Q4079.66 271.72 4077.72 274.405 Q4075.8 277.067 4075.8 281.766 Q4075.8 286.465 4077.72 289.15 Q4079.66 291.812 4083.04 291.812 Q4086.42 291.812 4088.35 289.15 Q4090.29 286.465 4090.29 281.766 Z" fill="#000000" fill-rule="nonzero" fill-opacity="1" /><path clip-path="url(#clip440)" d="M4101.96 260.146 L4106.63 260.146 L4106.63 290.77 L4123.46 290.77 L4123.46 294.706 L4101.96 294.706 L4101.96 260.146 Z" fill="#000000" fill-rule="nonzero" fill-opacity="1" /><path clip-path="url(#clip440)" d="M4128.18 268.78 L4132.44 268.78 L4132.44 294.706 L4128.18 294.706 L4128.18 268.78 M4128.18 258.687 L4132.44 258.687 L4132.44 264.081 L4128.18 264.081 L4128.18 258.687 Z" fill="#000000" fill-rule="nonzero" fill-opacity="1" /><path clip-path="url(#clip440)" d="M4157.88 269.544 L4157.88 273.571 Q4156.08 272.645 4154.13 272.183 Q4152.19 271.72 4150.1 271.72 Q4146.93 271.72 4145.34 272.692 Q4143.76 273.664 4143.76 275.608 Q4143.76 277.09 4144.9 277.946 Q4146.03 278.78 4149.46 279.544 L4150.91 279.868 Q4155.45 280.84 4157.35 282.622 Q4159.27 284.382 4159.27 287.553 Q4159.27 291.164 4156.4 293.27 Q4153.55 295.377 4148.55 295.377 Q4146.47 295.377 4144.2 294.96 Q4141.96 294.567 4139.46 293.756 L4139.46 289.358 Q4141.82 290.585 4144.11 291.21 Q4146.4 291.812 4148.65 291.812 Q4151.66 291.812 4153.28 290.794 Q4154.9 289.752 4154.9 287.877 Q4154.9 286.141 4153.72 285.215 Q4152.56 284.289 4148.6 283.432 L4147.12 283.085 Q4143.16 282.252 4141.4 280.539 Q4139.64 278.803 4139.64 275.794 Q4139.64 272.136 4142.23 270.146 Q4144.83 268.155 4149.6 268.155 Q4151.96 268.155 4154.04 268.502 Q4156.12 268.849 4157.88 269.544 Z" fill="#000000" fill-rule="nonzero" fill-opacity="1" /><path clip-path="url(#clip440)" d="M4170.27 261.419 L4170.27 268.78 L4179.04 268.78 L4179.04 272.09 L4170.27 272.09 L4170.27 286.164 Q4170.27 289.335 4171.12 290.238 Q4172 291.141 4174.66 291.141 L4179.04 291.141 L4179.04 294.706 L4174.66 294.706 Q4169.73 294.706 4167.86 292.877 Q4165.98 291.025 4165.98 286.164 L4165.98 272.09 L4162.86 272.09 L4162.86 268.78 L4165.98 268.78 L4165.98 261.419 L4170.27 261.419 Z" fill="#000000" fill-rule="nonzero" fill-opacity="1" /><path clip-path="url(#clip440)" d="M4183.97 258.734 L4187.67 258.734 Q4191.15 264.196 4192.86 269.428 Q4194.59 274.659 4194.59 279.821 Q4194.59 285.007 4192.86 290.261 Q4191.15 295.516 4187.67 300.956 L4183.97 300.956 Q4187.05 295.655 4188.55 290.423 Q4190.08 285.169 4190.08 279.821 Q4190.08 274.474 4188.55 269.266 Q4187.05 264.058 4183.97 258.734 Z" fill="#000000" fill-rule="nonzero" fill-opacity="1" /><path clip-path="url(#clip440)" d="M3263.23 350.002 L3560.06 350.002 L3560.06 308.53 L3263.23 308.53 L3263.23 350.002  Z" fill="#c271d2" fill-rule="evenodd" fill-opacity="1"/>
<polyline clip-path="url(#clip440)" style="stroke:#000000; stroke-linecap:round; stroke-linejoin:round; stroke-width:4; stroke-opacity:1; fill:none" points="3263.23,350.002 3560.06,350.002 3560.06,308.53 3263.23,308.53 3263.23,350.002 "/>
<path clip-path="url(#clip440)" d="M3609.53 311.986 L3629.39 311.986 L3629.39 315.921 L3614.2 315.921 L3614.2 326.106 L3627.91 326.106 L3627.91 330.041 L3614.2 330.041 L3614.2 346.546 L3609.53 346.546 L3609.53 311.986 Z" fill="#000000" fill-rule="nonzero" fill-opacity="1" /><path clip-path="url(#clip440)" d="M3636.61 310.527 L3640.87 310.527 L3640.87 346.546 L3636.61 346.546 L3636.61 310.527 Z" fill="#000000" fill-rule="nonzero" fill-opacity="1" /><path clip-path="url(#clip440)" d="M3661.57 333.513 Q3656.4 333.513 3654.41 334.694 Q3652.42 335.874 3652.42 338.722 Q3652.42 340.99 3653.9 342.333 Q3655.41 343.652 3657.98 343.652 Q3661.52 343.652 3663.65 341.152 Q3665.8 338.629 3665.8 334.462 L3665.8 333.513 L3661.57 333.513 M3670.06 331.754 L3670.06 346.546 L3665.8 346.546 L3665.8 342.61 Q3664.34 344.971 3662.17 346.106 Q3659.99 347.217 3656.84 347.217 Q3652.86 347.217 3650.5 344.995 Q3648.16 342.749 3648.16 338.999 Q3648.16 334.624 3651.08 332.402 Q3654.02 330.18 3659.83 330.18 L3665.8 330.18 L3665.8 329.763 Q3665.8 326.823 3663.86 325.226 Q3661.94 323.606 3658.44 323.606 Q3656.22 323.606 3654.11 324.138 Q3652.01 324.671 3650.06 325.735 L3650.06 321.8 Q3652.4 320.898 3654.6 320.458 Q3656.8 319.995 3658.88 319.995 Q3664.51 319.995 3667.28 322.911 Q3670.06 325.828 3670.06 331.754 Z" fill="#000000" fill-rule="nonzero" fill-opacity="1" /><path clip-path="url(#clip440)" d="M3683.05 313.259 L3683.05 320.62 L3691.82 320.62 L3691.82 323.93 L3683.05 323.93 L3683.05 338.004 Q3683.05 341.175 3683.9 342.078 Q3684.78 342.981 3687.44 342.981 L3691.82 342.981 L3691.82 346.546 L3687.44 346.546 Q3682.51 346.546 3680.64 344.717 Q3678.76 342.865 3678.76 338.004 L3678.76 323.93 L3675.64 323.93 L3675.64 320.62 L3678.76 320.62 L3678.76 313.259 L3683.05 313.259 Z" fill="#000000" fill-rule="nonzero" fill-opacity="1" /><path clip-path="url(#clip440)" d="M3738.56 314.648 L3738.56 319.578 Q3736.19 317.379 3733.51 316.291 Q3730.85 315.203 3727.84 315.203 Q3721.91 315.203 3718.76 318.837 Q3715.62 322.448 3715.62 329.3 Q3715.62 336.129 3718.76 339.763 Q3721.91 343.374 3727.84 343.374 Q3730.85 343.374 3733.51 342.286 Q3736.19 341.198 3738.56 338.999 L3738.56 343.884 Q3736.1 345.55 3733.35 346.384 Q3730.62 347.217 3727.56 347.217 Q3719.71 347.217 3715.2 342.425 Q3710.69 337.61 3710.69 329.3 Q3710.69 320.967 3715.2 316.175 Q3719.71 311.361 3727.56 311.361 Q3730.66 311.361 3733.39 312.194 Q3736.15 313.004 3738.56 314.648 Z" fill="#000000" fill-rule="nonzero" fill-opacity="1" /><path clip-path="url(#clip440)" d="M3755.64 323.606 Q3752.21 323.606 3750.22 326.291 Q3748.23 328.953 3748.23 333.606 Q3748.23 338.259 3750.2 340.944 Q3752.19 343.606 3755.64 343.606 Q3759.04 343.606 3761.03 340.921 Q3763.02 338.235 3763.02 333.606 Q3763.02 328.999 3761.03 326.314 Q3759.04 323.606 3755.64 323.606 M3755.64 319.995 Q3761.19 319.995 3764.37 323.606 Q3767.54 327.217 3767.54 333.606 Q3767.54 339.972 3764.37 343.606 Q3761.19 347.217 3755.64 347.217 Q3750.06 347.217 3746.89 343.606 Q3743.74 339.972 3743.74 333.606 Q3743.74 327.217 3746.89 323.606 Q3750.06 319.995 3755.64 319.995 Z" fill="#000000" fill-rule="nonzero" fill-opacity="1" /><path clip-path="url(#clip440)" d="M3794.78 325.597 Q3796.38 322.726 3798.6 321.361 Q3800.82 319.995 3803.83 319.995 Q3807.88 319.995 3810.08 322.842 Q3812.28 325.666 3812.28 330.897 L3812.28 346.546 L3808 346.546 L3808 331.036 Q3808 327.31 3806.68 325.504 Q3805.36 323.698 3802.65 323.698 Q3799.34 323.698 3797.42 325.898 Q3795.5 328.097 3795.5 331.893 L3795.5 346.546 L3791.22 346.546 L3791.22 331.036 Q3791.22 327.286 3789.9 325.504 Q3788.58 323.698 3785.82 323.698 Q3782.56 323.698 3780.64 325.921 Q3778.72 328.12 3778.72 331.893 L3778.72 346.546 L3774.44 346.546 L3774.44 320.62 L3778.72 320.62 L3778.72 324.648 Q3780.18 322.263 3782.21 321.129 Q3784.25 319.995 3787.05 319.995 Q3789.87 319.995 3791.84 321.43 Q3793.83 322.865 3794.78 325.597 Z" fill="#000000" fill-rule="nonzero" fill-opacity="1" /><path clip-path="url(#clip440)" d="M3839.39 333.606 Q3839.39 328.907 3837.44 326.245 Q3835.52 323.56 3832.14 323.56 Q3828.76 323.56 3826.82 326.245 Q3824.9 328.907 3824.9 333.606 Q3824.9 338.305 3826.82 340.99 Q3828.76 343.652 3832.14 343.652 Q3835.52 343.652 3837.44 340.99 Q3839.39 338.305 3839.39 333.606 M3824.9 324.555 Q3826.24 322.24 3828.28 321.129 Q3830.34 319.995 3833.18 319.995 Q3837.91 319.995 3840.85 323.745 Q3843.81 327.495 3843.81 333.606 Q3843.81 339.717 3840.85 343.467 Q3837.91 347.217 3833.18 347.217 Q3830.34 347.217 3828.28 346.106 Q3826.24 344.971 3824.9 342.657 L3824.9 346.546 L3820.62 346.546 L3820.62 310.527 L3824.9 310.527 L3824.9 324.555 Z" fill="#000000" fill-rule="nonzero" fill-opacity="1" /><path clip-path="url(#clip440)" d="M3850.87 320.62 L3855.13 320.62 L3855.13 346.546 L3850.87 346.546 L3850.87 320.62 M3850.87 310.527 L3855.13 310.527 L3855.13 315.921 L3850.87 315.921 L3850.87 310.527 Z" fill="#000000" fill-rule="nonzero" fill-opacity="1" /><path clip-path="url(#clip440)" d="M3885.59 330.897 L3885.59 346.546 L3881.33 346.546 L3881.33 331.036 Q3881.33 327.356 3879.9 325.527 Q3878.46 323.698 3875.59 323.698 Q3872.14 323.698 3870.15 325.898 Q3868.16 328.097 3868.16 331.893 L3868.16 346.546 L3863.88 346.546 L3863.88 320.62 L3868.16 320.62 L3868.16 324.648 Q3869.69 322.31 3871.75 321.152 Q3873.83 319.995 3876.54 319.995 Q3881.01 319.995 3883.3 322.773 Q3885.59 325.527 3885.59 330.897 Z" fill="#000000" fill-rule="nonzero" fill-opacity="1" /><path clip-path="url(#clip440)" d="M3894.09 320.62 L3898.35 320.62 L3898.35 346.546 L3894.09 346.546 L3894.09 320.62 M3894.09 310.527 L3898.35 310.527 L3898.35 315.921 L3894.09 315.921 L3894.09 310.527 Z" fill="#000000" fill-rule="nonzero" fill-opacity="1" /><path clip-path="url(#clip440)" d="M3928.81 330.897 L3928.81 346.546 L3924.55 346.546 L3924.55 331.036 Q3924.55 327.356 3923.11 325.527 Q3921.68 323.698 3918.81 323.698 Q3915.36 323.698 3913.37 325.898 Q3911.38 328.097 3911.38 331.893 L3911.38 346.546 L3907.1 346.546 L3907.1 320.62 L3911.38 320.62 L3911.38 324.648 Q3912.91 322.31 3914.97 321.152 Q3917.05 319.995 3919.76 319.995 Q3924.23 319.995 3926.52 322.773 Q3928.81 325.527 3928.81 330.897 Z" fill="#000000" fill-rule="nonzero" fill-opacity="1" /><path clip-path="url(#clip440)" d="M3954.36 333.282 Q3954.36 328.652 3952.44 326.106 Q3950.55 323.56 3947.1 323.56 Q3943.67 323.56 3941.75 326.106 Q3939.85 328.652 3939.85 333.282 Q3939.85 337.888 3941.75 340.434 Q3943.67 342.981 3947.1 342.981 Q3950.55 342.981 3952.44 340.434 Q3954.36 337.888 3954.36 333.282 M3958.62 343.328 Q3958.62 349.948 3955.68 353.166 Q3952.74 356.407 3946.68 356.407 Q3944.43 356.407 3942.44 356.059 Q3940.45 355.735 3938.58 355.041 L3938.58 350.897 Q3940.45 351.916 3942.28 352.402 Q3944.11 352.888 3946.01 352.888 Q3950.2 352.888 3952.28 350.689 Q3954.36 348.513 3954.36 344.092 L3954.36 341.985 Q3953.05 344.277 3950.99 345.411 Q3948.92 346.546 3946.05 346.546 Q3941.29 346.546 3938.37 342.911 Q3935.45 339.277 3935.45 333.282 Q3935.45 327.263 3938.37 323.629 Q3941.29 319.995 3946.05 319.995 Q3948.92 319.995 3950.99 321.129 Q3953.05 322.263 3954.36 324.555 L3954.36 320.62 L3958.62 320.62 L3958.62 343.328 Z" fill="#000000" fill-rule="nonzero" fill-opacity="1" /><path clip-path="url(#clip440)" d="M3982.65 311.986 L4002.51 311.986 L4002.51 315.921 L3987.33 315.921 L3987.33 326.106 L4001.03 326.106 L4001.03 330.041 L3987.33 330.041 L3987.33 346.546 L3982.65 346.546 L3982.65 311.986 Z" fill="#000000" fill-rule="nonzero" fill-opacity="1" /><path clip-path="url(#clip440)" d="M4017.17 333.513 Q4012 333.513 4010.01 334.694 Q4008.02 335.874 4008.02 338.722 Q4008.02 340.99 4009.5 342.333 Q4011.01 343.652 4013.58 343.652 Q4017.12 343.652 4019.25 341.152 Q4021.4 338.629 4021.4 334.462 L4021.4 333.513 L4017.17 333.513 M4025.66 331.754 L4025.66 346.546 L4021.4 346.546 L4021.4 342.61 Q4019.94 344.971 4017.77 346.106 Q4015.59 347.217 4012.44 347.217 Q4008.46 347.217 4006.1 344.995 Q4003.76 342.749 4003.76 338.999 Q4003.76 334.624 4006.68 332.402 Q4009.62 330.18 4015.43 330.18 L4021.4 330.18 L4021.4 329.763 Q4021.4 326.823 4019.46 325.226 Q4017.54 323.606 4014.04 323.606 Q4011.82 323.606 4009.71 324.138 Q4007.61 324.671 4005.66 325.735 L4005.66 321.8 Q4008 320.898 4010.2 320.458 Q4012.4 319.995 4014.48 319.995 Q4020.11 319.995 4022.88 322.911 Q4025.66 325.828 4025.66 331.754 Z" fill="#000000" fill-rule="nonzero" fill-opacity="1" /><path clip-path="url(#clip440)" d="M4034.43 320.62 L4038.69 320.62 L4038.69 346.546 L4034.43 346.546 L4034.43 320.62 M4034.43 310.527 L4038.69 310.527 L4038.69 315.921 L4034.43 315.921 L4034.43 310.527 Z" fill="#000000" fill-rule="nonzero" fill-opacity="1" /><path clip-path="url(#clip440)" d="M4062.63 324.601 Q4061.91 324.185 4061.05 323.999 Q4060.22 323.791 4059.2 323.791 Q4055.59 323.791 4053.65 326.152 Q4051.73 328.49 4051.73 332.888 L4051.73 346.546 L4047.44 346.546 L4047.44 320.62 L4051.73 320.62 L4051.73 324.648 Q4053.07 322.286 4055.22 321.152 Q4057.37 319.995 4060.45 319.995 Q4060.89 319.995 4061.42 320.064 Q4061.96 320.111 4062.6 320.226 L4062.63 324.601 Z" fill="#000000" fill-rule="nonzero" fill-opacity="1" /><path clip-path="url(#clip440)" d="M3263.23 401.842 L3560.06 401.842 L3560.06 360.37 L3263.23 360.37 L3263.23 401.842  Z" fill="#ac8d18" fill-rule="evenodd" fill-opacity="1"/>
<polyline clip-path="url(#clip440)" style="stroke:#000000; stroke-linecap:round; stroke-linejoin:round; stroke-width:4; stroke-opacity:1; fill:none" points="3263.23,401.842 3560.06,401.842 3560.06,360.37 3263.23,360.37 3263.23,401.842 "/>
<path clip-path="url(#clip440)" d="M3609.53 363.826 L3629.39 363.826 L3629.39 367.761 L3614.2 367.761 L3614.2 377.946 L3627.91 377.946 L3627.91 381.881 L3614.2 381.881 L3614.2 398.386 L3609.53 398.386 L3609.53 363.826 Z" fill="#000000" fill-rule="nonzero" fill-opacity="1" /><path clip-path="url(#clip440)" d="M3636.61 362.367 L3640.87 362.367 L3640.87 398.386 L3636.61 398.386 L3636.61 362.367 Z" fill="#000000" fill-rule="nonzero" fill-opacity="1" /><path clip-path="url(#clip440)" d="M3661.57 385.353 Q3656.4 385.353 3654.41 386.534 Q3652.42 387.714 3652.42 390.562 Q3652.42 392.83 3653.9 394.173 Q3655.41 395.492 3657.98 395.492 Q3661.52 395.492 3663.65 392.992 Q3665.8 390.469 3665.8 386.302 L3665.8 385.353 L3661.57 385.353 M3670.06 383.594 L3670.06 398.386 L3665.8 398.386 L3665.8 394.45 Q3664.34 396.811 3662.17 397.946 Q3659.99 399.057 3656.84 399.057 Q3652.86 399.057 3650.5 396.835 Q3648.16 394.589 3648.16 390.839 Q3648.16 386.464 3651.08 384.242 Q3654.02 382.02 3659.83 382.02 L3665.8 382.02 L3665.8 381.603 Q3665.8 378.663 3663.86 377.066 Q3661.94 375.446 3658.44 375.446 Q3656.22 375.446 3654.11 375.978 Q3652.01 376.511 3650.06 377.575 L3650.06 373.64 Q3652.4 372.738 3654.6 372.298 Q3656.8 371.835 3658.88 371.835 Q3664.51 371.835 3667.28 374.751 Q3670.06 377.668 3670.06 383.594 Z" fill="#000000" fill-rule="nonzero" fill-opacity="1" /><path clip-path="url(#clip440)" d="M3683.05 365.099 L3683.05 372.46 L3691.82 372.46 L3691.82 375.77 L3683.05 375.77 L3683.05 389.844 Q3683.05 393.015 3683.9 393.918 Q3684.78 394.821 3687.44 394.821 L3691.82 394.821 L3691.82 398.386 L3687.44 398.386 Q3682.51 398.386 3680.64 396.557 Q3678.76 394.705 3678.76 389.844 L3678.76 375.77 L3675.64 375.77 L3675.64 372.46 L3678.76 372.46 L3678.76 365.099 L3683.05 365.099 Z" fill="#000000" fill-rule="nonzero" fill-opacity="1" /><path clip-path="url(#clip440)" d="M3738.56 366.488 L3738.56 371.418 Q3736.19 369.219 3733.51 368.131 Q3730.85 367.043 3727.84 367.043 Q3721.91 367.043 3718.76 370.677 Q3715.62 374.288 3715.62 381.14 Q3715.62 387.969 3718.76 391.603 Q3721.91 395.214 3727.84 395.214 Q3730.85 395.214 3733.51 394.126 Q3736.19 393.038 3738.56 390.839 L3738.56 395.724 Q3736.1 397.39 3733.35 398.224 Q3730.62 399.057 3727.56 399.057 Q3719.71 399.057 3715.2 394.265 Q3710.69 389.45 3710.69 381.14 Q3710.69 372.807 3715.2 368.015 Q3719.71 363.201 3727.56 363.201 Q3730.66 363.201 3733.39 364.034 Q3736.15 364.844 3738.56 366.488 Z" fill="#000000" fill-rule="nonzero" fill-opacity="1" /><path clip-path="url(#clip440)" d="M3755.64 375.446 Q3752.21 375.446 3750.22 378.131 Q3748.23 380.793 3748.23 385.446 Q3748.23 390.099 3750.2 392.784 Q3752.19 395.446 3755.64 395.446 Q3759.04 395.446 3761.03 392.761 Q3763.02 390.075 3763.02 385.446 Q3763.02 380.839 3761.03 378.154 Q3759.04 375.446 3755.64 375.446 M3755.64 371.835 Q3761.19 371.835 3764.37 375.446 Q3767.54 379.057 3767.54 385.446 Q3767.54 391.812 3764.37 395.446 Q3761.19 399.057 3755.64 399.057 Q3750.06 399.057 3746.89 395.446 Q3743.74 391.812 3743.74 385.446 Q3743.74 379.057 3746.89 375.446 Q3750.06 371.835 3755.64 371.835 Z" fill="#000000" fill-rule="nonzero" fill-opacity="1" /><path clip-path="url(#clip440)" d="M3794.78 377.437 Q3796.38 374.566 3798.6 373.201 Q3800.82 371.835 3803.83 371.835 Q3807.88 371.835 3810.08 374.682 Q3812.28 377.506 3812.28 382.737 L3812.28 398.386 L3808 398.386 L3808 382.876 Q3808 379.15 3806.68 377.344 Q3805.36 375.538 3802.65 375.538 Q3799.34 375.538 3797.42 377.738 Q3795.5 379.937 3795.5 383.733 L3795.5 398.386 L3791.22 398.386 L3791.22 382.876 Q3791.22 379.126 3789.9 377.344 Q3788.58 375.538 3785.82 375.538 Q3782.56 375.538 3780.64 377.761 Q3778.72 379.96 3778.72 383.733 L3778.72 398.386 L3774.44 398.386 L3774.44 372.46 L3778.72 372.46 L3778.72 376.488 Q3780.18 374.103 3782.21 372.969 Q3784.25 371.835 3787.05 371.835 Q3789.87 371.835 3791.84 373.27 Q3793.83 374.705 3794.78 377.437 Z" fill="#000000" fill-rule="nonzero" fill-opacity="1" /><path clip-path="url(#clip440)" d="M3839.39 385.446 Q3839.39 380.747 3837.44 378.085 Q3835.52 375.4 3832.14 375.4 Q3828.76 375.4 3826.82 378.085 Q3824.9 380.747 3824.9 385.446 Q3824.9 390.145 3826.82 392.83 Q3828.76 395.492 3832.14 395.492 Q3835.52 395.492 3837.44 392.83 Q3839.39 390.145 3839.39 385.446 M3824.9 376.395 Q3826.24 374.08 3828.28 372.969 Q3830.34 371.835 3833.18 371.835 Q3837.91 371.835 3840.85 375.585 Q3843.81 379.335 3843.81 385.446 Q3843.81 391.557 3840.85 395.307 Q3837.91 399.057 3833.18 399.057 Q3830.34 399.057 3828.28 397.946 Q3826.24 396.811 3824.9 394.497 L3824.9 398.386 L3820.62 398.386 L3820.62 362.367 L3824.9 362.367 L3824.9 376.395 Z" fill="#000000" fill-rule="nonzero" fill-opacity="1" /><path clip-path="url(#clip440)" d="M3850.87 372.46 L3855.13 372.46 L3855.13 398.386 L3850.87 398.386 L3850.87 372.46 M3850.87 362.367 L3855.13 362.367 L3855.13 367.761 L3850.87 367.761 L3850.87 362.367 Z" fill="#000000" fill-rule="nonzero" fill-opacity="1" /><path clip-path="url(#clip440)" d="M3885.59 382.737 L3885.59 398.386 L3881.33 398.386 L3881.33 382.876 Q3881.33 379.196 3879.9 377.367 Q3878.46 375.538 3875.59 375.538 Q3872.14 375.538 3870.15 377.738 Q3868.16 379.937 3868.16 383.733 L3868.16 398.386 L3863.88 398.386 L3863.88 372.46 L3868.16 372.46 L3868.16 376.488 Q3869.69 374.15 3871.75 372.992 Q3873.83 371.835 3876.54 371.835 Q3881.01 371.835 3883.3 374.613 Q3885.59 377.367 3885.59 382.737 Z" fill="#000000" fill-rule="nonzero" fill-opacity="1" /><path clip-path="url(#clip440)" d="M3894.09 372.46 L3898.35 372.46 L3898.35 398.386 L3894.09 398.386 L3894.09 372.46 M3894.09 362.367 L3898.35 362.367 L3898.35 367.761 L3894.09 367.761 L3894.09 362.367 Z" fill="#000000" fill-rule="nonzero" fill-opacity="1" /><path clip-path="url(#clip440)" d="M3928.81 382.737 L3928.81 398.386 L3924.55 398.386 L3924.55 382.876 Q3924.55 379.196 3923.11 377.367 Q3921.68 375.538 3918.81 375.538 Q3915.36 375.538 3913.37 377.738 Q3911.38 379.937 3911.38 383.733 L3911.38 398.386 L3907.1 398.386 L3907.1 372.46 L3911.38 372.46 L3911.38 376.488 Q3912.91 374.15 3914.97 372.992 Q3917.05 371.835 3919.76 371.835 Q3924.23 371.835 3926.52 374.613 Q3928.81 377.367 3928.81 382.737 Z" fill="#000000" fill-rule="nonzero" fill-opacity="1" /><path clip-path="url(#clip440)" d="M3954.36 385.122 Q3954.36 380.492 3952.44 377.946 Q3950.55 375.4 3947.1 375.4 Q3943.67 375.4 3941.75 377.946 Q3939.85 380.492 3939.85 385.122 Q3939.85 389.728 3941.75 392.274 Q3943.67 394.821 3947.1 394.821 Q3950.55 394.821 3952.44 392.274 Q3954.36 389.728 3954.36 385.122 M3958.62 395.168 Q3958.62 401.788 3955.68 405.006 Q3952.74 408.247 3946.68 408.247 Q3944.43 408.247 3942.44 407.899 Q3940.45 407.575 3938.58 406.881 L3938.58 402.737 Q3940.45 403.756 3942.28 404.242 Q3944.11 404.728 3946.01 404.728 Q3950.2 404.728 3952.28 402.529 Q3954.36 400.353 3954.36 395.932 L3954.36 393.825 Q3953.05 396.117 3950.99 397.251 Q3948.92 398.386 3946.05 398.386 Q3941.29 398.386 3938.37 394.751 Q3935.45 391.117 3935.45 385.122 Q3935.45 379.103 3938.37 375.469 Q3941.29 371.835 3946.05 371.835 Q3948.92 371.835 3950.99 372.969 Q3953.05 374.103 3954.36 376.395 L3954.36 372.46 L3958.62 372.46 L3958.62 395.168 Z" fill="#000000" fill-rule="nonzero" fill-opacity="1" /><path clip-path="url(#clip440)" d="M3982.65 363.826 L4002.51 363.826 L4002.51 367.761 L3987.33 367.761 L3987.33 377.946 L4001.03 377.946 L4001.03 381.881 L3987.33 381.881 L3987.33 398.386 L3982.65 398.386 L3982.65 363.826 Z" fill="#000000" fill-rule="nonzero" fill-opacity="1" /><path clip-path="url(#clip440)" d="M4017.17 385.353 Q4012 385.353 4010.01 386.534 Q4008.02 387.714 4008.02 390.562 Q4008.02 392.83 4009.5 394.173 Q4011.01 395.492 4013.58 395.492 Q4017.12 395.492 4019.25 392.992 Q4021.4 390.469 4021.4 386.302 L4021.4 385.353 L4017.17 385.353 M4025.66 383.594 L4025.66 398.386 L4021.4 398.386 L4021.4 394.45 Q4019.94 396.811 4017.77 397.946 Q4015.59 399.057 4012.44 399.057 Q4008.46 399.057 4006.1 396.835 Q4003.76 394.589 4003.76 390.839 Q4003.76 386.464 4006.68 384.242 Q4009.62 382.02 4015.43 382.02 L4021.4 382.02 L4021.4 381.603 Q4021.4 378.663 4019.46 377.066 Q4017.54 375.446 4014.04 375.446 Q4011.82 375.446 4009.71 375.978 Q4007.61 376.511 4005.66 377.575 L4005.66 373.64 Q4008 372.738 4010.2 372.298 Q4012.4 371.835 4014.48 371.835 Q4020.11 371.835 4022.88 374.751 Q4025.66 377.668 4025.66 383.594 Z" fill="#000000" fill-rule="nonzero" fill-opacity="1" /><path clip-path="url(#clip440)" d="M4034.43 372.46 L4038.69 372.46 L4038.69 398.386 L4034.43 398.386 L4034.43 372.46 M4034.43 362.367 L4038.69 362.367 L4038.69 367.761 L4034.43 367.761 L4034.43 362.367 Z" fill="#000000" fill-rule="nonzero" fill-opacity="1" /><path clip-path="url(#clip440)" d="M4062.63 376.441 Q4061.91 376.025 4061.05 375.839 Q4060.22 375.631 4059.2 375.631 Q4055.59 375.631 4053.65 377.992 Q4051.73 380.33 4051.73 384.728 L4051.73 398.386 L4047.44 398.386 L4047.44 372.46 L4051.73 372.46 L4051.73 376.488 Q4053.07 374.126 4055.22 372.992 Q4057.37 371.835 4060.45 371.835 Q4060.89 371.835 4061.42 371.904 Q4061.96 371.951 4062.6 372.066 L4062.63 376.441 Z" fill="#000000" fill-rule="nonzero" fill-opacity="1" /><path clip-path="url(#clip440)" d="M4079.27 363.826 L4083.99 363.826 L4091.26 393.038 L4098.51 363.826 L4103.76 363.826 L4111.03 393.038 L4118.28 363.826 L4123.02 363.826 L4114.34 398.386 L4108.46 398.386 L4101.17 368.386 L4093.81 398.386 L4087.93 398.386 L4079.27 363.826 Z" fill="#000000" fill-rule="nonzero" fill-opacity="1" /><path clip-path="url(#clip440)" d="M4128 372.46 L4132.26 372.46 L4132.26 398.386 L4128 398.386 L4128 372.46 M4128 362.367 L4132.26 362.367 L4132.26 367.761 L4128 367.761 L4128 362.367 Z" fill="#000000" fill-rule="nonzero" fill-opacity="1" /><path clip-path="url(#clip440)" d="M4145.38 365.099 L4145.38 372.46 L4154.16 372.46 L4154.16 375.77 L4145.38 375.77 L4145.38 389.844 Q4145.38 393.015 4146.24 393.918 Q4147.12 394.821 4149.78 394.821 L4154.16 394.821 L4154.16 398.386 L4149.78 398.386 Q4144.85 398.386 4142.97 396.557 Q4141.1 394.705 4141.1 389.844 L4141.1 375.77 L4137.97 375.77 L4137.97 372.46 L4141.1 372.46 L4141.1 365.099 L4145.38 365.099 Z" fill="#000000" fill-rule="nonzero" fill-opacity="1" /><path clip-path="url(#clip440)" d="M4181.31 382.737 L4181.31 398.386 L4177.05 398.386 L4177.05 382.876 Q4177.05 379.196 4175.61 377.367 Q4174.18 375.538 4171.31 375.538 Q4167.86 375.538 4165.87 377.738 Q4163.88 379.937 4163.88 383.733 L4163.88 398.386 L4159.6 398.386 L4159.6 362.367 L4163.88 362.367 L4163.88 376.488 Q4165.41 374.15 4167.47 372.992 Q4169.55 371.835 4172.26 371.835 Q4176.72 371.835 4179.02 374.613 Q4181.31 377.367 4181.31 382.737 Z" fill="#000000" fill-rule="nonzero" fill-opacity="1" /><path clip-path="url(#clip440)" d="M4230.94 366.488 L4230.94 371.418 Q4228.58 369.219 4225.89 368.131 Q4223.23 367.043 4220.22 367.043 Q4214.29 367.043 4211.15 370.677 Q4208 374.288 4208 381.14 Q4208 387.969 4211.15 391.603 Q4214.29 395.214 4220.22 395.214 Q4223.23 395.214 4225.89 394.126 Q4228.58 393.038 4230.94 390.839 L4230.94 395.724 Q4228.48 397.39 4225.73 398.224 Q4223 399.057 4219.94 399.057 Q4212.09 399.057 4207.58 394.265 Q4203.07 389.45 4203.07 381.14 Q4203.07 372.807 4207.58 368.015 Q4212.09 363.201 4219.94 363.201 Q4223.04 363.201 4225.78 364.034 Q4228.53 364.844 4230.94 366.488 Z" fill="#000000" fill-rule="nonzero" fill-opacity="1" /><path clip-path="url(#clip440)" d="M4248.02 375.446 Q4244.59 375.446 4242.6 378.131 Q4240.61 380.793 4240.61 385.446 Q4240.61 390.099 4242.58 392.784 Q4244.57 395.446 4248.02 395.446 Q4251.42 395.446 4253.41 392.761 Q4255.4 390.075 4255.4 385.446 Q4255.4 380.839 4253.41 378.154 Q4251.42 375.446 4248.02 375.446 M4248.02 371.835 Q4253.58 371.835 4256.75 375.446 Q4259.92 379.057 4259.92 385.446 Q4259.92 391.812 4256.75 395.446 Q4253.58 399.057 4248.02 399.057 Q4242.44 399.057 4239.27 395.446 Q4236.12 391.812 4236.12 385.446 Q4236.12 379.057 4239.27 375.446 Q4242.44 371.835 4248.02 371.835 Z" fill="#000000" fill-rule="nonzero" fill-opacity="1" /><path clip-path="url(#clip440)" d="M4287.16 377.437 Q4288.76 374.566 4290.98 373.201 Q4293.21 371.835 4296.21 371.835 Q4300.27 371.835 4302.46 374.682 Q4304.66 377.506 4304.66 382.737 L4304.66 398.386 L4300.38 398.386 L4300.38 382.876 Q4300.38 379.15 4299.06 377.344 Q4297.74 375.538 4295.03 375.538 Q4291.72 375.538 4289.8 377.738 Q4287.88 379.937 4287.88 383.733 L4287.88 398.386 L4283.6 398.386 L4283.6 382.876 Q4283.6 379.126 4282.28 377.344 Q4280.96 375.538 4278.21 375.538 Q4274.94 375.538 4273.02 377.761 Q4271.1 379.96 4271.1 383.733 L4271.1 398.386 L4266.82 398.386 L4266.82 372.46 L4271.1 372.46 L4271.1 376.488 Q4272.56 374.103 4274.59 372.969 Q4276.63 371.835 4279.43 371.835 Q4282.26 371.835 4284.22 373.27 Q4286.21 374.705 4287.16 377.437 Z" fill="#000000" fill-rule="nonzero" fill-opacity="1" /><path clip-path="url(#clip440)" d="M4331.77 385.446 Q4331.77 380.747 4329.83 378.085 Q4327.9 375.4 4324.52 375.4 Q4321.15 375.4 4319.2 378.085 Q4317.28 380.747 4317.28 385.446 Q4317.28 390.145 4319.2 392.83 Q4321.15 395.492 4324.52 395.492 Q4327.9 395.492 4329.83 392.83 Q4331.77 390.145 4331.77 385.446 M4317.28 376.395 Q4318.62 374.08 4320.66 372.969 Q4322.72 371.835 4325.57 371.835 Q4330.29 371.835 4333.23 375.585 Q4336.19 379.335 4336.19 385.446 Q4336.19 391.557 4333.23 395.307 Q4330.29 399.057 4325.57 399.057 Q4322.72 399.057 4320.66 397.946 Q4318.62 396.811 4317.28 394.497 L4317.28 398.386 L4313 398.386 L4313 362.367 L4317.28 362.367 L4317.28 376.395 Z" fill="#000000" fill-rule="nonzero" fill-opacity="1" /><path clip-path="url(#clip440)" d="M4343.25 372.46 L4347.51 372.46 L4347.51 398.386 L4343.25 398.386 L4343.25 372.46 M4343.25 362.367 L4347.51 362.367 L4347.51 367.761 L4343.25 367.761 L4343.25 362.367 Z" fill="#000000" fill-rule="nonzero" fill-opacity="1" /><path clip-path="url(#clip440)" d="M4377.97 382.737 L4377.97 398.386 L4373.71 398.386 L4373.71 382.876 Q4373.71 379.196 4372.28 377.367 Q4370.84 375.538 4367.97 375.538 Q4364.52 375.538 4362.53 377.738 Q4360.54 379.937 4360.54 383.733 L4360.54 398.386 L4356.26 398.386 L4356.26 372.46 L4360.54 372.46 L4360.54 376.488 Q4362.07 374.15 4364.13 372.992 Q4366.21 371.835 4368.92 371.835 Q4373.39 371.835 4375.68 374.613 Q4377.97 377.367 4377.97 382.737 Z" fill="#000000" fill-rule="nonzero" fill-opacity="1" /><path clip-path="url(#clip440)" d="M4408.64 384.358 L4408.64 386.441 L4389.06 386.441 Q4389.34 390.839 4391.7 393.154 Q4394.08 395.446 4398.32 395.446 Q4400.77 395.446 4403.07 394.844 Q4405.38 394.242 4407.65 393.038 L4407.65 397.066 Q4405.36 398.038 4402.95 398.548 Q4400.54 399.057 4398.07 399.057 Q4391.86 399.057 4388.23 395.446 Q4384.62 391.835 4384.62 385.677 Q4384.62 379.312 4388.04 375.585 Q4391.49 371.835 4397.33 371.835 Q4402.56 371.835 4405.59 375.214 Q4408.64 378.571 4408.64 384.358 M4404.39 383.108 Q4404.34 379.613 4402.42 377.529 Q4400.52 375.446 4397.37 375.446 Q4393.81 375.446 4391.65 377.46 Q4389.52 379.474 4389.2 383.131 L4404.39 383.108 Z" fill="#000000" fill-rule="nonzero" fill-opacity="1" /><path clip-path="url(#clip440)" d="M4430.66 376.441 Q4429.94 376.025 4429.08 375.839 Q4428.25 375.631 4427.23 375.631 Q4423.62 375.631 4421.68 377.992 Q4419.76 380.33 4419.76 384.728 L4419.76 398.386 L4415.47 398.386 L4415.47 372.46 L4419.76 372.46 L4419.76 376.488 Q4421.1 374.126 4423.25 372.992 Q4425.4 371.835 4428.48 371.835 Q4428.92 371.835 4429.45 371.904 Q4429.99 371.951 4430.64 372.066 L4430.66 376.441 Z" fill="#000000" fill-rule="nonzero" fill-opacity="1" /><path clip-path="url(#clip440)" d="M4471.1 364.96 L4471.1 369.52 Q4468.44 368.247 4466.07 367.622 Q4463.71 366.997 4461.51 366.997 Q4457.7 366.997 4455.61 368.478 Q4453.55 369.96 4453.55 372.691 Q4453.55 374.983 4454.92 376.163 Q4456.31 377.321 4460.15 378.038 L4462.97 378.617 Q4468.2 379.613 4470.68 382.136 Q4473.18 384.636 4473.18 388.849 Q4473.18 393.872 4469.8 396.464 Q4466.45 399.057 4459.94 399.057 Q4457.49 399.057 4454.71 398.501 Q4451.95 397.946 4448.99 396.858 L4448.99 392.043 Q4451.84 393.64 4454.57 394.45 Q4457.3 395.261 4459.94 395.261 Q4463.95 395.261 4466.12 393.687 Q4468.3 392.112 4468.3 389.196 Q4468.3 386.65 4466.72 385.214 Q4465.17 383.779 4461.61 383.062 L4458.76 382.506 Q4453.53 381.464 4451.19 379.242 Q4448.85 377.02 4448.85 373.062 Q4448.85 368.478 4452.07 365.839 Q4455.31 363.201 4460.98 363.201 Q4463.41 363.201 4465.94 363.64 Q4468.46 364.08 4471.1 364.96 Z" fill="#000000" fill-rule="nonzero" fill-opacity="1" /><path clip-path="url(#clip440)" d="M4480.29 362.367 L4484.55 362.367 L4484.55 398.386 L4480.29 398.386 L4480.29 362.367 Z" fill="#000000" fill-rule="nonzero" fill-opacity="1" /><path clip-path="url(#clip440)" d="M4493.46 372.46 L4497.72 372.46 L4497.72 398.386 L4493.46 398.386 L4493.46 372.46 M4493.46 362.367 L4497.72 362.367 L4497.72 367.761 L4493.46 367.761 L4493.46 362.367 Z" fill="#000000" fill-rule="nonzero" fill-opacity="1" /><path clip-path="url(#clip440)" d="M4525.29 373.455 L4525.29 377.437 Q4523.48 376.441 4521.65 375.955 Q4519.85 375.446 4518 375.446 Q4513.85 375.446 4511.56 378.085 Q4509.27 380.7 4509.27 385.446 Q4509.27 390.191 4511.56 392.83 Q4513.85 395.446 4518 395.446 Q4519.85 395.446 4521.65 394.96 Q4523.48 394.45 4525.29 393.455 L4525.29 397.39 Q4523.51 398.224 4521.58 398.64 Q4519.69 399.057 4517.53 399.057 Q4511.68 399.057 4508.23 395.376 Q4504.78 391.696 4504.78 385.446 Q4504.78 379.103 4508.25 375.469 Q4511.75 371.835 4517.81 371.835 Q4519.78 371.835 4521.65 372.251 Q4523.53 372.645 4525.29 373.455 Z" fill="#000000" fill-rule="nonzero" fill-opacity="1" /><path clip-path="url(#clip440)" d="M4554.87 384.358 L4554.87 386.441 L4535.29 386.441 Q4535.57 390.839 4537.93 393.154 Q4540.31 395.446 4544.55 395.446 Q4547 395.446 4549.29 394.844 Q4551.61 394.242 4553.88 393.038 L4553.88 397.066 Q4551.58 398.038 4549.18 398.548 Q4546.77 399.057 4544.29 399.057 Q4538.09 399.057 4534.45 395.446 Q4530.84 391.835 4530.84 385.677 Q4530.84 379.312 4534.27 375.585 Q4537.72 371.835 4543.55 371.835 Q4548.78 371.835 4551.82 375.214 Q4554.87 378.571 4554.87 384.358 M4550.61 383.108 Q4550.57 379.613 4548.64 377.529 Q4546.75 375.446 4543.6 375.446 Q4540.03 375.446 4537.88 377.46 Q4535.75 379.474 4535.43 383.131 L4550.61 383.108 Z" fill="#000000" fill-rule="nonzero" fill-opacity="1" /><path clip-path="url(#clip440)" d="M3263.23 453.682 L3560.06 453.682 L3560.06 412.21 L3263.23 412.21 L3263.23 453.682  Z" fill="#00a9ad" fill-rule="evenodd" fill-opacity="1"/>
<polyline clip-path="url(#clip440)" style="stroke:#000000; stroke-linecap:round; stroke-linejoin:round; stroke-width:4; stroke-opacity:1; fill:none" points="3263.23,453.682 3560.06,453.682 3560.06,412.21 3263.23,412.21 3263.23,453.682 "/>
<path clip-path="url(#clip440)" d="M3609.53 415.666 L3616.5 415.666 L3625.32 439.184 L3634.18 415.666 L3641.15 415.666 L3641.15 450.226 L3636.59 450.226 L3636.59 419.878 L3627.68 443.582 L3622.98 443.582 L3614.07 419.878 L3614.07 450.226 L3609.53 450.226 L3609.53 415.666 Z" fill="#000000" fill-rule="nonzero" fill-opacity="1" /><path clip-path="url(#clip440)" d="M3649.81 439.994 L3649.81 424.3 L3654.07 424.3 L3654.07 439.832 Q3654.07 443.513 3655.5 445.364 Q3656.94 447.193 3659.81 447.193 Q3663.26 447.193 3665.25 444.994 Q3667.26 442.795 3667.26 438.999 L3667.26 424.3 L3671.52 424.3 L3671.52 450.226 L3667.26 450.226 L3667.26 446.244 Q3665.71 448.605 3663.65 449.763 Q3661.61 450.897 3658.9 450.897 Q3654.44 450.897 3652.12 448.119 Q3649.81 445.341 3649.81 439.994 M3660.52 423.675 L3660.52 423.675 Z" fill="#000000" fill-rule="nonzero" fill-opacity="1" /><path clip-path="url(#clip440)" d="M3684.51 416.939 L3684.51 424.3 L3693.28 424.3 L3693.28 427.61 L3684.51 427.61 L3684.51 441.684 Q3684.51 444.855 3685.36 445.758 Q3686.24 446.661 3688.9 446.661 L3693.28 446.661 L3693.28 450.226 L3688.9 450.226 Q3683.97 450.226 3682.1 448.397 Q3680.22 446.545 3680.22 441.684 L3680.22 427.61 L3677.1 427.61 L3677.1 424.3 L3680.22 424.3 L3680.22 416.939 L3684.51 416.939 Z" fill="#000000" fill-rule="nonzero" fill-opacity="1" /><path clip-path="url(#clip440)" d="M3721.06 436.198 L3721.06 438.281 L3701.47 438.281 Q3701.75 442.679 3704.11 444.994 Q3706.5 447.286 3710.73 447.286 Q3713.19 447.286 3715.48 446.684 Q3717.79 446.082 3720.06 444.878 L3720.06 448.906 Q3717.77 449.878 3715.36 450.388 Q3712.95 450.897 3710.48 450.897 Q3704.27 450.897 3700.64 447.286 Q3697.03 443.675 3697.03 437.517 Q3697.03 431.152 3700.45 427.425 Q3703.9 423.675 3709.74 423.675 Q3714.97 423.675 3718 427.054 Q3721.06 430.411 3721.06 436.198 M3716.8 434.948 Q3716.75 431.453 3714.83 429.369 Q3712.93 427.286 3709.78 427.286 Q3706.22 427.286 3704.07 429.3 Q3701.94 431.314 3701.61 434.971 L3716.8 434.948 Z" fill="#000000" fill-rule="nonzero" fill-opacity="1" /><path clip-path="url(#clip440)" d="M3748.76 424.3 L3739.39 436.915 L3749.25 450.226 L3744.23 450.226 L3736.68 440.04 L3729.13 450.226 L3724.11 450.226 L3734.18 436.661 L3724.97 424.3 L3729.99 424.3 L3736.87 433.536 L3743.74 424.3 L3748.76 424.3 Z" fill="#000000" fill-rule="nonzero" fill-opacity="1" /><path clip-path="url(#clip440)" d="M3263.23 505.522 L3560.06 505.522 L3560.06 464.05 L3263.23 464.05 L3263.23 505.522  Z" fill="#ed5d92" fill-rule="evenodd" fill-opacity="1"/>
<polyline clip-path="url(#clip440)" style="stroke:#000000; stroke-linecap:round; stroke-linejoin:round; stroke-width:4; stroke-opacity:1; fill:none" points="3263.23,505.522 3560.06,505.522 3560.06,464.05 3263.23,464.05 3263.23,505.522 "/>
<path clip-path="url(#clip440)" d="M3625.92 485.862 Q3627.42 486.371 3628.83 488.038 Q3630.27 489.705 3631.7 492.621 L3636.45 502.066 L3631.43 502.066 L3627.01 493.2 Q3625.29 489.728 3623.67 488.593 Q3622.07 487.459 3619.3 487.459 L3614.2 487.459 L3614.2 502.066 L3609.53 502.066 L3609.53 467.506 L3620.08 467.506 Q3626.01 467.506 3628.93 469.982 Q3631.84 472.459 3631.84 477.459 Q3631.84 480.723 3630.32 482.876 Q3628.81 485.029 3625.92 485.862 M3614.2 471.348 L3614.2 483.617 L3620.08 483.617 Q3623.46 483.617 3625.18 482.066 Q3626.91 480.492 3626.91 477.459 Q3626.91 474.427 3625.18 472.899 Q3623.46 471.348 3620.08 471.348 L3614.2 471.348 Z" fill="#000000" fill-rule="nonzero" fill-opacity="1" /><path clip-path="url(#clip440)" d="M3665.99 470.168 L3665.99 475.098 Q3663.63 472.899 3660.94 471.811 Q3658.28 470.723 3655.27 470.723 Q3649.34 470.723 3646.2 474.357 Q3643.05 477.968 3643.05 484.82 Q3643.05 491.649 3646.2 495.283 Q3649.34 498.894 3655.27 498.894 Q3658.28 498.894 3660.94 497.806 Q3663.63 496.718 3665.99 494.519 L3665.99 499.404 Q3663.53 501.07 3660.78 501.904 Q3658.05 502.737 3654.99 502.737 Q3647.14 502.737 3642.63 497.945 Q3638.12 493.13 3638.12 484.82 Q3638.12 476.487 3642.63 471.695 Q3647.14 466.881 3654.99 466.881 Q3658.09 466.881 3660.82 467.714 Q3663.58 468.524 3665.99 470.168 Z" fill="#000000" fill-rule="nonzero" fill-opacity="1" /><path clip-path="url(#clip440)" d="M3673.21 467.506 L3677.88 467.506 L3677.88 498.13 L3694.71 498.13 L3694.71 502.066 L3673.21 502.066 L3673.21 467.506 Z" fill="#000000" fill-rule="nonzero" fill-opacity="1" /></svg>
