<?xml version="1.0" encoding="utf-8"?>
<svg xmlns="http://www.w3.org/2000/svg" xmlns:xlink="http://www.w3.org/1999/xlink" width="1200" height="600" viewBox="0 0 4800 2400">
<defs>
  <clipPath id="clip600">
    <rect x="0" y="0" width="4800" height="2400"/>
  </clipPath>
</defs>
<path clip-path="url(#clip600)" d="M0 2400 L4800 2400 L4800 0 L0 0  Z" fill="#ffffff" fill-rule="evenodd" fill-opacity="1"/>
<defs>
  <clipPath id="clip601">
    <rect x="960" y="0" width="3361" height="2400"/>
  </clipPath>
</defs>
<path clip-path="url(#clip600)" d="M329.185 2287.09 L4752.76 2287.09 L4752.76 47.2441 L329.185 47.2441  Z" fill="#ffffff" fill-rule="evenodd" fill-opacity="1"/>
<defs>
  <clipPath id="clip602">
    <rect x="329" y="47" width="4425" height="2241"/>
  </clipPath>
</defs>
<polyline clip-path="url(#clip602)" style="stroke:#000000; stroke-linecap:round; stroke-linejoin:round; stroke-width:2; stroke-opacity:0.1; fill:none" points="971.319,2287.09 971.319,47.2441 "/>
<polyline clip-path="url(#clip602)" style="stroke:#000000; stroke-linecap:round; stroke-linejoin:round; stroke-width:2; stroke-opacity:0.1; fill:none" points="2017.75,2287.09 2017.75,47.2441 "/>
<polyline clip-path="url(#clip602)" style="stroke:#000000; stroke-linecap:round; stroke-linejoin:round; stroke-width:2; stroke-opacity:0.1; fill:none" points="3064.19,2287.09 3064.19,47.2441 "/>
<polyline clip-path="url(#clip602)" style="stroke:#000000; stroke-linecap:round; stroke-linejoin:round; stroke-width:2; stroke-opacity:0.1; fill:none" points="4110.62,2287.09 4110.62,47.2441 "/>
<polyline clip-path="url(#clip600)" style="stroke:#000000; stroke-linecap:round; stroke-linejoin:round; stroke-width:4; stroke-opacity:1; fill:none" points="329.185,2287.09 4752.76,2287.09 "/>
<polyline clip-path="url(#clip600)" style="stroke:#000000; stroke-linecap:round; stroke-linejoin:round; stroke-width:4; stroke-opacity:1; fill:none" points="971.319,2287.09 971.319,2268.19 "/>
<polyline clip-path="url(#clip600)" style="stroke:#000000; stroke-linecap:round; stroke-linejoin:round; stroke-width:4; stroke-opacity:1; fill:none" points="2017.75,2287.09 2017.75,2268.19 "/>
<polyline clip-path="url(#clip600)" style="stroke:#000000; stroke-linecap:round; stroke-linejoin:round; stroke-width:4; stroke-opacity:1; fill:none" points="3064.19,2287.09 3064.19,2268.19 "/>
<polyline clip-path="url(#clip600)" style="stroke:#000000; stroke-linecap:round; stroke-linejoin:round; stroke-width:4; stroke-opacity:1; fill:none" points="4110.62,2287.09 4110.62,2268.19 "/>
<path clip-path="url(#clip600)" d="M971.319 2337.21 Q967.708 2337.21 965.88 2340.77 Q964.074 2344.31 964.074 2351.44 Q964.074 2358.55 965.88 2362.11 Q967.708 2365.66 971.319 2365.66 Q974.954 2365.66 976.759 2362.11 Q978.588 2358.55 978.588 2351.44 Q978.588 2344.31 976.759 2340.77 Q974.954 2337.21 971.319 2337.21 M971.319 2333.5 Q977.129 2333.5 980.185 2338.11 Q983.264 2342.69 983.264 2351.44 Q983.264 2360.17 980.185 2364.78 Q977.129 2369.36 971.319 2369.36 Q965.509 2369.36 962.43 2364.78 Q959.375 2360.17 959.375 2351.44 Q959.375 2342.69 962.43 2338.11 Q965.509 2333.5 971.319 2333.5 Z" fill="#000000" fill-rule="nonzero" fill-opacity="1" /><path clip-path="url(#clip600)" d="M2008.14 2364.75 L2015.77 2364.75 L2015.77 2338.39 L2007.46 2340.05 L2007.46 2335.79 L2015.73 2334.13 L2020.4 2334.13 L2020.4 2364.75 L2028.04 2364.75 L2028.04 2368.69 L2008.14 2368.69 L2008.14 2364.75 Z" fill="#000000" fill-rule="nonzero" fill-opacity="1" /><path clip-path="url(#clip600)" d="M3058.84 2364.75 L3075.16 2364.75 L3075.16 2368.69 L3053.22 2368.69 L3053.22 2364.75 Q3055.88 2362 3060.46 2357.37 Q3065.07 2352.72 3066.25 2351.37 Q3068.49 2348.85 3069.37 2347.11 Q3070.28 2345.35 3070.28 2343.66 Q3070.28 2340.91 3068.33 2339.17 Q3066.41 2337.44 3063.31 2337.44 Q3061.11 2337.44 3058.66 2338.2 Q3056.22 2338.97 3053.45 2340.52 L3053.45 2335.79 Q3056.27 2334.66 3058.72 2334.08 Q3061.18 2333.5 3063.22 2333.5 Q3068.59 2333.5 3071.78 2336.19 Q3074.97 2338.87 3074.97 2343.36 Q3074.97 2345.49 3074.16 2347.41 Q3073.38 2349.31 3071.27 2351.91 Q3070.69 2352.58 3067.59 2355.79 Q3064.49 2358.99 3058.84 2364.75 Z" fill="#000000" fill-rule="nonzero" fill-opacity="1" /><path clip-path="url(#clip600)" d="M4114.87 2350.05 Q4118.23 2350.77 4120.1 2353.04 Q4122 2355.31 4122 2358.64 Q4122 2363.76 4118.48 2366.56 Q4114.96 2369.36 4108.48 2369.36 Q4106.3 2369.36 4103.99 2368.92 Q4101.7 2368.5 4099.24 2367.65 L4099.24 2363.13 Q4101.19 2364.27 4103.5 2364.85 Q4105.82 2365.42 4108.34 2365.42 Q4112.74 2365.42 4115.03 2363.69 Q4117.35 2361.95 4117.35 2358.64 Q4117.35 2355.59 4115.19 2353.87 Q4113.06 2352.14 4109.24 2352.14 L4105.22 2352.14 L4105.22 2348.29 L4109.43 2348.29 Q4112.88 2348.29 4114.71 2346.93 Q4116.54 2345.54 4116.54 2342.95 Q4116.54 2340.29 4114.64 2338.87 Q4112.76 2337.44 4109.24 2337.44 Q4107.32 2337.44 4105.12 2337.85 Q4102.93 2338.27 4100.29 2339.15 L4100.29 2334.98 Q4102.95 2334.24 4105.26 2333.87 Q4107.6 2333.5 4109.66 2333.5 Q4114.99 2333.5 4118.09 2335.93 Q4121.19 2338.34 4121.19 2342.46 Q4121.19 2345.33 4119.55 2347.32 Q4117.9 2349.29 4114.87 2350.05 Z" fill="#000000" fill-rule="nonzero" fill-opacity="1" /><polyline clip-path="url(#clip602)" style="stroke:#000000; stroke-linecap:round; stroke-linejoin:round; stroke-width:2; stroke-opacity:0.1; fill:none" points="329.185,2223.7 4752.76,2223.7 "/>
<polyline clip-path="url(#clip602)" style="stroke:#000000; stroke-linecap:round; stroke-linejoin:round; stroke-width:2; stroke-opacity:0.1; fill:none" points="329.185,1889.35 4752.76,1889.35 "/>
<polyline clip-path="url(#clip602)" style="stroke:#000000; stroke-linecap:round; stroke-linejoin:round; stroke-width:2; stroke-opacity:0.1; fill:none" points="329.185,1555 4752.76,1555 "/>
<polyline clip-path="url(#clip602)" style="stroke:#000000; stroke-linecap:round; stroke-linejoin:round; stroke-width:2; stroke-opacity:0.1; fill:none" points="329.185,1220.65 4752.76,1220.65 "/>
<polyline clip-path="url(#clip602)" style="stroke:#000000; stroke-linecap:round; stroke-linejoin:round; stroke-width:2; stroke-opacity:0.1; fill:none" points="329.185,886.297 4752.76,886.297 "/>
<polyline clip-path="url(#clip602)" style="stroke:#000000; stroke-linecap:round; stroke-linejoin:round; stroke-width:2; stroke-opacity:0.1; fill:none" points="329.185,551.947 4752.76,551.947 "/>
<polyline clip-path="url(#clip602)" style="stroke:#000000; stroke-linecap:round; stroke-linejoin:round; stroke-width:2; stroke-opacity:0.1; fill:none" points="329.185,217.598 4752.76,217.598 "/>
<polyline clip-path="url(#clip600)" style="stroke:#000000; stroke-linecap:round; stroke-linejoin:round; stroke-width:4; stroke-opacity:1; fill:none" points="329.185,2287.09 329.185,47.2441 "/>
<polyline clip-path="url(#clip600)" style="stroke:#000000; stroke-linecap:round; stroke-linejoin:round; stroke-width:4; stroke-opacity:1; fill:none" points="329.185,2223.7 348.083,2223.7 "/>
<polyline clip-path="url(#clip600)" style="stroke:#000000; stroke-linecap:round; stroke-linejoin:round; stroke-width:4; stroke-opacity:1; fill:none" points="329.185,1889.35 348.083,1889.35 "/>
<polyline clip-path="url(#clip600)" style="stroke:#000000; stroke-linecap:round; stroke-linejoin:round; stroke-width:4; stroke-opacity:1; fill:none" points="329.185,1555 348.083,1555 "/>
<polyline clip-path="url(#clip600)" style="stroke:#000000; stroke-linecap:round; stroke-linejoin:round; stroke-width:4; stroke-opacity:1; fill:none" points="329.185,1220.65 348.083,1220.65 "/>
<polyline clip-path="url(#clip600)" style="stroke:#000000; stroke-linecap:round; stroke-linejoin:round; stroke-width:4; stroke-opacity:1; fill:none" points="329.185,886.297 348.083,886.297 "/>
<polyline clip-path="url(#clip600)" style="stroke:#000000; stroke-linecap:round; stroke-linejoin:round; stroke-width:4; stroke-opacity:1; fill:none" points="329.185,551.947 348.083,551.947 "/>
<polyline clip-path="url(#clip600)" style="stroke:#000000; stroke-linecap:round; stroke-linejoin:round; stroke-width:4; stroke-opacity:1; fill:none" points="329.185,217.598 348.083,217.598 "/>
<path clip-path="url(#clip600)" d="M245.241 2209.49 Q241.63 2209.49 239.801 2213.06 Q237.996 2216.6 237.996 2223.73 Q237.996 2230.84 239.801 2234.4 Q241.63 2237.94 245.241 2237.94 Q248.875 2237.94 250.681 2234.4 Q252.51 2230.84 252.51 2223.73 Q252.51 2216.6 250.681 2213.06 Q248.875 2209.49 245.241 2209.49 M245.241 2205.79 Q251.051 2205.79 254.107 2210.4 Q257.185 2214.98 257.185 2223.73 Q257.185 2232.46 254.107 2237.06 Q251.051 2241.65 245.241 2241.65 Q239.431 2241.65 236.352 2237.06 Q233.297 2232.46 233.297 2223.73 Q233.297 2214.98 236.352 2210.4 Q239.431 2205.79 245.241 2205.79 Z" fill="#000000" fill-rule="nonzero" fill-opacity="1" /><path clip-path="url(#clip600)" d="M45.7745 1909.14 L62.0939 1909.14 L62.0939 1913.07 L40.1495 1913.07 L40.1495 1909.14 Q42.8115 1906.38 47.3949 1901.75 Q52.0013 1897.1 53.1819 1895.76 Q55.4272 1893.24 56.3068 1891.5 Q57.2096 1889.74 57.2096 1888.05 Q57.2096 1885.3 55.2652 1883.56 Q53.3439 1881.82 50.2421 1881.82 Q48.043 1881.82 45.5893 1882.59 Q43.1588 1883.35 40.381 1884.9 L40.381 1880.18 Q43.2051 1879.05 45.6588 1878.47 Q48.1124 1877.89 50.1495 1877.89 Q55.5198 1877.89 58.7142 1880.57 Q61.9087 1883.26 61.9087 1887.75 Q61.9087 1889.88 61.0985 1891.8 Q60.3115 1893.7 58.205 1896.29 Q57.6263 1896.96 54.5245 1900.18 Q51.4226 1903.37 45.7745 1909.14 Z" fill="#000000" fill-rule="nonzero" fill-opacity="1" /><path clip-path="url(#clip600)" d="M71.9086 1907.19 L76.7928 1907.19 L76.7928 1913.07 L71.9086 1913.07 L71.9086 1907.19 Z" fill="#000000" fill-rule="nonzero" fill-opacity="1" /><path clip-path="url(#clip600)" d="M96.9779 1881.59 Q93.3668 1881.59 91.5381 1885.16 Q89.7326 1888.7 89.7326 1895.83 Q89.7326 1902.94 91.5381 1906.5 Q93.3668 1910.04 96.9779 1910.04 Q100.612 1910.04 102.418 1906.5 Q104.246 1902.94 104.246 1895.83 Q104.246 1888.7 102.418 1885.16 Q100.612 1881.59 96.9779 1881.59 M96.9779 1877.89 Q102.788 1877.89 105.844 1882.5 Q108.922 1887.08 108.922 1895.83 Q108.922 1904.56 105.844 1909.16 Q102.788 1913.75 96.9779 1913.75 Q91.1678 1913.75 88.0891 1909.16 Q85.0335 1904.56 85.0335 1895.83 Q85.0335 1887.08 88.0891 1882.5 Q91.1678 1877.89 96.9779 1877.89 Z" fill="#000000" fill-rule="nonzero" fill-opacity="1" /><path clip-path="url(#clip600)" d="M127.14 1881.59 Q123.529 1881.59 121.7 1885.16 Q119.894 1888.7 119.894 1895.83 Q119.894 1902.94 121.7 1906.5 Q123.529 1910.04 127.14 1910.04 Q130.774 1910.04 132.58 1906.5 Q134.408 1902.94 134.408 1895.83 Q134.408 1888.7 132.58 1885.16 Q130.774 1881.59 127.14 1881.59 M127.14 1877.89 Q132.95 1877.89 136.005 1882.5 Q139.084 1887.08 139.084 1895.83 Q139.084 1904.56 136.005 1909.16 Q132.95 1913.75 127.14 1913.75 Q121.33 1913.75 118.251 1909.16 Q115.195 1904.56 115.195 1895.83 Q115.195 1887.08 118.251 1882.5 Q121.33 1877.89 127.14 1877.89 Z" fill="#000000" fill-rule="nonzero" fill-opacity="1" /><path clip-path="url(#clip600)" d="M175.473 1887.61 L164.894 1898.24 L175.473 1908.81 L172.718 1911.62 L162.093 1900.99 L151.468 1911.62 L148.737 1908.81 L159.292 1898.24 L148.737 1887.61 L151.468 1884.81 L162.093 1895.44 L172.718 1884.81 L175.473 1887.61 Z" fill="#000000" fill-rule="nonzero" fill-opacity="1" /><path clip-path="url(#clip600)" d="M187.834 1909.14 L195.473 1909.14 L195.473 1882.77 L187.163 1884.44 L187.163 1880.18 L195.426 1878.51 L200.102 1878.51 L200.102 1909.14 L207.741 1909.14 L207.741 1913.07 L187.834 1913.07 L187.834 1909.14 Z" fill="#000000" fill-rule="nonzero" fill-opacity="1" /><path clip-path="url(#clip600)" d="M227.186 1881.59 Q223.574 1881.59 221.746 1885.16 Q219.94 1888.7 219.94 1895.83 Q219.94 1902.94 221.746 1906.5 Q223.574 1910.04 227.186 1910.04 Q230.82 1910.04 232.625 1906.5 Q234.454 1902.94 234.454 1895.83 Q234.454 1888.7 232.625 1885.16 Q230.82 1881.59 227.186 1881.59 M227.186 1877.89 Q232.996 1877.89 236.051 1882.5 Q239.13 1887.08 239.13 1895.83 Q239.13 1904.56 236.051 1909.16 Q232.996 1913.75 227.186 1913.75 Q221.375 1913.75 218.297 1909.16 Q215.241 1904.56 215.241 1895.83 Q215.241 1887.08 218.297 1882.5 Q221.375 1877.89 227.186 1877.89 Z" fill="#000000" fill-rule="nonzero" fill-opacity="1" /><path clip-path="url(#clip600)" d="M239.13 1857.58 L257.185 1857.58 L257.185 1859.2 L246.992 1885.66 L243.023 1885.66 L252.615 1860.78 L239.13 1860.78 L239.13 1857.58 Z" fill="#000000" fill-rule="nonzero" fill-opacity="1" /><path clip-path="url(#clip600)" d="M54.5939 1548.24 L42.7884 1566.69 L54.5939 1566.69 L54.5939 1548.24 M53.367 1544.16 L59.2466 1544.16 L59.2466 1566.69 L64.1772 1566.69 L64.1772 1570.58 L59.2466 1570.58 L59.2466 1578.72 L54.5939 1578.72 L54.5939 1570.58 L38.9921 1570.58 L38.9921 1566.06 L53.367 1544.16 Z" fill="#000000" fill-rule="nonzero" fill-opacity="1" /><path clip-path="url(#clip600)" d="M71.9086 1572.84 L76.7928 1572.84 L76.7928 1578.72 L71.9086 1578.72 L71.9086 1572.84 Z" fill="#000000" fill-rule="nonzero" fill-opacity="1" /><path clip-path="url(#clip600)" d="M96.9779 1547.24 Q93.3668 1547.24 91.5381 1550.81 Q89.7326 1554.35 89.7326 1561.48 Q89.7326 1568.59 91.5381 1572.15 Q93.3668 1575.69 96.9779 1575.69 Q100.612 1575.69 102.418 1572.15 Q104.246 1568.59 104.246 1561.48 Q104.246 1554.35 102.418 1550.81 Q100.612 1547.24 96.9779 1547.24 M96.9779 1543.54 Q102.788 1543.54 105.844 1548.15 Q108.922 1552.73 108.922 1561.48 Q108.922 1570.21 105.844 1574.81 Q102.788 1579.4 96.9779 1579.4 Q91.1678 1579.4 88.0891 1574.81 Q85.0335 1570.21 85.0335 1561.48 Q85.0335 1552.73 88.0891 1548.15 Q91.1678 1543.54 96.9779 1543.54 Z" fill="#000000" fill-rule="nonzero" fill-opacity="1" /><path clip-path="url(#clip600)" d="M127.14 1547.24 Q123.529 1547.24 121.7 1550.81 Q119.894 1554.35 119.894 1561.48 Q119.894 1568.59 121.7 1572.15 Q123.529 1575.69 127.14 1575.69 Q130.774 1575.69 132.58 1572.15 Q134.408 1568.59 134.408 1561.48 Q134.408 1554.35 132.58 1550.81 Q130.774 1547.24 127.14 1547.24 M127.14 1543.54 Q132.95 1543.54 136.005 1548.15 Q139.084 1552.73 139.084 1561.48 Q139.084 1570.21 136.005 1574.81 Q132.95 1579.4 127.14 1579.4 Q121.33 1579.4 118.251 1574.81 Q115.195 1570.21 115.195 1561.48 Q115.195 1552.73 118.251 1548.15 Q121.33 1543.54 127.14 1543.54 Z" fill="#000000" fill-rule="nonzero" fill-opacity="1" /><path clip-path="url(#clip600)" d="M175.473 1553.26 L164.894 1563.89 L175.473 1574.46 L172.718 1577.27 L162.093 1566.64 L151.468 1577.27 L148.737 1574.46 L159.292 1563.89 L148.737 1553.26 L151.468 1550.46 L162.093 1561.09 L172.718 1550.46 L175.473 1553.26 Z" fill="#000000" fill-rule="nonzero" fill-opacity="1" /><path clip-path="url(#clip600)" d="M187.834 1574.79 L195.473 1574.79 L195.473 1548.42 L187.163 1550.09 L187.163 1545.83 L195.426 1544.16 L200.102 1544.16 L200.102 1574.79 L207.741 1574.79 L207.741 1578.72 L187.834 1578.72 L187.834 1574.79 Z" fill="#000000" fill-rule="nonzero" fill-opacity="1" /><path clip-path="url(#clip600)" d="M227.186 1547.24 Q223.574 1547.24 221.746 1550.81 Q219.94 1554.35 219.94 1561.48 Q219.94 1568.59 221.746 1572.15 Q223.574 1575.69 227.186 1575.69 Q230.82 1575.69 232.625 1572.15 Q234.454 1568.59 234.454 1561.48 Q234.454 1554.35 232.625 1550.81 Q230.82 1547.24 227.186 1547.24 M227.186 1543.54 Q232.996 1543.54 236.051 1548.15 Q239.13 1552.73 239.13 1561.48 Q239.13 1570.21 236.051 1574.81 Q232.996 1579.4 227.186 1579.4 Q221.375 1579.4 218.297 1574.81 Q215.241 1570.21 215.241 1561.48 Q215.241 1552.73 218.297 1548.15 Q221.375 1543.54 227.186 1543.54 Z" fill="#000000" fill-rule="nonzero" fill-opacity="1" /><path clip-path="url(#clip600)" d="M239.13 1523.23 L257.185 1523.23 L257.185 1524.85 L246.992 1551.31 L243.023 1551.31 L252.615 1526.43 L239.13 1526.43 L239.13 1523.23 Z" fill="#000000" fill-rule="nonzero" fill-opacity="1" /><path clip-path="url(#clip600)" d="M52.3254 1225.23 Q49.1773 1225.23 47.3254 1227.38 Q45.4967 1229.54 45.4967 1233.29 Q45.4967 1237.01 47.3254 1239.19 Q49.1773 1241.34 52.3254 1241.34 Q55.4735 1241.34 57.3022 1239.19 Q59.1541 1237.01 59.1541 1233.29 Q59.1541 1229.54 57.3022 1227.38 Q55.4735 1225.23 52.3254 1225.23 M61.6077 1210.58 L61.6077 1214.84 Q59.8485 1214 58.0429 1213.56 Q56.2606 1213.12 54.5013 1213.12 Q49.8717 1213.12 47.418 1216.25 Q44.9875 1219.37 44.6402 1225.69 Q46.006 1223.68 48.0662 1222.62 Q50.1263 1221.53 52.6032 1221.53 Q57.8115 1221.53 60.8207 1224.7 Q63.8531 1227.85 63.8531 1233.29 Q63.8531 1238.61 60.705 1241.83 Q57.5568 1245.05 52.3254 1245.05 Q46.33 1245.05 43.1588 1240.46 Q39.9875 1235.86 39.9875 1227.13 Q39.9875 1218.93 43.8764 1214.07 Q47.7652 1209.19 54.3161 1209.19 Q56.0754 1209.19 57.8578 1209.54 Q59.6633 1209.88 61.6077 1210.58 Z" fill="#000000" fill-rule="nonzero" fill-opacity="1" /><path clip-path="url(#clip600)" d="M71.9086 1238.49 L76.7928 1238.49 L76.7928 1244.37 L71.9086 1244.37 L71.9086 1238.49 Z" fill="#000000" fill-rule="nonzero" fill-opacity="1" /><path clip-path="url(#clip600)" d="M96.9779 1212.89 Q93.3668 1212.89 91.5381 1216.46 Q89.7326 1220 89.7326 1227.13 Q89.7326 1234.24 91.5381 1237.8 Q93.3668 1241.34 96.9779 1241.34 Q100.612 1241.34 102.418 1237.8 Q104.246 1234.24 104.246 1227.13 Q104.246 1220 102.418 1216.46 Q100.612 1212.89 96.9779 1212.89 M96.9779 1209.19 Q102.788 1209.19 105.844 1213.8 Q108.922 1218.38 108.922 1227.13 Q108.922 1235.86 105.844 1240.46 Q102.788 1245.05 96.9779 1245.05 Q91.1678 1245.05 88.0891 1240.46 Q85.0335 1235.86 85.0335 1227.13 Q85.0335 1218.38 88.0891 1213.8 Q91.1678 1209.19 96.9779 1209.19 Z" fill="#000000" fill-rule="nonzero" fill-opacity="1" /><path clip-path="url(#clip600)" d="M127.14 1212.89 Q123.529 1212.89 121.7 1216.46 Q119.894 1220 119.894 1227.13 Q119.894 1234.24 121.7 1237.8 Q123.529 1241.34 127.14 1241.34 Q130.774 1241.34 132.58 1237.8 Q134.408 1234.24 134.408 1227.13 Q134.408 1220 132.58 1216.46 Q130.774 1212.89 127.14 1212.89 M127.14 1209.19 Q132.95 1209.19 136.005 1213.8 Q139.084 1218.38 139.084 1227.13 Q139.084 1235.86 136.005 1240.46 Q132.95 1245.05 127.14 1245.05 Q121.33 1245.05 118.251 1240.46 Q115.195 1235.86 115.195 1227.13 Q115.195 1218.38 118.251 1213.8 Q121.33 1209.19 127.14 1209.19 Z" fill="#000000" fill-rule="nonzero" fill-opacity="1" /><path clip-path="url(#clip600)" d="M175.473 1218.91 L164.894 1229.54 L175.473 1240.12 L172.718 1242.92 L162.093 1232.29 L151.468 1242.92 L148.737 1240.12 L159.292 1229.54 L148.737 1218.91 L151.468 1216.11 L162.093 1226.74 L172.718 1216.11 L175.473 1218.91 Z" fill="#000000" fill-rule="nonzero" fill-opacity="1" /><path clip-path="url(#clip600)" d="M187.834 1240.44 L195.473 1240.44 L195.473 1214.07 L187.163 1215.74 L187.163 1211.48 L195.426 1209.81 L200.102 1209.81 L200.102 1240.44 L207.741 1240.44 L207.741 1244.37 L187.834 1244.37 L187.834 1240.44 Z" fill="#000000" fill-rule="nonzero" fill-opacity="1" /><path clip-path="url(#clip600)" d="M227.186 1212.89 Q223.574 1212.89 221.746 1216.46 Q219.94 1220 219.94 1227.13 Q219.94 1234.24 221.746 1237.8 Q223.574 1241.34 227.186 1241.34 Q230.82 1241.34 232.625 1237.8 Q234.454 1234.24 234.454 1227.13 Q234.454 1220 232.625 1216.46 Q230.82 1212.89 227.186 1212.89 M227.186 1209.19 Q232.996 1209.19 236.051 1213.8 Q239.13 1218.38 239.13 1227.13 Q239.13 1235.86 236.051 1240.46 Q232.996 1245.05 227.186 1245.05 Q221.375 1245.05 218.297 1240.46 Q215.241 1235.86 215.241 1227.13 Q215.241 1218.38 218.297 1213.8 Q221.375 1209.19 227.186 1209.19 Z" fill="#000000" fill-rule="nonzero" fill-opacity="1" /><path clip-path="url(#clip600)" d="M239.13 1188.88 L257.185 1188.88 L257.185 1190.5 L246.992 1216.96 L243.023 1216.96 L252.615 1192.08 L239.13 1192.08 L239.13 1188.88 Z" fill="#000000" fill-rule="nonzero" fill-opacity="1" /><path clip-path="url(#clip600)" d="M51.7467 893.613 Q48.4134 893.613 46.4921 895.395 Q44.5939 897.178 44.5939 900.303 Q44.5939 903.428 46.4921 905.21 Q48.4134 906.992 51.7467 906.992 Q55.08 906.992 57.0013 905.21 Q58.9226 903.404 58.9226 900.303 Q58.9226 897.178 57.0013 895.395 Q55.1032 893.613 51.7467 893.613 M47.0708 891.622 Q44.0615 890.881 42.3717 888.821 Q40.7051 886.761 40.7051 883.798 Q40.7051 879.655 43.6449 877.247 Q46.6078 874.84 51.7467 874.84 Q56.9087 874.84 59.8485 877.247 Q62.7883 879.655 62.7883 883.798 Q62.7883 886.761 61.0985 888.821 Q59.4318 890.881 56.4457 891.622 Q59.8253 892.409 61.7003 894.701 Q63.5985 896.992 63.5985 900.303 Q63.5985 905.326 60.5198 908.011 Q57.4642 910.696 51.7467 910.696 Q46.0291 910.696 42.9504 908.011 Q39.8949 905.326 39.8949 900.303 Q39.8949 896.992 41.793 894.701 Q43.6912 892.409 47.0708 891.622 M45.3578 884.238 Q45.3578 886.923 47.0245 888.428 Q48.7143 889.932 51.7467 889.932 Q54.7559 889.932 56.4457 888.428 Q58.1587 886.923 58.1587 884.238 Q58.1587 881.553 56.4457 880.048 Q54.7559 878.543 51.7467 878.543 Q48.7143 878.543 47.0245 880.048 Q45.3578 881.553 45.3578 884.238 Z" fill="#000000" fill-rule="nonzero" fill-opacity="1" /><path clip-path="url(#clip600)" d="M71.9086 904.145 L76.7928 904.145 L76.7928 910.025 L71.9086 910.025 L71.9086 904.145 Z" fill="#000000" fill-rule="nonzero" fill-opacity="1" /><path clip-path="url(#clip600)" d="M96.9779 878.543 Q93.3668 878.543 91.5381 882.108 Q89.7326 885.65 89.7326 892.779 Q89.7326 899.886 91.5381 903.451 Q93.3668 906.992 96.9779 906.992 Q100.612 906.992 102.418 903.451 Q104.246 899.886 104.246 892.779 Q104.246 885.65 102.418 882.108 Q100.612 878.543 96.9779 878.543 M96.9779 874.84 Q102.788 874.84 105.844 879.446 Q108.922 884.03 108.922 892.779 Q108.922 901.506 105.844 906.113 Q102.788 910.696 96.9779 910.696 Q91.1678 910.696 88.0891 906.113 Q85.0335 901.506 85.0335 892.779 Q85.0335 884.03 88.0891 879.446 Q91.1678 874.84 96.9779 874.84 Z" fill="#000000" fill-rule="nonzero" fill-opacity="1" /><path clip-path="url(#clip600)" d="M127.14 878.543 Q123.529 878.543 121.7 882.108 Q119.894 885.65 119.894 892.779 Q119.894 899.886 121.7 903.451 Q123.529 906.992 127.14 906.992 Q130.774 906.992 132.58 903.451 Q134.408 899.886 134.408 892.779 Q134.408 885.65 132.58 882.108 Q130.774 878.543 127.14 878.543 M127.14 874.84 Q132.95 874.84 136.005 879.446 Q139.084 884.03 139.084 892.779 Q139.084 901.506 136.005 906.113 Q132.95 910.696 127.14 910.696 Q121.33 910.696 118.251 906.113 Q115.195 901.506 115.195 892.779 Q115.195 884.03 118.251 879.446 Q121.33 874.84 127.14 874.84 Z" fill="#000000" fill-rule="nonzero" fill-opacity="1" /><path clip-path="url(#clip600)" d="M175.473 884.562 L164.894 895.187 L175.473 905.766 L172.718 908.566 L162.093 897.942 L151.468 908.566 L148.737 905.766 L159.292 895.187 L148.737 884.562 L151.468 881.761 L162.093 892.386 L172.718 881.761 L175.473 884.562 Z" fill="#000000" fill-rule="nonzero" fill-opacity="1" /><path clip-path="url(#clip600)" d="M187.834 906.09 L195.473 906.09 L195.473 879.724 L187.163 881.391 L187.163 877.131 L195.426 875.465 L200.102 875.465 L200.102 906.09 L207.741 906.09 L207.741 910.025 L187.834 910.025 L187.834 906.09 Z" fill="#000000" fill-rule="nonzero" fill-opacity="1" /><path clip-path="url(#clip600)" d="M227.186 878.543 Q223.574 878.543 221.746 882.108 Q219.94 885.65 219.94 892.779 Q219.94 899.886 221.746 903.451 Q223.574 906.992 227.186 906.992 Q230.82 906.992 232.625 903.451 Q234.454 899.886 234.454 892.779 Q234.454 885.65 232.625 882.108 Q230.82 878.543 227.186 878.543 M227.186 874.84 Q232.996 874.84 236.051 879.446 Q239.13 884.03 239.13 892.779 Q239.13 901.506 236.051 906.113 Q232.996 910.696 227.186 910.696 Q221.375 910.696 218.297 906.113 Q215.241 901.506 215.241 892.779 Q215.241 884.03 218.297 879.446 Q221.375 874.84 227.186 874.84 Z" fill="#000000" fill-rule="nonzero" fill-opacity="1" /><path clip-path="url(#clip600)" d="M239.13 854.534 L257.185 854.534 L257.185 856.152 L246.992 882.614 L243.023 882.614 L252.615 857.732 L239.13 857.732 L239.13 854.534 Z" fill="#000000" fill-rule="nonzero" fill-opacity="1" /><path clip-path="url(#clip600)" d="M41.3532 571.74 L48.9921 571.74 L48.9921 545.374 L40.6819 547.041 L40.6819 542.782 L48.9458 541.115 L53.6217 541.115 L53.6217 571.74 L61.2605 571.74 L61.2605 575.675 L41.3532 575.675 L41.3532 571.74 Z" fill="#000000" fill-rule="nonzero" fill-opacity="1" /><path clip-path="url(#clip600)" d="M70.7049 569.795 L75.5892 569.795 L75.5892 575.675 L70.7049 575.675 L70.7049 569.795 Z" fill="#000000" fill-rule="nonzero" fill-opacity="1" /><path clip-path="url(#clip600)" d="M95.7742 544.194 Q92.1631 544.194 90.3344 547.759 Q88.5289 551.3 88.5289 558.43 Q88.5289 565.536 90.3344 569.101 Q92.1631 572.643 95.7742 572.643 Q99.4085 572.643 101.214 569.101 Q103.043 565.536 103.043 558.43 Q103.043 551.3 101.214 547.759 Q99.4085 544.194 95.7742 544.194 M95.7742 540.49 Q101.584 540.49 104.64 545.097 Q107.719 549.68 107.719 558.43 Q107.719 567.157 104.64 571.763 Q101.584 576.346 95.7742 576.346 Q89.9641 576.346 86.8854 571.763 Q83.8298 567.157 83.8298 558.43 Q83.8298 549.68 86.8854 545.097 Q89.9641 540.49 95.7742 540.49 Z" fill="#000000" fill-rule="nonzero" fill-opacity="1" /><path clip-path="url(#clip600)" d="M125.936 544.194 Q122.325 544.194 120.496 547.759 Q118.691 551.3 118.691 558.43 Q118.691 565.536 120.496 569.101 Q122.325 572.643 125.936 572.643 Q129.57 572.643 131.376 569.101 Q133.205 565.536 133.205 558.43 Q133.205 551.3 131.376 547.759 Q129.57 544.194 125.936 544.194 M125.936 540.49 Q131.746 540.49 134.802 545.097 Q137.88 549.68 137.88 558.43 Q137.88 567.157 134.802 571.763 Q131.746 576.346 125.936 576.346 Q120.126 576.346 117.047 571.763 Q113.992 567.157 113.992 558.43 Q113.992 549.68 117.047 545.097 Q120.126 540.49 125.936 540.49 Z" fill="#000000" fill-rule="nonzero" fill-opacity="1" /><path clip-path="url(#clip600)" d="M174.269 550.212 L163.691 560.837 L174.269 571.416 L171.515 574.217 L160.89 563.592 L150.265 574.217 L147.533 571.416 L158.089 560.837 L147.533 550.212 L150.265 547.411 L160.89 558.036 L171.515 547.411 L174.269 550.212 Z" fill="#000000" fill-rule="nonzero" fill-opacity="1" /><path clip-path="url(#clip600)" d="M186.63 571.74 L194.269 571.74 L194.269 545.374 L185.959 547.041 L185.959 542.782 L194.223 541.115 L198.899 541.115 L198.899 571.74 L206.538 571.74 L206.538 575.675 L186.63 575.675 L186.63 571.74 Z" fill="#000000" fill-rule="nonzero" fill-opacity="1" /><path clip-path="url(#clip600)" d="M225.982 544.194 Q222.371 544.194 220.542 547.759 Q218.737 551.3 218.737 558.43 Q218.737 565.536 220.542 569.101 Q222.371 572.643 225.982 572.643 Q229.616 572.643 231.422 569.101 Q233.25 565.536 233.25 558.43 Q233.25 551.3 231.422 547.759 Q229.616 544.194 225.982 544.194 M225.982 540.49 Q231.792 540.49 234.848 545.097 Q237.926 549.68 237.926 558.43 Q237.926 567.157 234.848 571.763 Q231.792 576.346 225.982 576.346 Q220.172 576.346 217.093 571.763 Q214.037 567.157 214.037 558.43 Q214.037 549.68 217.093 545.097 Q220.172 540.49 225.982 540.49 Z" fill="#000000" fill-rule="nonzero" fill-opacity="1" /><path clip-path="url(#clip600)" d="M247.556 534.93 Q244.848 534.93 243.286 536.378 Q241.744 537.826 241.744 540.365 Q241.744 542.904 243.286 544.353 Q244.848 545.801 247.556 545.801 Q250.264 545.801 251.825 544.353 Q253.386 542.886 253.386 540.365 Q253.386 537.826 251.825 536.378 Q250.283 534.93 247.556 534.93 M243.757 533.312 Q241.312 532.711 239.939 531.037 Q238.585 529.363 238.585 526.955 Q238.585 523.589 240.973 521.633 Q243.38 519.677 247.556 519.677 Q251.75 519.677 254.139 521.633 Q256.527 523.589 256.527 526.955 Q256.527 529.363 255.154 531.037 Q253.8 532.711 251.374 533.312 Q254.12 533.952 255.643 535.814 Q257.185 537.676 257.185 540.365 Q257.185 544.447 254.684 546.628 Q252.201 548.81 247.556 548.81 Q242.91 548.81 240.409 546.628 Q237.926 544.447 237.926 540.365 Q237.926 537.676 239.468 535.814 Q241.011 533.952 243.757 533.312 M242.365 527.313 Q242.365 529.494 243.719 530.717 Q245.092 531.94 247.556 531.94 Q250.001 531.94 251.374 530.717 Q252.766 529.494 252.766 527.313 Q252.766 525.131 251.374 523.909 Q250.001 522.686 247.556 522.686 Q245.092 522.686 243.719 523.909 Q242.365 525.131 242.365 527.313 Z" fill="#000000" fill-rule="nonzero" fill-opacity="1" /><path clip-path="url(#clip600)" d="M41.3532 237.39 L48.9921 237.39 L48.9921 211.025 L40.6819 212.691 L40.6819 208.432 L48.9458 206.765 L53.6217 206.765 L53.6217 237.39 L61.2605 237.39 L61.2605 241.325 L41.3532 241.325 L41.3532 237.39 Z" fill="#000000" fill-rule="nonzero" fill-opacity="1" /><path clip-path="url(#clip600)" d="M70.7049 235.446 L75.5892 235.446 L75.5892 241.325 L70.7049 241.325 L70.7049 235.446 Z" fill="#000000" fill-rule="nonzero" fill-opacity="1" /><path clip-path="url(#clip600)" d="M89.802 237.39 L106.121 237.39 L106.121 241.325 L84.1771 241.325 L84.1771 237.39 Q86.8391 234.636 91.4224 230.006 Q96.0289 225.353 97.2094 224.011 Q99.4548 221.487 100.334 219.751 Q101.237 217.992 101.237 216.302 Q101.237 213.548 99.2927 211.812 Q97.3714 210.075 94.2696 210.075 Q92.0705 210.075 89.6169 210.839 Q87.1863 211.603 84.4085 213.154 L84.4085 208.432 Q87.2326 207.298 89.6863 206.719 Q92.14 206.14 94.177 206.14 Q99.5474 206.14 102.742 208.825 Q105.936 211.511 105.936 216.001 Q105.936 218.131 105.126 220.052 Q104.339 221.95 102.233 224.543 Q101.654 225.214 98.552 228.432 Q95.4502 231.626 89.802 237.39 Z" fill="#000000" fill-rule="nonzero" fill-opacity="1" /><path clip-path="url(#clip600)" d="M125.936 209.844 Q122.325 209.844 120.496 213.409 Q118.691 216.95 118.691 224.08 Q118.691 231.186 120.496 234.751 Q122.325 238.293 125.936 238.293 Q129.57 238.293 131.376 234.751 Q133.205 231.186 133.205 224.08 Q133.205 216.95 131.376 213.409 Q129.57 209.844 125.936 209.844 M125.936 206.14 Q131.746 206.14 134.802 210.747 Q137.88 215.33 137.88 224.08 Q137.88 232.807 134.802 237.413 Q131.746 241.997 125.936 241.997 Q120.126 241.997 117.047 237.413 Q113.992 232.807 113.992 224.08 Q113.992 215.33 117.047 210.747 Q120.126 206.14 125.936 206.14 Z" fill="#000000" fill-rule="nonzero" fill-opacity="1" /><path clip-path="url(#clip600)" d="M174.269 215.862 L163.691 226.487 L174.269 237.066 L171.515 239.867 L160.89 229.242 L150.265 239.867 L147.533 237.066 L158.089 226.487 L147.533 215.862 L150.265 213.062 L160.89 223.687 L171.515 213.062 L174.269 215.862 Z" fill="#000000" fill-rule="nonzero" fill-opacity="1" /><path clip-path="url(#clip600)" d="M186.63 237.39 L194.269 237.39 L194.269 211.025 L185.959 212.691 L185.959 208.432 L194.223 206.765 L198.899 206.765 L198.899 237.39 L206.538 237.39 L206.538 241.325 L186.63 241.325 L186.63 237.39 Z" fill="#000000" fill-rule="nonzero" fill-opacity="1" /><path clip-path="url(#clip600)" d="M225.982 209.844 Q222.371 209.844 220.542 213.409 Q218.737 216.95 218.737 224.08 Q218.737 231.186 220.542 234.751 Q222.371 238.293 225.982 238.293 Q229.616 238.293 231.422 234.751 Q233.25 231.186 233.25 224.08 Q233.25 216.95 231.422 213.409 Q229.616 209.844 225.982 209.844 M225.982 206.14 Q231.792 206.14 234.848 210.747 Q237.926 215.33 237.926 224.08 Q237.926 232.807 234.848 237.413 Q231.792 241.997 225.982 241.997 Q220.172 241.997 217.093 237.413 Q214.037 232.807 214.037 224.08 Q214.037 215.33 217.093 210.747 Q220.172 206.14 225.982 206.14 Z" fill="#000000" fill-rule="nonzero" fill-opacity="1" /><path clip-path="url(#clip600)" d="M247.556 200.58 Q244.848 200.58 243.286 202.028 Q241.744 203.477 241.744 206.016 Q241.744 208.555 243.286 210.003 Q244.848 211.451 247.556 211.451 Q250.264 211.451 251.825 210.003 Q253.386 208.536 253.386 206.016 Q253.386 203.477 251.825 202.028 Q250.283 200.58 247.556 200.58 M243.757 198.963 Q241.312 198.361 239.939 196.687 Q238.585 195.013 238.585 192.606 Q238.585 189.239 240.973 187.283 Q243.38 185.327 247.556 185.327 Q251.75 185.327 254.139 187.283 Q256.527 189.239 256.527 192.606 Q256.527 195.013 255.154 196.687 Q253.8 198.361 251.374 198.963 Q254.12 199.602 255.643 201.464 Q257.185 203.326 257.185 206.016 Q257.185 210.097 254.684 212.279 Q252.201 214.46 247.556 214.46 Q242.91 214.46 240.409 212.279 Q237.926 210.097 237.926 206.016 Q237.926 203.326 239.468 201.464 Q241.011 199.602 243.757 198.963 M242.365 192.963 Q242.365 195.145 243.719 196.367 Q245.092 197.59 247.556 197.59 Q250.001 197.59 251.374 196.367 Q252.766 195.145 252.766 192.963 Q252.766 190.781 251.374 189.559 Q250.001 188.336 247.556 188.336 Q245.092 188.336 243.719 189.559 Q242.365 190.781 242.365 192.963 Z" fill="#000000" fill-rule="nonzero" fill-opacity="1" /><path clip-path="url(#clip602)" d="M552.746 1656.65 L552.746 2223.7 L692.27 2223.7 L692.27 1656.65 L552.746 1656.65 L552.746 1656.65  Z" fill="#009af9" fill-rule="evenodd" fill-opacity="1"/>
<polyline clip-path="url(#clip602)" style="stroke:#000000; stroke-linecap:round; stroke-linejoin:round; stroke-width:4; stroke-opacity:1; fill:none" points="552.746,1656.65 552.746,2223.7 692.27,2223.7 692.27,1656.65 552.746,1656.65 "/>
<path clip-path="url(#clip602)" d="M1599.18 525.458 L1599.18 2223.7 L1738.7 2223.7 L1738.7 525.458 L1599.18 525.458 L1599.18 525.458  Z" fill="#009af9" fill-rule="evenodd" fill-opacity="1"/>
<polyline clip-path="url(#clip602)" style="stroke:#000000; stroke-linecap:round; stroke-linejoin:round; stroke-width:4; stroke-opacity:1; fill:none" points="1599.18,525.458 1599.18,2223.7 1738.7,2223.7 1738.7,525.458 1599.18,525.458 "/>
<path clip-path="url(#clip602)" d="M2645.61 1660.85 L2645.61 2223.7 L2785.14 2223.7 L2785.14 1660.85 L2645.61 1660.85 L2645.61 1660.85  Z" fill="#009af9" fill-rule="evenodd" fill-opacity="1"/>
<polyline clip-path="url(#clip602)" style="stroke:#000000; stroke-linecap:round; stroke-linejoin:round; stroke-width:4; stroke-opacity:1; fill:none" points="2645.61,1660.85 2645.61,2223.7 2785.14,2223.7 2785.14,1660.85 2645.61,1660.85 "/>
<path clip-path="url(#clip602)" d="M3692.05 523.737 L3692.05 2223.7 L3831.57 2223.7 L3831.57 523.737 L3692.05 523.737 L3692.05 523.737  Z" fill="#009af9" fill-rule="evenodd" fill-opacity="1"/>
<polyline clip-path="url(#clip602)" style="stroke:#000000; stroke-linecap:round; stroke-linejoin:round; stroke-width:4; stroke-opacity:1; fill:none" points="3692.05,523.737 3692.05,2223.7 3831.57,2223.7 3831.57,523.737 3692.05,523.737 "/>
<circle clip-path="url(#clip602)" style="fill:#009af9; stroke:none; fill-opacity:0" cx="622.508" cy="1656.65" r="2"/>
<circle clip-path="url(#clip602)" style="fill:#009af9; stroke:none; fill-opacity:0" cx="1668.94" cy="525.458" r="2"/>
<circle clip-path="url(#clip602)" style="fill:#009af9; stroke:none; fill-opacity:0" cx="2715.38" cy="1660.85" r="2"/>
<circle clip-path="url(#clip602)" style="fill:#009af9; stroke:none; fill-opacity:0" cx="3761.81" cy="523.737" r="2"/>
<path clip-path="url(#clip602)" d="M692.27 1714.25 L692.27 2223.7 L831.795 2223.7 L831.795 1714.25 L692.27 1714.25 L692.27 1714.25  Z" fill="#e26f46" fill-rule="evenodd" fill-opacity="1"/>
<polyline clip-path="url(#clip602)" style="stroke:#000000; stroke-linecap:round; stroke-linejoin:round; stroke-width:4; stroke-opacity:1; fill:none" points="692.27,1714.25 692.27,2223.7 831.795,2223.7 831.795,1714.25 692.27,1714.25 "/>
<path clip-path="url(#clip602)" d="M1738.7 753.941 L1738.7 2223.7 L1878.23 2223.7 L1878.23 753.941 L1738.7 753.941 L1738.7 753.941  Z" fill="#e26f46" fill-rule="evenodd" fill-opacity="1"/>
<polyline clip-path="url(#clip602)" style="stroke:#000000; stroke-linecap:round; stroke-linejoin:round; stroke-width:4; stroke-opacity:1; fill:none" points="1738.7,753.941 1738.7,2223.7 1878.23,2223.7 1878.23,753.941 1738.7,753.941 "/>
<path clip-path="url(#clip602)" d="M2785.14 1709.75 L2785.14 2223.7 L2924.66 2223.7 L2924.66 1709.75 L2785.14 1709.75 L2785.14 1709.75  Z" fill="#e26f46" fill-rule="evenodd" fill-opacity="1"/>
<polyline clip-path="url(#clip602)" style="stroke:#000000; stroke-linecap:round; stroke-linejoin:round; stroke-width:4; stroke-opacity:1; fill:none" points="2785.14,1709.75 2785.14,2223.7 2924.66,2223.7 2924.66,1709.75 2785.14,1709.75 "/>
<path clip-path="url(#clip602)" d="M3831.57 737.236 L3831.57 2223.7 L3971.1 2223.7 L3971.1 737.236 L3831.57 737.236 L3831.57 737.236  Z" fill="#e26f46" fill-rule="evenodd" fill-opacity="1"/>
<polyline clip-path="url(#clip602)" style="stroke:#000000; stroke-linecap:round; stroke-linejoin:round; stroke-width:4; stroke-opacity:1; fill:none" points="3831.57,737.236 3831.57,2223.7 3971.1,2223.7 3971.1,737.236 3831.57,737.236 "/>
<circle clip-path="url(#clip602)" style="fill:#e26f46; stroke:none; fill-opacity:0" cx="762.032" cy="1714.25" r="2"/>
<circle clip-path="url(#clip602)" style="fill:#e26f46; stroke:none; fill-opacity:0" cx="1808.47" cy="753.941" r="2"/>
<circle clip-path="url(#clip602)" style="fill:#e26f46; stroke:none; fill-opacity:0" cx="2854.9" cy="1709.75" r="2"/>
<circle clip-path="url(#clip602)" style="fill:#e26f46; stroke:none; fill-opacity:0" cx="3901.34" cy="737.236" r="2"/>
<path clip-path="url(#clip602)" d="M831.795 1198.93 L831.795 2223.7 L971.319 2223.7 L971.319 1198.93 L831.795 1198.93 L831.795 1198.93  Z" fill="#3da44d" fill-rule="evenodd" fill-opacity="1"/>
<polyline clip-path="url(#clip602)" style="stroke:#000000; stroke-linecap:round; stroke-linejoin:round; stroke-width:4; stroke-opacity:1; fill:none" points="831.795,1198.93 831.795,2223.7 971.319,2223.7 971.319,1198.93 831.795,1198.93 "/>
<path clip-path="url(#clip602)" d="M1878.23 1189.43 L1878.23 2223.7 L2017.75 2223.7 L2017.75 1189.43 L1878.23 1189.43 L1878.23 1189.43  Z" fill="#3da44d" fill-rule="evenodd" fill-opacity="1"/>
<polyline clip-path="url(#clip602)" style="stroke:#000000; stroke-linecap:round; stroke-linejoin:round; stroke-width:4; stroke-opacity:1; fill:none" points="1878.23,1189.43 1878.23,2223.7 2017.75,2223.7 2017.75,1189.43 1878.23,1189.43 "/>
<path clip-path="url(#clip602)" d="M2924.66 1209.1 L2924.66 2223.7 L3064.19 2223.7 L3064.19 1209.1 L2924.66 1209.1 L2924.66 1209.1  Z" fill="#3da44d" fill-rule="evenodd" fill-opacity="1"/>
<polyline clip-path="url(#clip602)" style="stroke:#000000; stroke-linecap:round; stroke-linejoin:round; stroke-width:4; stroke-opacity:1; fill:none" points="2924.66,1209.1 2924.66,2223.7 3064.19,2223.7 3064.19,1209.1 2924.66,1209.1 "/>
<path clip-path="url(#clip602)" d="M3971.1 1190.83 L3971.1 2223.7 L4110.62 2223.7 L4110.62 1190.83 L3971.1 1190.83 L3971.1 1190.83  Z" fill="#3da44d" fill-rule="evenodd" fill-opacity="1"/>
<polyline clip-path="url(#clip602)" style="stroke:#000000; stroke-linecap:round; stroke-linejoin:round; stroke-width:4; stroke-opacity:1; fill:none" points="3971.1,1190.83 3971.1,2223.7 4110.62,2223.7 4110.62,1190.83 3971.1,1190.83 "/>
<circle clip-path="url(#clip602)" style="fill:#3da44d; stroke:none; fill-opacity:0" cx="901.557" cy="1198.93" r="2"/>
<circle clip-path="url(#clip602)" style="fill:#3da44d; stroke:none; fill-opacity:0" cx="1947.99" cy="1189.43" r="2"/>
<circle clip-path="url(#clip602)" style="fill:#3da44d; stroke:none; fill-opacity:0" cx="2994.43" cy="1209.1" r="2"/>
<circle clip-path="url(#clip602)" style="fill:#3da44d; stroke:none; fill-opacity:0" cx="4040.86" cy="1190.83" r="2"/>
<path clip-path="url(#clip602)" d="M971.319 1221.76 L971.319 2223.7 L1110.84 2223.7 L1110.84 1221.76 L971.319 1221.76 L971.319 1221.76  Z" fill="#c271d2" fill-rule="evenodd" fill-opacity="1"/>
<polyline clip-path="url(#clip602)" style="stroke:#000000; stroke-linecap:round; stroke-linejoin:round; stroke-width:4; stroke-opacity:1; fill:none" points="971.319,1221.76 971.319,2223.7 1110.84,2223.7 1110.84,1221.76 971.319,1221.76 "/>
<path clip-path="url(#clip602)" d="M2017.75 1203.44 L2017.75 2223.7 L2157.28 2223.7 L2157.28 1203.44 L2017.75 1203.44 L2017.75 1203.44  Z" fill="#c271d2" fill-rule="evenodd" fill-opacity="1"/>
<polyline clip-path="url(#clip602)" style="stroke:#000000; stroke-linecap:round; stroke-linejoin:round; stroke-width:4; stroke-opacity:1; fill:none" points="2017.75,1203.44 2017.75,2223.7 2157.28,2223.7 2157.28,1203.44 2017.75,1203.44 "/>
<path clip-path="url(#clip602)" d="M3064.19 1215.5 L3064.19 2223.7 L3203.71 2223.7 L3203.71 1215.5 L3064.19 1215.5 L3064.19 1215.5  Z" fill="#c271d2" fill-rule="evenodd" fill-opacity="1"/>
<polyline clip-path="url(#clip602)" style="stroke:#000000; stroke-linecap:round; stroke-linejoin:round; stroke-width:4; stroke-opacity:1; fill:none" points="3064.19,1215.5 3064.19,2223.7 3203.71,2223.7 3203.71,1215.5 3064.19,1215.5 "/>
<path clip-path="url(#clip602)" d="M4110.62 1198.79 L4110.62 2223.7 L4250.15 2223.7 L4250.15 1198.79 L4110.62 1198.79 L4110.62 1198.79  Z" fill="#c271d2" fill-rule="evenodd" fill-opacity="1"/>
<polyline clip-path="url(#clip602)" style="stroke:#000000; stroke-linecap:round; stroke-linejoin:round; stroke-width:4; stroke-opacity:1; fill:none" points="4110.62,1198.79 4110.62,2223.7 4250.15,2223.7 4250.15,1198.79 4110.62,1198.79 "/>
<circle clip-path="url(#clip602)" style="fill:#c271d2; stroke:none; fill-opacity:0" cx="1041.08" cy="1221.76" r="2"/>
<circle clip-path="url(#clip602)" style="fill:#c271d2; stroke:none; fill-opacity:0" cx="2087.52" cy="1203.44" r="2"/>
<circle clip-path="url(#clip602)" style="fill:#c271d2; stroke:none; fill-opacity:0" cx="3133.95" cy="1215.5" r="2"/>
<circle clip-path="url(#clip602)" style="fill:#c271d2; stroke:none; fill-opacity:0" cx="4180.38" cy="1198.79" r="2"/>
<path clip-path="url(#clip602)" d="M1110.84 2155.44 L1110.84 2223.7 L1250.37 2223.7 L1250.37 2155.44 L1110.84 2155.44 L1110.84 2155.44  Z" fill="#ac8d18" fill-rule="evenodd" fill-opacity="1"/>
<polyline clip-path="url(#clip602)" style="stroke:#000000; stroke-linecap:round; stroke-linejoin:round; stroke-width:4; stroke-opacity:1; fill:none" points="1110.84,2155.44 1110.84,2223.7 1250.37,2223.7 1250.37,2155.44 1110.84,2155.44 "/>
<path clip-path="url(#clip602)" d="M2157.28 110.636 L2157.28 2223.7 L2296.8 2223.7 L2296.8 110.636 L2157.28 110.636 L2157.28 110.636  Z" fill="#ac8d18" fill-rule="evenodd" fill-opacity="1"/>
<polyline clip-path="url(#clip602)" style="stroke:#000000; stroke-linecap:round; stroke-linejoin:round; stroke-width:4; stroke-opacity:1; fill:none" points="2157.28,110.636 2157.28,2223.7 2296.8,2223.7 2296.8,110.636 2157.28,110.636 "/>
<path clip-path="url(#clip602)" d="M3203.71 2190.46 L3203.71 2223.7 L3343.24 2223.7 L3343.24 2190.46 L3203.71 2190.46 L3203.71 2190.46  Z" fill="#ac8d18" fill-rule="evenodd" fill-opacity="1"/>
<polyline clip-path="url(#clip602)" style="stroke:#000000; stroke-linecap:round; stroke-linejoin:round; stroke-width:4; stroke-opacity:1; fill:none" points="3203.71,2190.46 3203.71,2223.7 3343.24,2223.7 3343.24,2190.46 3203.71,2190.46 "/>
<path clip-path="url(#clip602)" d="M4250.15 335.144 L4250.15 2223.7 L4389.67 2223.7 L4389.67 335.144 L4250.15 335.144 L4250.15 335.144  Z" fill="#ac8d18" fill-rule="evenodd" fill-opacity="1"/>
<polyline clip-path="url(#clip602)" style="stroke:#000000; stroke-linecap:round; stroke-linejoin:round; stroke-width:4; stroke-opacity:1; fill:none" points="4250.15,335.144 4250.15,2223.7 4389.67,2223.7 4389.67,335.144 4250.15,335.144 "/>
<circle clip-path="url(#clip602)" style="fill:#ac8d18; stroke:none; fill-opacity:0" cx="1180.61" cy="2155.44" r="2"/>
<circle clip-path="url(#clip602)" style="fill:#ac8d18; stroke:none; fill-opacity:0" cx="2227.04" cy="110.636" r="2"/>
<circle clip-path="url(#clip602)" style="fill:#ac8d18; stroke:none; fill-opacity:0" cx="3273.47" cy="2190.46" r="2"/>
<circle clip-path="url(#clip602)" style="fill:#ac8d18; stroke:none; fill-opacity:0" cx="4319.91" cy="335.144" r="2"/>
<path clip-path="url(#clip602)" d="M1250.37 1617.11 L1250.37 2223.7 L1389.89 2223.7 L1389.89 1617.11 L1250.37 1617.11 L1250.37 1617.11  Z" fill="#00a9ad" fill-rule="evenodd" fill-opacity="1"/>
<polyline clip-path="url(#clip602)" style="stroke:#000000; stroke-linecap:round; stroke-linejoin:round; stroke-width:4; stroke-opacity:1; fill:none" points="1250.37,1617.11 1250.37,2223.7 1389.89,2223.7 1389.89,1617.11 1250.37,1617.11 "/>
<path clip-path="url(#clip602)" d="M2296.8 496.781 L2296.8 2223.7 L2436.33 2223.7 L2436.33 496.781 L2296.8 496.781 L2296.8 496.781  Z" fill="#00a9ad" fill-rule="evenodd" fill-opacity="1"/>
<polyline clip-path="url(#clip602)" style="stroke:#000000; stroke-linecap:round; stroke-linejoin:round; stroke-width:4; stroke-opacity:1; fill:none" points="2296.8,496.781 2296.8,2223.7 2436.33,2223.7 2436.33,496.781 2296.8,496.781 "/>
<path clip-path="url(#clip602)" d="M3343.24 1634.46 L3343.24 2223.7 L3482.76 2223.7 L3482.76 1634.46 L3343.24 1634.46 L3343.24 1634.46  Z" fill="#00a9ad" fill-rule="evenodd" fill-opacity="1"/>
<polyline clip-path="url(#clip602)" style="stroke:#000000; stroke-linecap:round; stroke-linejoin:round; stroke-width:4; stroke-opacity:1; fill:none" points="3343.24,1634.46 3343.24,2223.7 3482.76,2223.7 3482.76,1634.46 3343.24,1634.46 "/>
<path clip-path="url(#clip602)" d="M4389.67 405.251 L4389.67 2223.7 L4529.2 2223.7 L4529.2 405.251 L4389.67 405.251 L4389.67 405.251  Z" fill="#00a9ad" fill-rule="evenodd" fill-opacity="1"/>
<polyline clip-path="url(#clip602)" style="stroke:#000000; stroke-linecap:round; stroke-linejoin:round; stroke-width:4; stroke-opacity:1; fill:none" points="4389.67,405.251 4389.67,2223.7 4529.2,2223.7 4529.2,405.251 4389.67,405.251 "/>
<circle clip-path="url(#clip602)" style="fill:#00a9ad; stroke:none; fill-opacity:0" cx="1320.13" cy="1617.11" r="2"/>
<circle clip-path="url(#clip602)" style="fill:#00a9ad; stroke:none; fill-opacity:0" cx="2366.56" cy="496.781" r="2"/>
<circle clip-path="url(#clip602)" style="fill:#00a9ad; stroke:none; fill-opacity:0" cx="3413" cy="1634.46" r="2"/>
<circle clip-path="url(#clip602)" style="fill:#00a9ad; stroke:none; fill-opacity:0" cx="4459.43" cy="405.251" r="2"/>
<path clip-path="url(#clip600)" d="M476.638 484.786 L1864.34 484.786 L1864.34 121.906 L476.638 121.906  Z" fill="#ffffff" fill-rule="evenodd" fill-opacity="1"/>
<polyline clip-path="url(#clip600)" style="stroke:#000000; stroke-linecap:round; stroke-linejoin:round; stroke-width:4; stroke-opacity:1; fill:none" points="476.638,484.786 1864.34,484.786 1864.34,121.906 476.638,121.906 476.638,484.786 "/>
<path clip-path="url(#clip600)" d="M525.789 194.482 L820.693 194.482 L820.693 153.01 L525.789 153.01 L525.789 194.482  Z" fill="#009af9" fill-rule="evenodd" fill-opacity="1"/>
<polyline clip-path="url(#clip600)" style="stroke:#000000; stroke-linecap:round; stroke-linejoin:round; stroke-width:4; stroke-opacity:1; fill:none" points="525.789,194.482 820.693,194.482 820.693,153.01 525.789,153.01 525.789,194.482 "/>
<path clip-path="url(#clip600)" d="M897.714 159.128 L897.714 164.058 Q895.353 161.859 892.668 160.771 Q890.006 159.683 886.997 159.683 Q881.071 159.683 877.923 163.317 Q874.775 166.928 874.775 173.78 Q874.775 180.609 877.923 184.243 Q881.071 187.854 886.997 187.854 Q890.006 187.854 892.668 186.766 Q895.353 185.678 897.714 183.479 L897.714 188.364 Q895.261 190.03 892.506 190.864 Q889.774 191.697 886.719 191.697 Q878.872 191.697 874.358 186.905 Q869.844 182.09 869.844 173.78 Q869.844 165.447 874.358 160.655 Q878.872 155.841 886.719 155.841 Q889.821 155.841 892.552 156.674 Q895.307 157.484 897.714 159.128 Z" fill="#000000" fill-rule="nonzero" fill-opacity="1" /><path clip-path="url(#clip600)" d="M930.816 159.128 L930.816 164.058 Q928.455 161.859 925.77 160.771 Q923.108 159.683 920.098 159.683 Q914.172 159.683 911.024 163.317 Q907.876 166.928 907.876 173.78 Q907.876 180.609 911.024 184.243 Q914.172 187.854 920.098 187.854 Q923.108 187.854 925.77 186.766 Q928.455 185.678 930.816 183.479 L930.816 188.364 Q928.362 190.03 925.608 190.864 Q922.876 191.697 919.821 191.697 Q911.973 191.697 907.46 186.905 Q902.946 182.09 902.946 173.78 Q902.946 165.447 907.46 160.655 Q911.973 155.841 919.821 155.841 Q922.922 155.841 925.654 156.674 Q928.409 157.484 930.816 159.128 Z" fill="#000000" fill-rule="nonzero" fill-opacity="1" /><path clip-path="url(#clip600)" d="M958.756 157.6 L958.756 162.16 Q956.094 160.887 953.732 160.262 Q951.371 159.637 949.172 159.637 Q945.353 159.637 943.27 161.118 Q941.209 162.6 941.209 165.331 Q941.209 167.623 942.575 168.803 Q943.964 169.961 947.807 170.678 L950.631 171.257 Q955.862 172.253 958.339 174.776 Q960.839 177.276 960.839 181.489 Q960.839 186.512 957.459 189.104 Q954.103 191.697 947.598 191.697 Q945.145 191.697 942.367 191.141 Q939.612 190.586 936.649 189.498 L936.649 184.683 Q939.496 186.28 942.228 187.09 Q944.959 187.901 947.598 187.901 Q951.603 187.901 953.779 186.327 Q955.955 184.752 955.955 181.836 Q955.955 179.29 954.381 177.854 Q952.83 176.419 949.265 175.702 L946.418 175.146 Q941.186 174.104 938.848 171.882 Q936.51 169.66 936.51 165.702 Q936.51 161.118 939.728 158.479 Q942.969 155.841 948.64 155.841 Q951.07 155.841 953.594 156.28 Q956.117 156.72 958.756 157.6 Z" fill="#000000" fill-rule="nonzero" fill-opacity="1" /><path clip-path="url(#clip600)" d="M978.732 193.433 Q976.927 198.063 975.214 199.475 Q973.501 200.887 970.631 200.887 L967.228 200.887 L967.228 197.322 L969.728 197.322 Q971.487 197.322 972.459 196.488 Q973.431 195.655 974.612 192.553 L975.376 190.609 L964.89 165.1 L969.404 165.1 L977.505 185.377 L985.607 165.1 L990.121 165.1 L978.732 193.433 Z" fill="#000000" fill-rule="nonzero" fill-opacity="1" /><path clip-path="url(#clip600)" d="M1017.55 175.377 L1017.55 191.026 L1013.29 191.026 L1013.29 175.516 Q1013.29 171.836 1011.86 170.007 Q1010.42 168.178 1007.55 168.178 Q1004.1 168.178 1002.11 170.378 Q1000.12 172.577 1000.12 176.373 L1000.12 191.026 L995.839 191.026 L995.839 165.1 L1000.12 165.1 L1000.12 169.128 Q1001.65 166.79 1003.71 165.632 Q1005.79 164.475 1008.5 164.475 Q1012.97 164.475 1015.26 167.253 Q1017.55 170.007 1017.55 175.377 Z" fill="#000000" fill-rule="nonzero" fill-opacity="1" /><path clip-path="url(#clip600)" d="M1044.7 166.095 L1044.7 170.077 Q1042.9 169.081 1041.07 168.595 Q1039.26 168.086 1037.41 168.086 Q1033.27 168.086 1030.98 170.725 Q1028.69 173.34 1028.69 178.086 Q1028.69 182.831 1030.98 185.47 Q1033.27 188.086 1037.41 188.086 Q1039.26 188.086 1041.07 187.6 Q1042.9 187.09 1044.7 186.095 L1044.7 190.03 Q1042.92 190.864 1041 191.28 Q1039.1 191.697 1036.95 191.697 Q1031.09 191.697 1027.64 188.016 Q1024.2 184.336 1024.2 178.086 Q1024.2 171.743 1027.67 168.109 Q1031.16 164.475 1037.23 164.475 Q1039.19 164.475 1041.07 164.891 Q1042.94 165.285 1044.7 166.095 Z" fill="#000000" fill-rule="nonzero" fill-opacity="1" /><path clip-path="url(#clip600)" d="M1073.66 175.377 L1073.66 191.026 L1069.4 191.026 L1069.4 175.516 Q1069.4 171.836 1067.97 170.007 Q1066.53 168.178 1063.66 168.178 Q1060.21 168.178 1058.22 170.378 Q1056.23 172.577 1056.23 176.373 L1056.23 191.026 L1051.95 191.026 L1051.95 155.007 L1056.23 155.007 L1056.23 169.128 Q1057.76 166.79 1059.82 165.632 Q1061.9 164.475 1064.61 164.475 Q1069.08 164.475 1071.37 167.253 Q1073.66 170.007 1073.66 175.377 Z" fill="#000000" fill-rule="nonzero" fill-opacity="1" /><path clip-path="url(#clip600)" d="M525.789 246.322 L820.693 246.322 L820.693 204.85 L525.789 204.85 L525.789 246.322  Z" fill="#e26f46" fill-rule="evenodd" fill-opacity="1"/>
<polyline clip-path="url(#clip600)" style="stroke:#000000; stroke-linecap:round; stroke-linejoin:round; stroke-width:4; stroke-opacity:1; fill:none" points="525.789,246.322 820.693,246.322 820.693,204.85 525.789,204.85 525.789,246.322 "/>
<path clip-path="url(#clip600)" d="M869.844 208.306 L889.705 208.306 L889.705 212.241 L874.52 212.241 L874.52 222.426 L888.224 222.426 L888.224 226.361 L874.52 226.361 L874.52 242.866 L869.844 242.866 L869.844 208.306 Z" fill="#000000" fill-rule="nonzero" fill-opacity="1" /><path clip-path="url(#clip600)" d="M896.927 206.847 L901.186 206.847 L901.186 242.866 L896.927 242.866 L896.927 206.847 Z" fill="#000000" fill-rule="nonzero" fill-opacity="1" /><path clip-path="url(#clip600)" d="M921.881 229.833 Q916.719 229.833 914.728 231.014 Q912.737 232.194 912.737 235.042 Q912.737 237.31 914.219 238.653 Q915.723 239.972 918.293 239.972 Q921.834 239.972 923.964 237.472 Q926.117 234.949 926.117 230.782 L926.117 229.833 L921.881 229.833 M930.376 228.074 L930.376 242.866 L926.117 242.866 L926.117 238.93 Q924.659 241.291 922.483 242.426 Q920.307 243.537 917.159 243.537 Q913.177 243.537 910.816 241.315 Q908.478 239.069 908.478 235.319 Q908.478 230.944 911.395 228.722 Q914.335 226.5 920.145 226.5 L926.117 226.5 L926.117 226.083 Q926.117 223.143 924.172 221.546 Q922.251 219.926 918.756 219.926 Q916.534 219.926 914.427 220.458 Q912.321 220.991 910.376 222.055 L910.376 218.12 Q912.714 217.218 914.913 216.778 Q917.112 216.315 919.196 216.315 Q924.821 216.315 927.598 219.231 Q930.376 222.148 930.376 228.074 Z" fill="#000000" fill-rule="nonzero" fill-opacity="1" /><path clip-path="url(#clip600)" d="M943.362 209.579 L943.362 216.94 L952.135 216.94 L952.135 220.25 L943.362 220.25 L943.362 234.324 Q943.362 237.495 944.219 238.398 Q945.098 239.301 947.76 239.301 L952.135 239.301 L952.135 242.866 L947.76 242.866 Q942.83 242.866 940.955 241.037 Q939.08 239.185 939.08 234.324 L939.08 220.25 L935.955 220.25 L935.955 216.94 L939.08 216.94 L939.08 209.579 L943.362 209.579 Z" fill="#000000" fill-rule="nonzero" fill-opacity="1" /><path clip-path="url(#clip600)" d="M998.871 210.968 L998.871 215.898 Q996.51 213.699 993.825 212.611 Q991.163 211.523 988.154 211.523 Q982.228 211.523 979.08 215.157 Q975.931 218.768 975.931 225.62 Q975.931 232.449 979.08 236.083 Q982.228 239.694 988.154 239.694 Q991.163 239.694 993.825 238.606 Q996.51 237.518 998.871 235.319 L998.871 240.204 Q996.417 241.87 993.663 242.704 Q990.931 243.537 987.876 243.537 Q980.029 243.537 975.515 238.745 Q971.001 233.93 971.001 225.62 Q971.001 217.287 975.515 212.495 Q980.029 207.681 987.876 207.681 Q990.978 207.681 993.709 208.514 Q996.464 209.324 998.871 210.968 Z" fill="#000000" fill-rule="nonzero" fill-opacity="1" /><path clip-path="url(#clip600)" d="M1015.95 219.926 Q1012.53 219.926 1010.54 222.611 Q1008.55 225.273 1008.55 229.926 Q1008.55 234.579 1010.51 237.264 Q1012.51 239.926 1015.95 239.926 Q1019.36 239.926 1021.35 237.241 Q1023.34 234.555 1023.34 229.926 Q1023.34 225.319 1021.35 222.634 Q1019.36 219.926 1015.95 219.926 M1015.95 216.315 Q1021.51 216.315 1024.68 219.926 Q1027.85 223.537 1027.85 229.926 Q1027.85 236.292 1024.68 239.926 Q1021.51 243.537 1015.95 243.537 Q1010.38 243.537 1007.2 239.926 Q1004.06 236.292 1004.06 229.926 Q1004.06 223.537 1007.2 219.926 Q1010.38 216.315 1015.95 216.315 Z" fill="#000000" fill-rule="nonzero" fill-opacity="1" /><path clip-path="url(#clip600)" d="M1055.1 221.917 Q1056.69 219.046 1058.92 217.681 Q1061.14 216.315 1064.15 216.315 Q1068.2 216.315 1070.4 219.162 Q1072.6 221.986 1072.6 227.217 L1072.6 242.866 L1068.32 242.866 L1068.32 227.356 Q1068.32 223.63 1067 221.824 Q1065.68 220.018 1062.97 220.018 Q1059.66 220.018 1057.74 222.218 Q1055.82 224.417 1055.82 228.213 L1055.82 242.866 L1051.53 242.866 L1051.53 227.356 Q1051.53 223.606 1050.21 221.824 Q1048.89 220.018 1046.14 220.018 Q1042.88 220.018 1040.95 222.241 Q1039.03 224.44 1039.03 228.213 L1039.03 242.866 L1034.75 242.866 L1034.75 216.94 L1039.03 216.94 L1039.03 220.968 Q1040.49 218.583 1042.53 217.449 Q1044.57 216.315 1047.37 216.315 Q1050.19 216.315 1052.16 217.75 Q1054.15 219.185 1055.1 221.917 Z" fill="#000000" fill-rule="nonzero" fill-opacity="1" /><path clip-path="url(#clip600)" d="M1099.7 229.926 Q1099.7 225.227 1097.76 222.565 Q1095.84 219.88 1092.46 219.88 Q1089.08 219.88 1087.13 222.565 Q1085.21 225.227 1085.21 229.926 Q1085.21 234.625 1087.13 237.31 Q1089.08 239.972 1092.46 239.972 Q1095.84 239.972 1097.76 237.31 Q1099.7 234.625 1099.7 229.926 M1085.21 220.875 Q1086.56 218.56 1088.59 217.449 Q1090.65 216.315 1093.5 216.315 Q1098.22 216.315 1101.16 220.065 Q1104.13 223.815 1104.13 229.926 Q1104.13 236.037 1101.16 239.787 Q1098.22 243.537 1093.5 243.537 Q1090.65 243.537 1088.59 242.426 Q1086.56 241.291 1085.21 238.977 L1085.21 242.866 L1080.93 242.866 L1080.93 206.847 L1085.21 206.847 L1085.21 220.875 Z" fill="#000000" fill-rule="nonzero" fill-opacity="1" /><path clip-path="url(#clip600)" d="M1111.19 216.94 L1115.44 216.94 L1115.44 242.866 L1111.19 242.866 L1111.19 216.94 M1111.19 206.847 L1115.44 206.847 L1115.44 212.241 L1111.19 212.241 L1111.19 206.847 Z" fill="#000000" fill-rule="nonzero" fill-opacity="1" /><path clip-path="url(#clip600)" d="M1145.91 227.217 L1145.91 242.866 L1141.65 242.866 L1141.65 227.356 Q1141.65 223.676 1140.21 221.847 Q1138.78 220.018 1135.91 220.018 Q1132.46 220.018 1130.47 222.218 Q1128.48 224.417 1128.48 228.213 L1128.48 242.866 L1124.19 242.866 L1124.19 216.94 L1128.48 216.94 L1128.48 220.968 Q1130 218.63 1132.06 217.472 Q1134.15 216.315 1136.86 216.315 Q1141.32 216.315 1143.62 219.093 Q1145.91 221.847 1145.91 227.217 Z" fill="#000000" fill-rule="nonzero" fill-opacity="1" /><path clip-path="url(#clip600)" d="M1154.4 216.94 L1158.66 216.94 L1158.66 242.866 L1154.4 242.866 L1154.4 216.94 M1154.4 206.847 L1158.66 206.847 L1158.66 212.241 L1154.4 212.241 L1154.4 206.847 Z" fill="#000000" fill-rule="nonzero" fill-opacity="1" /><path clip-path="url(#clip600)" d="M1189.12 227.217 L1189.12 242.866 L1184.87 242.866 L1184.87 227.356 Q1184.87 223.676 1183.43 221.847 Q1182 220.018 1179.12 220.018 Q1175.68 220.018 1173.68 222.218 Q1171.69 224.417 1171.69 228.213 L1171.69 242.866 L1167.41 242.866 L1167.41 216.94 L1171.69 216.94 L1171.69 220.968 Q1173.22 218.63 1175.28 217.472 Q1177.37 216.315 1180.07 216.315 Q1184.54 216.315 1186.83 219.093 Q1189.12 221.847 1189.12 227.217 Z" fill="#000000" fill-rule="nonzero" fill-opacity="1" /><path clip-path="url(#clip600)" d="M1214.68 229.602 Q1214.68 224.972 1212.76 222.426 Q1210.86 219.88 1207.41 219.88 Q1203.99 219.88 1202.06 222.426 Q1200.17 224.972 1200.17 229.602 Q1200.17 234.208 1202.06 236.754 Q1203.99 239.301 1207.41 239.301 Q1210.86 239.301 1212.76 236.754 Q1214.68 234.208 1214.68 229.602 M1218.94 239.648 Q1218.94 246.268 1216 249.486 Q1213.06 252.727 1206.99 252.727 Q1204.75 252.727 1202.76 252.379 Q1200.77 252.055 1198.89 251.361 L1198.89 247.217 Q1200.77 248.236 1202.6 248.722 Q1204.43 249.208 1206.32 249.208 Q1210.51 249.208 1212.6 247.009 Q1214.68 244.833 1214.68 240.412 L1214.68 238.305 Q1213.36 240.597 1211.3 241.731 Q1209.24 242.866 1206.37 242.866 Q1201.6 242.866 1198.68 239.231 Q1195.77 235.597 1195.77 229.602 Q1195.77 223.583 1198.68 219.949 Q1201.6 216.315 1206.37 216.315 Q1209.24 216.315 1211.3 217.449 Q1213.36 218.583 1214.68 220.875 L1214.68 216.94 L1218.94 216.94 L1218.94 239.648 Z" fill="#000000" fill-rule="nonzero" fill-opacity="1" /><path clip-path="url(#clip600)" d="M525.789 298.162 L820.693 298.162 L820.693 256.69 L525.789 256.69 L525.789 298.162  Z" fill="#3da44d" fill-rule="evenodd" fill-opacity="1"/>
<polyline clip-path="url(#clip600)" style="stroke:#000000; stroke-linecap:round; stroke-linejoin:round; stroke-width:4; stroke-opacity:1; fill:none" points="525.789,298.162 820.693,298.162 820.693,256.69 525.789,256.69 525.789,298.162 "/>
<path clip-path="url(#clip600)" d="M869.844 260.146 L889.705 260.146 L889.705 264.081 L874.52 264.081 L874.52 274.266 L888.224 274.266 L888.224 278.201 L874.52 278.201 L874.52 294.706 L869.844 294.706 L869.844 260.146 Z" fill="#000000" fill-rule="nonzero" fill-opacity="1" /><path clip-path="url(#clip600)" d="M896.927 258.687 L901.186 258.687 L901.186 294.706 L896.927 294.706 L896.927 258.687 Z" fill="#000000" fill-rule="nonzero" fill-opacity="1" /><path clip-path="url(#clip600)" d="M921.881 281.673 Q916.719 281.673 914.728 282.854 Q912.737 284.034 912.737 286.882 Q912.737 289.15 914.219 290.493 Q915.723 291.812 918.293 291.812 Q921.834 291.812 923.964 289.312 Q926.117 286.789 926.117 282.622 L926.117 281.673 L921.881 281.673 M930.376 279.914 L930.376 294.706 L926.117 294.706 L926.117 290.77 Q924.659 293.131 922.483 294.266 Q920.307 295.377 917.159 295.377 Q913.177 295.377 910.816 293.155 Q908.478 290.909 908.478 287.159 Q908.478 282.784 911.395 280.562 Q914.335 278.34 920.145 278.34 L926.117 278.34 L926.117 277.923 Q926.117 274.983 924.172 273.386 Q922.251 271.766 918.756 271.766 Q916.534 271.766 914.427 272.298 Q912.321 272.831 910.376 273.895 L910.376 269.96 Q912.714 269.058 914.913 268.618 Q917.112 268.155 919.196 268.155 Q924.821 268.155 927.598 271.071 Q930.376 273.988 930.376 279.914 Z" fill="#000000" fill-rule="nonzero" fill-opacity="1" /><path clip-path="url(#clip600)" d="M943.362 261.419 L943.362 268.78 L952.135 268.78 L952.135 272.09 L943.362 272.09 L943.362 286.164 Q943.362 289.335 944.219 290.238 Q945.098 291.141 947.76 291.141 L952.135 291.141 L952.135 294.706 L947.76 294.706 Q942.83 294.706 940.955 292.877 Q939.08 291.025 939.08 286.164 L939.08 272.09 L935.955 272.09 L935.955 268.78 L939.08 268.78 L939.08 261.419 L943.362 261.419 Z" fill="#000000" fill-rule="nonzero" fill-opacity="1" /><path clip-path="url(#clip600)" d="M998.871 262.808 L998.871 267.738 Q996.51 265.539 993.825 264.451 Q991.163 263.363 988.154 263.363 Q982.228 263.363 979.08 266.997 Q975.931 270.608 975.931 277.46 Q975.931 284.289 979.08 287.923 Q982.228 291.534 988.154 291.534 Q991.163 291.534 993.825 290.446 Q996.51 289.358 998.871 287.159 L998.871 292.044 Q996.417 293.71 993.663 294.544 Q990.931 295.377 987.876 295.377 Q980.029 295.377 975.515 290.585 Q971.001 285.77 971.001 277.46 Q971.001 269.127 975.515 264.335 Q980.029 259.521 987.876 259.521 Q990.978 259.521 993.709 260.354 Q996.464 261.164 998.871 262.808 Z" fill="#000000" fill-rule="nonzero" fill-opacity="1" /><path clip-path="url(#clip600)" d="M1015.95 271.766 Q1012.53 271.766 1010.54 274.451 Q1008.55 277.113 1008.55 281.766 Q1008.55 286.419 1010.51 289.104 Q1012.51 291.766 1015.95 291.766 Q1019.36 291.766 1021.35 289.081 Q1023.34 286.395 1023.34 281.766 Q1023.34 277.159 1021.35 274.474 Q1019.36 271.766 1015.95 271.766 M1015.95 268.155 Q1021.51 268.155 1024.68 271.766 Q1027.85 275.377 1027.85 281.766 Q1027.85 288.132 1024.68 291.766 Q1021.51 295.377 1015.95 295.377 Q1010.38 295.377 1007.2 291.766 Q1004.06 288.132 1004.06 281.766 Q1004.06 275.377 1007.2 271.766 Q1010.38 268.155 1015.95 268.155 Z" fill="#000000" fill-rule="nonzero" fill-opacity="1" /><path clip-path="url(#clip600)" d="M1055.1 273.757 Q1056.69 270.886 1058.92 269.521 Q1061.14 268.155 1064.15 268.155 Q1068.2 268.155 1070.4 271.002 Q1072.6 273.826 1072.6 279.057 L1072.6 294.706 L1068.32 294.706 L1068.32 279.196 Q1068.32 275.47 1067 273.664 Q1065.68 271.858 1062.97 271.858 Q1059.66 271.858 1057.74 274.058 Q1055.82 276.257 1055.82 280.053 L1055.82 294.706 L1051.53 294.706 L1051.53 279.196 Q1051.53 275.446 1050.21 273.664 Q1048.89 271.858 1046.14 271.858 Q1042.88 271.858 1040.95 274.081 Q1039.03 276.28 1039.03 280.053 L1039.03 294.706 L1034.75 294.706 L1034.75 268.78 L1039.03 268.78 L1039.03 272.808 Q1040.49 270.423 1042.53 269.289 Q1044.57 268.155 1047.37 268.155 Q1050.19 268.155 1052.16 269.59 Q1054.15 271.025 1055.1 273.757 Z" fill="#000000" fill-rule="nonzero" fill-opacity="1" /><path clip-path="url(#clip600)" d="M1099.7 281.766 Q1099.7 277.067 1097.76 274.405 Q1095.84 271.72 1092.46 271.72 Q1089.08 271.72 1087.13 274.405 Q1085.21 277.067 1085.21 281.766 Q1085.21 286.465 1087.13 289.15 Q1089.08 291.812 1092.46 291.812 Q1095.84 291.812 1097.76 289.15 Q1099.7 286.465 1099.7 281.766 M1085.21 272.715 Q1086.56 270.4 1088.59 269.289 Q1090.65 268.155 1093.5 268.155 Q1098.22 268.155 1101.16 271.905 Q1104.13 275.655 1104.13 281.766 Q1104.13 287.877 1101.16 291.627 Q1098.22 295.377 1093.5 295.377 Q1090.65 295.377 1088.59 294.266 Q1086.56 293.131 1085.21 290.817 L1085.21 294.706 L1080.93 294.706 L1080.93 258.687 L1085.21 258.687 L1085.21 272.715 Z" fill="#000000" fill-rule="nonzero" fill-opacity="1" /><path clip-path="url(#clip600)" d="M1111.19 268.78 L1115.44 268.78 L1115.44 294.706 L1111.19 294.706 L1111.19 268.78 M1111.19 258.687 L1115.44 258.687 L1115.44 264.081 L1111.19 264.081 L1111.19 258.687 Z" fill="#000000" fill-rule="nonzero" fill-opacity="1" /><path clip-path="url(#clip600)" d="M1145.91 279.057 L1145.91 294.706 L1141.65 294.706 L1141.65 279.196 Q1141.65 275.516 1140.21 273.687 Q1138.78 271.858 1135.91 271.858 Q1132.46 271.858 1130.47 274.058 Q1128.48 276.257 1128.48 280.053 L1128.48 294.706 L1124.19 294.706 L1124.19 268.78 L1128.48 268.78 L1128.48 272.808 Q1130 270.47 1132.06 269.312 Q1134.15 268.155 1136.86 268.155 Q1141.32 268.155 1143.62 270.933 Q1145.91 273.687 1145.91 279.057 Z" fill="#000000" fill-rule="nonzero" fill-opacity="1" /><path clip-path="url(#clip600)" d="M1154.4 268.78 L1158.66 268.78 L1158.66 294.706 L1154.4 294.706 L1154.4 268.78 M1154.4 258.687 L1158.66 258.687 L1158.66 264.081 L1154.4 264.081 L1154.4 258.687 Z" fill="#000000" fill-rule="nonzero" fill-opacity="1" /><path clip-path="url(#clip600)" d="M1189.12 279.057 L1189.12 294.706 L1184.87 294.706 L1184.87 279.196 Q1184.87 275.516 1183.43 273.687 Q1182 271.858 1179.12 271.858 Q1175.68 271.858 1173.68 274.058 Q1171.69 276.257 1171.69 280.053 L1171.69 294.706 L1167.41 294.706 L1167.41 268.78 L1171.69 268.78 L1171.69 272.808 Q1173.22 270.47 1175.28 269.312 Q1177.37 268.155 1180.07 268.155 Q1184.54 268.155 1186.83 270.933 Q1189.12 273.687 1189.12 279.057 Z" fill="#000000" fill-rule="nonzero" fill-opacity="1" /><path clip-path="url(#clip600)" d="M1214.68 281.442 Q1214.68 276.812 1212.76 274.266 Q1210.86 271.72 1207.41 271.72 Q1203.99 271.72 1202.06 274.266 Q1200.17 276.812 1200.17 281.442 Q1200.17 286.048 1202.06 288.594 Q1203.99 291.141 1207.41 291.141 Q1210.86 291.141 1212.76 288.594 Q1214.68 286.048 1214.68 281.442 M1218.94 291.488 Q1218.94 298.108 1216 301.326 Q1213.06 304.567 1206.99 304.567 Q1204.75 304.567 1202.76 304.219 Q1200.77 303.895 1198.89 303.201 L1198.89 299.057 Q1200.77 300.076 1202.6 300.562 Q1204.43 301.048 1206.32 301.048 Q1210.51 301.048 1212.6 298.849 Q1214.68 296.673 1214.68 292.252 L1214.68 290.145 Q1213.36 292.437 1211.3 293.571 Q1209.24 294.706 1206.37 294.706 Q1201.6 294.706 1198.68 291.071 Q1195.77 287.437 1195.77 281.442 Q1195.77 275.423 1198.68 271.789 Q1201.6 268.155 1206.37 268.155 Q1209.24 268.155 1211.3 269.289 Q1213.36 270.423 1214.68 272.715 L1214.68 268.78 L1218.94 268.78 L1218.94 291.488 Z" fill="#000000" fill-rule="nonzero" fill-opacity="1" /><path clip-path="url(#clip600)" d="M1242.97 260.146 L1262.83 260.146 L1262.83 264.081 L1247.64 264.081 L1247.64 274.266 L1261.35 274.266 L1261.35 278.201 L1247.64 278.201 L1247.64 294.706 L1242.97 294.706 L1242.97 260.146 Z" fill="#000000" fill-rule="nonzero" fill-opacity="1" /><path clip-path="url(#clip600)" d="M1277.48 281.673 Q1272.32 281.673 1270.33 282.854 Q1268.34 284.034 1268.34 286.882 Q1268.34 289.15 1269.82 290.493 Q1271.32 291.812 1273.89 291.812 Q1277.43 291.812 1279.56 289.312 Q1281.72 286.789 1281.72 282.622 L1281.72 281.673 L1277.48 281.673 M1285.98 279.914 L1285.98 294.706 L1281.72 294.706 L1281.72 290.77 Q1280.26 293.131 1278.08 294.266 Q1275.91 295.377 1272.76 295.377 Q1268.78 295.377 1266.42 293.155 Q1264.08 290.909 1264.08 287.159 Q1264.08 282.784 1266.99 280.562 Q1269.93 278.34 1275.74 278.34 L1281.72 278.34 L1281.72 277.923 Q1281.72 274.983 1279.77 273.386 Q1277.85 271.766 1274.36 271.766 Q1272.13 271.766 1270.03 272.298 Q1267.92 272.831 1265.98 273.895 L1265.98 269.96 Q1268.31 269.058 1270.51 268.618 Q1272.71 268.155 1274.8 268.155 Q1280.42 268.155 1283.2 271.071 Q1285.98 273.988 1285.98 279.914 Z" fill="#000000" fill-rule="nonzero" fill-opacity="1" /><path clip-path="url(#clip600)" d="M1294.75 268.78 L1299.01 268.78 L1299.01 294.706 L1294.75 294.706 L1294.75 268.78 M1294.75 258.687 L1299.01 258.687 L1299.01 264.081 L1294.75 264.081 L1294.75 258.687 Z" fill="#000000" fill-rule="nonzero" fill-opacity="1" /><path clip-path="url(#clip600)" d="M1322.94 272.761 Q1322.23 272.345 1321.37 272.159 Q1320.54 271.951 1319.52 271.951 Q1315.91 271.951 1313.96 274.312 Q1312.04 276.65 1312.04 281.048 L1312.04 294.706 L1307.76 294.706 L1307.76 268.78 L1312.04 268.78 L1312.04 272.808 Q1313.38 270.446 1315.54 269.312 Q1317.69 268.155 1320.77 268.155 Q1321.21 268.155 1321.74 268.224 Q1322.27 268.271 1322.92 268.386 L1322.94 272.761 Z" fill="#000000" fill-rule="nonzero" fill-opacity="1" /><path clip-path="url(#clip600)" d="M525.789 350.002 L820.693 350.002 L820.693 308.53 L525.789 308.53 L525.789 350.002  Z" fill="#c271d2" fill-rule="evenodd" fill-opacity="1"/>
<polyline clip-path="url(#clip600)" style="stroke:#000000; stroke-linecap:round; stroke-linejoin:round; stroke-width:4; stroke-opacity:1; fill:none" points="525.789,350.002 820.693,350.002 820.693,308.53 525.789,308.53 525.789,350.002 "/>
<path clip-path="url(#clip600)" d="M869.844 311.986 L889.705 311.986 L889.705 315.921 L874.52 315.921 L874.52 326.106 L888.224 326.106 L888.224 330.041 L874.52 330.041 L874.52 346.546 L869.844 346.546 L869.844 311.986 Z" fill="#000000" fill-rule="nonzero" fill-opacity="1" /><path clip-path="url(#clip600)" d="M896.927 310.527 L901.186 310.527 L901.186 346.546 L896.927 346.546 L896.927 310.527 Z" fill="#000000" fill-rule="nonzero" fill-opacity="1" /><path clip-path="url(#clip600)" d="M921.881 333.513 Q916.719 333.513 914.728 334.694 Q912.737 335.874 912.737 338.722 Q912.737 340.99 914.219 342.333 Q915.723 343.652 918.293 343.652 Q921.834 343.652 923.964 341.152 Q926.117 338.629 926.117 334.462 L926.117 333.513 L921.881 333.513 M930.376 331.754 L930.376 346.546 L926.117 346.546 L926.117 342.61 Q924.659 344.971 922.483 346.106 Q920.307 347.217 917.159 347.217 Q913.177 347.217 910.816 344.995 Q908.478 342.749 908.478 338.999 Q908.478 334.624 911.395 332.402 Q914.335 330.18 920.145 330.18 L926.117 330.18 L926.117 329.763 Q926.117 326.823 924.172 325.226 Q922.251 323.606 918.756 323.606 Q916.534 323.606 914.427 324.138 Q912.321 324.671 910.376 325.735 L910.376 321.8 Q912.714 320.898 914.913 320.458 Q917.112 319.995 919.196 319.995 Q924.821 319.995 927.598 322.911 Q930.376 325.828 930.376 331.754 Z" fill="#000000" fill-rule="nonzero" fill-opacity="1" /><path clip-path="url(#clip600)" d="M943.362 313.259 L943.362 320.62 L952.135 320.62 L952.135 323.93 L943.362 323.93 L943.362 338.004 Q943.362 341.175 944.219 342.078 Q945.098 342.981 947.76 342.981 L952.135 342.981 L952.135 346.546 L947.76 346.546 Q942.83 346.546 940.955 344.717 Q939.08 342.865 939.08 338.004 L939.08 323.93 L935.955 323.93 L935.955 320.62 L939.08 320.62 L939.08 313.259 L943.362 313.259 Z" fill="#000000" fill-rule="nonzero" fill-opacity="1" /><path clip-path="url(#clip600)" d="M998.871 314.648 L998.871 319.578 Q996.51 317.379 993.825 316.291 Q991.163 315.203 988.154 315.203 Q982.228 315.203 979.08 318.837 Q975.931 322.448 975.931 329.3 Q975.931 336.129 979.08 339.763 Q982.228 343.374 988.154 343.374 Q991.163 343.374 993.825 342.286 Q996.51 341.198 998.871 338.999 L998.871 343.884 Q996.417 345.55 993.663 346.384 Q990.931 347.217 987.876 347.217 Q980.029 347.217 975.515 342.425 Q971.001 337.61 971.001 329.3 Q971.001 320.967 975.515 316.175 Q980.029 311.361 987.876 311.361 Q990.978 311.361 993.709 312.194 Q996.464 313.004 998.871 314.648 Z" fill="#000000" fill-rule="nonzero" fill-opacity="1" /><path clip-path="url(#clip600)" d="M1015.95 323.606 Q1012.53 323.606 1010.54 326.291 Q1008.55 328.953 1008.55 333.606 Q1008.55 338.259 1010.51 340.944 Q1012.51 343.606 1015.95 343.606 Q1019.36 343.606 1021.35 340.921 Q1023.34 338.235 1023.34 333.606 Q1023.34 328.999 1021.35 326.314 Q1019.36 323.606 1015.95 323.606 M1015.95 319.995 Q1021.51 319.995 1024.68 323.606 Q1027.85 327.217 1027.85 333.606 Q1027.85 339.972 1024.68 343.606 Q1021.51 347.217 1015.95 347.217 Q1010.38 347.217 1007.2 343.606 Q1004.06 339.972 1004.06 333.606 Q1004.06 327.217 1007.2 323.606 Q1010.38 319.995 1015.95 319.995 Z" fill="#000000" fill-rule="nonzero" fill-opacity="1" /><path clip-path="url(#clip600)" d="M1055.1 325.597 Q1056.69 322.726 1058.92 321.361 Q1061.14 319.995 1064.15 319.995 Q1068.2 319.995 1070.4 322.842 Q1072.6 325.666 1072.6 330.897 L1072.6 346.546 L1068.32 346.546 L1068.32 331.036 Q1068.32 327.31 1067 325.504 Q1065.68 323.698 1062.97 323.698 Q1059.66 323.698 1057.74 325.898 Q1055.82 328.097 1055.82 331.893 L1055.82 346.546 L1051.53 346.546 L1051.53 331.036 Q1051.53 327.286 1050.21 325.504 Q1048.89 323.698 1046.14 323.698 Q1042.88 323.698 1040.95 325.921 Q1039.03 328.12 1039.03 331.893 L1039.03 346.546 L1034.75 346.546 L1034.75 320.62 L1039.03 320.62 L1039.03 324.648 Q1040.49 322.263 1042.53 321.129 Q1044.57 319.995 1047.37 319.995 Q1050.19 319.995 1052.16 321.43 Q1054.15 322.865 1055.1 325.597 Z" fill="#000000" fill-rule="nonzero" fill-opacity="1" /><path clip-path="url(#clip600)" d="M1099.7 333.606 Q1099.7 328.907 1097.76 326.245 Q1095.84 323.56 1092.46 323.56 Q1089.08 323.56 1087.13 326.245 Q1085.21 328.907 1085.21 333.606 Q1085.21 338.305 1087.13 340.99 Q1089.08 343.652 1092.46 343.652 Q1095.84 343.652 1097.76 340.99 Q1099.7 338.305 1099.7 333.606 M1085.21 324.555 Q1086.56 322.24 1088.59 321.129 Q1090.65 319.995 1093.5 319.995 Q1098.22 319.995 1101.16 323.745 Q1104.13 327.495 1104.13 333.606 Q1104.13 339.717 1101.16 343.467 Q1098.22 347.217 1093.5 347.217 Q1090.65 347.217 1088.59 346.106 Q1086.56 344.971 1085.21 342.657 L1085.21 346.546 L1080.93 346.546 L1080.93 310.527 L1085.21 310.527 L1085.21 324.555 Z" fill="#000000" fill-rule="nonzero" fill-opacity="1" /><path clip-path="url(#clip600)" d="M1111.19 320.62 L1115.44 320.62 L1115.44 346.546 L1111.19 346.546 L1111.19 320.62 M1111.19 310.527 L1115.44 310.527 L1115.44 315.921 L1111.19 315.921 L1111.19 310.527 Z" fill="#000000" fill-rule="nonzero" fill-opacity="1" /><path clip-path="url(#clip600)" d="M1145.91 330.897 L1145.91 346.546 L1141.65 346.546 L1141.65 331.036 Q1141.65 327.356 1140.21 325.527 Q1138.78 323.698 1135.91 323.698 Q1132.46 323.698 1130.47 325.898 Q1128.48 328.097 1128.48 331.893 L1128.48 346.546 L1124.19 346.546 L1124.19 320.62 L1128.48 320.62 L1128.48 324.648 Q1130 322.31 1132.06 321.152 Q1134.15 319.995 1136.86 319.995 Q1141.32 319.995 1143.62 322.773 Q1145.91 325.527 1145.91 330.897 Z" fill="#000000" fill-rule="nonzero" fill-opacity="1" /><path clip-path="url(#clip600)" d="M1154.4 320.62 L1158.66 320.62 L1158.66 346.546 L1154.4 346.546 L1154.4 320.62 M1154.4 310.527 L1158.66 310.527 L1158.66 315.921 L1154.4 315.921 L1154.4 310.527 Z" fill="#000000" fill-rule="nonzero" fill-opacity="1" /><path clip-path="url(#clip600)" d="M1189.12 330.897 L1189.12 346.546 L1184.87 346.546 L1184.87 331.036 Q1184.87 327.356 1183.43 325.527 Q1182 323.698 1179.12 323.698 Q1175.68 323.698 1173.68 325.898 Q1171.69 328.097 1171.69 331.893 L1171.69 346.546 L1167.41 346.546 L1167.41 320.62 L1171.69 320.62 L1171.69 324.648 Q1173.22 322.31 1175.28 321.152 Q1177.37 319.995 1180.07 319.995 Q1184.54 319.995 1186.83 322.773 Q1189.12 325.527 1189.12 330.897 Z" fill="#000000" fill-rule="nonzero" fill-opacity="1" /><path clip-path="url(#clip600)" d="M1214.68 333.282 Q1214.68 328.652 1212.76 326.106 Q1210.86 323.56 1207.41 323.56 Q1203.99 323.56 1202.06 326.106 Q1200.17 328.652 1200.17 333.282 Q1200.17 337.888 1202.06 340.434 Q1203.99 342.981 1207.41 342.981 Q1210.86 342.981 1212.76 340.434 Q1214.68 337.888 1214.68 333.282 M1218.94 343.328 Q1218.94 349.948 1216 353.166 Q1213.06 356.407 1206.99 356.407 Q1204.75 356.407 1202.76 356.059 Q1200.77 355.735 1198.89 355.041 L1198.89 350.897 Q1200.77 351.916 1202.6 352.402 Q1204.43 352.888 1206.32 352.888 Q1210.51 352.888 1212.6 350.689 Q1214.68 348.513 1214.68 344.092 L1214.68 341.985 Q1213.36 344.277 1211.3 345.411 Q1209.24 346.546 1206.37 346.546 Q1201.6 346.546 1198.68 342.911 Q1195.77 339.277 1195.77 333.282 Q1195.77 327.263 1198.68 323.629 Q1201.6 319.995 1206.37 319.995 Q1209.24 319.995 1211.3 321.129 Q1213.36 322.263 1214.68 324.555 L1214.68 320.62 L1218.94 320.62 L1218.94 343.328 Z" fill="#000000" fill-rule="nonzero" fill-opacity="1" /><path clip-path="url(#clip600)" d="M1242.97 311.986 L1262.83 311.986 L1262.83 315.921 L1247.64 315.921 L1247.64 326.106 L1261.35 326.106 L1261.35 330.041 L1247.64 330.041 L1247.64 346.546 L1242.97 346.546 L1242.97 311.986 Z" fill="#000000" fill-rule="nonzero" fill-opacity="1" /><path clip-path="url(#clip600)" d="M1277.48 333.513 Q1272.32 333.513 1270.33 334.694 Q1268.34 335.874 1268.34 338.722 Q1268.34 340.99 1269.82 342.333 Q1271.32 343.652 1273.89 343.652 Q1277.43 343.652 1279.56 341.152 Q1281.72 338.629 1281.72 334.462 L1281.72 333.513 L1277.48 333.513 M1285.98 331.754 L1285.98 346.546 L1281.72 346.546 L1281.72 342.61 Q1280.26 344.971 1278.08 346.106 Q1275.91 347.217 1272.76 347.217 Q1268.78 347.217 1266.42 344.995 Q1264.08 342.749 1264.08 338.999 Q1264.08 334.624 1266.99 332.402 Q1269.93 330.18 1275.74 330.18 L1281.72 330.18 L1281.72 329.763 Q1281.72 326.823 1279.77 325.226 Q1277.85 323.606 1274.36 323.606 Q1272.13 323.606 1270.03 324.138 Q1267.92 324.671 1265.98 325.735 L1265.98 321.8 Q1268.31 320.898 1270.51 320.458 Q1272.71 319.995 1274.8 319.995 Q1280.42 319.995 1283.2 322.911 Q1285.98 325.828 1285.98 331.754 Z" fill="#000000" fill-rule="nonzero" fill-opacity="1" /><path clip-path="url(#clip600)" d="M1294.75 320.62 L1299.01 320.62 L1299.01 346.546 L1294.75 346.546 L1294.75 320.62 M1294.75 310.527 L1299.01 310.527 L1299.01 315.921 L1294.75 315.921 L1294.75 310.527 Z" fill="#000000" fill-rule="nonzero" fill-opacity="1" /><path clip-path="url(#clip600)" d="M1322.94 324.601 Q1322.23 324.185 1321.37 323.999 Q1320.54 323.791 1319.52 323.791 Q1315.91 323.791 1313.96 326.152 Q1312.04 328.49 1312.04 332.888 L1312.04 346.546 L1307.76 346.546 L1307.76 320.62 L1312.04 320.62 L1312.04 324.648 Q1313.38 322.286 1315.54 321.152 Q1317.69 319.995 1320.77 319.995 Q1321.21 319.995 1321.74 320.064 Q1322.27 320.111 1322.92 320.226 L1322.94 324.601 Z" fill="#000000" fill-rule="nonzero" fill-opacity="1" /><path clip-path="url(#clip600)" d="M1339.59 311.986 L1344.31 311.986 L1351.58 341.198 L1358.82 311.986 L1364.08 311.986 L1371.35 341.198 L1378.59 311.986 L1383.34 311.986 L1374.66 346.546 L1368.78 346.546 L1361.48 316.546 L1354.12 346.546 L1348.24 346.546 L1339.59 311.986 Z" fill="#000000" fill-rule="nonzero" fill-opacity="1" /><path clip-path="url(#clip600)" d="M1388.31 320.62 L1392.57 320.62 L1392.57 346.546 L1388.31 346.546 L1388.31 320.62 M1388.31 310.527 L1392.57 310.527 L1392.57 315.921 L1388.31 315.921 L1388.31 310.527 Z" fill="#000000" fill-rule="nonzero" fill-opacity="1" /><path clip-path="url(#clip600)" d="M1405.7 313.259 L1405.7 320.62 L1414.47 320.62 L1414.47 323.93 L1405.7 323.93 L1405.7 338.004 Q1405.7 341.175 1406.55 342.078 Q1407.43 342.981 1410.1 342.981 L1414.47 342.981 L1414.47 346.546 L1410.1 346.546 Q1405.17 346.546 1403.29 344.717 Q1401.42 342.865 1401.42 338.004 L1401.42 323.93 L1398.29 323.93 L1398.29 320.62 L1401.42 320.62 L1401.42 313.259 L1405.7 313.259 Z" fill="#000000" fill-rule="nonzero" fill-opacity="1" /><path clip-path="url(#clip600)" d="M1441.62 330.897 L1441.62 346.546 L1437.36 346.546 L1437.36 331.036 Q1437.36 327.356 1435.93 325.527 Q1434.49 323.698 1431.62 323.698 Q1428.17 323.698 1426.18 325.898 Q1424.19 328.097 1424.19 331.893 L1424.19 346.546 L1419.91 346.546 L1419.91 310.527 L1424.19 310.527 L1424.19 324.648 Q1425.72 322.31 1427.78 321.152 Q1429.86 319.995 1432.57 319.995 Q1437.04 319.995 1439.33 322.773 Q1441.62 325.527 1441.62 330.897 Z" fill="#000000" fill-rule="nonzero" fill-opacity="1" /><path clip-path="url(#clip600)" d="M1491.25 314.648 L1491.25 319.578 Q1488.89 317.379 1486.21 316.291 Q1483.54 315.203 1480.54 315.203 Q1474.61 315.203 1471.46 318.837 Q1468.31 322.448 1468.31 329.3 Q1468.31 336.129 1471.46 339.763 Q1474.61 343.374 1480.54 343.374 Q1483.54 343.374 1486.21 342.286 Q1488.89 341.198 1491.25 338.999 L1491.25 343.884 Q1488.8 345.55 1486.04 346.384 Q1483.31 347.217 1480.26 347.217 Q1472.41 347.217 1467.9 342.425 Q1463.38 337.61 1463.38 329.3 Q1463.38 320.967 1467.9 316.175 Q1472.41 311.361 1480.26 311.361 Q1483.36 311.361 1486.09 312.194 Q1488.85 313.004 1491.25 314.648 Z" fill="#000000" fill-rule="nonzero" fill-opacity="1" /><path clip-path="url(#clip600)" d="M1508.34 323.606 Q1504.91 323.606 1502.92 326.291 Q1500.93 328.953 1500.93 333.606 Q1500.93 338.259 1502.9 340.944 Q1504.89 343.606 1508.34 343.606 Q1511.74 343.606 1513.73 340.921 Q1515.72 338.235 1515.72 333.606 Q1515.72 328.999 1513.73 326.314 Q1511.74 323.606 1508.34 323.606 M1508.34 319.995 Q1513.89 319.995 1517.06 323.606 Q1520.23 327.217 1520.23 333.606 Q1520.23 339.972 1517.06 343.606 Q1513.89 347.217 1508.34 347.217 Q1502.76 347.217 1499.59 343.606 Q1496.44 339.972 1496.44 333.606 Q1496.44 327.217 1499.59 323.606 Q1502.76 319.995 1508.34 319.995 Z" fill="#000000" fill-rule="nonzero" fill-opacity="1" /><path clip-path="url(#clip600)" d="M1547.48 325.597 Q1549.08 322.726 1551.3 321.361 Q1553.52 319.995 1556.53 319.995 Q1560.58 319.995 1562.78 322.842 Q1564.98 325.666 1564.98 330.897 L1564.98 346.546 L1560.7 346.546 L1560.7 331.036 Q1560.7 327.31 1559.38 325.504 Q1558.06 323.698 1555.35 323.698 Q1552.04 323.698 1550.12 325.898 Q1548.2 328.097 1548.2 331.893 L1548.2 346.546 L1543.91 346.546 L1543.91 331.036 Q1543.91 327.286 1542.6 325.504 Q1541.28 323.698 1538.52 323.698 Q1535.26 323.698 1533.34 325.921 Q1531.41 328.12 1531.41 331.893 L1531.41 346.546 L1527.13 346.546 L1527.13 320.62 L1531.41 320.62 L1531.41 324.648 Q1532.87 322.263 1534.91 321.129 Q1536.95 319.995 1539.75 319.995 Q1542.57 319.995 1544.54 321.43 Q1546.53 322.865 1547.48 325.597 Z" fill="#000000" fill-rule="nonzero" fill-opacity="1" /><path clip-path="url(#clip600)" d="M1592.09 333.606 Q1592.09 328.907 1590.14 326.245 Q1588.22 323.56 1584.84 323.56 Q1581.46 323.56 1579.52 326.245 Q1577.59 328.907 1577.59 333.606 Q1577.59 338.305 1579.52 340.99 Q1581.46 343.652 1584.84 343.652 Q1588.22 343.652 1590.14 340.99 Q1592.09 338.305 1592.09 333.606 M1577.59 324.555 Q1578.94 322.24 1580.97 321.129 Q1583.03 319.995 1585.88 319.995 Q1590.6 319.995 1593.54 323.745 Q1596.51 327.495 1596.51 333.606 Q1596.51 339.717 1593.54 343.467 Q1590.6 347.217 1585.88 347.217 Q1583.03 347.217 1580.97 346.106 Q1578.94 344.971 1577.59 342.657 L1577.59 346.546 L1573.31 346.546 L1573.31 310.527 L1577.59 310.527 L1577.59 324.555 Z" fill="#000000" fill-rule="nonzero" fill-opacity="1" /><path clip-path="url(#clip600)" d="M1603.57 320.62 L1607.83 320.62 L1607.83 346.546 L1603.57 346.546 L1603.57 320.62 M1603.57 310.527 L1607.83 310.527 L1607.83 315.921 L1603.57 315.921 L1603.57 310.527 Z" fill="#000000" fill-rule="nonzero" fill-opacity="1" /><path clip-path="url(#clip600)" d="M1638.29 330.897 L1638.29 346.546 L1634.03 346.546 L1634.03 331.036 Q1634.03 327.356 1632.59 325.527 Q1631.16 323.698 1628.29 323.698 Q1624.84 323.698 1622.85 325.898 Q1620.86 328.097 1620.86 331.893 L1620.86 346.546 L1616.58 346.546 L1616.58 320.62 L1620.86 320.62 L1620.86 324.648 Q1622.39 322.31 1624.45 321.152 Q1626.53 319.995 1629.24 319.995 Q1633.71 319.995 1636 322.773 Q1638.29 325.527 1638.29 330.897 Z" fill="#000000" fill-rule="nonzero" fill-opacity="1" /><path clip-path="url(#clip600)" d="M1668.96 332.518 L1668.96 334.601 L1649.38 334.601 Q1649.65 338.999 1652.02 341.314 Q1654.4 343.606 1658.64 343.606 Q1661.09 343.606 1663.38 343.004 Q1665.7 342.402 1667.96 341.198 L1667.96 345.226 Q1665.67 346.198 1663.27 346.708 Q1660.86 347.217 1658.38 347.217 Q1652.18 347.217 1648.54 343.606 Q1644.93 339.995 1644.93 333.837 Q1644.93 327.472 1648.36 323.745 Q1651.81 319.995 1657.64 319.995 Q1662.87 319.995 1665.9 323.374 Q1668.96 326.731 1668.96 332.518 M1664.7 331.268 Q1664.65 327.773 1662.73 325.689 Q1660.84 323.606 1657.69 323.606 Q1654.12 323.606 1651.97 325.62 Q1649.84 327.634 1649.52 331.291 L1664.7 331.268 Z" fill="#000000" fill-rule="nonzero" fill-opacity="1" /><path clip-path="url(#clip600)" d="M1690.97 324.601 Q1690.26 324.185 1689.4 323.999 Q1688.57 323.791 1687.55 323.791 Q1683.94 323.791 1681.99 326.152 Q1680.07 328.49 1680.07 332.888 L1680.07 346.546 L1675.79 346.546 L1675.79 320.62 L1680.07 320.62 L1680.07 324.648 Q1681.41 322.286 1683.57 321.152 Q1685.72 319.995 1688.8 319.995 Q1689.24 319.995 1689.77 320.064 Q1690.3 320.111 1690.95 320.226 L1690.97 324.601 Z" fill="#000000" fill-rule="nonzero" fill-opacity="1" /><path clip-path="url(#clip600)" d="M1731.41 313.12 L1731.41 317.68 Q1728.75 316.407 1726.39 315.782 Q1724.03 315.157 1721.83 315.157 Q1718.01 315.157 1715.93 316.638 Q1713.87 318.12 1713.87 320.851 Q1713.87 323.143 1715.23 324.323 Q1716.62 325.481 1720.46 326.198 L1723.29 326.777 Q1728.52 327.773 1731 330.296 Q1733.5 332.796 1733.5 337.009 Q1733.5 342.032 1730.12 344.624 Q1726.76 347.217 1720.26 347.217 Q1717.8 347.217 1715.02 346.661 Q1712.27 346.106 1709.31 345.018 L1709.31 340.203 Q1712.15 341.8 1714.89 342.61 Q1717.62 343.421 1720.26 343.421 Q1724.26 343.421 1726.44 341.847 Q1728.61 340.272 1728.61 337.356 Q1728.61 334.81 1727.04 333.374 Q1725.49 331.939 1721.92 331.222 L1719.08 330.666 Q1713.84 329.624 1711.51 327.402 Q1709.17 325.18 1709.17 321.222 Q1709.17 316.638 1712.39 313.999 Q1715.63 311.361 1721.3 311.361 Q1723.73 311.361 1726.25 311.8 Q1728.77 312.24 1731.41 313.12 Z" fill="#000000" fill-rule="nonzero" fill-opacity="1" /><path clip-path="url(#clip600)" d="M1740.6 310.527 L1744.86 310.527 L1744.86 346.546 L1740.6 346.546 L1740.6 310.527 Z" fill="#000000" fill-rule="nonzero" fill-opacity="1" /><path clip-path="url(#clip600)" d="M1753.77 320.62 L1758.03 320.62 L1758.03 346.546 L1753.77 346.546 L1753.77 320.62 M1753.77 310.527 L1758.03 310.527 L1758.03 315.921 L1753.77 315.921 L1753.77 310.527 Z" fill="#000000" fill-rule="nonzero" fill-opacity="1" /><path clip-path="url(#clip600)" d="M1785.6 321.615 L1785.6 325.597 Q1783.8 324.601 1781.97 324.115 Q1780.16 323.606 1778.31 323.606 Q1774.17 323.606 1771.88 326.245 Q1769.58 328.86 1769.58 333.606 Q1769.58 338.351 1771.88 340.99 Q1774.17 343.606 1778.31 343.606 Q1780.16 343.606 1781.97 343.12 Q1783.8 342.61 1785.6 341.615 L1785.6 345.55 Q1783.82 346.384 1781.9 346.8 Q1780 347.217 1777.85 347.217 Q1771.99 347.217 1768.54 343.536 Q1765.09 339.856 1765.09 333.606 Q1765.09 327.263 1768.57 323.629 Q1772.06 319.995 1778.13 319.995 Q1780.09 319.995 1781.97 320.411 Q1783.84 320.805 1785.6 321.615 Z" fill="#000000" fill-rule="nonzero" fill-opacity="1" /><path clip-path="url(#clip600)" d="M1815.19 332.518 L1815.19 334.601 L1795.6 334.601 Q1795.88 338.999 1798.24 341.314 Q1800.63 343.606 1804.86 343.606 Q1807.32 343.606 1809.61 343.004 Q1811.92 342.402 1814.19 341.198 L1814.19 345.226 Q1811.9 346.198 1809.49 346.708 Q1807.08 347.217 1804.61 347.217 Q1798.4 347.217 1794.77 343.606 Q1791.16 339.995 1791.16 333.837 Q1791.16 327.472 1794.58 323.745 Q1798.03 319.995 1803.87 319.995 Q1809.1 319.995 1812.13 323.374 Q1815.19 326.731 1815.19 332.518 M1810.93 331.268 Q1810.88 327.773 1808.96 325.689 Q1807.06 323.606 1803.91 323.606 Q1800.35 323.606 1798.2 325.62 Q1796.07 327.634 1795.74 331.291 L1810.93 331.268 Z" fill="#000000" fill-rule="nonzero" fill-opacity="1" /><path clip-path="url(#clip600)" d="M525.789 401.842 L820.693 401.842 L820.693 360.37 L525.789 360.37 L525.789 401.842  Z" fill="#ac8d18" fill-rule="evenodd" fill-opacity="1"/>
<polyline clip-path="url(#clip600)" style="stroke:#000000; stroke-linecap:round; stroke-linejoin:round; stroke-width:4; stroke-opacity:1; fill:none" points="525.789,401.842 820.693,401.842 820.693,360.37 525.789,360.37 525.789,401.842 "/>
<path clip-path="url(#clip600)" d="M869.844 363.826 L876.812 363.826 L885.631 387.344 L894.497 363.826 L901.464 363.826 L901.464 398.386 L896.904 398.386 L896.904 368.038 L887.992 391.742 L883.293 391.742 L874.381 368.038 L874.381 398.386 L869.844 398.386 L869.844 363.826 Z" fill="#000000" fill-rule="nonzero" fill-opacity="1" /><path clip-path="url(#clip600)" d="M910.122 388.154 L910.122 372.46 L914.381 372.46 L914.381 387.992 Q914.381 391.673 915.816 393.524 Q917.251 395.353 920.122 395.353 Q923.571 395.353 925.561 393.154 Q927.575 390.955 927.575 387.159 L927.575 372.46 L931.834 372.46 L931.834 398.386 L927.575 398.386 L927.575 394.404 Q926.024 396.765 923.964 397.923 Q921.927 399.057 919.219 399.057 Q914.751 399.057 912.436 396.279 Q910.122 393.501 910.122 388.154 M920.839 371.835 L920.839 371.835 Z" fill="#000000" fill-rule="nonzero" fill-opacity="1" /><path clip-path="url(#clip600)" d="M944.82 365.099 L944.82 372.46 L953.594 372.46 L953.594 375.77 L944.82 375.77 L944.82 389.844 Q944.82 393.015 945.677 393.918 Q946.557 394.821 949.219 394.821 L953.594 394.821 L953.594 398.386 L949.219 398.386 Q944.288 398.386 942.413 396.557 Q940.538 394.705 940.538 389.844 L940.538 375.77 L937.413 375.77 L937.413 372.46 L940.538 372.46 L940.538 365.099 L944.82 365.099 Z" fill="#000000" fill-rule="nonzero" fill-opacity="1" /><path clip-path="url(#clip600)" d="M981.371 384.358 L981.371 386.441 L961.788 386.441 Q962.066 390.839 964.427 393.154 Q966.811 395.446 971.047 395.446 Q973.501 395.446 975.793 394.844 Q978.107 394.242 980.376 393.038 L980.376 397.066 Q978.084 398.038 975.677 398.548 Q973.269 399.057 970.793 399.057 Q964.589 399.057 960.955 395.446 Q957.344 391.835 957.344 385.677 Q957.344 379.312 960.769 375.585 Q964.219 371.835 970.052 371.835 Q975.283 371.835 978.316 375.214 Q981.371 378.571 981.371 384.358 M977.112 383.108 Q977.066 379.613 975.144 377.529 Q973.246 375.446 970.098 375.446 Q966.533 375.446 964.381 377.46 Q962.251 379.474 961.927 383.131 L977.112 383.108 Z" fill="#000000" fill-rule="nonzero" fill-opacity="1" /><path clip-path="url(#clip600)" d="M1009.08 372.46 L999.704 385.075 L1009.57 398.386 L1004.54 398.386 L996.996 388.2 L989.45 398.386 L984.427 398.386 L994.496 384.821 L985.283 372.46 L990.306 372.46 L997.181 381.696 L1004.06 372.46 L1009.08 372.46 Z" fill="#000000" fill-rule="nonzero" fill-opacity="1" /><path clip-path="url(#clip600)" d="M525.789 453.682 L820.693 453.682 L820.693 412.21 L525.789 412.21 L525.789 453.682  Z" fill="#00a9ad" fill-rule="evenodd" fill-opacity="1"/>
<polyline clip-path="url(#clip600)" style="stroke:#000000; stroke-linecap:round; stroke-linejoin:round; stroke-width:4; stroke-opacity:1; fill:none" points="525.789,453.682 820.693,453.682 820.693,412.21 525.789,412.21 525.789,453.682 "/>
<path clip-path="url(#clip600)" d="M886.233 434.022 Q887.737 434.531 889.149 436.198 Q890.585 437.865 892.02 440.781 L896.765 450.226 L891.742 450.226 L887.321 441.36 Q885.608 437.888 883.987 436.753 Q882.39 435.619 879.612 435.619 L874.52 435.619 L874.52 450.226 L869.844 450.226 L869.844 415.666 L880.4 415.666 Q886.325 415.666 889.242 418.142 Q892.159 420.619 892.159 425.619 Q892.159 428.883 890.631 431.036 Q889.126 433.189 886.233 434.022 M874.52 419.508 L874.52 431.777 L880.4 431.777 Q883.779 431.777 885.492 430.226 Q887.228 428.652 887.228 425.619 Q887.228 422.587 885.492 421.059 Q883.779 419.508 880.4 419.508 L874.52 419.508 Z" fill="#000000" fill-rule="nonzero" fill-opacity="1" /><path clip-path="url(#clip600)" d="M926.302 418.328 L926.302 423.258 Q923.941 421.059 921.256 419.971 Q918.594 418.883 915.585 418.883 Q909.659 418.883 906.51 422.517 Q903.362 426.128 903.362 432.98 Q903.362 439.809 906.51 443.443 Q909.659 447.054 915.585 447.054 Q918.594 447.054 921.256 445.966 Q923.941 444.878 926.302 442.679 L926.302 447.564 Q923.848 449.23 921.094 450.064 Q918.362 450.897 915.307 450.897 Q907.46 450.897 902.946 446.105 Q898.432 441.29 898.432 432.98 Q898.432 424.647 902.946 419.855 Q907.46 415.041 915.307 415.041 Q918.409 415.041 921.14 415.874 Q923.895 416.684 926.302 418.328 Z" fill="#000000" fill-rule="nonzero" fill-opacity="1" /><path clip-path="url(#clip600)" d="M933.524 415.666 L938.2 415.666 L938.2 446.29 L955.029 446.29 L955.029 450.226 L933.524 450.226 L933.524 415.666 Z" fill="#000000" fill-rule="nonzero" fill-opacity="1" /></svg>
