<?xml version="1.0" encoding="utf-8"?>
<svg xmlns="http://www.w3.org/2000/svg" xmlns:xlink="http://www.w3.org/1999/xlink" width="1200" height="600" viewBox="0 0 4800 2400">
<defs>
  <clipPath id="clip290">
    <rect x="0" y="0" width="4800" height="2400"/>
  </clipPath>
</defs>
<path clip-path="url(#clip290)" d="M0 2400 L4800 2400 L4800 0 L0 0  Z" fill="#ffffff" fill-rule="evenodd" fill-opacity="1"/>
<defs>
  <clipPath id="clip291">
    <rect x="960" y="0" width="3361" height="2400"/>
  </clipPath>
</defs>
<path clip-path="url(#clip290)" d="M329.185 2287.09 L4752.76 2287.09 L4752.76 47.2441 L329.185 47.2441  Z" fill="#ffffff" fill-rule="evenodd" fill-opacity="1"/>
<defs>
  <clipPath id="clip292">
    <rect x="329" y="47" width="4425" height="2241"/>
  </clipPath>
</defs>
<polyline clip-path="url(#clip292)" style="stroke:#000000; stroke-linecap:round; stroke-linejoin:round; stroke-width:2; stroke-opacity:0.1; fill:none" points="971.319,2287.09 971.319,47.2441 "/>
<polyline clip-path="url(#clip292)" style="stroke:#000000; stroke-linecap:round; stroke-linejoin:round; stroke-width:2; stroke-opacity:0.1; fill:none" points="2017.75,2287.09 2017.75,47.2441 "/>
<polyline clip-path="url(#clip292)" style="stroke:#000000; stroke-linecap:round; stroke-linejoin:round; stroke-width:2; stroke-opacity:0.1; fill:none" points="3064.19,2287.09 3064.19,47.2441 "/>
<polyline clip-path="url(#clip292)" style="stroke:#000000; stroke-linecap:round; stroke-linejoin:round; stroke-width:2; stroke-opacity:0.1; fill:none" points="4110.62,2287.09 4110.62,47.2441 "/>
<polyline clip-path="url(#clip290)" style="stroke:#000000; stroke-linecap:round; stroke-linejoin:round; stroke-width:4; stroke-opacity:1; fill:none" points="329.185,2287.09 4752.76,2287.09 "/>
<polyline clip-path="url(#clip290)" style="stroke:#000000; stroke-linecap:round; stroke-linejoin:round; stroke-width:4; stroke-opacity:1; fill:none" points="971.319,2287.09 971.319,2268.19 "/>
<polyline clip-path="url(#clip290)" style="stroke:#000000; stroke-linecap:round; stroke-linejoin:round; stroke-width:4; stroke-opacity:1; fill:none" points="2017.75,2287.09 2017.75,2268.19 "/>
<polyline clip-path="url(#clip290)" style="stroke:#000000; stroke-linecap:round; stroke-linejoin:round; stroke-width:4; stroke-opacity:1; fill:none" points="3064.19,2287.09 3064.19,2268.19 "/>
<polyline clip-path="url(#clip290)" style="stroke:#000000; stroke-linecap:round; stroke-linejoin:round; stroke-width:4; stroke-opacity:1; fill:none" points="4110.62,2287.09 4110.62,2268.19 "/>
<path clip-path="url(#clip290)" d="M971.319 2337.21 Q967.708 2337.21 965.88 2340.77 Q964.074 2344.31 964.074 2351.44 Q964.074 2358.55 965.88 2362.11 Q967.708 2365.66 971.319 2365.66 Q974.954 2365.66 976.759 2362.11 Q978.588 2358.55 978.588 2351.44 Q978.588 2344.31 976.759 2340.77 Q974.954 2337.21 971.319 2337.21 M971.319 2333.5 Q977.129 2333.5 980.185 2338.11 Q983.264 2342.69 983.264 2351.44 Q983.264 2360.17 980.185 2364.78 Q977.129 2369.36 971.319 2369.36 Q965.509 2369.36 962.43 2364.78 Q959.375 2360.17 959.375 2351.44 Q959.375 2342.69 962.43 2338.11 Q965.509 2333.5 971.319 2333.5 Z" fill="#000000" fill-rule="nonzero" fill-opacity="1" /><path clip-path="url(#clip290)" d="M2008.14 2364.75 L2015.77 2364.75 L2015.77 2338.39 L2007.46 2340.05 L2007.46 2335.79 L2015.73 2334.13 L2020.4 2334.13 L2020.4 2364.75 L2028.04 2364.75 L2028.04 2368.69 L2008.14 2368.69 L2008.14 2364.75 Z" fill="#000000" fill-rule="nonzero" fill-opacity="1" /><path clip-path="url(#clip290)" d="M3058.84 2364.75 L3075.16 2364.75 L3075.16 2368.69 L3053.22 2368.69 L3053.22 2364.75 Q3055.88 2362 3060.46 2357.37 Q3065.07 2352.72 3066.25 2351.37 Q3068.49 2348.85 3069.37 2347.11 Q3070.28 2345.35 3070.28 2343.66 Q3070.28 2340.91 3068.33 2339.17 Q3066.41 2337.44 3063.31 2337.44 Q3061.11 2337.44 3058.66 2338.2 Q3056.22 2338.97 3053.45 2340.52 L3053.45 2335.79 Q3056.27 2334.66 3058.72 2334.08 Q3061.18 2333.5 3063.22 2333.5 Q3068.59 2333.5 3071.78 2336.19 Q3074.97 2338.87 3074.97 2343.36 Q3074.97 2345.49 3074.16 2347.41 Q3073.38 2349.31 3071.27 2351.91 Q3070.69 2352.58 3067.59 2355.79 Q3064.49 2358.99 3058.84 2364.75 Z" fill="#000000" fill-rule="nonzero" fill-opacity="1" /><path clip-path="url(#clip290)" d="M4114.87 2350.05 Q4118.23 2350.77 4120.1 2353.04 Q4122 2355.31 4122 2358.64 Q4122 2363.76 4118.48 2366.56 Q4114.96 2369.36 4108.48 2369.36 Q4106.3 2369.36 4103.99 2368.92 Q4101.7 2368.5 4099.24 2367.65 L4099.24 2363.13 Q4101.19 2364.27 4103.5 2364.85 Q4105.82 2365.42 4108.34 2365.42 Q4112.74 2365.42 4115.03 2363.69 Q4117.35 2361.95 4117.35 2358.64 Q4117.35 2355.59 4115.19 2353.87 Q4113.06 2352.14 4109.24 2352.14 L4105.22 2352.14 L4105.22 2348.29 L4109.43 2348.29 Q4112.88 2348.29 4114.71 2346.93 Q4116.54 2345.54 4116.54 2342.95 Q4116.54 2340.29 4114.64 2338.87 Q4112.76 2337.44 4109.24 2337.44 Q4107.32 2337.44 4105.12 2337.85 Q4102.93 2338.27 4100.29 2339.15 L4100.29 2334.98 Q4102.95 2334.24 4105.26 2333.87 Q4107.6 2333.5 4109.66 2333.5 Q4114.99 2333.5 4118.09 2335.93 Q4121.19 2338.34 4121.19 2342.46 Q4121.19 2345.33 4119.55 2347.32 Q4117.9 2349.29 4114.87 2350.05 Z" fill="#000000" fill-rule="nonzero" fill-opacity="1" /><polyline clip-path="url(#clip292)" style="stroke:#000000; stroke-linecap:round; stroke-linejoin:round; stroke-width:2; stroke-opacity:0.1; fill:none" points="329.185,2223.7 4752.76,2223.7 "/>
<polyline clip-path="url(#clip292)" style="stroke:#000000; stroke-linecap:round; stroke-linejoin:round; stroke-width:2; stroke-opacity:0.1; fill:none" points="329.185,1883.88 4752.76,1883.88 "/>
<polyline clip-path="url(#clip292)" style="stroke:#000000; stroke-linecap:round; stroke-linejoin:round; stroke-width:2; stroke-opacity:0.1; fill:none" points="329.185,1544.06 4752.76,1544.06 "/>
<polyline clip-path="url(#clip292)" style="stroke:#000000; stroke-linecap:round; stroke-linejoin:round; stroke-width:2; stroke-opacity:0.1; fill:none" points="329.185,1204.24 4752.76,1204.24 "/>
<polyline clip-path="url(#clip292)" style="stroke:#000000; stroke-linecap:round; stroke-linejoin:round; stroke-width:2; stroke-opacity:0.1; fill:none" points="329.185,864.423 4752.76,864.423 "/>
<polyline clip-path="url(#clip292)" style="stroke:#000000; stroke-linecap:round; stroke-linejoin:round; stroke-width:2; stroke-opacity:0.1; fill:none" points="329.185,524.604 4752.76,524.604 "/>
<polyline clip-path="url(#clip292)" style="stroke:#000000; stroke-linecap:round; stroke-linejoin:round; stroke-width:2; stroke-opacity:0.1; fill:none" points="329.185,184.786 4752.76,184.786 "/>
<polyline clip-path="url(#clip290)" style="stroke:#000000; stroke-linecap:round; stroke-linejoin:round; stroke-width:4; stroke-opacity:1; fill:none" points="329.185,2287.09 329.185,47.2441 "/>
<polyline clip-path="url(#clip290)" style="stroke:#000000; stroke-linecap:round; stroke-linejoin:round; stroke-width:4; stroke-opacity:1; fill:none" points="329.185,2223.7 348.083,2223.7 "/>
<polyline clip-path="url(#clip290)" style="stroke:#000000; stroke-linecap:round; stroke-linejoin:round; stroke-width:4; stroke-opacity:1; fill:none" points="329.185,1883.88 348.083,1883.88 "/>
<polyline clip-path="url(#clip290)" style="stroke:#000000; stroke-linecap:round; stroke-linejoin:round; stroke-width:4; stroke-opacity:1; fill:none" points="329.185,1544.06 348.083,1544.06 "/>
<polyline clip-path="url(#clip290)" style="stroke:#000000; stroke-linecap:round; stroke-linejoin:round; stroke-width:4; stroke-opacity:1; fill:none" points="329.185,1204.24 348.083,1204.24 "/>
<polyline clip-path="url(#clip290)" style="stroke:#000000; stroke-linecap:round; stroke-linejoin:round; stroke-width:4; stroke-opacity:1; fill:none" points="329.185,864.423 348.083,864.423 "/>
<polyline clip-path="url(#clip290)" style="stroke:#000000; stroke-linecap:round; stroke-linejoin:round; stroke-width:4; stroke-opacity:1; fill:none" points="329.185,524.604 348.083,524.604 "/>
<polyline clip-path="url(#clip290)" style="stroke:#000000; stroke-linecap:round; stroke-linejoin:round; stroke-width:4; stroke-opacity:1; fill:none" points="329.185,184.786 348.083,184.786 "/>
<path clip-path="url(#clip290)" d="M245.241 2209.49 Q241.63 2209.49 239.801 2213.06 Q237.996 2216.6 237.996 2223.73 Q237.996 2230.84 239.801 2234.4 Q241.63 2237.94 245.241 2237.94 Q248.875 2237.94 250.681 2234.4 Q252.51 2230.84 252.51 2223.73 Q252.51 2216.6 250.681 2213.06 Q248.875 2209.49 245.241 2209.49 M245.241 2205.79 Q251.051 2205.79 254.107 2210.4 Q257.185 2214.98 257.185 2223.73 Q257.185 2232.46 254.107 2237.06 Q251.051 2241.65 245.241 2241.65 Q239.431 2241.65 236.352 2237.06 Q233.297 2232.46 233.297 2223.73 Q233.297 2214.98 236.352 2210.4 Q239.431 2205.79 245.241 2205.79 Z" fill="#000000" fill-rule="nonzero" fill-opacity="1" /><path clip-path="url(#clip290)" d="M45.7745 1903.67 L62.0939 1903.67 L62.0939 1907.61 L40.1495 1907.61 L40.1495 1903.67 Q42.8115 1900.92 47.3949 1896.29 Q52.0013 1891.63 53.1819 1890.29 Q55.4272 1887.77 56.3068 1886.03 Q57.2096 1884.27 57.2096 1882.58 Q57.2096 1879.83 55.2652 1878.09 Q53.3439 1876.36 50.2421 1876.36 Q48.043 1876.36 45.5893 1877.12 Q43.1588 1877.88 40.381 1879.43 L40.381 1874.71 Q43.2051 1873.58 45.6588 1873 Q48.1124 1872.42 50.1495 1872.42 Q55.5198 1872.42 58.7142 1875.11 Q61.9087 1877.79 61.9087 1882.28 Q61.9087 1884.41 61.0985 1886.33 Q60.3115 1888.23 58.205 1890.82 Q57.6263 1891.49 54.5245 1894.71 Q51.4226 1897.91 45.7745 1903.67 Z" fill="#000000" fill-rule="nonzero" fill-opacity="1" /><path clip-path="url(#clip290)" d="M71.9086 1901.73 L76.7928 1901.73 L76.7928 1907.61 L71.9086 1907.61 L71.9086 1901.73 Z" fill="#000000" fill-rule="nonzero" fill-opacity="1" /><path clip-path="url(#clip290)" d="M96.9779 1876.12 Q93.3668 1876.12 91.5381 1879.69 Q89.7326 1883.23 89.7326 1890.36 Q89.7326 1897.47 91.5381 1901.03 Q93.3668 1904.57 96.9779 1904.57 Q100.612 1904.57 102.418 1901.03 Q104.246 1897.47 104.246 1890.36 Q104.246 1883.23 102.418 1879.69 Q100.612 1876.12 96.9779 1876.12 M96.9779 1872.42 Q102.788 1872.42 105.844 1877.03 Q108.922 1881.61 108.922 1890.36 Q108.922 1899.09 105.844 1903.69 Q102.788 1908.28 96.9779 1908.28 Q91.1678 1908.28 88.0891 1903.69 Q85.0335 1899.09 85.0335 1890.36 Q85.0335 1881.61 88.0891 1877.03 Q91.1678 1872.42 96.9779 1872.42 Z" fill="#000000" fill-rule="nonzero" fill-opacity="1" /><path clip-path="url(#clip290)" d="M127.14 1876.12 Q123.529 1876.12 121.7 1879.69 Q119.894 1883.23 119.894 1890.36 Q119.894 1897.47 121.7 1901.03 Q123.529 1904.57 127.14 1904.57 Q130.774 1904.57 132.58 1901.03 Q134.408 1897.47 134.408 1890.36 Q134.408 1883.23 132.58 1879.69 Q130.774 1876.12 127.14 1876.12 M127.14 1872.42 Q132.95 1872.42 136.005 1877.03 Q139.084 1881.61 139.084 1890.36 Q139.084 1899.09 136.005 1903.69 Q132.95 1908.28 127.14 1908.28 Q121.33 1908.28 118.251 1903.69 Q115.195 1899.09 115.195 1890.36 Q115.195 1881.61 118.251 1877.03 Q121.33 1872.42 127.14 1872.42 Z" fill="#000000" fill-rule="nonzero" fill-opacity="1" /><path clip-path="url(#clip290)" d="M175.473 1882.14 L164.894 1892.77 L175.473 1903.35 L172.718 1906.15 L162.093 1895.52 L151.468 1906.15 L148.737 1903.35 L159.292 1892.77 L148.737 1882.14 L151.468 1879.34 L162.093 1889.97 L172.718 1879.34 L175.473 1882.14 Z" fill="#000000" fill-rule="nonzero" fill-opacity="1" /><path clip-path="url(#clip290)" d="M187.834 1903.67 L195.473 1903.67 L195.473 1877.3 L187.163 1878.97 L187.163 1874.71 L195.426 1873.05 L200.102 1873.05 L200.102 1903.67 L207.741 1903.67 L207.741 1907.61 L187.834 1907.61 L187.834 1903.67 Z" fill="#000000" fill-rule="nonzero" fill-opacity="1" /><path clip-path="url(#clip290)" d="M227.186 1876.12 Q223.574 1876.12 221.746 1879.69 Q219.94 1883.23 219.94 1890.36 Q219.94 1897.47 221.746 1901.03 Q223.574 1904.57 227.186 1904.57 Q230.82 1904.57 232.625 1901.03 Q234.454 1897.47 234.454 1890.36 Q234.454 1883.23 232.625 1879.69 Q230.82 1876.12 227.186 1876.12 M227.186 1872.42 Q232.996 1872.42 236.051 1877.03 Q239.13 1881.61 239.13 1890.36 Q239.13 1899.09 236.051 1903.69 Q232.996 1908.28 227.186 1908.28 Q221.375 1908.28 218.297 1903.69 Q215.241 1899.09 215.241 1890.36 Q215.241 1881.61 218.297 1877.03 Q221.375 1872.42 227.186 1872.42 Z" fill="#000000" fill-rule="nonzero" fill-opacity="1" /><path clip-path="url(#clip290)" d="M239.13 1852.11 L257.185 1852.11 L257.185 1853.73 L246.992 1880.19 L243.023 1880.19 L252.615 1855.31 L239.13 1855.31 L239.13 1852.11 Z" fill="#000000" fill-rule="nonzero" fill-opacity="1" /><path clip-path="url(#clip290)" d="M54.5939 1537.3 L42.7884 1555.75 L54.5939 1555.75 L54.5939 1537.3 M53.367 1533.23 L59.2466 1533.23 L59.2466 1555.75 L64.1772 1555.75 L64.1772 1559.64 L59.2466 1559.64 L59.2466 1567.79 L54.5939 1567.79 L54.5939 1559.64 L38.9921 1559.64 L38.9921 1555.13 L53.367 1533.23 Z" fill="#000000" fill-rule="nonzero" fill-opacity="1" /><path clip-path="url(#clip290)" d="M71.9086 1561.91 L76.7928 1561.91 L76.7928 1567.79 L71.9086 1567.79 L71.9086 1561.91 Z" fill="#000000" fill-rule="nonzero" fill-opacity="1" /><path clip-path="url(#clip290)" d="M96.9779 1536.31 Q93.3668 1536.31 91.5381 1539.87 Q89.7326 1543.41 89.7326 1550.54 Q89.7326 1557.65 91.5381 1561.21 Q93.3668 1564.75 96.9779 1564.75 Q100.612 1564.75 102.418 1561.21 Q104.246 1557.65 104.246 1550.54 Q104.246 1543.41 102.418 1539.87 Q100.612 1536.31 96.9779 1536.31 M96.9779 1532.6 Q102.788 1532.6 105.844 1537.21 Q108.922 1541.79 108.922 1550.54 Q108.922 1559.27 105.844 1563.88 Q102.788 1568.46 96.9779 1568.46 Q91.1678 1568.46 88.0891 1563.88 Q85.0335 1559.27 85.0335 1550.54 Q85.0335 1541.79 88.0891 1537.21 Q91.1678 1532.6 96.9779 1532.6 Z" fill="#000000" fill-rule="nonzero" fill-opacity="1" /><path clip-path="url(#clip290)" d="M127.14 1536.31 Q123.529 1536.31 121.7 1539.87 Q119.894 1543.41 119.894 1550.54 Q119.894 1557.65 121.7 1561.21 Q123.529 1564.75 127.14 1564.75 Q130.774 1564.75 132.58 1561.21 Q134.408 1557.65 134.408 1550.54 Q134.408 1543.41 132.58 1539.87 Q130.774 1536.31 127.14 1536.31 M127.14 1532.6 Q132.95 1532.6 136.005 1537.21 Q139.084 1541.79 139.084 1550.54 Q139.084 1559.27 136.005 1563.88 Q132.95 1568.46 127.14 1568.46 Q121.33 1568.46 118.251 1563.88 Q115.195 1559.27 115.195 1550.54 Q115.195 1541.79 118.251 1537.21 Q121.33 1532.6 127.14 1532.6 Z" fill="#000000" fill-rule="nonzero" fill-opacity="1" /><path clip-path="url(#clip290)" d="M175.473 1542.32 L164.894 1552.95 L175.473 1563.53 L172.718 1566.33 L162.093 1555.7 L151.468 1566.33 L148.737 1563.53 L159.292 1552.95 L148.737 1542.32 L151.468 1539.52 L162.093 1550.15 L172.718 1539.52 L175.473 1542.32 Z" fill="#000000" fill-rule="nonzero" fill-opacity="1" /><path clip-path="url(#clip290)" d="M187.834 1563.85 L195.473 1563.85 L195.473 1537.49 L187.163 1539.15 L187.163 1534.89 L195.426 1533.23 L200.102 1533.23 L200.102 1563.85 L207.741 1563.85 L207.741 1567.79 L187.834 1567.79 L187.834 1563.85 Z" fill="#000000" fill-rule="nonzero" fill-opacity="1" /><path clip-path="url(#clip290)" d="M227.186 1536.31 Q223.574 1536.31 221.746 1539.87 Q219.94 1543.41 219.94 1550.54 Q219.94 1557.65 221.746 1561.21 Q223.574 1564.75 227.186 1564.75 Q230.82 1564.75 232.625 1561.21 Q234.454 1557.65 234.454 1550.54 Q234.454 1543.41 232.625 1539.87 Q230.82 1536.31 227.186 1536.31 M227.186 1532.6 Q232.996 1532.6 236.051 1537.21 Q239.13 1541.79 239.13 1550.54 Q239.13 1559.27 236.051 1563.88 Q232.996 1568.46 227.186 1568.46 Q221.375 1568.46 218.297 1563.88 Q215.241 1559.27 215.241 1550.54 Q215.241 1541.79 218.297 1537.21 Q221.375 1532.6 227.186 1532.6 Z" fill="#000000" fill-rule="nonzero" fill-opacity="1" /><path clip-path="url(#clip290)" d="M239.13 1512.3 L257.185 1512.3 L257.185 1513.91 L246.992 1540.38 L243.023 1540.38 L252.615 1515.49 L239.13 1515.49 L239.13 1512.3 Z" fill="#000000" fill-rule="nonzero" fill-opacity="1" /><path clip-path="url(#clip290)" d="M52.3254 1208.83 Q49.1773 1208.83 47.3254 1210.98 Q45.4967 1213.13 45.4967 1216.88 Q45.4967 1220.61 47.3254 1222.78 Q49.1773 1224.94 52.3254 1224.94 Q55.4735 1224.94 57.3022 1222.78 Q59.1541 1220.61 59.1541 1216.88 Q59.1541 1213.13 57.3022 1210.98 Q55.4735 1208.83 52.3254 1208.83 M61.6077 1194.17 L61.6077 1198.43 Q59.8485 1197.6 58.0429 1197.16 Q56.2606 1196.72 54.5013 1196.72 Q49.8717 1196.72 47.418 1199.84 Q44.9875 1202.97 44.6402 1209.29 Q46.006 1207.27 48.0662 1206.21 Q50.1263 1205.12 52.6032 1205.12 Q57.8115 1205.12 60.8207 1208.29 Q63.8531 1211.44 63.8531 1216.88 Q63.8531 1222.2 60.705 1225.42 Q57.5568 1228.64 52.3254 1228.64 Q46.33 1228.64 43.1588 1224.06 Q39.9875 1219.45 39.9875 1210.72 Q39.9875 1202.53 43.8764 1197.67 Q47.7652 1192.78 54.3161 1192.78 Q56.0754 1192.78 57.8578 1193.13 Q59.6633 1193.48 61.6077 1194.17 Z" fill="#000000" fill-rule="nonzero" fill-opacity="1" /><path clip-path="url(#clip290)" d="M71.9086 1222.09 L76.7928 1222.09 L76.7928 1227.97 L71.9086 1227.97 L71.9086 1222.09 Z" fill="#000000" fill-rule="nonzero" fill-opacity="1" /><path clip-path="url(#clip290)" d="M96.9779 1196.49 Q93.3668 1196.49 91.5381 1200.05 Q89.7326 1203.59 89.7326 1210.72 Q89.7326 1217.83 91.5381 1221.39 Q93.3668 1224.94 96.9779 1224.94 Q100.612 1224.94 102.418 1221.39 Q104.246 1217.83 104.246 1210.72 Q104.246 1203.59 102.418 1200.05 Q100.612 1196.49 96.9779 1196.49 M96.9779 1192.78 Q102.788 1192.78 105.844 1197.39 Q108.922 1201.97 108.922 1210.72 Q108.922 1219.45 105.844 1224.06 Q102.788 1228.64 96.9779 1228.64 Q91.1678 1228.64 88.0891 1224.06 Q85.0335 1219.45 85.0335 1210.72 Q85.0335 1201.97 88.0891 1197.39 Q91.1678 1192.78 96.9779 1192.78 Z" fill="#000000" fill-rule="nonzero" fill-opacity="1" /><path clip-path="url(#clip290)" d="M127.14 1196.49 Q123.529 1196.49 121.7 1200.05 Q119.894 1203.59 119.894 1210.72 Q119.894 1217.83 121.7 1221.39 Q123.529 1224.94 127.14 1224.94 Q130.774 1224.94 132.58 1221.39 Q134.408 1217.83 134.408 1210.72 Q134.408 1203.59 132.58 1200.05 Q130.774 1196.49 127.14 1196.49 M127.14 1192.78 Q132.95 1192.78 136.005 1197.39 Q139.084 1201.97 139.084 1210.72 Q139.084 1219.45 136.005 1224.06 Q132.95 1228.64 127.14 1228.64 Q121.33 1228.64 118.251 1224.06 Q115.195 1219.45 115.195 1210.72 Q115.195 1201.97 118.251 1197.39 Q121.33 1192.78 127.14 1192.78 Z" fill="#000000" fill-rule="nonzero" fill-opacity="1" /><path clip-path="url(#clip290)" d="M175.473 1202.51 L164.894 1213.13 L175.473 1223.71 L172.718 1226.51 L162.093 1215.89 L151.468 1226.51 L148.737 1223.71 L159.292 1213.13 L148.737 1202.51 L151.468 1199.7 L162.093 1210.33 L172.718 1199.7 L175.473 1202.51 Z" fill="#000000" fill-rule="nonzero" fill-opacity="1" /><path clip-path="url(#clip290)" d="M187.834 1224.03 L195.473 1224.03 L195.473 1197.67 L187.163 1199.33 L187.163 1195.08 L195.426 1193.41 L200.102 1193.41 L200.102 1224.03 L207.741 1224.03 L207.741 1227.97 L187.834 1227.97 L187.834 1224.03 Z" fill="#000000" fill-rule="nonzero" fill-opacity="1" /><path clip-path="url(#clip290)" d="M227.186 1196.49 Q223.574 1196.49 221.746 1200.05 Q219.94 1203.59 219.94 1210.72 Q219.94 1217.83 221.746 1221.39 Q223.574 1224.94 227.186 1224.94 Q230.82 1224.94 232.625 1221.39 Q234.454 1217.83 234.454 1210.72 Q234.454 1203.59 232.625 1200.05 Q230.82 1196.49 227.186 1196.49 M227.186 1192.78 Q232.996 1192.78 236.051 1197.39 Q239.13 1201.97 239.13 1210.72 Q239.13 1219.45 236.051 1224.06 Q232.996 1228.64 227.186 1228.64 Q221.375 1228.64 218.297 1224.06 Q215.241 1219.45 215.241 1210.72 Q215.241 1201.97 218.297 1197.39 Q221.375 1192.78 227.186 1192.78 Z" fill="#000000" fill-rule="nonzero" fill-opacity="1" /><path clip-path="url(#clip290)" d="M239.13 1172.48 L257.185 1172.48 L257.185 1174.1 L246.992 1200.56 L243.023 1200.56 L252.615 1175.68 L239.13 1175.68 L239.13 1172.48 Z" fill="#000000" fill-rule="nonzero" fill-opacity="1" /><path clip-path="url(#clip290)" d="M51.7467 871.738 Q48.4134 871.738 46.4921 873.521 Q44.5939 875.303 44.5939 878.428 Q44.5939 881.553 46.4921 883.336 Q48.4134 885.118 51.7467 885.118 Q55.08 885.118 57.0013 883.336 Q58.9226 881.53 58.9226 878.428 Q58.9226 875.303 57.0013 873.521 Q55.1032 871.738 51.7467 871.738 M47.0708 869.748 Q44.0615 869.007 42.3717 866.947 Q40.7051 864.887 40.7051 861.924 Q40.7051 857.78 43.6449 855.373 Q46.6078 852.965 51.7467 852.965 Q56.9087 852.965 59.8485 855.373 Q62.7883 857.78 62.7883 861.924 Q62.7883 864.887 61.0985 866.947 Q59.4318 869.007 56.4457 869.748 Q59.8253 870.535 61.7003 872.826 Q63.5985 875.118 63.5985 878.428 Q63.5985 883.451 60.5198 886.137 Q57.4642 888.822 51.7467 888.822 Q46.0291 888.822 42.9504 886.137 Q39.8949 883.451 39.8949 878.428 Q39.8949 875.118 41.793 872.826 Q43.6912 870.535 47.0708 869.748 M45.3578 862.363 Q45.3578 865.049 47.0245 866.553 Q48.7143 868.058 51.7467 868.058 Q54.7559 868.058 56.4457 866.553 Q58.1587 865.049 58.1587 862.363 Q58.1587 859.678 56.4457 858.174 Q54.7559 856.669 51.7467 856.669 Q48.7143 856.669 47.0245 858.174 Q45.3578 859.678 45.3578 862.363 Z" fill="#000000" fill-rule="nonzero" fill-opacity="1" /><path clip-path="url(#clip290)" d="M71.9086 882.271 L76.7928 882.271 L76.7928 888.15 L71.9086 888.15 L71.9086 882.271 Z" fill="#000000" fill-rule="nonzero" fill-opacity="1" /><path clip-path="url(#clip290)" d="M96.9779 856.669 Q93.3668 856.669 91.5381 860.234 Q89.7326 863.776 89.7326 870.905 Q89.7326 878.012 91.5381 881.576 Q93.3668 885.118 96.9779 885.118 Q100.612 885.118 102.418 881.576 Q104.246 878.012 104.246 870.905 Q104.246 863.776 102.418 860.234 Q100.612 856.669 96.9779 856.669 M96.9779 852.965 Q102.788 852.965 105.844 857.572 Q108.922 862.155 108.922 870.905 Q108.922 879.632 105.844 884.238 Q102.788 888.822 96.9779 888.822 Q91.1678 888.822 88.0891 884.238 Q85.0335 879.632 85.0335 870.905 Q85.0335 862.155 88.0891 857.572 Q91.1678 852.965 96.9779 852.965 Z" fill="#000000" fill-rule="nonzero" fill-opacity="1" /><path clip-path="url(#clip290)" d="M127.14 856.669 Q123.529 856.669 121.7 860.234 Q119.894 863.776 119.894 870.905 Q119.894 878.012 121.7 881.576 Q123.529 885.118 127.14 885.118 Q130.774 885.118 132.58 881.576 Q134.408 878.012 134.408 870.905 Q134.408 863.776 132.58 860.234 Q130.774 856.669 127.14 856.669 M127.14 852.965 Q132.95 852.965 136.005 857.572 Q139.084 862.155 139.084 870.905 Q139.084 879.632 136.005 884.238 Q132.95 888.822 127.14 888.822 Q121.33 888.822 118.251 884.238 Q115.195 879.632 115.195 870.905 Q115.195 862.155 118.251 857.572 Q121.33 852.965 127.14 852.965 Z" fill="#000000" fill-rule="nonzero" fill-opacity="1" /><path clip-path="url(#clip290)" d="M175.473 862.688 L164.894 873.313 L175.473 883.891 L172.718 886.692 L162.093 876.067 L151.468 886.692 L148.737 883.891 L159.292 873.313 L148.737 862.688 L151.468 859.887 L162.093 870.512 L172.718 859.887 L175.473 862.688 Z" fill="#000000" fill-rule="nonzero" fill-opacity="1" /><path clip-path="url(#clip290)" d="M187.834 884.215 L195.473 884.215 L195.473 857.85 L187.163 859.516 L187.163 855.257 L195.426 853.59 L200.102 853.59 L200.102 884.215 L207.741 884.215 L207.741 888.15 L187.834 888.15 L187.834 884.215 Z" fill="#000000" fill-rule="nonzero" fill-opacity="1" /><path clip-path="url(#clip290)" d="M227.186 856.669 Q223.574 856.669 221.746 860.234 Q219.94 863.776 219.94 870.905 Q219.94 878.012 221.746 881.576 Q223.574 885.118 227.186 885.118 Q230.82 885.118 232.625 881.576 Q234.454 878.012 234.454 870.905 Q234.454 863.776 232.625 860.234 Q230.82 856.669 227.186 856.669 M227.186 852.965 Q232.996 852.965 236.051 857.572 Q239.13 862.155 239.13 870.905 Q239.13 879.632 236.051 884.238 Q232.996 888.822 227.186 888.822 Q221.375 888.822 218.297 884.238 Q215.241 879.632 215.241 870.905 Q215.241 862.155 218.297 857.572 Q221.375 852.965 227.186 852.965 Z" fill="#000000" fill-rule="nonzero" fill-opacity="1" /><path clip-path="url(#clip290)" d="M239.13 832.66 L257.185 832.66 L257.185 834.277 L246.992 860.74 L243.023 860.74 L252.615 835.857 L239.13 835.857 L239.13 832.66 Z" fill="#000000" fill-rule="nonzero" fill-opacity="1" /><path clip-path="url(#clip290)" d="M41.3532 544.397 L48.9921 544.397 L48.9921 518.031 L40.6819 519.698 L40.6819 515.439 L48.9458 513.772 L53.6217 513.772 L53.6217 544.397 L61.2605 544.397 L61.2605 548.332 L41.3532 548.332 L41.3532 544.397 Z" fill="#000000" fill-rule="nonzero" fill-opacity="1" /><path clip-path="url(#clip290)" d="M70.7049 542.452 L75.5892 542.452 L75.5892 548.332 L70.7049 548.332 L70.7049 542.452 Z" fill="#000000" fill-rule="nonzero" fill-opacity="1" /><path clip-path="url(#clip290)" d="M95.7742 516.851 Q92.1631 516.851 90.3344 520.416 Q88.5289 523.957 88.5289 531.087 Q88.5289 538.193 90.3344 541.758 Q92.1631 545.3 95.7742 545.3 Q99.4085 545.3 101.214 541.758 Q103.043 538.193 103.043 531.087 Q103.043 523.957 101.214 520.416 Q99.4085 516.851 95.7742 516.851 M95.7742 513.147 Q101.584 513.147 104.64 517.754 Q107.719 522.337 107.719 531.087 Q107.719 539.814 104.64 544.42 Q101.584 549.003 95.7742 549.003 Q89.9641 549.003 86.8854 544.42 Q83.8298 539.814 83.8298 531.087 Q83.8298 522.337 86.8854 517.754 Q89.9641 513.147 95.7742 513.147 Z" fill="#000000" fill-rule="nonzero" fill-opacity="1" /><path clip-path="url(#clip290)" d="M125.936 516.851 Q122.325 516.851 120.496 520.416 Q118.691 523.957 118.691 531.087 Q118.691 538.193 120.496 541.758 Q122.325 545.3 125.936 545.3 Q129.57 545.3 131.376 541.758 Q133.205 538.193 133.205 531.087 Q133.205 523.957 131.376 520.416 Q129.57 516.851 125.936 516.851 M125.936 513.147 Q131.746 513.147 134.802 517.754 Q137.88 522.337 137.88 531.087 Q137.88 539.814 134.802 544.42 Q131.746 549.003 125.936 549.003 Q120.126 549.003 117.047 544.42 Q113.992 539.814 113.992 531.087 Q113.992 522.337 117.047 517.754 Q120.126 513.147 125.936 513.147 Z" fill="#000000" fill-rule="nonzero" fill-opacity="1" /><path clip-path="url(#clip290)" d="M174.269 522.869 L163.691 533.494 L174.269 544.073 L171.515 546.874 L160.89 536.249 L150.265 546.874 L147.533 544.073 L158.089 533.494 L147.533 522.869 L150.265 520.068 L160.89 530.693 L171.515 520.068 L174.269 522.869 Z" fill="#000000" fill-rule="nonzero" fill-opacity="1" /><path clip-path="url(#clip290)" d="M186.63 544.397 L194.269 544.397 L194.269 518.031 L185.959 519.698 L185.959 515.439 L194.223 513.772 L198.899 513.772 L198.899 544.397 L206.538 544.397 L206.538 548.332 L186.63 548.332 L186.63 544.397 Z" fill="#000000" fill-rule="nonzero" fill-opacity="1" /><path clip-path="url(#clip290)" d="M225.982 516.851 Q222.371 516.851 220.542 520.416 Q218.737 523.957 218.737 531.087 Q218.737 538.193 220.542 541.758 Q222.371 545.3 225.982 545.3 Q229.616 545.3 231.422 541.758 Q233.25 538.193 233.25 531.087 Q233.25 523.957 231.422 520.416 Q229.616 516.851 225.982 516.851 M225.982 513.147 Q231.792 513.147 234.848 517.754 Q237.926 522.337 237.926 531.087 Q237.926 539.814 234.848 544.42 Q231.792 549.003 225.982 549.003 Q220.172 549.003 217.093 544.42 Q214.037 539.814 214.037 531.087 Q214.037 522.337 217.093 517.754 Q220.172 513.147 225.982 513.147 Z" fill="#000000" fill-rule="nonzero" fill-opacity="1" /><path clip-path="url(#clip290)" d="M247.556 507.587 Q244.848 507.587 243.286 509.035 Q241.744 510.483 241.744 513.022 Q241.744 515.561 243.286 517.01 Q244.848 518.458 247.556 518.458 Q250.264 518.458 251.825 517.01 Q253.386 515.543 253.386 513.022 Q253.386 510.483 251.825 509.035 Q250.283 507.587 247.556 507.587 M243.757 505.97 Q241.312 505.368 239.939 503.694 Q238.585 502.02 238.585 499.612 Q238.585 496.246 240.973 494.29 Q243.38 492.334 247.556 492.334 Q251.75 492.334 254.139 494.29 Q256.527 496.246 256.527 499.612 Q256.527 502.02 255.154 503.694 Q253.8 505.368 251.374 505.97 Q254.12 506.609 255.643 508.471 Q257.185 510.333 257.185 513.022 Q257.185 517.104 254.684 519.285 Q252.201 521.467 247.556 521.467 Q242.91 521.467 240.409 519.285 Q237.926 517.104 237.926 513.022 Q237.926 510.333 239.468 508.471 Q241.011 506.609 243.757 505.97 M242.365 499.97 Q242.365 502.152 243.719 503.374 Q245.092 504.597 247.556 504.597 Q250.001 504.597 251.374 503.374 Q252.766 502.152 252.766 499.97 Q252.766 497.788 251.374 496.566 Q250.001 495.343 247.556 495.343 Q245.092 495.343 243.719 496.566 Q242.365 497.788 242.365 499.97 Z" fill="#000000" fill-rule="nonzero" fill-opacity="1" /><path clip-path="url(#clip290)" d="M41.3532 204.579 L48.9921 204.579 L48.9921 178.213 L40.6819 179.88 L40.6819 175.62 L48.9458 173.954 L53.6217 173.954 L53.6217 204.579 L61.2605 204.579 L61.2605 208.514 L41.3532 208.514 L41.3532 204.579 Z" fill="#000000" fill-rule="nonzero" fill-opacity="1" /><path clip-path="url(#clip290)" d="M70.7049 202.634 L75.5892 202.634 L75.5892 208.514 L70.7049 208.514 L70.7049 202.634 Z" fill="#000000" fill-rule="nonzero" fill-opacity="1" /><path clip-path="url(#clip290)" d="M89.802 204.579 L106.121 204.579 L106.121 208.514 L84.1771 208.514 L84.1771 204.579 Q86.8391 201.824 91.4224 197.194 Q96.0289 192.542 97.2094 191.199 Q99.4548 188.676 100.334 186.94 Q101.237 185.181 101.237 183.491 Q101.237 180.736 99.2927 179 Q97.3714 177.264 94.2696 177.264 Q92.0705 177.264 89.6169 178.028 Q87.1863 178.792 84.4085 180.343 L84.4085 175.62 Q87.2326 174.486 89.6863 173.907 Q92.14 173.329 94.177 173.329 Q99.5474 173.329 102.742 176.014 Q105.936 178.699 105.936 183.19 Q105.936 185.319 105.126 187.241 Q104.339 189.139 102.233 191.731 Q101.654 192.403 98.552 195.62 Q95.4502 198.815 89.802 204.579 Z" fill="#000000" fill-rule="nonzero" fill-opacity="1" /><path clip-path="url(#clip290)" d="M125.936 177.032 Q122.325 177.032 120.496 180.597 Q118.691 184.139 118.691 191.268 Q118.691 198.375 120.496 201.94 Q122.325 205.481 125.936 205.481 Q129.57 205.481 131.376 201.94 Q133.205 198.375 133.205 191.268 Q133.205 184.139 131.376 180.597 Q129.57 177.032 125.936 177.032 M125.936 173.329 Q131.746 173.329 134.802 177.935 Q137.88 182.519 137.88 191.268 Q137.88 199.995 134.802 204.602 Q131.746 209.185 125.936 209.185 Q120.126 209.185 117.047 204.602 Q113.992 199.995 113.992 191.268 Q113.992 182.519 117.047 177.935 Q120.126 173.329 125.936 173.329 Z" fill="#000000" fill-rule="nonzero" fill-opacity="1" /><path clip-path="url(#clip290)" d="M174.269 183.051 L163.691 193.676 L174.269 204.255 L171.515 207.055 L160.89 196.43 L150.265 207.055 L147.533 204.255 L158.089 193.676 L147.533 183.051 L150.265 180.25 L160.89 190.875 L171.515 180.25 L174.269 183.051 Z" fill="#000000" fill-rule="nonzero" fill-opacity="1" /><path clip-path="url(#clip290)" d="M186.63 204.579 L194.269 204.579 L194.269 178.213 L185.959 179.88 L185.959 175.62 L194.223 173.954 L198.899 173.954 L198.899 204.579 L206.538 204.579 L206.538 208.514 L186.63 208.514 L186.63 204.579 Z" fill="#000000" fill-rule="nonzero" fill-opacity="1" /><path clip-path="url(#clip290)" d="M225.982 177.032 Q222.371 177.032 220.542 180.597 Q218.737 184.139 218.737 191.268 Q218.737 198.375 220.542 201.94 Q222.371 205.481 225.982 205.481 Q229.616 205.481 231.422 201.94 Q233.25 198.375 233.25 191.268 Q233.25 184.139 231.422 180.597 Q229.616 177.032 225.982 177.032 M225.982 173.329 Q231.792 173.329 234.848 177.935 Q237.926 182.519 237.926 191.268 Q237.926 199.995 234.848 204.602 Q231.792 209.185 225.982 209.185 Q220.172 209.185 217.093 204.602 Q214.037 199.995 214.037 191.268 Q214.037 182.519 217.093 177.935 Q220.172 173.329 225.982 173.329 Z" fill="#000000" fill-rule="nonzero" fill-opacity="1" /><path clip-path="url(#clip290)" d="M247.556 167.769 Q244.848 167.769 243.286 169.217 Q241.744 170.665 241.744 173.204 Q241.744 175.743 243.286 177.191 Q244.848 178.64 247.556 178.64 Q250.264 178.64 251.825 177.191 Q253.386 175.724 253.386 173.204 Q253.386 170.665 251.825 169.217 Q250.283 167.769 247.556 167.769 M243.757 166.151 Q241.312 165.549 239.939 163.875 Q238.585 162.202 238.585 159.794 Q238.585 156.428 240.973 154.472 Q243.38 152.516 247.556 152.516 Q251.75 152.516 254.139 154.472 Q256.527 156.428 256.527 159.794 Q256.527 162.202 255.154 163.875 Q253.8 165.549 251.374 166.151 Q254.12 166.791 255.643 168.653 Q257.185 170.515 257.185 173.204 Q257.185 177.285 254.684 179.467 Q252.201 181.649 247.556 181.649 Q242.91 181.649 240.409 179.467 Q237.926 177.285 237.926 173.204 Q237.926 170.515 239.468 168.653 Q241.011 166.791 243.757 166.151 M242.365 160.152 Q242.365 162.333 243.719 163.556 Q245.092 164.778 247.556 164.778 Q250.001 164.778 251.374 163.556 Q252.766 162.333 252.766 160.152 Q252.766 157.97 251.374 156.747 Q250.001 155.525 247.556 155.525 Q245.092 155.525 243.719 156.747 Q242.365 157.97 242.365 160.152 Z" fill="#000000" fill-rule="nonzero" fill-opacity="1" /><path clip-path="url(#clip292)" d="M552.746 1650.16 L552.746 2223.7 L692.27 2223.7 L692.27 1650.16 L552.746 1650.16 L552.746 1650.16  Z" fill="#009af9" fill-rule="evenodd" fill-opacity="1"/>
<polyline clip-path="url(#clip292)" style="stroke:#000000; stroke-linecap:round; stroke-linejoin:round; stroke-width:4; stroke-opacity:1; fill:none" points="552.746,1650.16 552.746,2223.7 692.27,2223.7 692.27,1650.16 552.746,1650.16 "/>
<path clip-path="url(#clip292)" d="M1599.18 514.308 L1599.18 2223.7 L1738.7 2223.7 L1738.7 514.308 L1599.18 514.308 L1599.18 514.308  Z" fill="#009af9" fill-rule="evenodd" fill-opacity="1"/>
<polyline clip-path="url(#clip292)" style="stroke:#000000; stroke-linecap:round; stroke-linejoin:round; stroke-width:4; stroke-opacity:1; fill:none" points="1599.18,514.308 1599.18,2223.7 1738.7,2223.7 1738.7,514.308 1599.18,514.308 "/>
<path clip-path="url(#clip292)" d="M2645.61 1649.54 L2645.61 2223.7 L2785.14 2223.7 L2785.14 1649.54 L2645.61 1649.54 L2645.61 1649.54  Z" fill="#009af9" fill-rule="evenodd" fill-opacity="1"/>
<polyline clip-path="url(#clip292)" style="stroke:#000000; stroke-linecap:round; stroke-linejoin:round; stroke-width:4; stroke-opacity:1; fill:none" points="2645.61,1649.54 2645.61,2223.7 2785.14,2223.7 2785.14,1649.54 2645.61,1649.54 "/>
<path clip-path="url(#clip292)" d="M3692.05 482.69 L3692.05 2223.7 L3831.57 2223.7 L3831.57 482.69 L3692.05 482.69 L3692.05 482.69  Z" fill="#009af9" fill-rule="evenodd" fill-opacity="1"/>
<polyline clip-path="url(#clip292)" style="stroke:#000000; stroke-linecap:round; stroke-linejoin:round; stroke-width:4; stroke-opacity:1; fill:none" points="3692.05,482.69 3692.05,2223.7 3831.57,2223.7 3831.57,482.69 3692.05,482.69 "/>
<circle clip-path="url(#clip292)" style="fill:#009af9; stroke:none; fill-opacity:0" cx="622.508" cy="1650.16" r="2"/>
<circle clip-path="url(#clip292)" style="fill:#009af9; stroke:none; fill-opacity:0" cx="1668.94" cy="514.308" r="2"/>
<circle clip-path="url(#clip292)" style="fill:#009af9; stroke:none; fill-opacity:0" cx="2715.38" cy="1649.54" r="2"/>
<circle clip-path="url(#clip292)" style="fill:#009af9; stroke:none; fill-opacity:0" cx="3761.81" cy="482.69" r="2"/>
<path clip-path="url(#clip292)" d="M692.27 1685.2 L692.27 2223.7 L831.795 2223.7 L831.795 1685.2 L692.27 1685.2 L692.27 1685.2  Z" fill="#e26f46" fill-rule="evenodd" fill-opacity="1"/>
<polyline clip-path="url(#clip292)" style="stroke:#000000; stroke-linecap:round; stroke-linejoin:round; stroke-width:4; stroke-opacity:1; fill:none" points="692.27,1685.2 692.27,2223.7 831.795,2223.7 831.795,1685.2 692.27,1685.2 "/>
<path clip-path="url(#clip292)" d="M1738.7 688.724 L1738.7 2223.7 L1878.23 2223.7 L1878.23 688.724 L1738.7 688.724 L1738.7 688.724  Z" fill="#e26f46" fill-rule="evenodd" fill-opacity="1"/>
<polyline clip-path="url(#clip292)" style="stroke:#000000; stroke-linecap:round; stroke-linejoin:round; stroke-width:4; stroke-opacity:1; fill:none" points="1738.7,688.724 1738.7,2223.7 1878.23,2223.7 1878.23,688.724 1738.7,688.724 "/>
<path clip-path="url(#clip292)" d="M2785.14 1674.4 L2785.14 2223.7 L2924.66 2223.7 L2924.66 1674.4 L2785.14 1674.4 L2785.14 1674.4  Z" fill="#e26f46" fill-rule="evenodd" fill-opacity="1"/>
<polyline clip-path="url(#clip292)" style="stroke:#000000; stroke-linecap:round; stroke-linejoin:round; stroke-width:4; stroke-opacity:1; fill:none" points="2785.14,1674.4 2785.14,2223.7 2924.66,2223.7 2924.66,1674.4 2785.14,1674.4 "/>
<path clip-path="url(#clip292)" d="M3831.57 730.131 L3831.57 2223.7 L3971.1 2223.7 L3971.1 730.131 L3831.57 730.131 L3831.57 730.131  Z" fill="#e26f46" fill-rule="evenodd" fill-opacity="1"/>
<polyline clip-path="url(#clip292)" style="stroke:#000000; stroke-linecap:round; stroke-linejoin:round; stroke-width:4; stroke-opacity:1; fill:none" points="3831.57,730.131 3831.57,2223.7 3971.1,2223.7 3971.1,730.131 3831.57,730.131 "/>
<circle clip-path="url(#clip292)" style="fill:#e26f46; stroke:none; fill-opacity:0" cx="762.032" cy="1685.2" r="2"/>
<circle clip-path="url(#clip292)" style="fill:#e26f46; stroke:none; fill-opacity:0" cx="1808.47" cy="688.724" r="2"/>
<circle clip-path="url(#clip292)" style="fill:#e26f46; stroke:none; fill-opacity:0" cx="2854.9" cy="1674.4" r="2"/>
<circle clip-path="url(#clip292)" style="fill:#e26f46; stroke:none; fill-opacity:0" cx="3901.34" cy="730.131" r="2"/>
<path clip-path="url(#clip292)" d="M831.795 1194.02 L831.795 2223.7 L971.319 2223.7 L971.319 1194.02 L831.795 1194.02 L831.795 1194.02  Z" fill="#3da44d" fill-rule="evenodd" fill-opacity="1"/>
<polyline clip-path="url(#clip292)" style="stroke:#000000; stroke-linecap:round; stroke-linejoin:round; stroke-width:4; stroke-opacity:1; fill:none" points="831.795,1194.02 831.795,2223.7 971.319,2223.7 971.319,1194.02 831.795,1194.02 "/>
<path clip-path="url(#clip292)" d="M1878.23 1178.1 L1878.23 2223.7 L2017.75 2223.7 L2017.75 1178.1 L1878.23 1178.1 L1878.23 1178.1  Z" fill="#3da44d" fill-rule="evenodd" fill-opacity="1"/>
<polyline clip-path="url(#clip292)" style="stroke:#000000; stroke-linecap:round; stroke-linejoin:round; stroke-width:4; stroke-opacity:1; fill:none" points="1878.23,1178.1 1878.23,2223.7 2017.75,2223.7 2017.75,1178.1 1878.23,1178.1 "/>
<path clip-path="url(#clip292)" d="M2924.66 1187.43 L2924.66 2223.7 L3064.19 2223.7 L3064.19 1187.43 L2924.66 1187.43 L2924.66 1187.43  Z" fill="#3da44d" fill-rule="evenodd" fill-opacity="1"/>
<polyline clip-path="url(#clip292)" style="stroke:#000000; stroke-linecap:round; stroke-linejoin:round; stroke-width:4; stroke-opacity:1; fill:none" points="2924.66,1187.43 2924.66,2223.7 3064.19,2223.7 3064.19,1187.43 2924.66,1187.43 "/>
<path clip-path="url(#clip292)" d="M3971.1 1181.2 L3971.1 2223.7 L4110.62 2223.7 L4110.62 1181.2 L3971.1 1181.2 L3971.1 1181.2  Z" fill="#3da44d" fill-rule="evenodd" fill-opacity="1"/>
<polyline clip-path="url(#clip292)" style="stroke:#000000; stroke-linecap:round; stroke-linejoin:round; stroke-width:4; stroke-opacity:1; fill:none" points="3971.1,1181.2 3971.1,2223.7 4110.62,2223.7 4110.62,1181.2 3971.1,1181.2 "/>
<circle clip-path="url(#clip292)" style="fill:#3da44d; stroke:none; fill-opacity:0" cx="901.557" cy="1194.02" r="2"/>
<circle clip-path="url(#clip292)" style="fill:#3da44d; stroke:none; fill-opacity:0" cx="1947.99" cy="1178.1" r="2"/>
<circle clip-path="url(#clip292)" style="fill:#3da44d; stroke:none; fill-opacity:0" cx="2994.43" cy="1187.43" r="2"/>
<circle clip-path="url(#clip292)" style="fill:#3da44d; stroke:none; fill-opacity:0" cx="4040.86" cy="1181.2" r="2"/>
<path clip-path="url(#clip292)" d="M971.319 1218.15 L971.319 2223.7 L1110.84 2223.7 L1110.84 1218.15 L971.319 1218.15 L971.319 1218.15  Z" fill="#c271d2" fill-rule="evenodd" fill-opacity="1"/>
<polyline clip-path="url(#clip292)" style="stroke:#000000; stroke-linecap:round; stroke-linejoin:round; stroke-width:4; stroke-opacity:1; fill:none" points="971.319,1218.15 971.319,2223.7 1110.84,2223.7 1110.84,1218.15 971.319,1218.15 "/>
<path clip-path="url(#clip292)" d="M2017.75 1201.69 L2017.75 2223.7 L2157.28 2223.7 L2157.28 1201.69 L2017.75 1201.69 L2017.75 1201.69  Z" fill="#c271d2" fill-rule="evenodd" fill-opacity="1"/>
<polyline clip-path="url(#clip292)" style="stroke:#000000; stroke-linecap:round; stroke-linejoin:round; stroke-width:4; stroke-opacity:1; fill:none" points="2017.75,1201.69 2017.75,2223.7 2157.28,2223.7 2157.28,1201.69 2017.75,1201.69 "/>
<path clip-path="url(#clip292)" d="M3064.19 1228.38 L3064.19 2223.7 L3203.71 2223.7 L3203.71 1228.38 L3064.19 1228.38 L3064.19 1228.38  Z" fill="#c271d2" fill-rule="evenodd" fill-opacity="1"/>
<polyline clip-path="url(#clip292)" style="stroke:#000000; stroke-linecap:round; stroke-linejoin:round; stroke-width:4; stroke-opacity:1; fill:none" points="3064.19,1228.38 3064.19,2223.7 3203.71,2223.7 3203.71,1228.38 3064.19,1228.38 "/>
<path clip-path="url(#clip292)" d="M4110.62 1202.86 L4110.62 2223.7 L4250.15 2223.7 L4250.15 1202.86 L4110.62 1202.86 L4110.62 1202.86  Z" fill="#c271d2" fill-rule="evenodd" fill-opacity="1"/>
<polyline clip-path="url(#clip292)" style="stroke:#000000; stroke-linecap:round; stroke-linejoin:round; stroke-width:4; stroke-opacity:1; fill:none" points="4110.62,1202.86 4110.62,2223.7 4250.15,2223.7 4250.15,1202.86 4110.62,1202.86 "/>
<circle clip-path="url(#clip292)" style="fill:#c271d2; stroke:none; fill-opacity:0" cx="1041.08" cy="1218.15" r="2"/>
<circle clip-path="url(#clip292)" style="fill:#c271d2; stroke:none; fill-opacity:0" cx="2087.52" cy="1201.69" r="2"/>
<circle clip-path="url(#clip292)" style="fill:#c271d2; stroke:none; fill-opacity:0" cx="3133.95" cy="1228.38" r="2"/>
<circle clip-path="url(#clip292)" style="fill:#c271d2; stroke:none; fill-opacity:0" cx="4180.38" cy="1202.86" r="2"/>
<path clip-path="url(#clip292)" d="M1110.84 2191.94 L1110.84 2223.7 L1250.37 2223.7 L1250.37 2191.94 L1110.84 2191.94 L1110.84 2191.94  Z" fill="#ac8d18" fill-rule="evenodd" fill-opacity="1"/>
<polyline clip-path="url(#clip292)" style="stroke:#000000; stroke-linecap:round; stroke-linejoin:round; stroke-width:4; stroke-opacity:1; fill:none" points="1110.84,2191.94 1110.84,2223.7 1250.37,2223.7 1250.37,2191.94 1110.84,2191.94 "/>
<path clip-path="url(#clip292)" d="M2157.28 110.636 L2157.28 2223.7 L2296.8 2223.7 L2296.8 110.636 L2157.28 110.636 L2157.28 110.636  Z" fill="#ac8d18" fill-rule="evenodd" fill-opacity="1"/>
<polyline clip-path="url(#clip292)" style="stroke:#000000; stroke-linecap:round; stroke-linejoin:round; stroke-width:4; stroke-opacity:1; fill:none" points="2157.28,110.636 2157.28,2223.7 2296.8,2223.7 2296.8,110.636 2157.28,110.636 "/>
<path clip-path="url(#clip292)" d="M3203.71 2206.98 L3203.71 2223.7 L3343.24 2223.7 L3343.24 2206.98 L3203.71 2206.98 L3203.71 2206.98  Z" fill="#ac8d18" fill-rule="evenodd" fill-opacity="1"/>
<polyline clip-path="url(#clip292)" style="stroke:#000000; stroke-linecap:round; stroke-linejoin:round; stroke-width:4; stroke-opacity:1; fill:none" points="3203.71,2206.98 3203.71,2223.7 3343.24,2223.7 3343.24,2206.98 3203.71,2206.98 "/>
<path clip-path="url(#clip292)" d="M4250.15 187.2 L4250.15 2223.7 L4389.67 2223.7 L4389.67 187.2 L4250.15 187.2 L4250.15 187.2  Z" fill="#ac8d18" fill-rule="evenodd" fill-opacity="1"/>
<polyline clip-path="url(#clip292)" style="stroke:#000000; stroke-linecap:round; stroke-linejoin:round; stroke-width:4; stroke-opacity:1; fill:none" points="4250.15,187.2 4250.15,2223.7 4389.67,2223.7 4389.67,187.2 4250.15,187.2 "/>
<circle clip-path="url(#clip292)" style="fill:#ac8d18; stroke:none; fill-opacity:0" cx="1180.61" cy="2191.94" r="2"/>
<circle clip-path="url(#clip292)" style="fill:#ac8d18; stroke:none; fill-opacity:0" cx="2227.04" cy="110.636" r="2"/>
<circle clip-path="url(#clip292)" style="fill:#ac8d18; stroke:none; fill-opacity:0" cx="3273.47" cy="2206.98" r="2"/>
<circle clip-path="url(#clip292)" style="fill:#ac8d18; stroke:none; fill-opacity:0" cx="4319.91" cy="187.2" r="2"/>
<path clip-path="url(#clip292)" d="M1250.37 1619.95 L1250.37 2223.7 L1389.89 2223.7 L1389.89 1619.95 L1250.37 1619.95 L1250.37 1619.95  Z" fill="#00a9ad" fill-rule="evenodd" fill-opacity="1"/>
<polyline clip-path="url(#clip292)" style="stroke:#000000; stroke-linecap:round; stroke-linejoin:round; stroke-width:4; stroke-opacity:1; fill:none" points="1250.37,1619.95 1250.37,2223.7 1389.89,2223.7 1389.89,1619.95 1250.37,1619.95 "/>
<path clip-path="url(#clip292)" d="M2296.8 465.98 L2296.8 2223.7 L2436.33 2223.7 L2436.33 465.98 L2296.8 465.98 L2296.8 465.98  Z" fill="#00a9ad" fill-rule="evenodd" fill-opacity="1"/>
<polyline clip-path="url(#clip292)" style="stroke:#000000; stroke-linecap:round; stroke-linejoin:round; stroke-width:4; stroke-opacity:1; fill:none" points="2296.8,465.98 2296.8,2223.7 2436.33,2223.7 2436.33,465.98 2296.8,465.98 "/>
<path clip-path="url(#clip292)" d="M3343.24 1634.95 L3343.24 2223.7 L3482.76 2223.7 L3482.76 1634.95 L3343.24 1634.95 L3343.24 1634.95  Z" fill="#00a9ad" fill-rule="evenodd" fill-opacity="1"/>
<polyline clip-path="url(#clip292)" style="stroke:#000000; stroke-linecap:round; stroke-linejoin:round; stroke-width:4; stroke-opacity:1; fill:none" points="3343.24,1634.95 3343.24,2223.7 3482.76,2223.7 3482.76,1634.95 3343.24,1634.95 "/>
<path clip-path="url(#clip292)" d="M4389.67 413.276 L4389.67 2223.7 L4529.2 2223.7 L4529.2 413.276 L4389.67 413.276 L4389.67 413.276  Z" fill="#00a9ad" fill-rule="evenodd" fill-opacity="1"/>
<polyline clip-path="url(#clip292)" style="stroke:#000000; stroke-linecap:round; stroke-linejoin:round; stroke-width:4; stroke-opacity:1; fill:none" points="4389.67,413.276 4389.67,2223.7 4529.2,2223.7 4529.2,413.276 4389.67,413.276 "/>
<circle clip-path="url(#clip292)" style="fill:#00a9ad; stroke:none; fill-opacity:0" cx="1320.13" cy="1619.95" r="2"/>
<circle clip-path="url(#clip292)" style="fill:#00a9ad; stroke:none; fill-opacity:0" cx="2366.56" cy="465.98" r="2"/>
<circle clip-path="url(#clip292)" style="fill:#00a9ad; stroke:none; fill-opacity:0" cx="3413" cy="1634.95" r="2"/>
<circle clip-path="url(#clip292)" style="fill:#00a9ad; stroke:none; fill-opacity:0" cx="4459.43" cy="413.276" r="2"/>
<path clip-path="url(#clip290)" d="M476.638 484.786 L1864.34 484.786 L1864.34 121.906 L476.638 121.906  Z" fill="#ffffff" fill-rule="evenodd" fill-opacity="1"/>
<polyline clip-path="url(#clip290)" style="stroke:#000000; stroke-linecap:round; stroke-linejoin:round; stroke-width:4; stroke-opacity:1; fill:none" points="476.638,484.786 1864.34,484.786 1864.34,121.906 476.638,121.906 476.638,484.786 "/>
<path clip-path="url(#clip290)" d="M525.789 194.482 L820.693 194.482 L820.693 153.01 L525.789 153.01 L525.789 194.482  Z" fill="#009af9" fill-rule="evenodd" fill-opacity="1"/>
<polyline clip-path="url(#clip290)" style="stroke:#000000; stroke-linecap:round; stroke-linejoin:round; stroke-width:4; stroke-opacity:1; fill:none" points="525.789,194.482 820.693,194.482 820.693,153.01 525.789,153.01 525.789,194.482 "/>
<path clip-path="url(#clip290)" d="M897.714 159.128 L897.714 164.058 Q895.353 161.859 892.668 160.771 Q890.006 159.683 886.997 159.683 Q881.071 159.683 877.923 163.317 Q874.775 166.928 874.775 173.78 Q874.775 180.609 877.923 184.243 Q881.071 187.854 886.997 187.854 Q890.006 187.854 892.668 186.766 Q895.353 185.678 897.714 183.479 L897.714 188.364 Q895.261 190.03 892.506 190.864 Q889.774 191.697 886.719 191.697 Q878.872 191.697 874.358 186.905 Q869.844 182.09 869.844 173.78 Q869.844 165.447 874.358 160.655 Q878.872 155.841 886.719 155.841 Q889.821 155.841 892.552 156.674 Q895.307 157.484 897.714 159.128 Z" fill="#000000" fill-rule="nonzero" fill-opacity="1" /><path clip-path="url(#clip290)" d="M930.816 159.128 L930.816 164.058 Q928.455 161.859 925.77 160.771 Q923.108 159.683 920.098 159.683 Q914.172 159.683 911.024 163.317 Q907.876 166.928 907.876 173.78 Q907.876 180.609 911.024 184.243 Q914.172 187.854 920.098 187.854 Q923.108 187.854 925.77 186.766 Q928.455 185.678 930.816 183.479 L930.816 188.364 Q928.362 190.03 925.608 190.864 Q922.876 191.697 919.821 191.697 Q911.973 191.697 907.46 186.905 Q902.946 182.09 902.946 173.78 Q902.946 165.447 907.46 160.655 Q911.973 155.841 919.821 155.841 Q922.922 155.841 925.654 156.674 Q928.409 157.484 930.816 159.128 Z" fill="#000000" fill-rule="nonzero" fill-opacity="1" /><path clip-path="url(#clip290)" d="M958.756 157.6 L958.756 162.16 Q956.094 160.887 953.732 160.262 Q951.371 159.637 949.172 159.637 Q945.353 159.637 943.27 161.118 Q941.209 162.6 941.209 165.331 Q941.209 167.623 942.575 168.803 Q943.964 169.961 947.807 170.678 L950.631 171.257 Q955.862 172.253 958.339 174.776 Q960.839 177.276 960.839 181.489 Q960.839 186.512 957.459 189.104 Q954.103 191.697 947.598 191.697 Q945.145 191.697 942.367 191.141 Q939.612 190.586 936.649 189.498 L936.649 184.683 Q939.496 186.28 942.228 187.09 Q944.959 187.901 947.598 187.901 Q951.603 187.901 953.779 186.327 Q955.955 184.752 955.955 181.836 Q955.955 179.29 954.381 177.854 Q952.83 176.419 949.265 175.702 L946.418 175.146 Q941.186 174.104 938.848 171.882 Q936.51 169.66 936.51 165.702 Q936.51 161.118 939.728 158.479 Q942.969 155.841 948.64 155.841 Q951.07 155.841 953.594 156.28 Q956.117 156.72 958.756 157.6 Z" fill="#000000" fill-rule="nonzero" fill-opacity="1" /><path clip-path="url(#clip290)" d="M978.732 193.433 Q976.927 198.063 975.214 199.475 Q973.501 200.887 970.631 200.887 L967.228 200.887 L967.228 197.322 L969.728 197.322 Q971.487 197.322 972.459 196.488 Q973.431 195.655 974.612 192.553 L975.376 190.609 L964.89 165.1 L969.404 165.1 L977.505 185.377 L985.607 165.1 L990.121 165.1 L978.732 193.433 Z" fill="#000000" fill-rule="nonzero" fill-opacity="1" /><path clip-path="url(#clip290)" d="M1017.55 175.377 L1017.55 191.026 L1013.29 191.026 L1013.29 175.516 Q1013.29 171.836 1011.86 170.007 Q1010.42 168.178 1007.55 168.178 Q1004.1 168.178 1002.11 170.378 Q1000.12 172.577 1000.12 176.373 L1000.12 191.026 L995.839 191.026 L995.839 165.1 L1000.12 165.1 L1000.12 169.128 Q1001.65 166.79 1003.71 165.632 Q1005.79 164.475 1008.5 164.475 Q1012.97 164.475 1015.26 167.253 Q1017.55 170.007 1017.55 175.377 Z" fill="#000000" fill-rule="nonzero" fill-opacity="1" /><path clip-path="url(#clip290)" d="M1044.7 166.095 L1044.7 170.077 Q1042.9 169.081 1041.07 168.595 Q1039.26 168.086 1037.41 168.086 Q1033.27 168.086 1030.98 170.725 Q1028.69 173.34 1028.69 178.086 Q1028.69 182.831 1030.98 185.47 Q1033.27 188.086 1037.41 188.086 Q1039.26 188.086 1041.07 187.6 Q1042.9 187.09 1044.7 186.095 L1044.7 190.03 Q1042.92 190.864 1041 191.28 Q1039.1 191.697 1036.95 191.697 Q1031.09 191.697 1027.64 188.016 Q1024.2 184.336 1024.2 178.086 Q1024.2 171.743 1027.67 168.109 Q1031.16 164.475 1037.23 164.475 Q1039.19 164.475 1041.07 164.891 Q1042.94 165.285 1044.7 166.095 Z" fill="#000000" fill-rule="nonzero" fill-opacity="1" /><path clip-path="url(#clip290)" d="M1073.66 175.377 L1073.66 191.026 L1069.4 191.026 L1069.4 175.516 Q1069.4 171.836 1067.97 170.007 Q1066.53 168.178 1063.66 168.178 Q1060.21 168.178 1058.22 170.378 Q1056.23 172.577 1056.23 176.373 L1056.23 191.026 L1051.95 191.026 L1051.95 155.007 L1056.23 155.007 L1056.23 169.128 Q1057.76 166.79 1059.82 165.632 Q1061.9 164.475 1064.61 164.475 Q1069.08 164.475 1071.37 167.253 Q1073.66 170.007 1073.66 175.377 Z" fill="#000000" fill-rule="nonzero" fill-opacity="1" /><path clip-path="url(#clip290)" d="M525.789 246.322 L820.693 246.322 L820.693 204.85 L525.789 204.85 L525.789 246.322  Z" fill="#e26f46" fill-rule="evenodd" fill-opacity="1"/>
<polyline clip-path="url(#clip290)" style="stroke:#000000; stroke-linecap:round; stroke-linejoin:round; stroke-width:4; stroke-opacity:1; fill:none" points="525.789,246.322 820.693,246.322 820.693,204.85 525.789,204.85 525.789,246.322 "/>
<path clip-path="url(#clip290)" d="M869.844 208.306 L889.705 208.306 L889.705 212.241 L874.52 212.241 L874.52 222.426 L888.224 222.426 L888.224 226.361 L874.52 226.361 L874.52 242.866 L869.844 242.866 L869.844 208.306 Z" fill="#000000" fill-rule="nonzero" fill-opacity="1" /><path clip-path="url(#clip290)" d="M896.927 206.847 L901.186 206.847 L901.186 242.866 L896.927 242.866 L896.927 206.847 Z" fill="#000000" fill-rule="nonzero" fill-opacity="1" /><path clip-path="url(#clip290)" d="M921.881 229.833 Q916.719 229.833 914.728 231.014 Q912.737 232.194 912.737 235.042 Q912.737 237.31 914.219 238.653 Q915.723 239.972 918.293 239.972 Q921.834 239.972 923.964 237.472 Q926.117 234.949 926.117 230.782 L926.117 229.833 L921.881 229.833 M930.376 228.074 L930.376 242.866 L926.117 242.866 L926.117 238.93 Q924.659 241.291 922.483 242.426 Q920.307 243.537 917.159 243.537 Q913.177 243.537 910.816 241.315 Q908.478 239.069 908.478 235.319 Q908.478 230.944 911.395 228.722 Q914.335 226.5 920.145 226.5 L926.117 226.5 L926.117 226.083 Q926.117 223.143 924.172 221.546 Q922.251 219.926 918.756 219.926 Q916.534 219.926 914.427 220.458 Q912.321 220.991 910.376 222.055 L910.376 218.12 Q912.714 217.218 914.913 216.778 Q917.112 216.315 919.196 216.315 Q924.821 216.315 927.598 219.231 Q930.376 222.148 930.376 228.074 Z" fill="#000000" fill-rule="nonzero" fill-opacity="1" /><path clip-path="url(#clip290)" d="M943.362 209.579 L943.362 216.94 L952.135 216.94 L952.135 220.25 L943.362 220.25 L943.362 234.324 Q943.362 237.495 944.219 238.398 Q945.098 239.301 947.76 239.301 L952.135 239.301 L952.135 242.866 L947.76 242.866 Q942.83 242.866 940.955 241.037 Q939.08 239.185 939.08 234.324 L939.08 220.25 L935.955 220.25 L935.955 216.94 L939.08 216.94 L939.08 209.579 L943.362 209.579 Z" fill="#000000" fill-rule="nonzero" fill-opacity="1" /><path clip-path="url(#clip290)" d="M998.871 210.968 L998.871 215.898 Q996.51 213.699 993.825 212.611 Q991.163 211.523 988.154 211.523 Q982.228 211.523 979.08 215.157 Q975.931 218.768 975.931 225.62 Q975.931 232.449 979.08 236.083 Q982.228 239.694 988.154 239.694 Q991.163 239.694 993.825 238.606 Q996.51 237.518 998.871 235.319 L998.871 240.204 Q996.417 241.87 993.663 242.704 Q990.931 243.537 987.876 243.537 Q980.029 243.537 975.515 238.745 Q971.001 233.93 971.001 225.62 Q971.001 217.287 975.515 212.495 Q980.029 207.681 987.876 207.681 Q990.978 207.681 993.709 208.514 Q996.464 209.324 998.871 210.968 Z" fill="#000000" fill-rule="nonzero" fill-opacity="1" /><path clip-path="url(#clip290)" d="M1015.95 219.926 Q1012.53 219.926 1010.54 222.611 Q1008.55 225.273 1008.55 229.926 Q1008.55 234.579 1010.51 237.264 Q1012.51 239.926 1015.95 239.926 Q1019.36 239.926 1021.35 237.241 Q1023.34 234.555 1023.34 229.926 Q1023.34 225.319 1021.35 222.634 Q1019.36 219.926 1015.95 219.926 M1015.95 216.315 Q1021.51 216.315 1024.68 219.926 Q1027.85 223.537 1027.85 229.926 Q1027.85 236.292 1024.68 239.926 Q1021.51 243.537 1015.95 243.537 Q1010.38 243.537 1007.2 239.926 Q1004.06 236.292 1004.06 229.926 Q1004.06 223.537 1007.2 219.926 Q1010.38 216.315 1015.95 216.315 Z" fill="#000000" fill-rule="nonzero" fill-opacity="1" /><path clip-path="url(#clip290)" d="M1055.1 221.917 Q1056.69 219.046 1058.92 217.681 Q1061.14 216.315 1064.15 216.315 Q1068.2 216.315 1070.4 219.162 Q1072.6 221.986 1072.6 227.217 L1072.6 242.866 L1068.32 242.866 L1068.32 227.356 Q1068.32 223.63 1067 221.824 Q1065.68 220.018 1062.97 220.018 Q1059.66 220.018 1057.74 222.218 Q1055.82 224.417 1055.82 228.213 L1055.82 242.866 L1051.53 242.866 L1051.53 227.356 Q1051.53 223.606 1050.21 221.824 Q1048.89 220.018 1046.14 220.018 Q1042.88 220.018 1040.95 222.241 Q1039.03 224.44 1039.03 228.213 L1039.03 242.866 L1034.75 242.866 L1034.75 216.94 L1039.03 216.94 L1039.03 220.968 Q1040.49 218.583 1042.53 217.449 Q1044.57 216.315 1047.37 216.315 Q1050.19 216.315 1052.16 217.75 Q1054.15 219.185 1055.1 221.917 Z" fill="#000000" fill-rule="nonzero" fill-opacity="1" /><path clip-path="url(#clip290)" d="M1099.7 229.926 Q1099.7 225.227 1097.76 222.565 Q1095.84 219.88 1092.46 219.88 Q1089.08 219.88 1087.13 222.565 Q1085.21 225.227 1085.21 229.926 Q1085.21 234.625 1087.13 237.31 Q1089.08 239.972 1092.46 239.972 Q1095.84 239.972 1097.76 237.31 Q1099.7 234.625 1099.7 229.926 M1085.21 220.875 Q1086.56 218.56 1088.59 217.449 Q1090.65 216.315 1093.5 216.315 Q1098.22 216.315 1101.16 220.065 Q1104.13 223.815 1104.13 229.926 Q1104.13 236.037 1101.16 239.787 Q1098.22 243.537 1093.5 243.537 Q1090.65 243.537 1088.59 242.426 Q1086.56 241.291 1085.21 238.977 L1085.21 242.866 L1080.93 242.866 L1080.93 206.847 L1085.21 206.847 L1085.21 220.875 Z" fill="#000000" fill-rule="nonzero" fill-opacity="1" /><path clip-path="url(#clip290)" d="M1111.19 216.94 L1115.44 216.94 L1115.44 242.866 L1111.19 242.866 L1111.19 216.94 M1111.19 206.847 L1115.44 206.847 L1115.44 212.241 L1111.19 212.241 L1111.19 206.847 Z" fill="#000000" fill-rule="nonzero" fill-opacity="1" /><path clip-path="url(#clip290)" d="M1145.91 227.217 L1145.91 242.866 L1141.65 242.866 L1141.65 227.356 Q1141.65 223.676 1140.21 221.847 Q1138.78 220.018 1135.91 220.018 Q1132.46 220.018 1130.47 222.218 Q1128.48 224.417 1128.48 228.213 L1128.48 242.866 L1124.19 242.866 L1124.19 216.94 L1128.48 216.94 L1128.48 220.968 Q1130 218.63 1132.06 217.472 Q1134.15 216.315 1136.86 216.315 Q1141.32 216.315 1143.62 219.093 Q1145.91 221.847 1145.91 227.217 Z" fill="#000000" fill-rule="nonzero" fill-opacity="1" /><path clip-path="url(#clip290)" d="M1154.4 216.94 L1158.66 216.94 L1158.66 242.866 L1154.4 242.866 L1154.4 216.94 M1154.4 206.847 L1158.66 206.847 L1158.66 212.241 L1154.4 212.241 L1154.4 206.847 Z" fill="#000000" fill-rule="nonzero" fill-opacity="1" /><path clip-path="url(#clip290)" d="M1189.12 227.217 L1189.12 242.866 L1184.87 242.866 L1184.87 227.356 Q1184.87 223.676 1183.43 221.847 Q1182 220.018 1179.12 220.018 Q1175.68 220.018 1173.68 222.218 Q1171.69 224.417 1171.69 228.213 L1171.69 242.866 L1167.41 242.866 L1167.41 216.94 L1171.69 216.94 L1171.69 220.968 Q1173.22 218.63 1175.28 217.472 Q1177.37 216.315 1180.07 216.315 Q1184.54 216.315 1186.83 219.093 Q1189.12 221.847 1189.12 227.217 Z" fill="#000000" fill-rule="nonzero" fill-opacity="1" /><path clip-path="url(#clip290)" d="M1214.68 229.602 Q1214.68 224.972 1212.76 222.426 Q1210.86 219.88 1207.41 219.88 Q1203.99 219.88 1202.06 222.426 Q1200.17 224.972 1200.17 229.602 Q1200.17 234.208 1202.06 236.754 Q1203.99 239.301 1207.41 239.301 Q1210.86 239.301 1212.76 236.754 Q1214.68 234.208 1214.68 229.602 M1218.94 239.648 Q1218.94 246.268 1216 249.486 Q1213.06 252.727 1206.99 252.727 Q1204.75 252.727 1202.76 252.379 Q1200.77 252.055 1198.89 251.361 L1198.89 247.217 Q1200.77 248.236 1202.6 248.722 Q1204.43 249.208 1206.32 249.208 Q1210.51 249.208 1212.6 247.009 Q1214.68 244.833 1214.68 240.412 L1214.68 238.305 Q1213.36 240.597 1211.3 241.731 Q1209.24 242.866 1206.37 242.866 Q1201.6 242.866 1198.68 239.231 Q1195.77 235.597 1195.77 229.602 Q1195.77 223.583 1198.68 219.949 Q1201.6 216.315 1206.37 216.315 Q1209.24 216.315 1211.3 217.449 Q1213.36 218.583 1214.68 220.875 L1214.68 216.94 L1218.94 216.94 L1218.94 239.648 Z" fill="#000000" fill-rule="nonzero" fill-opacity="1" /><path clip-path="url(#clip290)" d="M525.789 298.162 L820.693 298.162 L820.693 256.69 L525.789 256.69 L525.789 298.162  Z" fill="#3da44d" fill-rule="evenodd" fill-opacity="1"/>
<polyline clip-path="url(#clip290)" style="stroke:#000000; stroke-linecap:round; stroke-linejoin:round; stroke-width:4; stroke-opacity:1; fill:none" points="525.789,298.162 820.693,298.162 820.693,256.69 525.789,256.69 525.789,298.162 "/>
<path clip-path="url(#clip290)" d="M869.844 260.146 L889.705 260.146 L889.705 264.081 L874.52 264.081 L874.52 274.266 L888.224 274.266 L888.224 278.201 L874.52 278.201 L874.52 294.706 L869.844 294.706 L869.844 260.146 Z" fill="#000000" fill-rule="nonzero" fill-opacity="1" /><path clip-path="url(#clip290)" d="M896.927 258.687 L901.186 258.687 L901.186 294.706 L896.927 294.706 L896.927 258.687 Z" fill="#000000" fill-rule="nonzero" fill-opacity="1" /><path clip-path="url(#clip290)" d="M921.881 281.673 Q916.719 281.673 914.728 282.854 Q912.737 284.034 912.737 286.882 Q912.737 289.15 914.219 290.493 Q915.723 291.812 918.293 291.812 Q921.834 291.812 923.964 289.312 Q926.117 286.789 926.117 282.622 L926.117 281.673 L921.881 281.673 M930.376 279.914 L930.376 294.706 L926.117 294.706 L926.117 290.77 Q924.659 293.131 922.483 294.266 Q920.307 295.377 917.159 295.377 Q913.177 295.377 910.816 293.155 Q908.478 290.909 908.478 287.159 Q908.478 282.784 911.395 280.562 Q914.335 278.34 920.145 278.34 L926.117 278.34 L926.117 277.923 Q926.117 274.983 924.172 273.386 Q922.251 271.766 918.756 271.766 Q916.534 271.766 914.427 272.298 Q912.321 272.831 910.376 273.895 L910.376 269.96 Q912.714 269.058 914.913 268.618 Q917.112 268.155 919.196 268.155 Q924.821 268.155 927.598 271.071 Q930.376 273.988 930.376 279.914 Z" fill="#000000" fill-rule="nonzero" fill-opacity="1" /><path clip-path="url(#clip290)" d="M943.362 261.419 L943.362 268.78 L952.135 268.78 L952.135 272.09 L943.362 272.09 L943.362 286.164 Q943.362 289.335 944.219 290.238 Q945.098 291.141 947.76 291.141 L952.135 291.141 L952.135 294.706 L947.76 294.706 Q942.83 294.706 940.955 292.877 Q939.08 291.025 939.08 286.164 L939.08 272.09 L935.955 272.09 L935.955 268.78 L939.08 268.78 L939.08 261.419 L943.362 261.419 Z" fill="#000000" fill-rule="nonzero" fill-opacity="1" /><path clip-path="url(#clip290)" d="M998.871 262.808 L998.871 267.738 Q996.51 265.539 993.825 264.451 Q991.163 263.363 988.154 263.363 Q982.228 263.363 979.08 266.997 Q975.931 270.608 975.931 277.46 Q975.931 284.289 979.08 287.923 Q982.228 291.534 988.154 291.534 Q991.163 291.534 993.825 290.446 Q996.51 289.358 998.871 287.159 L998.871 292.044 Q996.417 293.71 993.663 294.544 Q990.931 295.377 987.876 295.377 Q980.029 295.377 975.515 290.585 Q971.001 285.77 971.001 277.46 Q971.001 269.127 975.515 264.335 Q980.029 259.521 987.876 259.521 Q990.978 259.521 993.709 260.354 Q996.464 261.164 998.871 262.808 Z" fill="#000000" fill-rule="nonzero" fill-opacity="1" /><path clip-path="url(#clip290)" d="M1015.95 271.766 Q1012.53 271.766 1010.54 274.451 Q1008.55 277.113 1008.55 281.766 Q1008.55 286.419 1010.51 289.104 Q1012.51 291.766 1015.95 291.766 Q1019.36 291.766 1021.35 289.081 Q1023.34 286.395 1023.34 281.766 Q1023.34 277.159 1021.35 274.474 Q1019.36 271.766 1015.95 271.766 M1015.95 268.155 Q1021.51 268.155 1024.68 271.766 Q1027.85 275.377 1027.85 281.766 Q1027.85 288.132 1024.68 291.766 Q1021.51 295.377 1015.95 295.377 Q1010.38 295.377 1007.2 291.766 Q1004.06 288.132 1004.06 281.766 Q1004.06 275.377 1007.2 271.766 Q1010.38 268.155 1015.95 268.155 Z" fill="#000000" fill-rule="nonzero" fill-opacity="1" /><path clip-path="url(#clip290)" d="M1055.1 273.757 Q1056.69 270.886 1058.92 269.521 Q1061.14 268.155 1064.15 268.155 Q1068.2 268.155 1070.4 271.002 Q1072.6 273.826 1072.6 279.057 L1072.6 294.706 L1068.32 294.706 L1068.32 279.196 Q1068.32 275.47 1067 273.664 Q1065.68 271.858 1062.97 271.858 Q1059.66 271.858 1057.74 274.058 Q1055.82 276.257 1055.82 280.053 L1055.82 294.706 L1051.53 294.706 L1051.53 279.196 Q1051.53 275.446 1050.21 273.664 Q1048.89 271.858 1046.14 271.858 Q1042.88 271.858 1040.95 274.081 Q1039.03 276.28 1039.03 280.053 L1039.03 294.706 L1034.75 294.706 L1034.75 268.78 L1039.03 268.78 L1039.03 272.808 Q1040.49 270.423 1042.53 269.289 Q1044.57 268.155 1047.37 268.155 Q1050.19 268.155 1052.16 269.59 Q1054.15 271.025 1055.1 273.757 Z" fill="#000000" fill-rule="nonzero" fill-opacity="1" /><path clip-path="url(#clip290)" d="M1099.7 281.766 Q1099.7 277.067 1097.76 274.405 Q1095.84 271.72 1092.46 271.72 Q1089.08 271.72 1087.13 274.405 Q1085.21 277.067 1085.21 281.766 Q1085.21 286.465 1087.13 289.15 Q1089.08 291.812 1092.46 291.812 Q1095.84 291.812 1097.76 289.15 Q1099.7 286.465 1099.7 281.766 M1085.21 272.715 Q1086.56 270.4 1088.59 269.289 Q1090.65 268.155 1093.5 268.155 Q1098.22 268.155 1101.16 271.905 Q1104.13 275.655 1104.13 281.766 Q1104.13 287.877 1101.16 291.627 Q1098.22 295.377 1093.5 295.377 Q1090.65 295.377 1088.59 294.266 Q1086.56 293.131 1085.21 290.817 L1085.21 294.706 L1080.93 294.706 L1080.93 258.687 L1085.21 258.687 L1085.21 272.715 Z" fill="#000000" fill-rule="nonzero" fill-opacity="1" /><path clip-path="url(#clip290)" d="M1111.19 268.78 L1115.44 268.78 L1115.44 294.706 L1111.19 294.706 L1111.19 268.78 M1111.19 258.687 L1115.44 258.687 L1115.44 264.081 L1111.19 264.081 L1111.19 258.687 Z" fill="#000000" fill-rule="nonzero" fill-opacity="1" /><path clip-path="url(#clip290)" d="M1145.91 279.057 L1145.91 294.706 L1141.65 294.706 L1141.65 279.196 Q1141.65 275.516 1140.21 273.687 Q1138.78 271.858 1135.91 271.858 Q1132.46 271.858 1130.47 274.058 Q1128.48 276.257 1128.48 280.053 L1128.48 294.706 L1124.19 294.706 L1124.19 268.78 L1128.48 268.78 L1128.48 272.808 Q1130 270.47 1132.06 269.312 Q1134.15 268.155 1136.86 268.155 Q1141.32 268.155 1143.62 270.933 Q1145.91 273.687 1145.91 279.057 Z" fill="#000000" fill-rule="nonzero" fill-opacity="1" /><path clip-path="url(#clip290)" d="M1154.4 268.78 L1158.66 268.78 L1158.66 294.706 L1154.4 294.706 L1154.4 268.78 M1154.4 258.687 L1158.66 258.687 L1158.66 264.081 L1154.4 264.081 L1154.4 258.687 Z" fill="#000000" fill-rule="nonzero" fill-opacity="1" /><path clip-path="url(#clip290)" d="M1189.12 279.057 L1189.12 294.706 L1184.87 294.706 L1184.87 279.196 Q1184.87 275.516 1183.43 273.687 Q1182 271.858 1179.12 271.858 Q1175.68 271.858 1173.68 274.058 Q1171.69 276.257 1171.69 280.053 L1171.69 294.706 L1167.41 294.706 L1167.41 268.78 L1171.69 268.78 L1171.69 272.808 Q1173.22 270.47 1175.28 269.312 Q1177.37 268.155 1180.07 268.155 Q1184.54 268.155 1186.83 270.933 Q1189.12 273.687 1189.12 279.057 Z" fill="#000000" fill-rule="nonzero" fill-opacity="1" /><path clip-path="url(#clip290)" d="M1214.68 281.442 Q1214.68 276.812 1212.76 274.266 Q1210.86 271.72 1207.41 271.72 Q1203.99 271.72 1202.06 274.266 Q1200.17 276.812 1200.17 281.442 Q1200.17 286.048 1202.06 288.594 Q1203.99 291.141 1207.41 291.141 Q1210.86 291.141 1212.76 288.594 Q1214.68 286.048 1214.68 281.442 M1218.94 291.488 Q1218.94 298.108 1216 301.326 Q1213.06 304.567 1206.99 304.567 Q1204.75 304.567 1202.76 304.219 Q1200.77 303.895 1198.89 303.201 L1198.89 299.057 Q1200.77 300.076 1202.6 300.562 Q1204.43 301.048 1206.32 301.048 Q1210.51 301.048 1212.6 298.849 Q1214.68 296.673 1214.68 292.252 L1214.68 290.145 Q1213.36 292.437 1211.3 293.571 Q1209.24 294.706 1206.37 294.706 Q1201.6 294.706 1198.68 291.071 Q1195.77 287.437 1195.77 281.442 Q1195.77 275.423 1198.68 271.789 Q1201.6 268.155 1206.37 268.155 Q1209.24 268.155 1211.3 269.289 Q1213.36 270.423 1214.68 272.715 L1214.68 268.78 L1218.94 268.78 L1218.94 291.488 Z" fill="#000000" fill-rule="nonzero" fill-opacity="1" /><path clip-path="url(#clip290)" d="M1242.97 260.146 L1262.83 260.146 L1262.83 264.081 L1247.64 264.081 L1247.64 274.266 L1261.35 274.266 L1261.35 278.201 L1247.64 278.201 L1247.64 294.706 L1242.97 294.706 L1242.97 260.146 Z" fill="#000000" fill-rule="nonzero" fill-opacity="1" /><path clip-path="url(#clip290)" d="M1277.48 281.673 Q1272.32 281.673 1270.33 282.854 Q1268.34 284.034 1268.34 286.882 Q1268.34 289.15 1269.82 290.493 Q1271.32 291.812 1273.89 291.812 Q1277.43 291.812 1279.56 289.312 Q1281.72 286.789 1281.72 282.622 L1281.72 281.673 L1277.48 281.673 M1285.98 279.914 L1285.98 294.706 L1281.72 294.706 L1281.72 290.77 Q1280.26 293.131 1278.08 294.266 Q1275.91 295.377 1272.76 295.377 Q1268.78 295.377 1266.42 293.155 Q1264.08 290.909 1264.08 287.159 Q1264.08 282.784 1266.99 280.562 Q1269.93 278.34 1275.74 278.34 L1281.72 278.34 L1281.72 277.923 Q1281.72 274.983 1279.77 273.386 Q1277.85 271.766 1274.36 271.766 Q1272.13 271.766 1270.03 272.298 Q1267.92 272.831 1265.98 273.895 L1265.98 269.96 Q1268.31 269.058 1270.51 268.618 Q1272.71 268.155 1274.8 268.155 Q1280.42 268.155 1283.2 271.071 Q1285.98 273.988 1285.98 279.914 Z" fill="#000000" fill-rule="nonzero" fill-opacity="1" /><path clip-path="url(#clip290)" d="M1294.75 268.78 L1299.01 268.78 L1299.01 294.706 L1294.75 294.706 L1294.75 268.78 M1294.75 258.687 L1299.01 258.687 L1299.01 264.081 L1294.75 264.081 L1294.75 258.687 Z" fill="#000000" fill-rule="nonzero" fill-opacity="1" /><path clip-path="url(#clip290)" d="M1322.94 272.761 Q1322.23 272.345 1321.37 272.159 Q1320.54 271.951 1319.52 271.951 Q1315.91 271.951 1313.96 274.312 Q1312.04 276.65 1312.04 281.048 L1312.04 294.706 L1307.76 294.706 L1307.76 268.78 L1312.04 268.78 L1312.04 272.808 Q1313.38 270.446 1315.54 269.312 Q1317.69 268.155 1320.77 268.155 Q1321.21 268.155 1321.74 268.224 Q1322.27 268.271 1322.92 268.386 L1322.94 272.761 Z" fill="#000000" fill-rule="nonzero" fill-opacity="1" /><path clip-path="url(#clip290)" d="M525.789 350.002 L820.693 350.002 L820.693 308.53 L525.789 308.53 L525.789 350.002  Z" fill="#c271d2" fill-rule="evenodd" fill-opacity="1"/>
<polyline clip-path="url(#clip290)" style="stroke:#000000; stroke-linecap:round; stroke-linejoin:round; stroke-width:4; stroke-opacity:1; fill:none" points="525.789,350.002 820.693,350.002 820.693,308.53 525.789,308.53 525.789,350.002 "/>
<path clip-path="url(#clip290)" d="M869.844 311.986 L889.705 311.986 L889.705 315.921 L874.52 315.921 L874.52 326.106 L888.224 326.106 L888.224 330.041 L874.52 330.041 L874.52 346.546 L869.844 346.546 L869.844 311.986 Z" fill="#000000" fill-rule="nonzero" fill-opacity="1" /><path clip-path="url(#clip290)" d="M896.927 310.527 L901.186 310.527 L901.186 346.546 L896.927 346.546 L896.927 310.527 Z" fill="#000000" fill-rule="nonzero" fill-opacity="1" /><path clip-path="url(#clip290)" d="M921.881 333.513 Q916.719 333.513 914.728 334.694 Q912.737 335.874 912.737 338.722 Q912.737 340.99 914.219 342.333 Q915.723 343.652 918.293 343.652 Q921.834 343.652 923.964 341.152 Q926.117 338.629 926.117 334.462 L926.117 333.513 L921.881 333.513 M930.376 331.754 L930.376 346.546 L926.117 346.546 L926.117 342.61 Q924.659 344.971 922.483 346.106 Q920.307 347.217 917.159 347.217 Q913.177 347.217 910.816 344.995 Q908.478 342.749 908.478 338.999 Q908.478 334.624 911.395 332.402 Q914.335 330.18 920.145 330.18 L926.117 330.18 L926.117 329.763 Q926.117 326.823 924.172 325.226 Q922.251 323.606 918.756 323.606 Q916.534 323.606 914.427 324.138 Q912.321 324.671 910.376 325.735 L910.376 321.8 Q912.714 320.898 914.913 320.458 Q917.112 319.995 919.196 319.995 Q924.821 319.995 927.598 322.911 Q930.376 325.828 930.376 331.754 Z" fill="#000000" fill-rule="nonzero" fill-opacity="1" /><path clip-path="url(#clip290)" d="M943.362 313.259 L943.362 320.62 L952.135 320.62 L952.135 323.93 L943.362 323.93 L943.362 338.004 Q943.362 341.175 944.219 342.078 Q945.098 342.981 947.76 342.981 L952.135 342.981 L952.135 346.546 L947.76 346.546 Q942.83 346.546 940.955 344.717 Q939.08 342.865 939.08 338.004 L939.08 323.93 L935.955 323.93 L935.955 320.62 L939.08 320.62 L939.08 313.259 L943.362 313.259 Z" fill="#000000" fill-rule="nonzero" fill-opacity="1" /><path clip-path="url(#clip290)" d="M998.871 314.648 L998.871 319.578 Q996.51 317.379 993.825 316.291 Q991.163 315.203 988.154 315.203 Q982.228 315.203 979.08 318.837 Q975.931 322.448 975.931 329.3 Q975.931 336.129 979.08 339.763 Q982.228 343.374 988.154 343.374 Q991.163 343.374 993.825 342.286 Q996.51 341.198 998.871 338.999 L998.871 343.884 Q996.417 345.55 993.663 346.384 Q990.931 347.217 987.876 347.217 Q980.029 347.217 975.515 342.425 Q971.001 337.61 971.001 329.3 Q971.001 320.967 975.515 316.175 Q980.029 311.361 987.876 311.361 Q990.978 311.361 993.709 312.194 Q996.464 313.004 998.871 314.648 Z" fill="#000000" fill-rule="nonzero" fill-opacity="1" /><path clip-path="url(#clip290)" d="M1015.95 323.606 Q1012.53 323.606 1010.54 326.291 Q1008.55 328.953 1008.55 333.606 Q1008.55 338.259 1010.51 340.944 Q1012.51 343.606 1015.95 343.606 Q1019.36 343.606 1021.35 340.921 Q1023.34 338.235 1023.34 333.606 Q1023.34 328.999 1021.35 326.314 Q1019.36 323.606 1015.95 323.606 M1015.95 319.995 Q1021.51 319.995 1024.68 323.606 Q1027.85 327.217 1027.85 333.606 Q1027.85 339.972 1024.68 343.606 Q1021.51 347.217 1015.95 347.217 Q1010.38 347.217 1007.2 343.606 Q1004.06 339.972 1004.06 333.606 Q1004.06 327.217 1007.2 323.606 Q1010.38 319.995 1015.95 319.995 Z" fill="#000000" fill-rule="nonzero" fill-opacity="1" /><path clip-path="url(#clip290)" d="M1055.1 325.597 Q1056.69 322.726 1058.92 321.361 Q1061.14 319.995 1064.15 319.995 Q1068.2 319.995 1070.4 322.842 Q1072.6 325.666 1072.6 330.897 L1072.6 346.546 L1068.32 346.546 L1068.32 331.036 Q1068.32 327.31 1067 325.504 Q1065.68 323.698 1062.97 323.698 Q1059.66 323.698 1057.74 325.898 Q1055.82 328.097 1055.82 331.893 L1055.82 346.546 L1051.53 346.546 L1051.53 331.036 Q1051.53 327.286 1050.21 325.504 Q1048.89 323.698 1046.14 323.698 Q1042.88 323.698 1040.95 325.921 Q1039.03 328.12 1039.03 331.893 L1039.03 346.546 L1034.75 346.546 L1034.75 320.62 L1039.03 320.62 L1039.03 324.648 Q1040.49 322.263 1042.53 321.129 Q1044.57 319.995 1047.37 319.995 Q1050.19 319.995 1052.16 321.43 Q1054.15 322.865 1055.1 325.597 Z" fill="#000000" fill-rule="nonzero" fill-opacity="1" /><path clip-path="url(#clip290)" d="M1099.7 333.606 Q1099.7 328.907 1097.76 326.245 Q1095.84 323.56 1092.46 323.56 Q1089.08 323.56 1087.13 326.245 Q1085.21 328.907 1085.21 333.606 Q1085.21 338.305 1087.13 340.99 Q1089.08 343.652 1092.46 343.652 Q1095.84 343.652 1097.76 340.99 Q1099.7 338.305 1099.7 333.606 M1085.21 324.555 Q1086.56 322.24 1088.59 321.129 Q1090.65 319.995 1093.5 319.995 Q1098.22 319.995 1101.16 323.745 Q1104.13 327.495 1104.13 333.606 Q1104.13 339.717 1101.16 343.467 Q1098.22 347.217 1093.5 347.217 Q1090.65 347.217 1088.59 346.106 Q1086.56 344.971 1085.21 342.657 L1085.21 346.546 L1080.93 346.546 L1080.93 310.527 L1085.21 310.527 L1085.21 324.555 Z" fill="#000000" fill-rule="nonzero" fill-opacity="1" /><path clip-path="url(#clip290)" d="M1111.19 320.62 L1115.44 320.62 L1115.44 346.546 L1111.19 346.546 L1111.19 320.62 M1111.19 310.527 L1115.44 310.527 L1115.44 315.921 L1111.19 315.921 L1111.19 310.527 Z" fill="#000000" fill-rule="nonzero" fill-opacity="1" /><path clip-path="url(#clip290)" d="M1145.91 330.897 L1145.91 346.546 L1141.65 346.546 L1141.65 331.036 Q1141.65 327.356 1140.21 325.527 Q1138.78 323.698 1135.91 323.698 Q1132.46 323.698 1130.47 325.898 Q1128.48 328.097 1128.48 331.893 L1128.48 346.546 L1124.19 346.546 L1124.19 320.62 L1128.48 320.62 L1128.48 324.648 Q1130 322.31 1132.06 321.152 Q1134.15 319.995 1136.86 319.995 Q1141.32 319.995 1143.62 322.773 Q1145.91 325.527 1145.91 330.897 Z" fill="#000000" fill-rule="nonzero" fill-opacity="1" /><path clip-path="url(#clip290)" d="M1154.4 320.62 L1158.66 320.62 L1158.66 346.546 L1154.4 346.546 L1154.4 320.62 M1154.4 310.527 L1158.66 310.527 L1158.66 315.921 L1154.4 315.921 L1154.4 310.527 Z" fill="#000000" fill-rule="nonzero" fill-opacity="1" /><path clip-path="url(#clip290)" d="M1189.12 330.897 L1189.12 346.546 L1184.87 346.546 L1184.87 331.036 Q1184.87 327.356 1183.43 325.527 Q1182 323.698 1179.12 323.698 Q1175.68 323.698 1173.68 325.898 Q1171.69 328.097 1171.69 331.893 L1171.69 346.546 L1167.41 346.546 L1167.41 320.62 L1171.69 320.62 L1171.69 324.648 Q1173.22 322.31 1175.28 321.152 Q1177.37 319.995 1180.07 319.995 Q1184.54 319.995 1186.83 322.773 Q1189.12 325.527 1189.12 330.897 Z" fill="#000000" fill-rule="nonzero" fill-opacity="1" /><path clip-path="url(#clip290)" d="M1214.68 333.282 Q1214.68 328.652 1212.76 326.106 Q1210.86 323.56 1207.41 323.56 Q1203.99 323.56 1202.06 326.106 Q1200.17 328.652 1200.17 333.282 Q1200.17 337.888 1202.06 340.434 Q1203.99 342.981 1207.41 342.981 Q1210.86 342.981 1212.76 340.434 Q1214.68 337.888 1214.68 333.282 M1218.94 343.328 Q1218.94 349.948 1216 353.166 Q1213.06 356.407 1206.99 356.407 Q1204.75 356.407 1202.76 356.059 Q1200.77 355.735 1198.89 355.041 L1198.89 350.897 Q1200.77 351.916 1202.6 352.402 Q1204.43 352.888 1206.32 352.888 Q1210.51 352.888 1212.6 350.689 Q1214.68 348.513 1214.68 344.092 L1214.68 341.985 Q1213.36 344.277 1211.3 345.411 Q1209.24 346.546 1206.37 346.546 Q1201.6 346.546 1198.68 342.911 Q1195.77 339.277 1195.77 333.282 Q1195.77 327.263 1198.68 323.629 Q1201.6 319.995 1206.37 319.995 Q1209.24 319.995 1211.3 321.129 Q1213.36 322.263 1214.68 324.555 L1214.68 320.62 L1218.94 320.62 L1218.94 343.328 Z" fill="#000000" fill-rule="nonzero" fill-opacity="1" /><path clip-path="url(#clip290)" d="M1242.97 311.986 L1262.83 311.986 L1262.83 315.921 L1247.64 315.921 L1247.64 326.106 L1261.35 326.106 L1261.35 330.041 L1247.64 330.041 L1247.64 346.546 L1242.97 346.546 L1242.97 311.986 Z" fill="#000000" fill-rule="nonzero" fill-opacity="1" /><path clip-path="url(#clip290)" d="M1277.48 333.513 Q1272.32 333.513 1270.33 334.694 Q1268.34 335.874 1268.34 338.722 Q1268.34 340.99 1269.82 342.333 Q1271.32 343.652 1273.89 343.652 Q1277.43 343.652 1279.56 341.152 Q1281.72 338.629 1281.72 334.462 L1281.72 333.513 L1277.48 333.513 M1285.98 331.754 L1285.98 346.546 L1281.72 346.546 L1281.72 342.61 Q1280.26 344.971 1278.08 346.106 Q1275.91 347.217 1272.76 347.217 Q1268.78 347.217 1266.42 344.995 Q1264.08 342.749 1264.08 338.999 Q1264.08 334.624 1266.99 332.402 Q1269.93 330.18 1275.74 330.18 L1281.72 330.18 L1281.72 329.763 Q1281.72 326.823 1279.77 325.226 Q1277.85 323.606 1274.36 323.606 Q1272.13 323.606 1270.03 324.138 Q1267.92 324.671 1265.98 325.735 L1265.98 321.8 Q1268.31 320.898 1270.51 320.458 Q1272.71 319.995 1274.8 319.995 Q1280.42 319.995 1283.2 322.911 Q1285.98 325.828 1285.98 331.754 Z" fill="#000000" fill-rule="nonzero" fill-opacity="1" /><path clip-path="url(#clip290)" d="M1294.75 320.62 L1299.01 320.62 L1299.01 346.546 L1294.75 346.546 L1294.75 320.62 M1294.75 310.527 L1299.01 310.527 L1299.01 315.921 L1294.75 315.921 L1294.75 310.527 Z" fill="#000000" fill-rule="nonzero" fill-opacity="1" /><path clip-path="url(#clip290)" d="M1322.94 324.601 Q1322.23 324.185 1321.37 323.999 Q1320.54 323.791 1319.52 323.791 Q1315.91 323.791 1313.96 326.152 Q1312.04 328.49 1312.04 332.888 L1312.04 346.546 L1307.76 346.546 L1307.76 320.62 L1312.04 320.62 L1312.04 324.648 Q1313.38 322.286 1315.54 321.152 Q1317.69 319.995 1320.77 319.995 Q1321.21 319.995 1321.74 320.064 Q1322.27 320.111 1322.92 320.226 L1322.94 324.601 Z" fill="#000000" fill-rule="nonzero" fill-opacity="1" /><path clip-path="url(#clip290)" d="M1339.59 311.986 L1344.31 311.986 L1351.58 341.198 L1358.82 311.986 L1364.08 311.986 L1371.35 341.198 L1378.59 311.986 L1383.34 311.986 L1374.66 346.546 L1368.78 346.546 L1361.48 316.546 L1354.12 346.546 L1348.24 346.546 L1339.59 311.986 Z" fill="#000000" fill-rule="nonzero" fill-opacity="1" /><path clip-path="url(#clip290)" d="M1388.31 320.62 L1392.57 320.62 L1392.57 346.546 L1388.31 346.546 L1388.31 320.62 M1388.31 310.527 L1392.57 310.527 L1392.57 315.921 L1388.31 315.921 L1388.31 310.527 Z" fill="#000000" fill-rule="nonzero" fill-opacity="1" /><path clip-path="url(#clip290)" d="M1405.7 313.259 L1405.7 320.62 L1414.47 320.62 L1414.47 323.93 L1405.7 323.93 L1405.7 338.004 Q1405.7 341.175 1406.55 342.078 Q1407.43 342.981 1410.1 342.981 L1414.47 342.981 L1414.47 346.546 L1410.1 346.546 Q1405.17 346.546 1403.29 344.717 Q1401.42 342.865 1401.42 338.004 L1401.42 323.93 L1398.29 323.93 L1398.29 320.62 L1401.42 320.62 L1401.42 313.259 L1405.7 313.259 Z" fill="#000000" fill-rule="nonzero" fill-opacity="1" /><path clip-path="url(#clip290)" d="M1441.62 330.897 L1441.62 346.546 L1437.36 346.546 L1437.36 331.036 Q1437.36 327.356 1435.93 325.527 Q1434.49 323.698 1431.62 323.698 Q1428.17 323.698 1426.18 325.898 Q1424.19 328.097 1424.19 331.893 L1424.19 346.546 L1419.91 346.546 L1419.91 310.527 L1424.19 310.527 L1424.19 324.648 Q1425.72 322.31 1427.78 321.152 Q1429.86 319.995 1432.57 319.995 Q1437.04 319.995 1439.33 322.773 Q1441.62 325.527 1441.62 330.897 Z" fill="#000000" fill-rule="nonzero" fill-opacity="1" /><path clip-path="url(#clip290)" d="M1491.25 314.648 L1491.25 319.578 Q1488.89 317.379 1486.21 316.291 Q1483.54 315.203 1480.54 315.203 Q1474.61 315.203 1471.46 318.837 Q1468.31 322.448 1468.31 329.3 Q1468.31 336.129 1471.46 339.763 Q1474.61 343.374 1480.54 343.374 Q1483.54 343.374 1486.21 342.286 Q1488.89 341.198 1491.25 338.999 L1491.25 343.884 Q1488.8 345.55 1486.04 346.384 Q1483.31 347.217 1480.26 347.217 Q1472.41 347.217 1467.9 342.425 Q1463.38 337.61 1463.38 329.3 Q1463.38 320.967 1467.9 316.175 Q1472.41 311.361 1480.26 311.361 Q1483.36 311.361 1486.09 312.194 Q1488.85 313.004 1491.25 314.648 Z" fill="#000000" fill-rule="nonzero" fill-opacity="1" /><path clip-path="url(#clip290)" d="M1508.34 323.606 Q1504.91 323.606 1502.92 326.291 Q1500.93 328.953 1500.93 333.606 Q1500.93 338.259 1502.9 340.944 Q1504.89 343.606 1508.34 343.606 Q1511.74 343.606 1513.73 340.921 Q1515.72 338.235 1515.72 333.606 Q1515.72 328.999 1513.73 326.314 Q1511.74 323.606 1508.34 323.606 M1508.34 319.995 Q1513.89 319.995 1517.06 323.606 Q1520.23 327.217 1520.23 333.606 Q1520.23 339.972 1517.06 343.606 Q1513.89 347.217 1508.34 347.217 Q1502.76 347.217 1499.59 343.606 Q1496.44 339.972 1496.44 333.606 Q1496.44 327.217 1499.59 323.606 Q1502.76 319.995 1508.34 319.995 Z" fill="#000000" fill-rule="nonzero" fill-opacity="1" /><path clip-path="url(#clip290)" d="M1547.48 325.597 Q1549.08 322.726 1551.3 321.361 Q1553.52 319.995 1556.53 319.995 Q1560.58 319.995 1562.78 322.842 Q1564.98 325.666 1564.98 330.897 L1564.98 346.546 L1560.7 346.546 L1560.7 331.036 Q1560.7 327.31 1559.38 325.504 Q1558.06 323.698 1555.35 323.698 Q1552.04 323.698 1550.12 325.898 Q1548.2 328.097 1548.2 331.893 L1548.2 346.546 L1543.91 346.546 L1543.91 331.036 Q1543.91 327.286 1542.6 325.504 Q1541.28 323.698 1538.52 323.698 Q1535.26 323.698 1533.34 325.921 Q1531.41 328.12 1531.41 331.893 L1531.41 346.546 L1527.13 346.546 L1527.13 320.62 L1531.41 320.62 L1531.41 324.648 Q1532.87 322.263 1534.91 321.129 Q1536.95 319.995 1539.75 319.995 Q1542.57 319.995 1544.54 321.43 Q1546.53 322.865 1547.48 325.597 Z" fill="#000000" fill-rule="nonzero" fill-opacity="1" /><path clip-path="url(#clip290)" d="M1592.09 333.606 Q1592.09 328.907 1590.14 326.245 Q1588.22 323.56 1584.84 323.56 Q1581.46 323.56 1579.52 326.245 Q1577.59 328.907 1577.59 333.606 Q1577.59 338.305 1579.52 340.99 Q1581.46 343.652 1584.84 343.652 Q1588.22 343.652 1590.14 340.99 Q1592.09 338.305 1592.09 333.606 M1577.59 324.555 Q1578.94 322.24 1580.97 321.129 Q1583.03 319.995 1585.88 319.995 Q1590.6 319.995 1593.54 323.745 Q1596.51 327.495 1596.51 333.606 Q1596.51 339.717 1593.54 343.467 Q1590.6 347.217 1585.88 347.217 Q1583.03 347.217 1580.97 346.106 Q1578.94 344.971 1577.59 342.657 L1577.59 346.546 L1573.31 346.546 L1573.31 310.527 L1577.59 310.527 L1577.59 324.555 Z" fill="#000000" fill-rule="nonzero" fill-opacity="1" /><path clip-path="url(#clip290)" d="M1603.57 320.62 L1607.83 320.62 L1607.83 346.546 L1603.57 346.546 L1603.57 320.62 M1603.57 310.527 L1607.83 310.527 L1607.83 315.921 L1603.57 315.921 L1603.57 310.527 Z" fill="#000000" fill-rule="nonzero" fill-opacity="1" /><path clip-path="url(#clip290)" d="M1638.29 330.897 L1638.29 346.546 L1634.03 346.546 L1634.03 331.036 Q1634.03 327.356 1632.59 325.527 Q1631.16 323.698 1628.29 323.698 Q1624.84 323.698 1622.85 325.898 Q1620.86 328.097 1620.86 331.893 L1620.86 346.546 L1616.58 346.546 L1616.58 320.62 L1620.86 320.62 L1620.86 324.648 Q1622.39 322.31 1624.45 321.152 Q1626.53 319.995 1629.24 319.995 Q1633.71 319.995 1636 322.773 Q1638.29 325.527 1638.29 330.897 Z" fill="#000000" fill-rule="nonzero" fill-opacity="1" /><path clip-path="url(#clip290)" d="M1668.96 332.518 L1668.96 334.601 L1649.38 334.601 Q1649.65 338.999 1652.02 341.314 Q1654.4 343.606 1658.64 343.606 Q1661.09 343.606 1663.38 343.004 Q1665.7 342.402 1667.96 341.198 L1667.96 345.226 Q1665.67 346.198 1663.27 346.708 Q1660.86 347.217 1658.38 347.217 Q1652.18 347.217 1648.54 343.606 Q1644.93 339.995 1644.93 333.837 Q1644.93 327.472 1648.36 323.745 Q1651.81 319.995 1657.64 319.995 Q1662.87 319.995 1665.9 323.374 Q1668.96 326.731 1668.96 332.518 M1664.7 331.268 Q1664.65 327.773 1662.73 325.689 Q1660.84 323.606 1657.69 323.606 Q1654.12 323.606 1651.97 325.62 Q1649.84 327.634 1649.52 331.291 L1664.7 331.268 Z" fill="#000000" fill-rule="nonzero" fill-opacity="1" /><path clip-path="url(#clip290)" d="M1690.97 324.601 Q1690.26 324.185 1689.4 323.999 Q1688.57 323.791 1687.55 323.791 Q1683.94 323.791 1681.99 326.152 Q1680.07 328.49 1680.07 332.888 L1680.07 346.546 L1675.79 346.546 L1675.79 320.62 L1680.07 320.62 L1680.07 324.648 Q1681.41 322.286 1683.57 321.152 Q1685.72 319.995 1688.8 319.995 Q1689.24 319.995 1689.77 320.064 Q1690.3 320.111 1690.95 320.226 L1690.97 324.601 Z" fill="#000000" fill-rule="nonzero" fill-opacity="1" /><path clip-path="url(#clip290)" d="M1731.41 313.12 L1731.41 317.68 Q1728.75 316.407 1726.39 315.782 Q1724.03 315.157 1721.83 315.157 Q1718.01 315.157 1715.93 316.638 Q1713.87 318.12 1713.87 320.851 Q1713.87 323.143 1715.23 324.323 Q1716.62 325.481 1720.46 326.198 L1723.29 326.777 Q1728.52 327.773 1731 330.296 Q1733.5 332.796 1733.5 337.009 Q1733.5 342.032 1730.12 344.624 Q1726.76 347.217 1720.26 347.217 Q1717.8 347.217 1715.02 346.661 Q1712.27 346.106 1709.31 345.018 L1709.31 340.203 Q1712.15 341.8 1714.89 342.61 Q1717.62 343.421 1720.26 343.421 Q1724.26 343.421 1726.44 341.847 Q1728.61 340.272 1728.61 337.356 Q1728.61 334.81 1727.04 333.374 Q1725.49 331.939 1721.92 331.222 L1719.08 330.666 Q1713.84 329.624 1711.51 327.402 Q1709.17 325.18 1709.17 321.222 Q1709.17 316.638 1712.39 313.999 Q1715.63 311.361 1721.3 311.361 Q1723.73 311.361 1726.25 311.8 Q1728.77 312.24 1731.41 313.12 Z" fill="#000000" fill-rule="nonzero" fill-opacity="1" /><path clip-path="url(#clip290)" d="M1740.6 310.527 L1744.86 310.527 L1744.86 346.546 L1740.6 346.546 L1740.6 310.527 Z" fill="#000000" fill-rule="nonzero" fill-opacity="1" /><path clip-path="url(#clip290)" d="M1753.77 320.62 L1758.03 320.62 L1758.03 346.546 L1753.77 346.546 L1753.77 320.62 M1753.77 310.527 L1758.03 310.527 L1758.03 315.921 L1753.77 315.921 L1753.77 310.527 Z" fill="#000000" fill-rule="nonzero" fill-opacity="1" /><path clip-path="url(#clip290)" d="M1785.6 321.615 L1785.6 325.597 Q1783.8 324.601 1781.97 324.115 Q1780.16 323.606 1778.31 323.606 Q1774.17 323.606 1771.88 326.245 Q1769.58 328.86 1769.58 333.606 Q1769.58 338.351 1771.88 340.99 Q1774.17 343.606 1778.31 343.606 Q1780.16 343.606 1781.97 343.12 Q1783.8 342.61 1785.6 341.615 L1785.6 345.55 Q1783.82 346.384 1781.9 346.8 Q1780 347.217 1777.85 347.217 Q1771.99 347.217 1768.54 343.536 Q1765.09 339.856 1765.09 333.606 Q1765.09 327.263 1768.57 323.629 Q1772.06 319.995 1778.13 319.995 Q1780.09 319.995 1781.97 320.411 Q1783.84 320.805 1785.6 321.615 Z" fill="#000000" fill-rule="nonzero" fill-opacity="1" /><path clip-path="url(#clip290)" d="M1815.19 332.518 L1815.19 334.601 L1795.6 334.601 Q1795.88 338.999 1798.24 341.314 Q1800.63 343.606 1804.86 343.606 Q1807.32 343.606 1809.61 343.004 Q1811.92 342.402 1814.19 341.198 L1814.19 345.226 Q1811.9 346.198 1809.49 346.708 Q1807.08 347.217 1804.61 347.217 Q1798.4 347.217 1794.77 343.606 Q1791.16 339.995 1791.16 333.837 Q1791.16 327.472 1794.58 323.745 Q1798.03 319.995 1803.87 319.995 Q1809.1 319.995 1812.13 323.374 Q1815.19 326.731 1815.19 332.518 M1810.93 331.268 Q1810.88 327.773 1808.96 325.689 Q1807.06 323.606 1803.91 323.606 Q1800.35 323.606 1798.2 325.62 Q1796.07 327.634 1795.74 331.291 L1810.93 331.268 Z" fill="#000000" fill-rule="nonzero" fill-opacity="1" /><path clip-path="url(#clip290)" d="M525.789 401.842 L820.693 401.842 L820.693 360.37 L525.789 360.37 L525.789 401.842  Z" fill="#ac8d18" fill-rule="evenodd" fill-opacity="1"/>
<polyline clip-path="url(#clip290)" style="stroke:#000000; stroke-linecap:round; stroke-linejoin:round; stroke-width:4; stroke-opacity:1; fill:none" points="525.789,401.842 820.693,401.842 820.693,360.37 525.789,360.37 525.789,401.842 "/>
<path clip-path="url(#clip290)" d="M869.844 363.826 L876.812 363.826 L885.631 387.344 L894.497 363.826 L901.464 363.826 L901.464 398.386 L896.904 398.386 L896.904 368.038 L887.992 391.742 L883.293 391.742 L874.381 368.038 L874.381 398.386 L869.844 398.386 L869.844 363.826 Z" fill="#000000" fill-rule="nonzero" fill-opacity="1" /><path clip-path="url(#clip290)" d="M910.122 388.154 L910.122 372.46 L914.381 372.46 L914.381 387.992 Q914.381 391.673 915.816 393.524 Q917.251 395.353 920.122 395.353 Q923.571 395.353 925.561 393.154 Q927.575 390.955 927.575 387.159 L927.575 372.46 L931.834 372.46 L931.834 398.386 L927.575 398.386 L927.575 394.404 Q926.024 396.765 923.964 397.923 Q921.927 399.057 919.219 399.057 Q914.751 399.057 912.436 396.279 Q910.122 393.501 910.122 388.154 M920.839 371.835 L920.839 371.835 Z" fill="#000000" fill-rule="nonzero" fill-opacity="1" /><path clip-path="url(#clip290)" d="M944.82 365.099 L944.82 372.46 L953.594 372.46 L953.594 375.77 L944.82 375.77 L944.82 389.844 Q944.82 393.015 945.677 393.918 Q946.557 394.821 949.219 394.821 L953.594 394.821 L953.594 398.386 L949.219 398.386 Q944.288 398.386 942.413 396.557 Q940.538 394.705 940.538 389.844 L940.538 375.77 L937.413 375.77 L937.413 372.46 L940.538 372.46 L940.538 365.099 L944.82 365.099 Z" fill="#000000" fill-rule="nonzero" fill-opacity="1" /><path clip-path="url(#clip290)" d="M981.371 384.358 L981.371 386.441 L961.788 386.441 Q962.066 390.839 964.427 393.154 Q966.811 395.446 971.047 395.446 Q973.501 395.446 975.793 394.844 Q978.107 394.242 980.376 393.038 L980.376 397.066 Q978.084 398.038 975.677 398.548 Q973.269 399.057 970.793 399.057 Q964.589 399.057 960.955 395.446 Q957.344 391.835 957.344 385.677 Q957.344 379.312 960.769 375.585 Q964.219 371.835 970.052 371.835 Q975.283 371.835 978.316 375.214 Q981.371 378.571 981.371 384.358 M977.112 383.108 Q977.066 379.613 975.144 377.529 Q973.246 375.446 970.098 375.446 Q966.533 375.446 964.381 377.46 Q962.251 379.474 961.927 383.131 L977.112 383.108 Z" fill="#000000" fill-rule="nonzero" fill-opacity="1" /><path clip-path="url(#clip290)" d="M1009.08 372.46 L999.704 385.075 L1009.57 398.386 L1004.54 398.386 L996.996 388.2 L989.45 398.386 L984.427 398.386 L994.496 384.821 L985.283 372.46 L990.306 372.46 L997.181 381.696 L1004.06 372.46 L1009.08 372.46 Z" fill="#000000" fill-rule="nonzero" fill-opacity="1" /><path clip-path="url(#clip290)" d="M525.789 453.682 L820.693 453.682 L820.693 412.21 L525.789 412.21 L525.789 453.682  Z" fill="#00a9ad" fill-rule="evenodd" fill-opacity="1"/>
<polyline clip-path="url(#clip290)" style="stroke:#000000; stroke-linecap:round; stroke-linejoin:round; stroke-width:4; stroke-opacity:1; fill:none" points="525.789,453.682 820.693,453.682 820.693,412.21 525.789,412.21 525.789,453.682 "/>
<path clip-path="url(#clip290)" d="M886.233 434.022 Q887.737 434.531 889.149 436.198 Q890.585 437.865 892.02 440.781 L896.765 450.226 L891.742 450.226 L887.321 441.36 Q885.608 437.888 883.987 436.753 Q882.39 435.619 879.612 435.619 L874.52 435.619 L874.52 450.226 L869.844 450.226 L869.844 415.666 L880.4 415.666 Q886.325 415.666 889.242 418.142 Q892.159 420.619 892.159 425.619 Q892.159 428.883 890.631 431.036 Q889.126 433.189 886.233 434.022 M874.52 419.508 L874.52 431.777 L880.4 431.777 Q883.779 431.777 885.492 430.226 Q887.228 428.652 887.228 425.619 Q887.228 422.587 885.492 421.059 Q883.779 419.508 880.4 419.508 L874.52 419.508 Z" fill="#000000" fill-rule="nonzero" fill-opacity="1" /><path clip-path="url(#clip290)" d="M926.302 418.328 L926.302 423.258 Q923.941 421.059 921.256 419.971 Q918.594 418.883 915.585 418.883 Q909.659 418.883 906.51 422.517 Q903.362 426.128 903.362 432.98 Q903.362 439.809 906.51 443.443 Q909.659 447.054 915.585 447.054 Q918.594 447.054 921.256 445.966 Q923.941 444.878 926.302 442.679 L926.302 447.564 Q923.848 449.23 921.094 450.064 Q918.362 450.897 915.307 450.897 Q907.46 450.897 902.946 446.105 Q898.432 441.29 898.432 432.98 Q898.432 424.647 902.946 419.855 Q907.46 415.041 915.307 415.041 Q918.409 415.041 921.14 415.874 Q923.895 416.684 926.302 418.328 Z" fill="#000000" fill-rule="nonzero" fill-opacity="1" /><path clip-path="url(#clip290)" d="M933.524 415.666 L938.2 415.666 L938.2 446.29 L955.029 446.29 L955.029 450.226 L933.524 450.226 L933.524 415.666 Z" fill="#000000" fill-rule="nonzero" fill-opacity="1" /></svg>
